<?xml version="1.0" encoding="utf-8"?>
<!-- Generator: Adobe Illustrator 25.4.1, SVG Export Plug-In . SVG Version: 6.00 Build 0)  -->
<svg version="1.1" id="Layer_1" xmlns="http://www.w3.org/2000/svg" xmlns:xlink="http://www.w3.org/1999/xlink" x="0px" y="0px"
	 viewBox="0 0 113.37 106.21" style="enable-background:new 0 0 113.37 106.21;" xml:space="preserve">
<style type="text/css">
	.st0{clip-path:url(#SVGID_00000074414880456914576310000007128407259120329880_);fill:#328612;}
	.st1{clip-path:url(#SVGID_00000111189950632826095780000004349779737349815962_);fill:#338712;}
	.st2{clip-path:url(#SVGID_00000047760393354325309360000010478844169230107783_);fill:#338712;}
	.st3{clip-path:url(#SVGID_00000094587287413680600720000003495181326964084624_);fill:#338712;}
	.st4{clip-path:url(#SVGID_00000124880790500237353440000009667634588642413455_);fill:#338712;}
	.st5{clip-path:url(#SVGID_00000017496117000799960300000017961401600308067214_);fill:#338712;}
	.st6{clip-path:url(#SVGID_00000019665433857061186670000003806949896476415902_);fill:#328612;}
	.st7{clip-path:url(#SVGID_00000105397038323195646150000014157799979007958686_);fill:#328612;}
	.st8{clip-path:url(#SVGID_00000172416576202103491970000006731914260280737681_);fill:#328612;}
	.st9{clip-path:url(#SVGID_00000056427635260747446930000014880968560372682906_);fill:#328612;}
	.st10{clip-path:url(#SVGID_00000014608000546681899360000015996557549236726462_);fill:#328612;}
	.st11{clip-path:url(#SVGID_00000000218469942684248070000010005689577019244449_);fill:#328612;}
	.st12{fill:#328612;}
</style>
<g>
	<defs>
		<rect id="SVGID_1_" width="113.37" height="106.21"/>
	</defs>
	<clipPath id="SVGID_00000087412153593145029120000012568611128963333282_">
		<use xlink:href="#SVGID_1_"  style="overflow:visible;"/>
	</clipPath>
	<path style="clip-path:url(#SVGID_00000087412153593145029120000012568611128963333282_);fill:#328612;" d="M14.67,85.2
		c7.22,10.23,15.69,17.49,28.21,19.98c14.57,2.89,31.47-0.46,43.93-8.43c1.14-0.73,0.89-3.62-0.51-2.73
		c-20.46,13.09-50.09,13.37-66.33-6.1C12.26,78.69,2.37,67.83,3.31,55.2c1.02-13.77,5.9-27.05,15.06-37.4
		c-0.4,5.3-0.25,10.21,0.73,15.64c0.26,1.43,3.1,0.67,2.84-0.79c-1.12-6.22-1.09-11.78-0.4-18.05c0.11-0.96-1.08-1.1-1.74-0.97
		c-2.87,0.57-5.75,1.11-8.66,1.45c-3.03,0.36-6.26-0.33-9.26-0.76c-1.5-0.21-2.83,1.96-0.92,2.24C4.01,17,7.2,17.57,10.31,17.4
		c1.98-0.11,3.97-0.44,5.94-0.82c-9,10.48-13.03,22.9-14.93,36.57C-0.62,67.09,7.17,74.57,14.67,85.2"/>
	<path style="clip-path:url(#SVGID_00000087412153593145029120000012568611128963333282_);fill:#328612;" d="M99.14,18.06
		C89.07,7.6,78.96,1.59,64.35,0.33C51.07-0.81,37.48,0.83,26.06,8c-1.63,1.02,0.65,2.28,1.9,1.49C39.82,2.04,54.32,1.38,67.9,3.01
		c13.39,1.6,23.29,9.93,31.76,19.84c16.29,19.07,10.65,47.31-4.8,65.18c-0.01-5.42-0.55-10.37-1.99-15.8
		c-0.49-1.87-2.52-0.75-2.1,0.87c1.61,6.08,2.03,11.58,1.84,17.86c-0.03,0.8,0.62,1.6,1.45,1.36c6.29-1.79,11.73-2.58,18.27-2.18
		c1.45,0.09,1.36-2.85-0.12-2.94c-5.18-0.33-9.67,0.12-14.4,1.17c8.68-10.36,13.04-22.9,14.69-36.28
		C114.1,39.24,107.83,27.09,99.14,18.06"/>
	<path style="clip-path:url(#SVGID_00000087412153593145029120000012568611128963333282_);fill:#328612;" d="M91.81,24.62
		c0.91,1.26,2.76-1.01,1.94-2.16c-1.57-2.18-3.43-4.08-5.54-5.75c-1.13-0.89-2.65,1.62-1.48,2.54
		C88.67,20.8,90.35,22.61,91.81,24.62"/>
	<path style="clip-path:url(#SVGID_00000087412153593145029120000012568611128963333282_);fill:#328612;" d="M38.06,38.44
		c0.12-0.02,0.25-0.04,0.37-0.06c-0.06,0.3-0.03,0.61,0.18,0.81c9.14,9.09,17.54,18.79,25.97,28.53c0.67,0.78,1.65-0.62,1.1-1.25
		c-8.37-9.67-16.72-19.28-25.76-28.32c1.69-0.22,3.39-0.34,5.09-0.38c5.4,4.76,9.37,9.7,13.5,15.76c3.12,4.58,7.07,8.17,11.22,11.71
		c-0.15,0.03-0.3,0.07-0.45,0.11c-0.59,0.15-0.94,0.73-1.02,1.31c-0.01,0.04-0.04,0.08-0.05,0.12c-0.68,3.63-0.77,6.29-0.47,9.41
		c-3.3-2.67-6.56-5.36-9.62-8.32c-3.08-2.98-6.16-3.65-10.61-3.34c-1.38,0.1-2.76,0.19-4.14,0.29c-2.92-3.58-5.9-6.75-9.51-9.64
		c0.07-0.82,0.14-1.53,0.16-2.03c0.04-1.07,0.13-2.17,0.18-3.27c4.5,3.9,8.28,8.02,11.94,12.87c0.49,0.65,2.21,0.35,1.6-0.44
		c-4.08-5.42-8.31-9.99-13.53-14.32c-0.01-0.25,0-0.51-0.02-0.76c-0.17-2.27-0.64-4.56,0.08-6.27c3.73,4.22,6.68,9.02,10.52,13.17
		c3.77,4.08,8.14,7.54,12.37,11.12c0.77,0.65,1.19-1.04,0.56-1.57c-4.54-3.85-9.09-7.63-13.14-12.01
		c-3.46-3.74-6.07-8.15-9.42-11.99C35.78,39.12,36.71,38.69,38.06,38.44 M52.03,37.89c5.18,3.76,8.27,8.47,11.94,13.84
		c3.23,4.73,6.99,8.26,11.48,11.75c0.04,0.03,0.1,0.05,0.15,0.07c-1.1,0.72-2.56,1.03-4.06,1.32c-5.75-4.88-10.5-9.72-14.53-16.18
		c-2.67-4.27-6.1-7.69-9.79-10.94C48.82,37.75,50.42,37.81,52.03,37.89 M65.54,38.31c0.03,0.08,0.07,0.16,0.15,0.24
		c3.43,3.64,6.6,6.68,11.06,8.99c0.07,0.03,0.14,0.05,0.21,0.06c-0.13,1.31-0.22,2.61-0.09,3.93c0.08,0.74,0.15,1.48,0.22,2.21
		c-4.38-2.34-7.09-5.16-9.81-9.31c-1.66-2.54-3.62-4.43-5.86-6.11C62.79,38.36,64.17,38.36,65.54,38.31 M77.24,45.12
		c-0.04,0.35-0.08,0.7-0.12,1.05c-3.8-2.1-6.68-4.8-9.68-7.95c0.57-0.04,1.14-0.08,1.72-0.14C74.13,37.56,77.79,39.56,77.24,45.12
		 M76.77,62.38c-5.26-4.09-9.3-8.35-12.94-14.02c-2.61-4.06-5.31-7.42-8.84-10.32c1.21,0.07,2.42,0.13,3.64,0.19
		c3.13,2.17,5.61,4.6,7.81,7.95c2.61,3.99,5.4,6.43,9.54,8.63c0.36,0.19,0.87,0.08,1.2-0.15c0.14,1.5,0.26,3.01,0.3,4.53
		C77.53,60.6,77.26,61.62,76.77,62.38 M33.72,57.14c2.89,2.38,5.38,4.97,7.78,7.82c-1.1,0.08-2.2,0.16-3.3,0.23
		C33.93,65.49,33.53,60.91,33.72,57.14 M33.69,66.62c2.08,2.08,5.89,1.19,8.43,1.01c4.14-0.29,7.66-0.19,11.79,0.31
		c1.75,0.21,4.41,4.34,5.98,5.61c2.92,2.37,5.85,4.75,8.77,7.12c0.93,0.76,2.09-0.94,1.97-1.75c-0.62-4.19-0.83-7.21-0.22-11.15
		c2.4-0.26,4.86,0.74,6.93-1.33c2.87-2.88,2.66-5.67,2.54-9.49c-0.09-2.76-0.88-5.6-0.6-8.34c0.37-3.75,1.43-7.53-0.36-11
		c-2.99-5.76-13.5-1.03-18.12-1.46c-6.61-0.62-13.41-2.1-19.97-0.9c-3.01,0.55-5.83,0.55-8.19,2.63c-2.28,2.01-1.09,6.91-0.91,9.38
		C32.15,53.22,29,61.93,33.69,66.62"/>
</g>
</svg>
