<?xml version="1.0" encoding="utf-8"?>
<!-- Generator: Adobe Illustrator 25.4.1, SVG Export Plug-In . SVG Version: 6.00 Build 0)  -->
<svg version="1.1" id="Layer_1" xmlns="http://www.w3.org/2000/svg" xmlns:xlink="http://www.w3.org/1999/xlink" x="0px" y="0px"
	 viewBox="0 0 113.37 106.21" style="enable-background:new 0 0 113.37 106.21;" xml:space="preserve">
<style type="text/css">
	.st0{clip-path:url(#SVGID_00000039851778802629307490000002161565407715469456_);fill:#328612;}
	.st1{clip-path:url(#SVGID_00000029732383601699715590000006613974358331847346_);fill:#338712;}
	.st2{clip-path:url(#SVGID_00000022549411672445638010000010895386885743127196_);fill:#338712;}
	.st3{clip-path:url(#SVGID_00000109714194751788669440000001823821560532823728_);fill:#338712;}
	.st4{clip-path:url(#SVGID_00000084516126658420703410000012016021490948166550_);fill:#338712;}
	.st5{clip-path:url(#SVGID_00000072972329517478060470000003103031201969816960_);fill:#338712;}
	.st6{clip-path:url(#SVGID_00000091714499023862210360000003114463743085635483_);fill:#328612;}
	.st7{clip-path:url(#SVGID_00000063591939301600533410000009811174717435780739_);fill:#328612;}
	.st8{clip-path:url(#SVGID_00000098211803817417265180000011335379196767426695_);fill:#328612;}
	.st9{clip-path:url(#SVGID_00000104670378941390694430000004361258656161327275_);fill:#328612;}
	.st10{clip-path:url(#SVGID_00000145773618010668251230000009078570924932725176_);fill:#328612;}
	.st11{clip-path:url(#SVGID_00000096027501075137579920000000657090867768580283_);fill:#328612;}
	.st12{fill:#328612;}
</style>
<g>
	<defs>
		<rect id="SVGID_00000001640796145421033730000010725859246524385446_" x="-0.01" y="-0.15" width="113.49" height="106.21"/>
	</defs>
	<clipPath id="SVGID_00000039819925323866590400000017758169776159249845_">
		<use xlink:href="#SVGID_00000001640796145421033730000010725859246524385446_"  style="overflow:visible;"/>
	</clipPath>
	<path style="clip-path:url(#SVGID_00000039819925323866590400000017758169776159249845_);fill:#338712;" d="M35.09,13.28
		c-1.81,1.43-3.37,3.11-4.72,4.98c-0.72,0.99,0.57,2.94,1.49,1.66c1.24-1.72,2.71-3.23,4.38-4.55
		C37.17,14.62,36.24,12.37,35.09,13.28"/>
	<path style="clip-path:url(#SVGID_00000039819925323866590400000017758169776159249845_);fill:#338712;" d="M102.76,86.22
		c-0.13-0.36-0.27-0.72-0.44-1.07c-0.3-0.6-0.75-1.06-1.2-1.54c-0.55-0.57-1.29,0.74-0.79,1.26c0.51,0.53,0.84,1.08,1.11,1.67
		c-4.57,0.68-7.96-3.17-8.15-7.8c-0.11-2.61,0.68-5.41,2.29-7.51c0.59-0.15,1.1-0.61,1-1.1c0.78-0.73,1.69-1.32,2.73-1.71
		c5.12-1.88,11.17,2.57,11.65,7.58c-0.09,1.35-0.45,2.62-0.98,3.79c-0.33-0.26-0.63-0.55-0.91-0.93c-0.48-0.66-1.63,0.3-1.21,0.88
		c0.33,0.45,0.64,0.87,1.08,1.22c0.09,0.08,0.2,0.13,0.3,0.19c-0.64,1-1.42,1.9-2.34,2.68c-0.38-0.33-0.75-0.67-1.07-1.07
		c-0.5-0.62-0.81-1.35-1.16-2.06c-0.16-0.33-0.59-0.3-0.8-0.06c-0.27,0.31-0.24,0.73-0.08,1.07c0.39,0.79,0.76,1.56,1.31,2.25
		c0.21,0.26,0.45,0.49,0.69,0.72c-0.73,0.5-1.51,0.95-2.35,1.3C103.21,86.08,102.99,86.14,102.76,86.22 M17.96,39.46
		C17.42,18.7,35.43,2.79,55.34,2.34c19.9-0.45,38.38,14.15,38.88,34.62c-0.11,5.22-1.15,10.25-2.99,14.86
		c-1.2-0.54-2.37-0.94-3.69-1.19c-0.7-0.13-1.34,1.19-0.47,1.35c1.29,0.24,2.42,0.66,3.59,1.21c-0.56,1.26-1.18,2.49-1.86,3.68
		c-1.41-1.01-2.77-2.06-4.05-3.25c-0.65-0.6-1.29,0.72-0.77,1.2c1.3,1.2,2.66,2.26,4.09,3.29c-0.71,1.15-1.49,2.25-2.31,3.32
		c-1.03-1.03-2.1-1.92-3.38-2.73c-0.6-0.38-1.77,0.52-1.03,0.99c1.34,0.84,2.42,1.78,3.49,2.89c-0.8,0.96-1.66,1.87-2.55,2.74
		c-0.92-1.02-1.8-2.06-2.55-3.24c-0.41-0.64-1.77,0.01-1.37,0.64c0.83,1.31,1.81,2.47,2.84,3.61c-0.87,0.78-1.77,1.52-2.71,2.21
		c-0.7-0.97-1.45-1.85-2.37-2.69c-0.58-0.53-1.7,0.11-0.97,0.77c0.9,0.82,1.61,1.7,2.28,2.66c-0.97,0.66-1.99,1.28-3.03,1.85
		c-0.72-1.33-1.36-2.66-1.84-4.12c-0.31-0.94-1.32-0.12-1.07,0.63c0.48,1.44,1.08,2.76,1.78,4.07c-1.29,0.64-2.61,1.21-3.99,1.69
		c-0.25-0.89-0.42-1.78-0.49-2.76c-0.06-0.87-1.24-1.02-1.17-0.03c0.08,1.11,0.28,2.13,0.57,3.14c-3.14,0.98-6.49,1.56-10.03,1.65
		C38.02,75.9,18.49,60.08,17.96,39.46 M65.52,93.3c-0.16-0.08-0.31-0.15-0.49-0.22c-0.71-0.26-1.42,1.07-0.72,1.33
		c0.37,0.14,0.74,0.26,1.08,0.46c-0.26,1.49-0.83,2.85-1.62,4.07c-1.05-1.21-2.2-2.28-3.43-3.36c-0.71-0.62-1.07,0.75-0.53,1.23
		c1.16,1.01,2.24,2.01,3.22,3.14c-0.84,1.02-1.85,1.89-2.99,2.62c-0.14-0.26-0.28-0.51-0.48-0.76c-0.44-0.57-0.98-1.07-1.49-1.58
		c-0.52-0.53-1.46,0.66-0.92,1.2c0.61,0.61,1.15,1.18,1.59,1.86c-0.24,0.12-0.48,0.25-0.73,0.36c-1.01,0.42-1.95,0.58-2.82,0.54
		c-0.67-1.14-1.22-2.23-1.55-3.55c-0.21-0.86-1.47-0.11-1.3,0.58c0.23,0.92,0.55,1.73,0.93,2.52c-2.84-1.25-4.62-4.84-5.22-7.96
		c-1.05-5.45,3.11-8.83,8-9.78c0.02,0,0.05-0.01,0.07-0.01c0.24,0.08,0.54,0.03,0.82-0.12C61.85,85.33,65.18,88.43,65.52,93.3
		 M11.08,86.23c-1.17-0.21-2.26-0.7-3.27-1.35c-0.2-0.41-0.4-0.82-0.5-1.28c-0.12-0.56-0.05-1.13-0.03-1.69
		c0.04-0.94-1.09-1.03-1.13-0.08c-0.03,0.59-0.06,1.15,0,1.72c-1.87-1.81-3.2-4.25-3.64-6.62C0.86,68,13.42,65.86,18.3,71.49
		c0.06,0.28,0.23,0.5,0.47,0.6c0.8,1.13,1.32,2.53,1.41,4.2c-0.02,0.5-0.07,1.02-0.14,1.53c-0.41-0.4-0.86-0.77-1.34-1.15
		c-0.75-0.58-1.1,0.78-0.53,1.23c0.6,0.46,1.12,0.91,1.59,1.43c-0.33,1.41-0.87,2.76-1.63,3.9c-0.07-0.11-0.12-0.23-0.21-0.34
		c-0.44-0.57-0.99-1.06-1.49-1.58c-0.52-0.53-1.46,0.66-0.92,1.2c0.63,0.63,1.2,1.22,1.64,1.94c-0.85,0.86-1.9,1.48-3.15,1.75
		c-0.01-0.03-0.01-0.06-0.03-0.08c-0.86-1.44-1.56-2.77-1.98-4.4c-0.22-0.85-1.48-0.11-1.3,0.58c0.38,1.49,0.97,2.75,1.71,4.05
		C11.98,86.35,11.54,86.31,11.08,86.23 M113.44,76.06c0-0.03,0.02-0.06,0.01-0.09c-0.43-6.19-6.93-10.07-12.82-9.66
		c-2.34,0.16-4.25,1.04-5.75,2.35c-2.6-1.88-5.11-3.8-7.37-6.12c-0.01-0.02-0.03-0.03-0.05-0.04c5.36-7.35,8.49-16.53,8.68-25.69
		C95.62,14.52,76.87,0.27,55.51-0.14C33.58-0.56,16.5,18.45,16.02,39.62c-0.22,9.67,3.67,18.01,9.82,24.41
		c-1.87,2.01-3.82,3.76-5.99,5.4C13.92,63.57,0.56,66.11,0,76.29c-0.35,6.42,6.42,11.77,12.28,12.14
		c6.73,0.43,10.14-6.93,10.35-12.55c-0.11-1.96-0.68-3.61-1.56-4.96c2.21-1.69,4.2-3.5,6.12-5.56c7.54,7.16,17.99,11.62,28.42,12.4
		c-0.25,2.18-0.42,4.22-0.17,6.35c-5.05,0.74-9.7,4.17-10.07,9.54c-0.42,6.1,3.89,11.95,10.03,12.38
		c6.5,0.45,12.29-6.17,12.67-12.22c-0.24-6.12-3.97-9.61-10.03-9.85c-0.1,0-0.2,0-0.3,0c-0.35-2.07-0.24-4.02-0.01-6.09
		c0.09,0,0.18,0.01,0.26,0.01c11.59,0.24,21.34-5.3,28.09-13.58c2.27,2.22,4.75,4.12,7.33,5.98c-1.86,2.52-2.71,5.91-2.58,9.26
		c0.22,5.45,4.93,9.17,10.27,8.83c6.39-0.4,11.97-5.69,12.38-12.15C113.47,76.16,113.45,76.12,113.44,76.06"/>
	<path style="clip-path:url(#SVGID_00000039819925323866590400000017758169776159249845_);fill:#338712;" d="M57.77,56.71
		c-0.19,0-0.38,0-0.57-0.01c-0.63-0.98-1.24-1.97-1.94-2.9c-0.81-1.09-1.62-1.74-2.84-2.29c-0.31-0.14-0.67,0.05-0.89,0.33
		c-0.01-0.18-0.02-0.36-0.02-0.55c0-0.71,0.02-1.43,0.03-2.15c0.06,0,0.11,0.01,0.18,0c0.77-0.12,1.51-0.24,2.25-0.34
		c-0.07,0.3-0.04,0.64,0.16,0.84c2.18,2.14,4.31,4.26,6.24,6.61C59.7,56.55,58.85,56.71,57.77,56.71 M51.59,52.75L51.59,52.75
		c1.14,0.52,1.81,1.12,2.59,2.12c0.42,0.54,0.8,1.12,1.18,1.71C53.08,56.26,51.89,55.29,51.59,52.75 M62.78,52.22
		c-1.09-1.02-1.77-2.34-2.39-3.7c0.81,0.08,1.63,0.24,2.47,0.45C62.87,50.1,62.88,51.21,62.78,52.22 M61.48,55.53
		c-1.97-2.45-4.16-4.66-6.41-6.88c1.25-0.15,2.48-0.25,3.72-0.23c0.83,1.81,1.65,3.6,3.25,4.85c0.15,0.12,0.34,0.16,0.54,0.16
		C62.38,54.26,62.05,54.98,61.48,55.53 M44.59,37.76c-2.8-3.47-0.67-9.4,1.01-12.78c2.02-4.07,5.82-6.6,10.3-6.93
		c8.11,0.46,16.41,6.35,14.81,15.41c-0.77,4.38-5.32,5.7-7.04,9.36c-0.58,1.23-0.75,2.68-0.8,4.16c-3.83-0.76-7.36-0.34-11.33,0.28
		c-0.04-1.18-0.16-2.35-0.51-3.49C50.16,41,46.31,39.9,44.59,37.76 M64.81,47.49c0.36-2.38,1.29-4.55,3.62-6.74
		c10.82-10.15,0.07-24.51-12.4-25.22c-6.68,0.49-10.91,5-13.3,10.99c-1.63,4.08-2.28,10.66,1.28,14c1.85,1.74,5.61,3,5.61,6.06v7.53
		c0,4.5,3.07,5.12,6.85,5.12c3.42,0,8.14,0.36,8.14-4.48c0-2.15-0.09-4.08,0.04-5.87C65.27,48.51,65.57,47.82,64.81,47.49"/>
	<path style="clip-path:url(#SVGID_00000039819925323866590400000017758169776159249845_);fill:#338712;" d="M54.92,21.92
		c-3.65,0.65-6.4,3.42-7.28,6.97c-0.13,0.52,0.18,1.23,0.78,1.24c0.67,0.01,1.03-0.66,1.17-1.22c0.64-2.57,2.96-4.17,5.46-4.61
		C56.21,24.08,56.36,21.66,54.92,21.92"/>
</g>
</svg>
