<?xml version="1.0" encoding="utf-8"?>
<!-- Generator: Adobe Illustrator 25.4.1, SVG Export Plug-In . SVG Version: 6.00 Build 0)  -->
<svg version="1.1" id="Layer_1" xmlns="http://www.w3.org/2000/svg" xmlns:xlink="http://www.w3.org/1999/xlink" x="0px" y="0px"
	 viewBox="0 0 113.37 106.21" style="enable-background:new 0 0 113.37 106.21;" xml:space="preserve">
<style type="text/css">
	.st0{clip-path:url(#SVGID_00000075125194879407623320000006443176013720638357_);fill:#328612;}
	.st1{clip-path:url(#SVGID_00000148645414134545566490000003482984466710776965_);fill:#338712;}
	.st2{clip-path:url(#SVGID_00000067205851526964405350000013420801816340713091_);fill:#338712;}
	.st3{clip-path:url(#SVGID_00000010298956934266868200000002492634271933750415_);fill:#338712;}
	.st4{clip-path:url(#SVGID_00000005953836415261634500000015048648858742743441_);fill:#338712;}
	.st5{clip-path:url(#SVGID_00000049930665056034988490000011115760519891092905_);fill:#338712;}
	.st6{clip-path:url(#SVGID_00000064345980547293188140000011174870194283689627_);fill:#328612;}
	.st7{clip-path:url(#SVGID_00000100346144542506836730000004738884221371536027_);fill:#328612;}
	.st8{clip-path:url(#SVGID_00000152969406474714187820000003624063319914486677_);fill:#328612;}
	.st9{clip-path:url(#SVGID_00000120530334402445097590000016342988373463358603_);fill:#328612;}
	.st10{clip-path:url(#SVGID_00000134242906865948820160000011935708234009014158_);fill:#328612;}
	.st11{clip-path:url(#SVGID_00000000938733020971132110000012524622077539581319_);fill:#328612;}
	.st12{fill:#328612;}
</style>
<g>
	<defs>
		<rect id="SVGID_00000142882938120373409140000000232220902080978821_" x="9.18" y="0.05" width="92.23" height="106.21"/>
	</defs>
	<clipPath id="SVGID_00000031177593958693494520000010768828972080721334_">
		<use xlink:href="#SVGID_00000142882938120373409140000000232220902080978821_"  style="overflow:visible;"/>
	</clipPath>
	<path style="clip-path:url(#SVGID_00000031177593958693494520000010768828972080721334_);fill:#338712;" d="M47.7,98.59
		c-8.7,0.33-17.29,0.28-25.98-0.23c-3.42-0.2-8.17,0.45-8.68-5.13c-0.16-1.75,0.26-3.74,0.39-5.49c0.34-4.9,0.51-9.78,0.27-14.69
		c-0.8-16.69-0.9-33.28-1.04-49.98c-0.05-5.25-0.48-10.48-0.86-15.71c-0.48-6.57,8.57-4.25,12.07-4.02C34.07,4,44.26,2.4,54.47,2.4
		c2.59,0,5.33-0.17,7.9,0.18c-0.07,0.17-0.12,0.35-0.1,0.53c0.28,3.16,0.57,6.32,0.85,9.48c0.27,3.07-0.05,6.16-0.57,9.18
		c-0.31,1.79-0.67,3.07,0.11,4.8C64,29.55,68.74,27.8,71,27.4c4.92-0.85,9.8-0.13,14.69,0.47c1.25,0.15,2.48-2.14,0.95-2.33
		c-3.15-0.39-6.27-0.84-9.46-0.86c-1.68-0.01-13.24,2.84-12.56-1.96c0.97-6.82,0.68-12.89,0.09-19.65c1.93,0.58,3.69,1.62,5.14,3.46
		c4.06,5.17,8.36,9.63,13.75,13.38c8.34,5.8,5.45,21.65,5.02,30.63c-0.07,1.4,2.51,0.73,2.57-0.55c0.4-8.27,2.64-21.21-2.03-28.52
		c-2.92-4.58-9.18-7.17-12.88-11.28c-3.82-4.25-6.22-8.17-12.05-9.72c-3.08-0.82-6.93-0.19-10.08-0.19
		c-5.78,0-11.54,0.45-17.31,0.87c-4.84,0.36-9.66,0.24-14.5-0.08c-3-0.2-8.52-1.58-11.01,0.92C8.32,5.03,9.27,8.63,9.55,12.58
		c0.34,4.7,0.53,9.41,0.53,14.12c0,9.12-0.12,18.25,0.13,27.37c0.23,8.64,1.05,17.26,1.02,25.9c-0.02,6.53-4.14,19.68,5.87,20.27
		c10.06,0.59,19.98,0.86,30.05,0.47C48.52,100.66,49.44,98.52,47.7,98.59"/>
	<path style="clip-path:url(#SVGID_00000031177593958693494520000010768828972080721334_);fill:#338712;" d="M95.59,87.23
		c-0.5-0.56-1.04-1.07-1.72-1.46c-0.74-0.43-1.43-0.54-2.11-1.15c-0.56-0.5-0.99-1.19-1.45-1.79c-0.64-0.83-1.38,0.32-0.87,0.98
		c0.83,1.07,1.58,2.09,2.7,2.86c0.67,0.46,1.42,0.58,2.09,1.07c-0.01,0-0.01,0-0.02,0.01c-2.13,0.32-3.82,0.95-5.07,1.93
		c-0.49-0.82-0.98-1.64-1.46-2.47c-0.79-1.35-1.91-2.09-3.23-2.85c-0.64-0.37-1.95,0.51-1.16,0.96c1.22,0.7,2.26,1.36,2.99,2.62
		c0.57,0.97,1.15,1.94,1.73,2.92c-0.6,0.83-1.01,1.84-1.16,3.07c-0.99-0.52-1.82-1.15-2.53-2.17c-0.84-1.2-1.69-2.33-2.67-3.42
		c-0.63-0.69-1.41,0.65-0.9,1.21c1.08,1.18,1.97,2.42,2.89,3.73c0.82,1.16,1.93,1.82,3.15,2.37c0,0.06-0.01,0.1,0,0.16
		c0.11,2.3,1.18,2.95-1.23,4.23c-0.11,0.06-0.22,0.12-0.33,0.18c-2.3-2.17-4.4-4.33-5.97-7.17c-0.42-0.75-1.77,0.07-1.4,0.73
		c1.59,2.88,3.65,5.09,5.96,7.29c-1.34,0.77-2.76,1.32-3.96,0.06c-3.39-3.56-6.94-4.64-10.75-1.21c-1.34,1.2-2.36,4.15-4.55,3.48
		c-1.01-0.31-5.49-0.97-5.62-2.37c-0.35-3.92-1.35-7.79-4.99-9.69c-1.57-0.82-4.13-0.13-5.72,0.3c-1.79,0.49-2.98-3.47-3.62-4.68
		c-1.08-2.03,5.18-5.75,4.15-9.26c-1.03-3.51-6.43-5.77-5.45-8.95c0.6-1.96,0.75-4.73,3.26-4.96c2.77-0.25,5.51-0.77,8-2.04
		c2.91-1.49,1.87-4.79,0.7-7.06c-0.84-1.64-2.55-2.13-1.2-2.74c1.27-0.58,6.27-3.83,7.57-2.36c2.96,3.36,6.59,5.41,10.59,2.62
		c1.52-1.06,1.65-3.42,3.96-3.13c1.5,0.19,5.78-0.04,6.94,1.33c0.27,3.52,0.84,7.37,3.18,10.12c2.39,2.81,8.07-1.81,8.9,0.03
		c0.91,2,1.81,4.01,2.72,6.02c-0.28-0.63-4.19,4.12-4.31,4.34c-1.88,3.48,2.11,7.02,4.49,8.86c1.41,1.09,1.32,2.77,0.52,4.32
		c-1.48-1.48-2.97-2.97-4.45-4.45c-0.56-0.56-1.54,0.7-0.97,1.28c1.51,1.51,3.02,3.02,4.53,4.53C97.1,86.17,96.36,86.8,95.59,87.23
		 M100.81,79.26c-0.88-1.07-1.81-1.64-2.91-2.49c-5.89-4.53-0.95-5.5,1.03-7.76c1.88-2.17,0.4-4.2-0.62-6.46
		c-0.52-1.15-1.75-5.8-3.84-5.45c-1.51,0.25-2.75,1.12-4.21,1.63c-4.49,1.57-4.93-6.27-5.1-8.64c-0.02-0.25-0.1-0.45-0.2-0.63
		c0-0.01,0-0.03-0.01-0.04c-1.35-2.95-5.2-2.47-8.01-2.83c-1.21-0.15-2.5-0.54-3.59,0.31c-0.47,0.37-0.87,0.88-1.15,1.41
		c-2.2,4.15-7.07,1.81-9.3-0.54c-2.77-2.91-13.65,1.2-11.22,5.5c1.36,2.4,3.93,5.48-0.41,6.99c-1.97,0.68-4.35,0.31-6.22,1.03
		c-3.15,1.23-3.35,5.09-4.25,8.02c-1.6,5.21,9.08,4.74,4.74,11.63c-1.8,2.85-4.46,3.65-2.53,7.29c1.31,2.47,2.19,6.09,5.44,6.1
		c0.44,0,1.18-0.31,1.52-0.4c3.77-1.03,6.01,1.87,6.69,5.26c0.26,1.31,0.15,2.96,1.11,4.04c1.34,1.51,5.9,3.23,7.77,3.01
		c1.29-0.15,2.1-0.29,2.86-1.49c2.83-4.43,7.37-5.12,11.02-0.99c2.2,2.5,5.82-0.58,7.87-1.67c4.66-2.48-0.82-6.9,2.94-10.21
		c2.43-2.14,8.15-0.39,9.28-4.06C100.1,85.81,102.53,81.35,100.81,79.26"/>
	<path style="clip-path:url(#SVGID_00000031177593958693494520000010768828972080721334_);fill:#338712;" d="M79.62,81.58
		c-2.88,6.08-9.92,4.64-14.41,1.4c-4.52-3.26-5.14-10.03-1.16-13.93c3.59-3.52,10.49-3.46,14.44-0.71
		C82.39,71.69,81.61,77.39,79.62,81.58 M80.06,66.22c-5.27-3.66-12.98-3.07-17.58,1.45c-4.97,4.88-3.89,13.2,1.19,17.43
		c5.06,4.23,12.71,4.73,16.77-0.94C83.96,79.22,85.07,70.54,80.06,66.22"/>
	<path style="clip-path:url(#SVGID_00000031177593958693494520000010768828972080721334_);fill:#338712;" d="M26.42,35.44
		c4.94,0.87,9.84,1.6,14.82,2.2c4.92,0.59,9.32-0.19,14.25-0.85c1.62-0.22,1.58-2.22-0.09-2c-4.75,0.64-8.93,1.44-13.53,0.89
		c-4.98-0.6-9.88-1.33-14.82-2.2C25.55,33.22,24.69,35.14,26.42,35.44"/>
	<path style="clip-path:url(#SVGID_00000031177593958693494520000010768828972080721334_);fill:#338712;" d="M26.46,23.67
		c6.51,0,11.89,0.45,18.43,1.3c1.26,0.17,2.46-2.21,1.09-2.39c-6.46-0.84-12.46-1.37-18.97-1.37
		C25.75,21.21,24.91,23.67,26.46,23.67"/>
	<path style="clip-path:url(#SVGID_00000031177593958693494520000010768828972080721334_);fill:#338712;" d="M61.98,61.94
		c1.48-1.13,3.21-1.41,4.99-1.73c0.9-0.16,1.01-1.42-0.02-1.23c-1.69,0.3-3.26,0.61-4.8,1.4c-1.83,0.94-3.36,2.64-4.65,4.2
		c-0.67,0.81,0.6,1.32,1.13,0.67C59.64,64.03,60.72,62.91,61.98,61.94"/>
	<path style="clip-path:url(#SVGID_00000031177593958693494520000010768828972080721334_);fill:#338712;" d="M55.77,67.52
		c-0.25,0.53-0.6,0.96-0.8,1.53c-0.18,0.53-0.3,1.07-0.42,1.62c-0.08,0.35,0,0.85,0.38,1c0.36,0.15,0.69-0.19,0.76-0.53
		c0.1-0.47,0.2-0.94,0.35-1.41c0.16-0.51,0.51-0.89,0.73-1.36C57.12,67.63,56.21,66.57,55.77,67.52"/>
</g>
</svg>
