<?xml version="1.0" encoding="utf-8"?>
<!-- Generator: Adobe Illustrator 25.4.1, SVG Export Plug-In . SVG Version: 6.00 Build 0)  -->
<svg version="1.1" id="Layer_1" xmlns="http://www.w3.org/2000/svg" xmlns:xlink="http://www.w3.org/1999/xlink" x="0px" y="0px"
	 viewBox="0 0 61.42 54.74" style="enable-background:new 0 0 61.42 54.74;" xml:space="preserve">
<style type="text/css">
	.st0{clip-path:url(#SVGID_00000008142766567154221920000010186297892120955066_);fill:#328612;}
	.st1{clip-path:url(#SVGID_00000044895899421884314920000004180709093209442712_);fill:#338712;}
	.st2{clip-path:url(#SVGID_00000061453178001503112590000008511542370749373336_);fill:#338712;}
	.st3{clip-path:url(#SVGID_00000013173658256659068030000015119180670403452039_);fill:#338712;}
	.st4{clip-path:url(#SVGID_00000124843883521916372040000012520973422101360297_);fill:#338712;}
	.st5{clip-path:url(#SVGID_00000068675526751835755280000008038515906876123269_);fill:#338712;}
	.st6{clip-path:url(#SVGID_00000015352868675754990620000006467864597047835294_);fill:#328612;}
	.st7{clip-path:url(#SVGID_00000074440703365815069520000016122637733378717614_);fill:#328612;}
	.st8{clip-path:url(#SVGID_00000137839635436000678740000015984099687563538619_);fill:#328612;}
	.st9{clip-path:url(#SVGID_00000150080512954004383590000015681217165479877768_);fill:#328612;}
	.st10{clip-path:url(#SVGID_00000112628802097305341120000000563942490021172909_);fill:#328612;}
	.st11{clip-path:url(#SVGID_00000181065558791172651100000005542706614653017217_);fill:#328612;}
	.st12{fill:#328612;}
</style>
<g>
	<defs>
		<rect id="SVGID_00000034072722039379615630000000804366989345558936_" width="61.42" height="54.74"/>
	</defs>
	<clipPath id="SVGID_00000160180699122996154930000014496894192286431888_">
		<use xlink:href="#SVGID_00000034072722039379615630000000804366989345558936_"  style="overflow:visible;"/>
	</clipPath>
	<path style="clip-path:url(#SVGID_00000160180699122996154930000014496894192286431888_);fill:#328612;" d="M7.25,50.27L6.4,51.12
		l-1.45-1.45l0.86-0.85L7.25,50.27z M9.35,48.84l1.13-1.13l1.09,1.08l-1.13,1.13L9.35,48.84z M10.1,50.27l-1.08,1.08l-1.08-1.08
		l1.08-1.08L10.1,50.27z M7.37,47.54l1.3,1.3l-1.09,1.08l-1.45-1.45l1.21-1.21C7.3,47.36,7.3,47.47,7.37,47.54 M1.04,44.27
		c0.43-4.04,8.12-7.13,12.16-1.97l-0.42,0.42l-0.2-0.2c-0.09-0.09-0.25-0.09-0.34,0c-0.09,0.09-0.09,0.25,0,0.34l0.2,0.2l-0.11,0.1
		c-0.09,0.1-0.09,0.25,0,0.34c0.09,0.09,0.24,0.09,0.34,0l0.1-0.1l0.85,0.85l-1.18,1.18l-0.89-0.89c-0.09-0.09-0.25-0.09-0.34,0
		c-0.09,0.09-0.09,0.24,0,0.34l0.89,0.89l-0.15,0.15c-0.09,0.1-0.09,0.25,0,0.34c0.09,0.09,0.24,0.1,0.34,0l0.15-0.15l1.18,1.18
		c0.09,0.09,0.24,0.09,0.34,0s0.09-0.25,0-0.34l-1.18-1.18l1.18-1.18l0.43,0.43c0,0,0.01,0,0.01,0c0.44,2.43-0.43,5.13-2.35,6.69
		c-2.34,1.9-6.05,1.96-8.45,0.15c-0.22-0.17-0.41-0.34-0.6-0.53c0.12,0.08,0.21,0.06,0.29-0.02l1.3-1.3l1.82,1.82
		c0.09,0.09,0.24,0.09,0.34,0c0.09-0.1,0.09-0.25,0-0.34l-0.03-0.03l0.86-0.86L9,52.01c0.09,0.09,0.24,0.09,0.34,0
		c0.09-0.09,0.08-0.22,0.01-0.31l1.09-1.09l0.9,0.91c0.09,0.09,0.24,0.09,0.34,0c0.1-0.09,0.1-0.25,0-0.34l-0.9-0.9l1.13-1.13
		l0.36,0.36c0.09,0.09,0.24,0.1,0.34,0c0.09-0.09,0.09-0.24,0-0.34l-0.36-0.36l0.85-0.85c0.09-0.09,0.09-0.24,0-0.34
		c-0.09-0.09-0.24-0.09-0.34,0l-0.85,0.85l-1.09-1.08l0.44-0.44c0.09-0.09,0.09-0.25,0-0.34c-0.09-0.09-0.25-0.09-0.34,0l-0.44,0.44
		l-0.84-0.84c-0.09-0.09-0.25-0.09-0.34,0c-0.1,0.1-0.1,0.25,0,0.34l0.84,0.84L9.01,48.5l-1.3-1.3c-0.08-0.08-0.19-0.08-0.28-0.03
		l0.55-0.55c0.09-0.1,0.09-0.25,0-0.34c-0.1-0.09-0.25-0.09-0.34,0L5.8,48.14l-0.47-0.47c-0.1-0.09-0.25-0.09-0.34,0
		c-0.1,0.09-0.1,0.25,0,0.34l0.47,0.47l-0.85,0.85L3.67,48.4c-0.09-0.09-0.25-0.09-0.34,0c-0.09,0.09-0.09,0.24,0,0.34l0.93,0.93
		l-1.3,1.3c-0.08,0.08-0.08,0.2-0.02,0.29C0.99,49.29,0.81,46.42,1.04,44.27 M14.08,43.86c-0.03,0.01-0.07,0.01-0.09,0.04
		l-0.02,0.02l-0.86-0.85l0.36-0.37C14.02,43.49,13.92,43.44,14.08,43.86 M21.21,20.47c1.85,0.27,0,0.17,15.63-0.13
		c2.2-0.04,4.3,0.02,5.73,1.26c0,0,0.01,0.01,0.01,0.01l-1.24,1.24c-0.01,0.01-0.01,0.04-0.02,0.05l-0.05-0.05
		c-0.09-0.09-0.24-0.09-0.34,0c-0.09,0.09-0.09,0.25,0,0.34l1.97,1.97l-0.59,0.59c-0.09,0.09-0.09,0.25,0,0.34
		c0.09,0.09,0.25,0.09,0.34,0l0.59-0.59l0.96,0.95c0.05,0.05,0.11,0.07,0.17,0.07c0.01,0,0.01-0.01,0.02-0.01
		c0.36,6.83-1.31,7.76-5.73,7.88c-0.44,0.01-17.94,0.49-18.38,0.5c0.01-0.07,0-0.15-0.06-0.2l-0.97-0.97l5.85-5.85
		c0.09-0.1,0.09-0.25,0-0.34c-0.1-0.09-0.25-0.09-0.34,0l-5.85,5.85l-0.73-0.73c-0.09-0.09-0.24-0.09-0.34,0
		c-0.09,0.1-0.09,0.25,0,0.34l0.73,0.73l-0.86,0.86c-1.62-0.6-1.88-2.06-2.06-3.9C15.08,24.63,13.88,19.42,21.21,20.47 M44.06,24.23
		c-0.09-0.04-0.18-0.04-0.25,0.03l-0.56,0.56l-1.61-1.61c0.02-0.01,0.04-0.01,0.05-0.02l1.23-1.23
		C43.48,22.59,43.84,23.37,44.06,24.23 M44.16,24.58c0.09,0.43,0.15,0.89,0.19,1.34l-0.76-0.76l0.56-0.56
		C44.15,24.59,44.15,24.58,44.16,24.58 M18.24,34.75l0.68-0.67l0.83,0.83C19.22,34.89,18.71,34.85,18.24,34.75 M27.57,15.66
		c-0.91-0.09-1.73-0.4-2.43-0.86c0.03-0.01,0.07-0.01,0.1-0.04l1.63-1.63l1.39,1.39c0.09,0.09,0.25,0.09,0.34,0
		c0.09-0.1,0.09-0.25,0-0.34l-1.39-1.39l1.46-1.46L30.32,13l-0.31,0.31c-0.09,0.09-0.09,0.24,0,0.34c0.09,0.09,0.24,0.09,0.34,0
		l0.31-0.31l0.45,0.45c0.09,0.09,0.25,0.1,0.34,0c0.09-0.09,0.09-0.24,0-0.34L31,13l2.15-2.15l2.08,2.08l-1.9,1.9
		c-0.09,0.09-0.09,0.24,0,0.34c0.09,0.09,0.24,0.1,0.34,0l1.9-1.9l0.52,0.52c0.09,0.09,0.24,0.09,0.34,0c0.09-0.1,0.09-0.25,0-0.34
		l-0.52-0.52l1.09-1.09c-0.03,5.26-2.69,3.42-7.38,3.78C28.91,15.67,28.23,15.73,27.57,15.66 M22.51,10.09
		c-0.16-1.62,0.06-3.28,0.28-4.89c0.48-3.48,1.37-4.24,4.76-4.24h0.06L33,0.97c1.27,0,2.57,0.07,3.32,0.88
		c0.03,0.03,0.05,0.07,0.08,0.11l-0.82,0.82l-0.8-0.8c-0.09-0.1-0.24-0.1-0.34,0c-0.09,0.09-0.09,0.24,0,0.34l0.8,0.8l-0.11,0.11
		c-0.09,0.09-0.09,0.24,0,0.34c0.09,0.09,0.25,0.1,0.34,0l0.11-0.11l0.77,0.77l-1.32,1.32l-0.38-0.39c-0.09-0.09-0.25-0.09-0.34,0
		c-0.09,0.1-0.09,0.25,0,0.34l0.38,0.38l-1.61,1.61c-0.09-0.06-0.21-0.06-0.3,0.02c-0.09,0.09-0.09,0.24,0,0.34l1.35,1.35
		l-0.97,0.97L31.18,8.2c-0.09-0.09-0.25-0.09-0.34,0c-0.09,0.1-0.09,0.25,0,0.34l1.97,1.97l-2.15,2.15L29,10.99l1.37-1.37
		c0.09-0.09,0.09-0.24,0-0.34c-0.09-0.1-0.25-0.1-0.34,0l-1.37,1.37L28,9.99c-0.1-0.09-0.25-0.09-0.34,0c-0.09,0.1-0.09,0.25,0,0.34
		l0.66,0.66l-1.46,1.46l-0.52-0.52c-0.09-0.09-0.24-0.09-0.34,0c-0.09,0.09-0.09,0.25,0,0.34l0.52,0.52l-1.63,1.63
		c-0.05,0.05-0.07,0.12-0.06,0.19C23.55,13.64,22.71,12.06,22.51,10.09 M36.73,4.51c0.09-0.09,0.08-0.22,0.01-0.31
		c0.05-0.09,0.05-0.2-0.02-0.28l-0.8-0.8l0.75-0.75c0.35,0.7,0.38,1.6,0.38,2.55l-0.01,2.21l-0.21,0.21l-1.46-1.46L36.73,4.51z
		 M36.3,11.37c0.09,0.09,0.24,0.09,0.34,0c0.1-0.1,0.1-0.25,0-0.34l-1.88-1.88c0-0.06-0.02-0.13-0.07-0.18
		c-0.05-0.05-0.11-0.07-0.18-0.07l-1.09-1.09l1.6-1.6l1.46,1.46l-0.66,0.66c-0.09,0.09-0.09,0.25,0,0.34c0.09,0.09,0.24,0.09,0.34,0
		l0.83-0.83l0.04-0.04l-0.02,3.35l-1.44,1.44l-2.08-2.08l0.97-0.97L36.3,11.37z M50.87,49.48l0.72-0.72l1.04,1.04l-0.72,0.72
		L50.87,49.48z M55.29,49.44l-1.18,1.18l-0.81-0.81l1.17-1.18L55.29,49.44z M55.97,49.44l1.59-1.59l0.85,0.85l-1.59,1.59
		L55.97,49.44z M56.41,46.7l0.81,0.81l-1.59,1.59l-0.81-0.81L56.41,46.7z M60.08,43.46l-0.27,0.27l-0.84-0.84
		c-0.09-0.09-0.24-0.09-0.34,0c-0.09,0.09-0.09,0.25,0,0.34l0.84,0.84l-0.75,0.75c-0.04,0.04-0.06,0.1-0.06,0.15l-0.33-0.33
		c-0.09-0.09-0.25-0.09-0.34,0c-0.09,0.09-0.09,0.25,0,0.34l2.23,2.23c0.03,0.02,0.06,0.02,0.09,0.04
		c-0.55,2.52-2.39,4.21-4.78,4.81c-0.01-0.01-0.01-0.03-0.02-0.04l-1.05-1.05l1.18-1.18l1.33,1.33c0.09,0.09,0.25,0.1,0.34,0
		c0.09-0.09,0.09-0.24,0-0.34l-0.13-0.13l1.59-1.59l0.03,0.03c0.09,0.09,0.24,0.09,0.34,0c0.09-0.09,0.09-0.25,0-0.34l-0.03-0.03
		l0.94-0.94c0.09-0.09,0.09-0.25,0-0.34s-0.25-0.09-0.34,0l-0.94,0.94l-0.85-0.85l0.74-0.74c0.09-0.09,0.09-0.25,0-0.34
		c-0.09-0.09-0.25-0.09-0.34,0l-0.74,0.74l-0.81-0.81l0.66-0.66c0.09-0.09,0.09-0.24,0-0.34c-0.09-0.09-0.25-0.09-0.34,0l-2.59,2.59
		l-0.38-0.38c-0.09-0.09-0.25-0.09-0.34,0c-0.1,0.1-0.1,0.25,0,0.34l0.38,0.38l-1.17,1.17l-1.04-1.04l2.7-2.7
		c0.09-0.09,0.09-0.25,0-0.34c-0.09-0.09-0.24-0.09-0.34,0l-3.76,3.76l-1.12-1.12c-0.09-0.09-0.25-0.09-0.34,0
		c-0.09,0.09-0.09,0.25,0,0.34l1.12,1.12l-0.84,0.84c-0.09,0.1-0.09,0.25,0,0.34c0.09,0.09,0.24,0.09,0.34,0l0.84-0.84l1.07,1.07
		c-0.02,0.08-0.02,0.17,0.05,0.23c0.09,0.09,0.15,0.07,0.23,0.05l0.61,0.61c0.09,0.09,0.25,0.09,0.34,0c0.09-0.1,0.09-0.25,0-0.34
		l-0.58-0.58l0.72-0.72l0.81,0.81l-0.47,0.47c-0.1,0.09-0.1,0.24,0,0.34c0.09,0.09,0.24,0.09,0.34,0l0.47-0.47l0.87,0.87
		c-1.65,0.29-3.4,0.03-4.86-0.85c-2.91-1.76-3.5-4.97-3.49-7.35C46.68,39.07,57.7,36.7,60.08,43.46 M59.91,44.51
		c0.09,0.09,0.25,0.09,0.34,0c0.05-0.05,0.07-0.11,0.07-0.17c0.16,0.77,0.19,1.58,0.08,2.36l-1.49-1.49
		c0.05-0.01,0.11-0.02,0.15-0.06l0.75-0.75L59.91,44.51z M60.32,44.34c0-0.06-0.02-0.12-0.07-0.16l-0.11-0.11l0.09-0.09
		C60.27,44.1,60.29,44.22,60.32,44.34 M37.02,43.46l-0.68,0.68L36.1,43.9c-0.09-0.09-0.24-0.1-0.34,0c-0.09,0.09-0.09,0.24,0,0.34
		L36,44.48l-1.25,1.25c-0.04,0.04-0.06,0.1-0.06,0.15l-0.15-0.15c-0.1-0.09-0.25-0.09-0.34,0s-0.09,0.25,0,0.34l1.8,1.8l-1.27,1.27
		l-0.85-0.85l0.92-0.92c0.1-0.1,0.1-0.25,0-0.34c-0.09-0.09-0.24-0.09-0.34,0l-0.92,0.92l-1.39-1.39c-0.1-0.09-0.25-0.09-0.34,0
		c-0.09,0.09-0.09,0.25,0,0.34l1.39,1.39l-1.22,1.22l-1.29-1.29c0.04-0.09,0.04-0.19-0.03-0.26c-0.07-0.07-0.17-0.07-0.26-0.03
		l-0.17-0.17c-0.09-0.09-0.25-0.09-0.34,0c-0.09,0.09-0.09,0.25,0,0.34l0.15,0.15l-0.58,0.58l-0.61-0.61
		c-0.09-0.09-0.25-0.09-0.34,0c-0.09,0.1-0.09,0.25,0,0.34l0.61,0.61l-1.04,1.04l-0.24-0.24c-0.09-0.09-0.25-0.09-0.34,0
		c-0.09,0.09-0.09,0.25,0,0.34l0.24,0.24l-0.53,0.53l-0.75-0.75c-0.09-0.09-0.25-0.09-0.34,0c-0.09,0.09-0.09,0.25,0,0.34l0.75,0.75
		l-0.66,0.66c-0.02,0.02-0.02,0.05-0.03,0.08c-3.34-2.66-2.93-6.97-0.79-10.4C27.2,38.84,34.27,37.86,37.02,43.46 M37.68,45.48l-1-1
		l0.55-0.55C37.43,44.43,37.59,44.95,37.68,45.48 M37.78,46.66c0-0.06-0.02-0.12-0.07-0.16c-0.09-0.09-0.24-0.09-0.34,0l-1.04,1.04
		l-1.4-1.4c0.05-0.01,0.11-0.02,0.15-0.06l1.25-1.25l1.43,1.43C37.77,46.38,37.78,46.52,37.78,46.66 M37.47,48.68l-0.8-0.8
		l1.04-1.04c0.04-0.04,0.06-0.1,0.06-0.16c0,0.33-0.01,0.65-0.06,0.98C37.67,48,37.58,48.34,37.47,48.68 M36.25,50.66l-1.18-1.17
		l1.27-1.27l0.84,0.84c0.03,0.03,0.08,0.04,0.12,0.05c-0.26,0.65-0.6,1.26-1.03,1.81C36.32,50.83,36.32,50.73,36.25,50.66
		 M34.81,52.35l-1.3-1.3l1.22-1.22L35.91,51c0.1,0.1,0.19,0.08,0.28,0.02C35.79,51.52,35.33,51.97,34.81,52.35 M30.72,50.77
		l-1.04,1.04l-1.27-1.27l1.04-1.04L30.72,50.77z M32.32,49.85l1.22-1.22l0.85,0.85l-1.22,1.22L32.32,49.85z M32.83,51.05l-0.58,0.58
		l-0.85-0.85l0.58-0.58L32.83,51.05z M31.64,49.85l-0.58,0.58l-1.27-1.27l0.58-0.58L31.64,49.85z M26.51,52.43
		c0.01-0.01,0.03-0.01,0.03-0.01l0.66-0.66l0.64,0.64c0.09,0.09,0.24,0.09,0.34,0c0.09-0.09,0.09-0.24,0-0.34l-0.64-0.64l0.53-0.53
		l1.27,1.27l-0.29,0.29c-0.09,0.09-0.09,0.24,0,0.34c0.09,0.09,0.25,0.09,0.34,0l0.29-0.29l0.43,0.43c0.09,0.09,0.24,0.09,0.34,0
		c0.09-0.09,0.09-0.24,0-0.34l-0.43-0.43l1.04-1.04l0.85,0.85l-0.11,0.11c-0.09,0.09-0.09,0.24,0,0.34c0.09,0.09,0.24,0.1,0.34,0
		l0.11-0.1l0.54,0.54c0.09,0.09,0.24,0.09,0.34,0c0.09-0.09,0.09-0.25,0-0.34l-0.54-0.54l0.58-0.58l1.24,1.24
		C31.75,54.35,28.76,54.01,26.51,52.43 M3.03,52.62c2.78,2.11,6.93,2.04,9.64-0.16c3-2.44,3.88-7.22,1.43-10.58
		c-0.05-0.15-0.03-0.09-0.1-0.13c-1.63-2.14-4.37-3.38-7.05-3.12c-0.31-3.3-0.41-6.45,1.21-8.86c1.33-2,3.78-3.15,6.16-2.95
		l0.38,3.97c0.6,6.34,3.44,5.13,15.44,4.8l-0.23,2.9c-2.16,0.15-4.28,1.05-5.35,2.75c-4.82,7.72,0.84,14.21,7.04,13.43
		c3.5-0.43,6.54-3.39,7.07-6.88c0.63-4.16-2.39-9.16-7.79-9.33l0.23-2.9l7.57-0.21c5.01-0.14,6.67-1.65,6.7-7.34
		c3.99-0.67,6.53-0.29,7.12,3.68c0.32,2.13,0.39,4.29,0.22,6.44c-0.14,0.03-0.26,0.13-0.33,0.26c-3.29,0.44-6.69,2.23-6.71,5.56
		c-0.03,3.71,1.37,6.61,3.95,8.17c3.23,1.96,7.77,1.22,10.14-1.62c3.43-4.13,1.56-12.16-6.11-12.2c0.19-2.25,0.12-4.52-0.21-6.76
		c-0.67-4.48-3.63-5.24-8.08-4.51c-0.05-2.11-0.39-4.26-1.78-5.77l0.03-0.03c0.09-0.1,0.09-0.25,0-0.34c-0.09-0.09-0.25-0.09-0.34,0
		l-0.02,0.02c-0.02-0.02-0.04-0.05-0.06-0.07c-1.69-1.45-4.07-1.53-6.38-1.49L30.5,19.5l0.1-2.99c3.51-0.16,7.34,1.45,7.36-4.68
		l0.01-0.99c0.06-0.08,0.06-0.18,0-0.26l0.03-5.67c0.02-3.59-1.1-4.91-5-4.91l-5.39,0c-3.77,0.01-5.2,0.9-5.77,5.07
		c-0.23,1.67-0.46,3.39-0.29,5.12c0.36,3.57,2.69,6.09,5.92,6.42c0.72,0.08,1.44,0.02,2.16-0.03l-0.1,2.94
		c-6.94,0.13-6.23,0.28-8.19,0c-5.09-0.73-7.4,1.54-7.1,6.33c-2.68-0.16-5.39,1.14-6.89,3.38C5.57,31.92,5.67,35.28,6,38.78
		c-2.67,0.6-5.61,2.51-5.92,5.39C-0.32,47.93,0.7,50.85,3.03,52.62"/>
	<path style="clip-path:url(#SVGID_00000160180699122996154930000014496894192286431888_);fill:#328612;" d="M39.44,28.2l1.8,1.8
		l-2.36,2.36l-1.8-1.8L39.44,28.2z M23.99,31.28c-0.09-0.09-0.25-0.09-0.34,0c-0.09,0.09-0.09,0.25,0,0.34l1.14,1.14l-1.14,1.14
		c-0.09,0.09-0.09,0.25,0,0.34c0.09,0.09,0.25,0.09,0.34,0l1.14-1.14l1.01,1.01c0.09,0.09,0.24,0.09,0.34,0
		c0.09-0.1,0.09-0.25,0-0.34l-1.01-1.01l1.67-1.66l2.01,2.01l-0.8,0.8c-0.09,0.09-0.09,0.25,0,0.34c0.09,0.09,0.25,0.09,0.34,0
		l0.8-0.8l0.95,0.95c0.09,0.09,0.24,0.09,0.34,0c0.09-0.1,0.09-0.25,0-0.34l-0.95-0.95l1.46-1.46l1.98,1.98
		c0.09,0.09,0.24,0.09,0.34,0s0.1-0.25,0-0.34l-1.98-1.98l2.77-2.77l2.01,2.01l-1.7,1.7c-0.09,0.1-0.09,0.25,0,0.34
		c0.09,0.09,0.24,0.09,0.34,0l1.7-1.7l1.8,1.8l-0.8,0.8c-0.1,0.09-0.1,0.25,0,0.34c0.09,0.09,0.24,0.09,0.34,0l0.8-0.8l1.17,1.17
		c0.09,0.09,0.25,0.09,0.34,0c0.09-0.09,0.09-0.25,0-0.34l-1.17-1.17l2.36-2.36l0.75,0.75c0.22,0.22,0.57-0.11,0.34-0.34L41.93,30
		l2.12-2.12c0.09-0.09,0.09-0.25,0-0.34c-0.09-0.09-0.25-0.09-0.34,0l-2.12,2.12l-1.81-1.8l2-2c0.09-0.1,0.09-0.25,0-0.34
		c-0.1-0.09-0.25-0.09-0.34,0l-2,2l-0.94-0.94c-0.09-0.09-0.24-0.09-0.34,0c-0.09,0.09-0.09,0.25,0,0.34l0.94,0.94l-2.36,2.35
		l-2.01-2.01l1.76-1.76c0.09-0.09,0.09-0.24,0-0.34c-0.09-0.1-0.24-0.1-0.34,0l-1.76,1.76l-0.18-0.18c-0.09-0.09-0.25-0.09-0.34,0
		c-0.09,0.09-0.09,0.25,0,0.34l0.17,0.17l-2.77,2.77l-1.63-1.63c-0.09-0.09-0.25-0.09-0.34,0c-0.09,0.1-0.09,0.25,0,0.34l1.63,1.63
		l-1.46,1.46l-2.01-2.01l4.08-4.08c0.09-0.09,0.09-0.24,0-0.34c-0.09-0.1-0.24-0.1-0.34,0l-4.09,4.09c-0.09-0.06-0.21-0.06-0.3,0.02
		c-0.08,0.08-0.08,0.2-0.02,0.3l-1.68,1.68L23.99,31.28z"/>
	<path style="clip-path:url(#SVGID_00000160180699122996154930000014496894192286431888_);fill:#328612;" d="M21.5,31.97
		c-0.09-0.09-0.25-0.09-0.34,0c-0.09,0.09-0.09,0.25,0,0.34l1.98,1.98c0.09,0.09,0.25,0.09,0.34,0c0.09-0.1,0.09-0.25,0-0.34
		L21.5,31.97z"/>
</g>
</svg>
