<?xml version="1.0" encoding="utf-8"?>
<!-- Generator: Adobe Illustrator 25.4.1, SVG Export Plug-In . SVG Version: 6.00 Build 0)  -->
<svg version="1.1" id="Layer_1" xmlns="http://www.w3.org/2000/svg" xmlns:xlink="http://www.w3.org/1999/xlink" x="0px" y="0px"
	 viewBox="0 0 59.5 59.49" style="enable-background:new 0 0 59.5 59.49;" xml:space="preserve">
<style type="text/css">
	.st0{clip-path:url(#SVGID_00000136405262849760346070000003522770373295984000_);fill:#328612;}
	.st1{clip-path:url(#SVGID_00000005235137071631970170000006889045559928538559_);fill:#338712;}
	.st2{clip-path:url(#SVGID_00000145047738223371074690000002135537348628863387_);fill:#338712;}
	.st3{clip-path:url(#SVGID_00000065032887637395344220000008602250259465585831_);fill:#338712;}
	.st4{clip-path:url(#SVGID_00000173154010703434380340000007678042780440665260_);fill:#338712;}
	.st5{clip-path:url(#SVGID_00000172413732010162026260000014456452110786101920_);fill:#338712;}
	.st6{clip-path:url(#SVGID_00000178908431475331261430000017627160945062057862_);fill:#328612;}
	.st7{clip-path:url(#SVGID_00000034082617881365399150000004059221366813871526_);fill:#328612;}
	.st8{clip-path:url(#SVGID_00000054974932688395996090000000278633977189780899_);fill:#328612;}
	.st9{clip-path:url(#SVGID_00000161610848388246089260000004039358402708457601_);fill:#328612;}
	.st10{clip-path:url(#SVGID_00000144330659499664785740000014229050369035544502_);fill:#328612;}
	.st11{clip-path:url(#SVGID_00000057850278772325981610000009388802663786671528_);fill:#328612;}
	.st12{fill:#328612;}
</style>
<g>
	<defs>
		<rect id="SVGID_00000036973393966463359800000012330928141709299097_" width="59.5" height="59.49"/>
	</defs>
	<clipPath id="SVGID_00000048495313987467045990000009681539225525822341_">
		<use xlink:href="#SVGID_00000036973393966463359800000012330928141709299097_"  style="overflow:visible;"/>
	</clipPath>
	<path style="clip-path:url(#SVGID_00000048495313987467045990000009681539225525822341_);fill:#328612;" d="M44.59,23.85
		c0.03,0,0.05-0.01,0.08-0.01l-0.04,0.04L44.59,23.85z M42.81,23.9c0.19,0.01,0.38,0,0.56,0l-0.28,0.28L42.81,23.9z M40.98,23.75
		c0.25,0.03,0.49,0.08,0.74,0.1l-0.32,0.32L40.98,23.75z M43.42,27.45c0.03,0,0.05,0,0.08,0l-0.04,0.04L43.42,27.45z M41.29,27.4
		c0.11,0.01,0.21,0.02,0.32,0.02l-0.15,0.15L41.29,27.4z M42.37,30.68l0.37,0.01l-0.18,0.18L42.37,30.68z M43.87,30.71l0.12,0
		l-0.06,0.06L43.87,30.71z M40.54,30.65l0.08,0l-0.04,0.04L40.54,30.65z M45.67,35.95l2.93-2.46c0.2-0.16,0.22-0.46,0.06-0.65
		c-0.17-0.2-0.46-0.22-0.65-0.06l-1.3,1.09c-0.01,0-0.01,0-0.01,0c-2.97,0.26-5.95,0.03-8.85-0.66c-1.08-0.26-2.22-0.75-1.92-1.82
		l0.27,0.27c-0.16,0.16-0.32,0.29-0.14,0.47c0.18,0.18,0.31,0.02,0.47-0.14c0.22,0.22,0.46,0.56,0.67,0.35
		c0.09-0.09,0.09-0.24,0-0.33l-0.35-0.35l0.88-0.88c0.03-0.03,0.03-0.07,0.05-0.11l0.62,0.62l-0.1,0.1c-0.09,0.09-0.09,0.24,0,0.33
		c0.05,0.05,0.11,0.07,0.17,0.07s0.12-0.02,0.16-0.07l0.22-0.22c0.02-0.01,0.05-0.01,0.06-0.03c0.02-0.02,0.02-0.04,0.03-0.06
		l0.41-0.41c0.09-0.09,0.09-0.24,0-0.33c-0.03-0.03-0.07-0.03-0.11-0.04l0.69,0.01c0.01,0.03,0.01,0.07,0.04,0.1l0.28,0.29
		l-0.16,0.16c-0.09,0.09-0.09,0.24,0,0.33c0.05,0.05,0.1,0.07,0.16,0.07c0.06,0,0.12-0.02,0.17-0.07l0.16-0.16l0.52,0.52
		c0.05,0.05,0.1,0.07,0.17,0.07c0.06,0,0.12-0.02,0.16-0.07c0.09-0.09,0.09-0.24,0-0.33l-0.52-0.52l0.19-0.19
		c0.05-0.05,0.07-0.11,0.07-0.17l0.66,0.01c-0.01,0.07,0.01,0.13,0.06,0.18l0.34,0.34l-0.02,0.02c-0.09,0.09-0.09,0.24,0,0.33
		c0.04,0.04,0.1,0.07,0.16,0.07c0.06,0,0.12-0.02,0.17-0.07l0.02-0.02l0.1,0.1c0.04,0.05,0.1,0.07,0.16,0.07
		c0.06,0,0.12-0.02,0.17-0.07c0.09-0.09,0.09-0.24,0-0.33l-0.1-0.1l0.39-0.39c0.01-0.01,0-0.02,0.01-0.02l0.38,0.38
		c0,0.05,0.02,0.1,0.06,0.14c0.04,0.04,0.09,0.05,0.14,0.06l0.09,0.09c0.04,0.05,0.1,0.07,0.16,0.07c0.06,0,0.12-0.02,0.17-0.07
		c0.09-0.09,0.09-0.24,0-0.33l-0.02-0.02l0.1-0.1c0.08-0.08,0.07-0.19,0.02-0.28l1.28,0.02h0.01c0.25,0,0.46-0.2,0.47-0.45
		c0-0.26-0.2-0.47-0.46-0.47l-8.61-0.17c-0.89-0.02-2.01-0.07-2.5-0.81c0.06-0.03,0.01,0.03,0.17-0.13c0.2,0.2,0.41,0.49,0.61,0.29
		c0.2-0.2-0.08-0.41-0.29-0.61l0.92-0.91l0.24,0.24l-0.16,0.16c-0.09,0.09-0.09,0.24,0,0.33c0.05,0.05,0.1,0.07,0.16,0.07
		c0.06,0,0.12-0.02,0.16-0.07l0.23-0.23c0.05-0.01,0.1-0.02,0.14-0.06c0.04-0.04,0.05-0.09,0.06-0.14l0.35-0.36
		c0.09-0.09,0.09-0.24,0-0.33c-0.09-0.09-0.24-0.09-0.33,0l-0.29,0.29l-0.48-0.49c0.03,0.01,0.06,0.01,0.09,0.02
		c0.21,0.1,0.46,0.01,0.58-0.19c0.18,0.05,0.36,0.09,0.53,0.13c0.46,0.1,0.92,0.18,1.38,0.25l0.05,0.05l-0.67,0.67
		c-0.09,0.09-0.09,0.24,0,0.33c0.05,0.04,0.1,0.07,0.16,0.07c0.06,0,0.12-0.02,0.16-0.07l0.67-0.67l0.41,0.41
		c0.05,0.04,0.11,0.07,0.17,0.07c0.06,0,0.12-0.02,0.16-0.07c0.09-0.09,0.09-0.24,0-0.33l-0.36-0.36c0.36,0.05,0.72,0.09,1.08,0.12
		l-0.58,0.58c-0.09,0.09-0.09,0.24,0,0.33c0.04,0.05,0.1,0.07,0.16,0.07c0.06,0,0.12-0.02,0.17-0.07l0.63-0.63l0.29,0.28l-0.06,0.06
		c-0.09,0.09-0.09,0.24,0,0.33c0.05,0.05,0.1,0.07,0.17,0.07c0.06,0,0.12-0.02,0.16-0.07l0.06-0.06l0.05,0.05
		c0.04,0.05,0.1,0.07,0.16,0.07c0.06,0,0.12-0.02,0.17-0.07c0.09-0.09,0.09-0.24,0-0.33l-0.05-0.05l0.2-0.21
		c0.07-0.07,0.07-0.17,0.03-0.26c0.26,0.01,0.52,0.02,0.78,0.02c0.01,0.02,0.01,0.04,0.02,0.06l0.31,0.31l-0.14,0.14
		c-0.09,0.09-0.09,0.24,0,0.33c0.05,0.05,0.11,0.07,0.17,0.07c0.06,0,0.12-0.02,0.16-0.07l0.14-0.14l0.16,0.16
		c0.05,0.05,0.1,0.07,0.17,0.07c0.06,0,0.12-0.02,0.16-0.07c0.09-0.09,0.09-0.24,0-0.33l-0.16-0.16l0.04-0.05
		c0.09-0.09,0.09-0.24,0-0.33c0,0,0,0,0,0c0.55-0.02,1.1-0.04,1.65-0.09c0.26-0.02,0.44-0.25,0.42-0.5
		c-0.02-0.25-0.25-0.44-0.5-0.42c-2.66,0.23-5.34,0.07-7.95-0.48c-0.18-0.04-0.36-0.08-0.54-0.14c0,0,0.01,0,0.01-0.01
		c0.09-0.09,0.09-0.24,0-0.33l-0.23-0.22l0.67-0.67l0.23,0.23c0.05,0.04,0.1,0.07,0.17,0.07c0.06,0,0.12-0.02,0.16-0.07
		c0.09-0.09,0.09-0.24,0-0.33l-0.23-0.23l0.22-0.22c0.09-0.09,0.09-0.24,0-0.33c-0.09-0.09-0.24-0.09-0.33,0l-0.22,0.22l-0.39-0.39
		c0.58-0.17,1.23-0.14,1.85-0.06l0.41,0.41l-0.53,0.53c-0.09,0.09-0.09,0.24,0,0.33c0.04,0.05,0.1,0.07,0.16,0.07
		c0.06,0,0.12-0.02,0.17-0.07l0.53-0.53l0.65,0.65c0.04,0.04,0.1,0.07,0.16,0.07c0.06,0,0.12-0.02,0.17-0.07
		c0.09-0.09,0.09-0.24,0-0.33l-0.65-0.65l0.23-0.23c0.01-0.01,0.01-0.03,0.02-0.05c0.06,0.01,0.11,0.03,0.18,0.04
		c0,0.06,0.02,0.11,0.06,0.15l0.69,0.69l-0.16,0.16c-0.09,0.09-0.09,0.24,0,0.33c0.04,0.04,0.1,0.07,0.16,0.07s0.12-0.02,0.17-0.07
		l0.16-0.16l0.27,0.27c0.05,0.05,0.1,0.07,0.16,0.07c0.06,0,0.12-0.02,0.16-0.07c0.09-0.09,0.09-0.24,0-0.33l-0.27-0.27l0.57-0.57
		c0.01-0.01,0.01-0.03,0.02-0.04c0.01,0,0.02,0,0.02,0c-0.03,0.08-0.03,0.18,0.03,0.25l0.39,0.39l-0.02,0.02
		c-0.09,0.09-0.09,0.24,0,0.33c0.04,0.04,0.1,0.07,0.16,0.07c0.06,0,0.12-0.02,0.17-0.07l0.02-0.02l0.4,0.4
		c0.05,0.05,0.1,0.07,0.16,0.07s0.12-0.02,0.16-0.07c0.09-0.09,0.09-0.24,0-0.33l-0.4-0.4l0.33-0.33c0.08-0.08,0.08-0.2,0.02-0.29
		c0.07,0,0.13,0,0.2-0.01l0.32,0.32l-0.28,0.28c-0.09,0.09-0.09,0.24,0,0.33c0.05,0.05,0.1,0.07,0.17,0.07
		c0.06,0,0.12-0.02,0.16-0.07l0.28-0.28l0.22,0.22c0.04,0.04,0.1,0.07,0.16,0.07s0.12-0.02,0.17-0.07c0.09-0.09,0.09-0.24,0-0.33
		l-0.22-0.22l0.11-0.11c0.09-0.09,0.08-0.22,0.01-0.31c0.22-0.03,0.45-0.04,0.67-0.08c0.25-0.04,0.42-0.28,0.38-0.53
		c-0.04-0.25-0.28-0.43-0.53-0.38c-1.67,0.28-3.36,0.26-5.03-0.04c-0.36-0.07-0.74-0.19-1.01-0.37c0.01-0.01,0.02,0,0.02-0.01
		l0.45-0.45l0.28,0.28c0.04,0.05,0.1,0.07,0.16,0.07c0.06,0,0.12-0.02,0.16-0.07c0.09-0.09,0.09-0.24,0-0.33l-0.28-0.27l0.51-0.52
		c0.08,0.1,0.74,0.75,0.82,0.84c0.05,0.05,0.1,0.07,0.16,0.07c0.06,0,0.12-0.02,0.16-0.07c0.09-0.09,0.09-0.24,0-0.33L42,21.58
		l0.51-0.51l0.5,0.5c0.04,0.05,0.1,0.07,0.16,0.07c0.06,0,0.12-0.02,0.17-0.07c0.07-0.07,0.07-0.17,0.03-0.25
		c0.05,0.04,0.1,0.07,0.16,0.07c0.06,0,0.12-0.02,0.16-0.07l0.43-0.43l0.57,0.57c0.05,0.05,0.11,0.07,0.17,0.07s0.12-0.02,0.16-0.07
		c0.09-0.09,0.09-0.24,0-0.33l-0.44-0.44c2.9-0.05,7.66,0.15,10.32,1.35c3.46,1.56,4.43,4.67,3.08,7.84c0,0,0-0.01-0.01-0.02
		c-0.09-0.09-0.24-0.09-0.33,0l-0.06,0.06c-0.01-0.03-0.01-0.07-0.04-0.09l-0.46-0.46c-0.01-0.03-0.01-0.06-0.04-0.09
		c-0.02-0.02-0.06-0.02-0.08-0.03l-0.14-0.14c-0.09-0.09-0.24-0.09-0.33,0c-0.09,0.09-0.09,0.24,0,0.33l0.04,0.04l-1.16,1.16
		l-0.06-0.06c-0.09-0.09-0.24-0.09-0.33,0c-0.09,0.09-0.09,0.24,0,0.33l0.06,0.06l-0.39,0.39c-0.09,0.09-0.09,0.24,0,0.33
		c0.05,0.04,0.1,0.07,0.16,0.07c0.06,0,0.12-0.02,0.16-0.07l0.39-0.39l0.47,0.47l-1.02,1.02l-0.53-0.53c-0.09-0.09-0.24-0.09-0.33,0
		c-0.09,0.09-0.09,0.24,0,0.33l0.53,0.53l-0.45,0.45c-0.09,0.09-0.09,0.24,0,0.33c0.05,0.04,0.1,0.07,0.16,0.07
		c0.06,0,0.12-0.02,0.16-0.07l0.45-0.45l0.2,0.2c0.01,0.01,0.03,0.01,0.04,0.02c-0.27,0.24-0.54,0.45-0.79,0.65l-1.34-1.34
		l1.18-1.18c0.09-0.09,0.09-0.24,0-0.33c-0.09-0.09-0.24-0.09-0.33,0l-2.14,2.14c-0.04,0.04-0.05,0.09-0.06,0.14
		c-0.09-0.05-0.19-0.05-0.27,0.03c-0.09,0.09-0.09,0.24,0,0.33l0.79,0.79l-0.83,0.83l-0.82-0.81c-0.09-0.09-0.24-0.09-0.33,0
		c-0.09,0.09-0.09,0.24,0,0.33l0.1,0.1c-0.02,0.01-0.04,0.01-0.05,0.02l-0.88,0.88l-0.1-0.1c-0.09-0.09-0.24-0.09-0.33,0
		c-0.09,0.09-0.09,0.24,0,0.33l0.1,0.1l-0.65,0.65l-0.42-0.42c0-0.05-0.02-0.11-0.06-0.15c-0.09-0.09-0.24-0.09-0.33,0l-0.75,0.75
		c-0.08-0.02-0.15-0.01-0.21,0.05c-0.06,0.06-0.07,0.14-0.05,0.21l-0.7,0.71l-0.26-0.26c-0.09-0.09-0.24-0.09-0.33,0
		c-0.09,0.09-0.09,0.24,0,0.33l0.26,0.26l-0.12,0.12C44.41,38.58,43.64,37.66,45.67,35.95 M37.21,30.64l-0.67,0.67
		c-0.09-0.09-0.28-0.28-0.38-0.36C36.41,30.68,36.83,30.55,37.21,30.64C37.2,30.65,37.2,30.64,37.21,30.64 M38.73,30.95l-0.35-0.35
		l0.75,0.01c-0.04,0.01-0.08,0.01-0.11,0.05L38.73,30.95z M34.38,28.36l0.03,0.03l-0.02,0.02C34.38,28.39,34.38,28.37,34.38,28.36
		 M35.37,26.86l0.28,0.28l-0.92,0.92l-0.34-0.34C34.53,27.24,34.9,26.96,35.37,26.86 M36.03,25.26c-0.03-0.04-0.07-0.07-0.09-0.12
		l0.1,0.1L36.03,25.26z M36.57,23.7c0.01,0.14,0.36,0.44,0.47,0.55l-0.67,0.67l-0.45-0.45C36.03,24.14,36.28,23.87,36.57,23.7
		 M39.49,23.4c0.05,0.02,0.11,0.04,0.17,0.06l-0.09,0.09l-0.12-0.12C39.46,23.42,39.47,23.41,39.49,23.4 M39.43,21.34l0.26,0.25
		l-0.45,0.45c0,0,0,0.01-0.01,0.01c-0.03-0.06-0.06-0.13-0.06-0.2C39.17,21.69,39.27,21.5,39.43,21.34 M40.31,20.98l-0.29,0.3
		l-0.16-0.16C40,21.05,40.15,21,40.31,20.98 M41.28,20.87c0.28-0.02,0.55-0.04,0.83-0.06l-0.45,0.45L41.28,20.87z M43.33,21.24
		l-0.49-0.49c0.27-0.02,0.53-0.03,0.8-0.04l-0.28,0.28C43.29,21.05,43.29,21.15,43.33,21.24 M55.37,33.36
		c-0.01-0.02-0.01-0.05-0.03-0.06l-0.2-0.2l1.02-1.02c0,0,0,0,0,0c0.04,0.04,0.1,0.06,0.16,0.06c0.06,0,0.12-0.02,0.16-0.07
		c0.09-0.09,0.09-0.24,0-0.33l-0.79-0.79l1.16-1.16l0.36,0.36c0.03,0.03,0.06,0.03,0.09,0.04l-0.7,0.7c-0.09,0.09-0.09,0.24,0,0.33
		c0.05,0.05,0.11,0.07,0.17,0.07c0.06,0,0.12-0.02,0.16-0.07l0.76-0.76c-0.01,0.02-0.02,0.05-0.03,0.07
		C57.06,31.64,56.22,32.58,55.37,33.36 M52.59,33.28l0.56,0.56c-0.02,0.01-0.04,0.01-0.05,0.02l-0.67,0.67l-0.58-0.58
		c0.04-0.01,0.08-0.02,0.11-0.05L52.59,33.28z M51.33,36.3l1.1-1.11c0.04,0.04,0.1,0.06,0.15,0.06c0.06,0,0.12-0.02,0.16-0.07
		c0.09-0.09,0.09-0.22,0.01-0.31l0.67-0.68c0.02-0.01,0.01-0.04,0.02-0.06l0.44,0.44c-0.15,0.11-0.29,0.21-0.42,0.31
		C52.78,35.39,52.06,35.85,51.33,36.3 M48.42,37.87c-0.08,0.04-0.16,0.07-0.24,0.11l0.14-0.15C48.36,37.85,48.38,37.87,48.42,37.87
		 M49.56,37.13c0.05,0.04,0.11,0.07,0.16,0.07c0.04,0,0.08-0.02,0.11-0.05c-0.4,0.22-0.8,0.42-1.21,0.62c0.05-0.08,0.05-0.16,0-0.24
		l0.66-0.66L49.56,37.13z M50.52,35.61l0.42,0.42l-0.28,0.28c-0.09,0.09-0.09,0.24,0,0.33c0.02,0.02,0.04,0.01,0.06,0.02
		c-0.27,0.16-0.55,0.31-0.83,0.46c0.09-0.09,0.09-0.23,0-0.32l-0.26-0.26l0.88-0.88C50.51,35.65,50.51,35.63,50.52,35.61
		 M47.52,38.29c0.09-0.22-0.21-0.43-0.4-0.62l0.51-0.51l0.37,0.36c-0.25,0.25-0.54,0.5-0.17,0.63
		C47.71,38.19,47.62,38.24,47.52,38.29 M46.78,37.99c0.1,0.1,0.35,0.37,0.47,0.41c-0.36,0.15-0.74,0.29-1.11,0.36
		c-0.01-0.04-0.02-0.07-0.04-0.1L46.78,37.99z M54.01,35.65c1.36-0.98,3.3-2.53,4.47-4.67c2-3.67,1.11-7.84-3.2-9.79
		c-4.21-1.89-14.5-1.68-16.07-0.82c-0.79,0.43-1.22,1.34-0.79,2.14c-3.31-0.25-4.09,2.22-3.07,3.42c-2.39,0.32-2.8,3.79,0.07,4.49
		c-0.46,0.56-0.59,1.37-0.3,2.04c0.89,2.1,7.06,2.45,9.22,2.45c0.4,0,0.8-0.01,1.2-0.03l-0.44,0.37
		C41.51,38.23,43.66,43.13,54.01,35.65"/>
	<path style="clip-path:url(#SVGID_00000048495313987467045990000009681539225525822341_);fill:#328612;" d="M18.27,35.69l0.01,0.01
		C18.27,35.7,18.27,35.7,18.27,35.69L18.27,35.69z M17.56,34.98l0.39,0.39l-0.27,0.27c-0.07-0.01-0.15-0.01-0.22-0.01l-0.42-0.42
		l0.5-0.5C17.48,34.79,17.48,34.9,17.56,34.98 M16.71,35.53l0.05,0.06c-0.04,0-0.07-0.01-0.1-0.01L16.71,35.53z M15.23,28.77
		C15.22,28.77,15.22,28.76,15.23,28.77l-0.05-0.06l0.28-0.28l0.35,0.35L15.23,28.77z M6.06,24.59c1.91-1.38,3.97-2.55,6.13-3.48
		c2.82-1.21,4.09,0.39,1.66,2.42L10.92,26c-0.2,0.16-0.22,0.46-0.06,0.65c0.16,0.2,0.45,0.22,0.65,0.06l1.3-1.09c0,0,0.01,0,0.01,0
		c2.97-0.25,5.95-0.03,8.85,0.66c0.59,0.14,1.27,0.36,1.66,0.77c-0.12,0.05-0.43,0.39-0.53,0.49l-0.5-0.5
		c-0.09-0.09-0.24-0.09-0.33,0c-0.09,0.09-0.09,0.24,0,0.33l0.5,0.5l-0.31,0.31l-0.49-0.49c-0.02-0.02-0.04-0.01-0.06-0.03
		c0.04-0.09,0.05-0.19-0.03-0.26c-0.09-0.09-0.24-0.09-0.33,0l-0.65,0.65l-0.31-0.31c-0.09-0.09-0.24-0.09-0.33,0
		c-0.09,0.09-0.09,0.24,0,0.33l0.31,0.31l-0.39,0.39c-0.02,0.02-0.02,0.05-0.03,0.08l-0.49-0.01l-0.26-0.26l0.82-0.82
		c0.09-0.09,0.09-0.24,0-0.33s-0.24-0.09-0.33,0l-0.82,0.82l-0.23-0.24c-0.09-0.09-0.24-0.09-0.33,0c-0.09,0.09-0.09,0.24,0,0.33
		l0.24,0.24l-0.21,0.21c-0.01,0.01,0,0.02-0.01,0.03l-0.71-0.01c-0.01-0.01,0-0.02-0.01-0.03l-0.21-0.21l0.72-0.72
		c0.09-0.09,0.09-0.24,0-0.33c-0.09-0.09-0.24-0.09-0.33,0l-0.74,0.74c-0.08-0.04-0.18-0.04-0.25,0.03
		c-0.07,0.07-0.07,0.17-0.03,0.26l-0.24,0.24h-0.02c-0.01-0.03-0.01-0.07-0.04-0.1l-0.59-0.59l0.61-0.61c0.09-0.09,0.09-0.24,0-0.33
		c-0.09-0.09-0.24-0.09-0.33,0l-1.23,1.23l-0.16-0.16c-0.09-0.09-0.24-0.09-0.33,0c-0.09,0.09-0.09,0.24,0,0.33l0.16,0.16
		l-0.04,0.04l-0.61-0.01h-0.01c-0.25,0-0.46,0.2-0.46,0.45c-0.01,0.26,0.2,0.47,0.45,0.47l8.62,0.17c0.8,0.02,1.6,0.09,2.14,0.47
		l-0.24,0.24c-0.07-0.01-0.13,0.01-0.18,0.06c-0.07,0.07-0.07,0.16-0.03,0.24c-0.01,0.07,0.01,0.13,0.06,0.19
		c0.03,0.03,0.08,0.05,0.13,0.05l0.56,0.56c0.1,0.1,0.17,0.07,0.25,0.03c-0.07,0.33-0.15,0.41-0.26,0.53
		c-0.06-0.11-0.34-0.37-0.43-0.46c0.08-0.09,0.08-0.23-0.01-0.32c-0.09-0.09-0.22-0.09-0.32,0l-0.13-0.13
		c-0.09-0.09-0.24-0.09-0.33,0c-0.09,0.09-0.09,0.24,0,0.33l0.12,0.12l-0.55,0.55l-0.56-0.56l0.55-0.55c0.09-0.09,0.09-0.24,0-0.33
		c-0.09-0.09-0.24-0.09-0.33,0l-1.42,1.42l-0.62-0.62c-0.02-0.02-0.06-0.02-0.09-0.04l0.69-0.69c0.09-0.09,0.09-0.24,0-0.33
		c-0.09-0.09-0.24-0.09-0.33,0l-1.62,1.62c-0.02,0-0.05-0.01-0.07-0.01c0.01-0.07,0-0.14-0.06-0.19l-0.45-0.45l0.15-0.15
		c0.09-0.09,0.09-0.24,0-0.33c-0.09-0.09-0.24-0.09-0.33,0l-0.15,0.15c-0.09-0.08-0.22-0.08-0.31,0.01
		c-0.09,0.08-0.08,0.22-0.01,0.31l-0.51,0.51c-0.01,0-0.01,0-0.02,0c0-0.06-0.02-0.11-0.07-0.16l-0.27-0.28l0.47-0.47
		c0.09-0.09,0.09-0.24,0-0.33c-0.09-0.09-0.24-0.09-0.33,0l-0.47,0.47c-0.09-0.07-0.22-0.08-0.31,0.01
		c-0.09,0.09-0.08,0.22-0.01,0.31l-0.4,0.4c-0.12,0-0.23,0-0.35,0l-0.36-0.36l0.5-0.5c0.09-0.09,0.09-0.24,0-0.33
		c-0.09-0.09-0.24-0.09-0.33,0l-0.64,0.64c-0.01,0.01-0.03,0.01-0.04,0.02c-0.01,0.01-0.01,0.03-0.02,0.04l-0.43,0.43l-0.32-0.32
		c-0.09-0.09-0.24-0.09-0.33,0c-0.09,0.09-0.09,0.24,0,0.33l0.15,0.15c-0.06,0-0.12,0-0.18,0.01c-0.26,0.02-0.44,0.25-0.42,0.5
		c0.02,0.25,0.25,0.44,0.5,0.42c2.66-0.23,5.33-0.07,7.95,0.48c2.49,0.52,1.69,2.14,0.32,2.46c-0.06-0.11-0.2-0.23-0.29-0.32
		l0.47-0.47c0.11,0.11,0.29,0.34,0.43,0.34c0.21,0,0.31-0.25,0.16-0.4l-0.28-0.28c0.05-0.09,0.06-0.2-0.02-0.28
		c-0.08-0.08-0.19-0.07-0.28-0.02l-0.16-0.16c-0.09-0.09-0.24-0.09-0.33,0c-0.09,0.09-0.09,0.24,0,0.33l0.15,0.15l-0.47,0.47
		l-0.37-0.37c-0.02-0.02-0.05-0.02-0.07-0.03c0.08-0.09,0.08-0.23-0.01-0.31c-0.09-0.09-0.24-0.09-0.33,0l-0.71,0.7l-0.64-0.63
		c-0.09-0.09-0.24-0.09-0.33,0c-0.09,0.09-0.09,0.24,0,0.33l0.64,0.63l-0.26,0.26c-0.01,0.01-0.01,0.02-0.01,0.03
		c-0.17-0.05-0.35-0.1-0.55-0.14c-0.03-0.01-0.07-0.01-0.1-0.01l-0.44-0.44l1.07-1.07c0.09-0.09,0.09-0.24,0-0.33
		c-0.09-0.09-0.24-0.09-0.33,0l-1.07,1.07l-0.39-0.39c-0.08-0.07-0.18-0.07-0.27-0.02l0.09-0.09c0.09-0.09,0.09-0.24,0-0.33
		c-0.09-0.09-0.24-0.09-0.33,0l-0.66,0.66l-0.15-0.15c-0.09-0.09-0.24-0.09-0.33,0c-0.09,0.09-0.09,0.24,0,0.33l0.15,0.15
		l-0.39,0.38c-0.06,0-0.13,0.01-0.19,0.01l-0.28-0.28l0.66-0.66c0.09-0.09,0.09-0.24,0-0.33c-0.09-0.09-0.24-0.09-0.33,0l-0.66,0.66
		l-0.24-0.24c-0.09-0.09-0.24-0.09-0.33,0c-0.09,0.09-0.09,0.24,0,0.33l0.24,0.23l-0.38,0.38c-0.23,0.03-0.46,0.05-0.68,0.08
		c-0.25,0.04-0.42,0.28-0.38,0.53c0.04,0.25,0.28,0.43,0.53,0.38c1.67-0.28,3.36-0.26,5.03,0.04c1.81,0.33,1.98,1.61-0.27,1.85
		c-3.22,0.34-6.48,0.32-9.69-0.07C-1.14,37.29-1.27,29.89,6.06,24.59 M22.23,28.84c-0.02,0-0.04,0-0.05,0l0.01-0.01
		C22.21,28.83,22.22,28.83,22.23,28.84 M23.01,28.4c0.09,0.09,0.24,0.09,0.33,0c0.09-0.09,0.09-0.24,0-0.33l-0.2-0.2l0.44-0.44
		c0.31,0.82-0.44,1.61-1.25,1.41c0,0,0,0-0.01,0c0.05-0.01,0.09-0.02,0.12-0.05c0.07-0.07,0.07-0.17,0.03-0.26l0.33-0.33L23.01,28.4
		z M20.78,28.87l-0.31-0.01l0.15-0.15L20.78,28.87z M21.45,28.89l-0.5-0.5l0.39-0.39c0.01,0.01,0,0.02,0.01,0.03l0.49,0.49
		l-0.16,0.16c-0.06,0.06-0.06,0.14-0.05,0.22L21.45,28.89z M24.95,30.62c0.13,0.19,0.21,0.42,0.23,0.65l-0.44-0.44L24.95,30.62z
		 M24.53,32.48c0,0,0.01,0,0.01,0.01c-0.29,0.16-0.63,0.2-0.95,0.13l0.54-0.54L24.53,32.48z M21.88,32.56l0.49-0.49l0.55,0.55
		c-0.05,0.04-0.09,0.08-0.13,0.14c-0.18-0.05-0.36-0.1-0.53-0.13C22.14,32.6,22.01,32.59,21.88,32.56 M20.52,31.89
		c0.01,0.03,0.01,0.06,0.04,0.09l0.43,0.43c-0.28-0.05-0.56-0.1-0.84-0.14L20.52,31.89z M18.65,31.89l0.26,0.26
		c-0.16-0.01-0.31-0.03-0.47-0.05L18.65,31.89z M17.12,31.97l0.09,0.09c-0.06,0-0.12,0-0.18,0L17.12,31.97z M15.36,32l0.06,0.06
		c-0.04,0-0.09,0-0.13,0.01L15.36,32z M21.78,36.01l0.07,0.07c-0.05,0-0.1,0.01-0.15,0.01L21.78,36.01z M21.06,35.24
		c0.01,0.02,0.01,0.05,0.03,0.07l0.37,0.37l-0.12,0.12c-0.07,0.07-0.07,0.18-0.03,0.27c-0.1-0.01-0.2-0.01-0.3-0.02l-0.38-0.38
		L21.06,35.24z M8.92,39.44c3.22,0.39,6.55,0.43,9.9,0.07c2.32-0.24,2.8-1.59,2.31-2.52c3.21,0.25,4.13-2.19,3.06-3.42
		c2.42-0.32,2.79-3.79-0.06-4.48c0.77-0.93,0.91-2.95-2.23-3.7c-2.6-0.62-5.25-0.85-7.91-0.74l0.47-0.39
		c3.23-2.7,1.17-5.62-2.63-3.98c-2.22,0.95-4.35,2.16-6.31,3.58C-2.54,29.66-2.08,38.12,8.92,39.44"/>
	<path style="clip-path:url(#SVGID_00000048495313987467045990000009681539225525822341_);fill:#328612;" d="M32.11,23.55
		c-0.04,0.02-0.09,0.02-0.13,0.03c-0.01-0.04-0.02-0.09-0.05-0.12l-0.12-0.12l0.75-0.75c0.09-0.09,0.09-0.24,0-0.33
		c-0.09-0.09-0.24-0.09-0.33,0l-0.75,0.75l-0.13-0.13c-0.09-0.09-0.24-0.09-0.33,0c-0.09,0.09-0.09,0.24,0,0.33l0.13,0.13
		l-0.07,0.07c0,0,0,0.01,0,0.01c-0.02-0.02-0.05-0.03-0.08-0.05c-0.09-0.08-0.16-0.18-0.22-0.29l0.75-0.74l0.03,0.03
		c0.09,0.09,0.24,0.09,0.33,0c0.09-0.09,0.09-0.24,0-0.33l-0.08-0.08c0-0.06-0.02-0.12-0.07-0.16c-0.04-0.04-0.1-0.07-0.16-0.07
		l-0.61-0.61l0.44-0.44c0.09-0.09,0.09-0.24,0-0.33c-0.09-0.09-0.24-0.09-0.33,0l-0.26,0.26v-1.19l0.7-0.7
		c0.09-0.09,0.09-0.24,0-0.33c-0.09-0.09-0.24-0.09-0.33,0l-0.37,0.37v0c0-0.09-0.07-0.16-0.15-0.2l0.02-0.78
		c0.01-0.01,0.02,0,0.03-0.01l0.35-0.35l0.45,0.45c0.09,0.09,0.24,0.09,0.33,0c0.09-0.09,0.09-0.24,0-0.33L31.4,17.1l0.31-0.31
		c0.09-0.09,0.09-0.24,0-0.33c-0.09-0.09-0.24-0.09-0.33,0l-0.31,0.31l-0.36-0.36l0.01-0.45l0.46-0.46l0.53,0.53
		c0.09,0.09,0.24,0.09,0.33,0c0.09-0.09,0.09-0.24,0-0.33l-1.28-1.28l0.01-0.58c0.01-0.26-0.2-0.47-0.45-0.47H30.3
		c-0.25,0-0.46,0.2-0.46,0.45l-0.17,8.62c-0.01,0.76-0.07,1.52-0.4,2.06c-0.05-0.07-0.12-0.16-0.23-0.26l0.37-0.37
		c0.09-0.09,0.09-0.24,0-0.33c-0.09-0.09-0.24-0.09-0.33,0l-0.37,0.37l-0.08-0.09c-0.09-0.09-0.24-0.09-0.33,0
		c-0.09,0.09-0.09,0.24,0,0.33c0.03,0.03,0.06,0.06,0.08,0.09l-0.31,0.31c0-0.05-0.02-0.1-0.06-0.14l-0.65-0.65l0.6-0.6
		c0.09-0.09,0.09-0.24,0-0.33c-0.09-0.09-0.24-0.09-0.33,0l-0.6,0.6l-0.1-0.1c0.08-0.21-0.01-0.44-0.2-0.55
		c0.02-0.05,0.03-0.11,0.05-0.16l0.49-0.49l0.68,0.68c0.09,0.09,0.24,0.09,0.33,0s0.09-0.24,0-0.33l-0.68-0.68l0.12-0.12
		c0.09-0.09,0.09-0.24,0-0.33c-0.09-0.09-0.24-0.09-0.33,0l-0.12,0.12l-0.12-0.12c-0.03-0.03-0.08-0.04-0.12-0.05
		c0.06-0.35,0.13-0.7,0.18-1.06l0.48-0.48l0.71,0.71c0.09,0.09,0.24,0.09,0.33,0c0.09-0.09,0.09-0.24,0-0.33l-0.71-0.71l0.12-0.12
		c0.09-0.09,0.09-0.24,0-0.33c-0.09-0.09-0.24-0.09-0.33,0l-0.12,0.12l-0.16-0.16c-0.05-0.05-0.11-0.07-0.18-0.06
		c0.01-0.11,0.02-0.22,0.03-0.33c0.01,0,0.01,0.01,0.01,0.01c0.06,0,0.12-0.02,0.17-0.07l0.55-0.55l0.33,0.33
		c0.09,0.09,0.24,0.09,0.33,0c0.09-0.09,0.09-0.24,0-0.33l-0.33-0.33l0.25-0.25c0.09-0.09,0.09-0.24,0-0.33
		c-0.09-0.09-0.24-0.09-0.33,0l-0.24,0.25l-0.6-0.6c0.02-0.01,0.06-0.01,0.08-0.03l0.54-0.54c0.09-0.09,0.09-0.24,0-0.33
		c-0.09-0.09-0.24-0.09-0.33,0l-0.34,0.34c0-0.37-0.03-0.73-0.05-1.1L27.45,15l0.99,0.99c0.09,0.09,0.24,0.09,0.33,0
		c0.09-0.09,0.09-0.24,0-0.33l-0.99-0.99l0.14-0.14c0.09-0.09,0.09-0.24,0-0.33c-0.09-0.09-0.24-0.09-0.33,0l-0.14,0.14l-0.04-0.04
		c-0.01-0.01-0.02-0.01-0.03-0.01c-0.01-0.09-0.01-0.17-0.01-0.26c-0.02-0.25-0.26-0.44-0.5-0.42c-0.26,0.02-0.45,0.25-0.42,0.5
		c0.23,2.66,0.07,5.33-0.48,7.95c-0.12,0.56-0.32,1.32-0.85,1.54l0.19-0.19c0.09-0.09,0.09-0.24,0-0.33
		c-0.07-0.07-0.16-0.07-0.24-0.04c0-0.01,0-0.01-0.01-0.02l-0.48-0.48l0.1-0.1c0.09-0.09,0.09-0.24,0-0.33
		c-0.09-0.09-0.24-0.09-0.33,0l-0.1,0.1l-0.47-0.47l0.64-0.64c0.08,0.02,0.13,0.04,0.22-0.05c0.06-0.06,0.06-0.14,0.05-0.22
		l0.09-0.09c0.09-0.09,0.09-0.24,0-0.33c-0.09-0.09-0.24-0.09-0.33,0l-0.05,0.05l-0.75-0.75l0.34-0.34l0.17,0.17
		c0.05,0.05,0.1,0.07,0.17,0.07c0.06,0,0.12-0.02,0.16-0.07c0.09-0.09,0.09-0.24,0-0.33l-0.17-0.17l0.22-0.22
		c0.09-0.09,0.09-0.24,0-0.33c-0.09-0.09-0.24-0.09-0.33,0l-0.22,0.22l-0.22-0.22c0.03-0.23,0.07-0.45,0.09-0.68l0.38-0.38
		l0.13,0.13c0.09,0.09,0.24,0.09,0.33,0c0.09-0.09,0.09-0.24,0-0.33l-0.13-0.13l0.25-0.25c0.09-0.09,0.09-0.24,0-0.33
		c-0.09-0.09-0.24-0.09-0.33,0l-0.25,0.25l-0.3-0.3c0-0.1-0.01-0.19-0.01-0.29c0.01,0,0.03,0.02,0.04,0.02
		c0.06,0,0.12-0.02,0.16-0.07l0.51-0.51l0.14,0.14c0.09,0.09,0.24,0.09,0.33,0c0.09-0.09,0.09-0.24,0-0.33l-0.9-0.9l0.19-0.2
		c0.09-0.09,0.09-0.24,0-0.33c-0.09-0.09-0.24-0.09-0.33,0l-0.19,0.2l-0.11-0.11c-0.01-0.11-0.02-0.23-0.04-0.34
		c-0.04-0.25-0.29-0.43-0.53-0.38c-0.25,0.04-0.42,0.28-0.38,0.53c0.27,1.67,0.26,3.36-0.04,5.03c-0.33,1.83-1.61,1.95-1.85-0.27
		c-0.4-3.76-0.41-10.64,1.13-14.07c2.11-4.68,7.76-5.63,12.86,1.42c1.38,1.91,2.55,3.97,3.48,6.13c1.22,2.83-0.4,4.08-2.42,1.66
		l-2.46-2.93c-0.16-0.2-0.46-0.22-0.65-0.06c-0.2,0.16-0.22,0.46-0.06,0.65l1.09,1.3c0,0,0,0.01,0,0.01
		C34.11,15.4,33.91,22.79,32.11,23.55 M30.71,17.06l0.04,0.04l-0.04,0.04L30.71,17.06z M30.61,21.96l0.01-0.48l0.02-0.02l0.56,0.56
		l-0.56,0.56c0-0.09,0-0.18,0.03-0.27C30.7,22.18,30.68,22.06,30.61,21.96 M30.74,15.07l0.11,0.11l-0.12,0.12L30.74,15.07z
		 M28.12,25.16l0.6-0.6c0.08,0.09,0.15,0.16,0.18,0.19c0.01,0.02,0.02,0.03,0.04,0.05c0.02,0.02,0.05,0.02,0.08,0.03
		c-0.01,0.01-0.02,0.03-0.04,0.05C28.74,25.08,28.43,25.17,28.12,25.16 M26.9,24.23l0.15-0.15l0.65,0.65
		c0.04,0.04,0.09,0.05,0.14,0.06l-0.25,0.26C27.26,24.9,27.02,24.68,26.9,24.23 M27.31,19.38l0.06,0.06l-0.07,0.08
		C27.3,19.47,27.31,19.43,27.31,19.38 M27.45,17.27l0.34,0.35l-0.36,0.36C27.45,17.74,27.44,17.51,27.45,17.27 M23.92,23.21
		l0.33-0.33l0.47,0.47l-0.25,0.25C24.26,23.51,24.08,23.37,23.92,23.21 M23.43,21.4c0.01-0.14,0.09-1.08,0.09-1.13l0.54,0.54
		l-0.61,0.61L23.43,21.4z M23.46,22.08L23.46,22.08l0.47,0.47l-0.27,0.27C23.57,22.65,23.5,22.47,23.46,22.08 M23.86,14.9l0.02-0.01
		l0.44,0.44l-0.4,0.4C23.9,15.45,23.89,15.17,23.86,14.9 M23.9,17.12L23.9,17.12v0.01C23.9,17.13,23.9,17.13,23.9,17.12 M39.24,11.8
		c-0.95-2.22-2.16-4.35-3.58-6.31c-5.55-7.68-12.07-6.55-14.46-1.26C19.61,7.79,19.57,14.7,20,18.79c0.25,2.33,1.59,2.8,2.52,2.31
		c-0.25,3.29,2.21,4.1,3.42,3.07c0.32,2.39,3.79,2.8,4.49-0.07c0.93,0.76,2.95,0.91,3.7-2.23c0.62-2.6,0.85-5.25,0.74-7.91
		C38.29,18.04,40.78,15.36,39.24,11.8"/>
	<path style="clip-path:url(#SVGID_00000048495313987467045990000009681539225525822341_);fill:#328612;" d="M37.83,39.18
		l-0.37,0.37l-0.2-0.2C37.43,39.18,37.61,39.11,37.83,39.18 M38.61,40.8c0.23,2.18,0.28,4.39,0.18,6.58
		c-0.08-0.03-0.17-0.02-0.24,0.04l-0.87,0.88l-0.07-0.07c-0.09-0.09-0.24-0.09-0.33,0c-0.09,0.09-0.09,0.24,0,0.33l0.78,0.78
		l-0.94,0.93c-0.09,0.09-0.09,0.24,0,0.33c0.09,0.09,0.24,0.09,0.33,0l0.93-0.94l0.21,0.21c-0.02,0.2-0.03,0.41-0.06,0.61
		c-0.17,1.37-0.42,2.96-1.06,4.39c-0.02,0.04-0.05,0.08-0.07,0.12c-0.08-0.02-0.16-0.02-0.22,0.04L37,55.22l-1.32-1.32
		c-0.09-0.09-0.24-0.09-0.33,0c-0.09,0.09-0.09,0.24,0,0.33l0.4,0.4l-0.4,0.41l-0.4-0.4c-0.09-0.09-0.24-0.09-0.33,0
		c-0.09,0.09-0.09,0.24,0,0.33l0.4,0.4l-1.27,1.27l-0.76-0.76c-0.09-0.09-0.24-0.09-0.33,0c-0.09,0.09-0.09,0.24,0,0.33l0.76,0.76
		l-0.76,0.76c-0.09,0.09-0.09,0.24,0,0.33c0.09,0.09,0.24,0.09,0.33,0l0.76-0.76l0.53,0.53c0.09,0.09,0.24,0.09,0.33,0
		c0.09-0.09,0.09-0.24,0-0.33l-0.53-0.52l1.27-1.27l0.6,0.6l-0.86,0.86c-0.09,0.09-0.09,0.24,0,0.33s0.24,0.09,0.33,0l0.88-0.88
		c0.03,0.01,0.05,0.03,0.08,0.03c-0.52,0.61-1.11,1.1-1.76,1.42c-1.2,0.58-2.71,0.65-4.18,0.21c0.07-0.09,0.07-0.22-0.01-0.3l0,0
		l0.69-0.69l1.04,1.04c0.09,0.09,0.24,0.09,0.33,0c0.09-0.09,0.09-0.24,0-0.33l-1.04-1.04l1.74-1.74c0.09-0.09,0.09-0.24,0-0.33
		c-0.09-0.09-0.24-0.09-0.33,0l-1.75,1.75c-0.09-0.08-0.23-0.08-0.31,0.01c-0.09,0.09-0.09,0.22-0.01,0.31l-0.7,0.7l-0.4-0.4
		c-0.09-0.09-0.24-0.09-0.33,0c-0.09,0.09-0.09,0.24,0,0.33l0.4,0.4l-0.05,0.05c-2.11-0.87-3.77-2.7-5.1-4.54
		c-1.38-1.91-2.55-3.97-3.48-6.13c-1.15-2.68,0.32-4.16,2.42-1.66l2.46,2.93c0.16,0.2,0.46,0.22,0.65,0.06
		c0.2-0.17,0.22-0.46,0.06-0.65L25.9,47c0.02-0.01,0.06-0.01,0.08-0.03c0.09-0.09,0.09-0.24,0-0.33l-0.08-0.08l1.2-1.2
		c0.09-0.09,0.09-0.24,0-0.33c-0.09-0.09-0.24-0.09-0.33,0l-0.3,0.3c-0.01-0.04-0.02-0.09-0.05-0.13l-0.49-0.49l1.35-1.35
		c0.09-0.09,0.09-0.24,0-0.33c-0.09-0.09-0.24-0.09-0.33,0l-0.26,0.26l-0.71-0.71l1.17-1.17c0.09-0.09,0.09-0.24,0-0.33
		c-0.06-0.06-0.14-0.07-0.22-0.05c-0.01-0.03-0.01-0.06-0.03-0.09l-0.53-0.53l1.13-1.13c0.09-0.09,0.09-0.24,0-0.33
		c-0.09-0.09-0.24-0.09-0.33,0l-1.13,1.13l-0.15-0.15c0.06-0.39,0.15-0.78,0.23-1.16l0.45,0.45c0.09,0.09,0.24,0.09,0.33,0
		c0.09-0.09,0.09-0.24,0-0.33l-0.41-0.41l0.98-0.98l0.01,0.01c0.09,0.09,0.24,0.09,0.33,0c0.09-0.09,0.09-0.24,0-0.33H27.8
		l0.34-0.34c0.09-0.09,0.09-0.24,0-0.33c-0.09-0.09-0.24-0.09-0.33,0l-0.34,0.34l-0.53-0.53c0.48-0.59,1.16-0.57,1.59-0.21
		c0.29,0.25,0.43,0.69,0.34,1.07c-0.03,0.13-0.01,0.25,0.05,0.35l-0.16,8.11c0,0.26,0.2,0.47,0.45,0.47h0.01
		c0.25,0,0.46-0.2,0.46-0.45l0.03-1.44l0.02-0.01l0.39,0.39c0.09,0.09,0.24,0.09,0.33,0c0.09-0.09,0.09-0.24,0-0.33l-0.39-0.39
		l0.41-0.41c0.09-0.09,0.09-0.24,0-0.33c-0.09-0.09-0.24-0.09-0.33,0l-0.41,0.41l0,0l0.02-0.97l0.35-0.35l0.2,0.2
		c0.09,0.09,0.24,0.09,0.33,0c0.09-0.09,0.09-0.24,0-0.33l-0.2-0.2c0.08-0.09,0.08-0.22-0.01-0.31c-0.08-0.08-0.22-0.08-0.31-0.01
		l-0.21-0.22l0.64-0.64c0.09-0.09,0.09-0.24,0-0.33c-0.02-0.03-0.06-0.03-0.09-0.04c0.06,0,0.12-0.02,0.16-0.07
		c0.09-0.09,0.09-0.24,0-0.33l-0.46-0.46l0.55-0.54c0.09-0.09,0.09-0.24,0-0.33c-0.24-0.24-0.62,0.29-0.88,0.55l0.02-0.84l0.09-0.09
		l0.3,0.3c0.09,0.09,0.24,0.09,0.33,0c0.09-0.09,0.09-0.24,0-0.33l-0.3-0.3l0.69-0.69c0.09-0.09,0.09-0.24,0-0.33
		c0-0.01-0.01,0-0.02-0.01c0.06,0,0.11-0.02,0.15-0.06c0.09-0.09,0.09-0.24,0-0.33l-0.53-0.53l0.46-0.46l0.42,0.42
		c0.09,0.09,0.24,0.09,0.33,0c0.09-0.09,0.09-0.24,0-0.33l-0.42-0.42l0.12-0.12c0.09-0.09,0.09-0.24,0-0.33
		c-0.09-0.09-0.24-0.09-0.33,0l-0.12,0.12l-0.32-0.32c1.15-0.73,2.39,0.49,1.9,1.6c-0.1,0.22-0.01,0.47,0.2,0.58
		c-0.05,0.18-0.1,0.35-0.13,0.52c-0.57,2.7-0.73,5.47-0.49,8.22c0.02,0.24,0.22,0.42,0.46,0.42c0.01,0,0.03,0,0.04,0
		c0.25-0.02,0.44-0.25,0.42-0.5c-0.01-0.16-0.01-0.33-0.02-0.5l0.53-0.53c0.18,0.03,0.27-0.1,0.25-0.25l0.9-0.9
		c0.09-0.09,0.09-0.24,0-0.33c-0.09-0.09-0.24-0.09-0.33,0l-0.86,0.86l-0.56-0.56c0-0.23,0.01-0.46,0.02-0.69l0.29-0.29l0.42,0.41
		c0.09,0.09,0.24,0.09,0.33,0c0.09-0.09,0.09-0.24,0-0.33l-0.42-0.42l0.92-0.92c0.09-0.09,0.09-0.24,0-0.33
		c-0.09-0.09-0.24-0.09-0.33,0l-0.92,0.92l-0.26-0.26c0.02-0.35,0.07-0.7,0.1-1.05c0.02,0,0.03,0.02,0.05,0.02
		c0.04,0,0.07-0.02,0.1-0.04l0.34,0.34c0.09,0.09,0.24,0.09,0.33,0c0.09-0.09,0.09-0.24,0-0.33l-0.32-0.32l1.05-1.05
		c0,0,0-0.01,0-0.01c0,0,0.01,0,0.01-0.01c0.09-0.09,0.09-0.24,0-0.33l-0.78-0.78l0.66-0.66l0.31,0.31c0.09,0.09,0.24,0.09,0.33,0
		c0.09-0.09,0.09-0.24,0-0.33l-0.31-0.31l0.19-0.19c0.09-0.09,0.09-0.24,0-0.33c-0.09-0.09-0.24-0.09-0.33,0l-0.19,0.19l-0.38-0.38
		c0.61-0.5,1.42,0.03,1.7,0.69c0.31,0.72,0.19,1.61,0.09,2.39c-0.02,0.13,0.03,0.26,0.11,0.36c-0.11,0.26-0.2,0.56-0.26,0.9
		c-0.32,1.77-0.33,3.57-0.04,5.34c0.04,0.25,0.28,0.43,0.53,0.38c0.25-0.04,0.43-0.28,0.38-0.53c-0.03-0.21-0.05-0.42-0.07-0.63
		l0.57-0.57c0.09,0.04,0.17,0.07,0.27-0.03c0.07-0.07,0.07-0.18,0.03-0.26l0.46-0.46c0.09-0.09,0.09-0.24,0-0.33
		c-0.09-0.09-0.24-0.09-0.33,0l-0.44,0.44l-0.61-0.61c-0.02-0.02-0.04-0.01-0.06-0.02c0-0.06,0.01-0.13,0.01-0.19
		c0.06,0,0.11-0.02,0.15-0.06l0.76-0.76l0.14,0.14c0.09,0.09,0.24,0.09,0.33,0c0.09-0.09,0.09-0.24,0-0.33l-0.14-0.14
		c0.18-0.18,0.38-0.33,0.19-0.52c-0.09-0.09-0.24-0.09-0.33,0l-0.19,0.19l-0.69-0.69c0,0-0.01,0-0.02-0.01
		c0.01-0.06,0.01-0.13,0.03-0.19c0.05-0.27,0.13-0.54,0.24-0.78l0.13,0.13l-0.07,0.07c-0.09,0.09-0.09,0.24,0,0.33
		c0.09,0.09,0.24,0.09,0.33,0l0.07-0.07l0.51,0.51c0.09,0.09,0.24,0.09,0.33,0c0.09-0.09,0.09-0.24,0-0.33l-0.51-0.51
		c0.09-0.09,0.34-0.33,0.41-0.44C38.5,39.79,38.56,40.34,38.61,40.8 M38.65,49.27L38.65,49.27c-0.01-0.05-0.02-0.1-0.06-0.14
		c-0.04-0.04-0.09-0.05-0.14-0.06L38,48.62l0.74-0.74l0.02,0.01C38.74,48.36,38.69,48.81,38.65,49.27 M36.73,56.15
		c-0.05,0.07-0.1,0.13-0.15,0.19c0-0.01-0.01-0.02-0.01-0.03L36.73,56.15z M36.67,55.55l-0.41,0.4l-0.6-0.6l0.4-0.41L36.67,55.55z
		 M25.62,42.22c0.03-0.4,0.09-0.79,0.14-1.19l0.29-0.29l0.53,0.53c0.01,0.01,0.03,0.01,0.04,0.02l-0.96,0.96L25.62,42.22z
		 M25.55,44.33c0-0.45,0.02-0.9,0.05-1.35l0.06-0.06l0.71,0.71l-0.76,0.76L25.55,44.33z M25.57,45.08l0.03-0.03l0.49,0.49
		c0.03,0.03,0.08,0.04,0.12,0.05l-0.6,0.6C25.6,45.82,25.58,45.45,25.57,45.08 M26.68,36.72l0.46,0.46l-0.88,0.88
		c0.02-0.08,0.03-0.15,0.05-0.23C26.39,37.46,26.51,37.06,26.68,36.72 M30.06,35.47c0.07-0.23,0.17-0.44,0.31-0.62l0.32,0.32
		l-0.46,0.46L30.06,35.47z M29.85,37.52c0.01-0.76,0.01-0.52,0.03-0.87l0.35-0.35l0.53,0.53c0.01,0,0.01,0,0.02,0.01
		c-0.05,0-0.11,0.02-0.15,0.06l-0.69,0.69L29.85,37.52z M29.81,39.84l0.01-0.02l0.46,0.46c0.02,0.03,0.06,0.03,0.09,0.04
		c-0.06,0-0.12,0.02-0.16,0.07l-0.42,0.42L29.81,39.84z M29.77,41.88l0.01,0.01l-0.01,0.01V41.88z M33.57,37.38
		c0.07-0.33,0.18-0.69,0.34-0.98l0.35,0.35L33.6,37.4L33.57,37.38z M33.21,39.47c0.05-0.41,0.13-0.82,0.21-1.23l0.18-0.18l0.61,0.61
		l-0.9,0.9L33.21,39.47z M33.01,43.85l0.21,0.21l-0.19,0.19C33.02,44.12,33.01,43.98,33.01,43.85 M36.66,41.29l0.46,0.46l-0.55,0.55
		C36.58,41.96,36.61,41.62,36.66,41.29 M36.55,43.73l0.32,0.31l-0.29,0.29C36.56,44.13,36.56,43.93,36.55,43.73 M33.59,35.32
		c-0.32-2.38-3.79-2.81-4.49,0.07c-0.93-0.76-2.95-0.91-3.7,2.23c-0.62,2.6-0.85,5.25-0.74,7.91l-0.39-0.47
		c-2.71-3.23-5.62-1.18-3.98,2.63c0.96,2.22,2.16,4.35,3.58,6.31c4.17,5.78,8.45,6.19,11.16,4.88c1.38-0.67,2.55-1.96,3.3-3.62
		c0.69-1.54,0.97-3.22,1.14-4.66c0.4-3.27,0.42-6.6,0.07-9.9c-0.25-2.34-1.59-2.8-2.52-2.31C37.26,35.11,34.8,34.29,33.59,35.32"/>
	<path style="clip-path:url(#SVGID_00000048495313987467045990000009681539225525822341_);fill:#328612;" d="M57.02,28.8
		c0.06,0,0.12-0.02,0.17-0.07l0.32-0.32l0.33,0.33c0.05,0.05,0.1,0.07,0.16,0.07c0.06,0,0.12-0.02,0.16-0.07
		c0.09-0.09,0.09-0.24,0-0.33l-0.33-0.34l0.27-0.27c0.09-0.09,0.09-0.24,0-0.33c-0.09-0.09-0.24-0.09-0.33,0l-0.27,0.27l-0.16-0.16
		c-0.09-0.09-0.24-0.09-0.33,0c-0.09,0.09-0.09,0.24,0,0.33l0.16,0.16l-0.33,0.32c-0.09,0.09-0.09,0.24,0,0.33
		C56.9,28.78,56.96,28.8,57.02,28.8"/>
	<path style="clip-path:url(#SVGID_00000048495313987467045990000009681539225525822341_);fill:#328612;" d="M36.54,52.28
		c-0.09,0.09-0.09,0.24,0,0.33l0.22,0.22l-0.42,0.41c-0.22,0.22,0.12,0.54,0.33,0.33l0.42-0.41l0.44,0.44
		c0.09,0.09,0.24,0.09,0.33,0c0.09-0.09,0.09-0.24,0-0.33l-0.44-0.44l0.51-0.51c0.09-0.09,0.09-0.24,0-0.33s-0.24-0.09-0.33,0
		L37.1,52.5l-0.22-0.22C36.78,52.19,36.63,52.19,36.54,52.28"/>
	<path style="clip-path:url(#SVGID_00000048495313987467045990000009681539225525822341_);fill:#328612;" d="M37.96,51.82
		c0.04,0.04,0.1,0.07,0.17,0.07c0.06,0,0.12-0.02,0.16-0.07c0.09-0.09,0.09-0.24,0-0.33l-0.76-0.76c-0.21-0.22-0.55,0.11-0.33,0.33
		L37.96,51.82z"/>
</g>
</svg>
