<?xml version="1.0" encoding="utf-8"?>
<!-- Generator: Adobe Illustrator 25.4.1, SVG Export Plug-In . SVG Version: 6.00 Build 0)  -->
<svg version="1.1" id="Layer_1" xmlns="http://www.w3.org/2000/svg" xmlns:xlink="http://www.w3.org/1999/xlink" x="0px" y="0px"
	 viewBox="0 0 56.34 58.95" style="enable-background:new 0 0 56.34 58.95;" xml:space="preserve">
<style type="text/css">
	.st0{clip-path:url(#SVGID_00000148623222550732102710000013706635356589661351_);fill:#328612;}
	.st1{clip-path:url(#SVGID_00000014631063112663773320000018282291378559546022_);fill:#338712;}
	.st2{clip-path:url(#SVGID_00000161600810273180709740000016367865828455305621_);fill:#338712;}
	.st3{clip-path:url(#SVGID_00000004543104672911923910000000272733157177154239_);fill:#338712;}
	.st4{clip-path:url(#SVGID_00000094616537943295790050000014774692160680006531_);fill:#338712;}
	.st5{clip-path:url(#SVGID_00000028297078231317644210000010942920657873005186_);fill:#338712;}
	.st6{clip-path:url(#SVGID_00000099661268340649495470000017162512542850486416_);fill:#328612;}
	.st7{clip-path:url(#SVGID_00000075163500633519405590000003656041623313107078_);fill:#328612;}
	.st8{clip-path:url(#SVGID_00000055704116921699182530000006892918703636291729_);fill:#328612;}
	.st9{clip-path:url(#SVGID_00000088106657766484952200000002891849804947860118_);fill:#328612;}
	.st10{clip-path:url(#SVGID_00000111885749937320895170000012564905252795935384_);fill:#328612;}
	.st11{clip-path:url(#SVGID_00000116952190000431091810000014299676230084834435_);fill:#328612;}
	.st12{fill:#328612;}
</style>
<g>
	<defs>
		<rect id="SVGID_00000119114441092788942620000002300277871196286142_" width="56.34" height="58.95"/>
	</defs>
	<clipPath id="SVGID_00000092445934838378461860000011335470401501545641_">
		<use xlink:href="#SVGID_00000119114441092788942620000002300277871196286142_"  style="overflow:visible;"/>
	</clipPath>
	<path style="clip-path:url(#SVGID_00000092445934838378461860000011335470401501545641_);fill:#328612;" d="M36.65,26.34
		c-2.87,1.55-6.56,1.34-9.17-0.53c-1.56-1.12-2.67-2.81-3.19-4.65c0.01-0.01,0.02,0,0.03-0.01l0.69-0.7l0.84,0.86
		c0.09,0.1,0.25,0.1,0.34,0c0.09-0.1,0.09-0.25,0-0.35l-0.84-0.86l1.1-1.12c0.02-0.01,0.04-0.01,0.05-0.02
		c0.01-0.01,0.01-0.04,0.02-0.05l0.83-0.84c0.09-0.1,0.09-0.25,0-0.35c-0.09-0.1-0.25-0.1-0.34,0l-0.69,0.71l-1.01-1.02l0.86-0.87
		l0.45,0.46c0.09,0.1,0.25,0.1,0.34,0c0.1-0.1,0.1-0.25,0-0.35l-0.45-0.46l0.66-0.67c0.09-0.1,0.09-0.25,0-0.35
		c-0.09-0.1-0.25-0.1-0.34,0l-0.66,0.67l-0.82-0.83l1.23-1.25l0.78,0.8c0.09,0.1,0.25,0.1,0.34,0c0.09-0.1,0.09-0.25,0-0.35
		l-0.78-0.8l1.15-1.18c0.1-0.1,0.1-0.25,0-0.35c-0.09-0.1-0.25-0.1-0.34,0l-1.15,1.18l-0.14-0.15c0.46-0.51,0.99-0.96,1.55-1.38
		l1.06,1.08l-0.95,0.97c-0.1,0.1-0.1,0.25,0,0.35c0.09,0.09,0.25,0.1,0.34,0l0.95-0.97l0.81,0.82c0.09,0.1,0.25,0.1,0.34,0
		c0.1-0.1,0.1-0.25,0-0.35l-0.81-0.82l1.12-1.14l0.62,0.63c0.09,0.1,0.25,0.1,0.34,0c0.09-0.1,0.09-0.25,0-0.35l-0.62-0.63
		l0.34-0.35c0.1-0.1,0.1-0.25,0-0.35c-0.09-0.1-0.25-0.1-0.34,0l-0.34,0.35l-0.07-0.07l0.63-0.64l0.92,0.93
		c-0.04,0.09-0.04,0.19,0.03,0.26c0.1,0.11,0.17,0.07,0.26,0.04l0.61,0.62c0.09,0.1,0.25,0.1,0.34,0c0.09-0.1,0.09-0.25,0-0.35
		l-0.58-0.6l0.85-0.87l0.56,0.57l-0.09,0.09c-0.09,0.1-0.09,0.25,0,0.35c0.1,0.1,0.25,0.09,0.34,0l0.09-0.09l0.25,0.25
		c0.09,0.1,0.25,0.1,0.34,0c0.09-0.1,0.09-0.25,0-0.35l-0.25-0.25L35.7,10l0.43,0.44c-0.04,0.09-0.04,0.19,0.03,0.26
		c0.11,0.11,0.17,0.07,0.26,0.03l0.27,0.27c0.1,0.1,0.25,0.09,0.34,0c0.09-0.1,0.09-0.25,0-0.35l-0.24-0.25l0.19-0.19
		c0.05-0.05,0.07-0.12,0.06-0.2c0.62,0.28,1.19,0.65,1.72,1.11c1.91,1.68,3,4.45,2.85,7.21C41.42,21.68,39.47,24.82,36.65,26.34
		 M26.12,13.27l0.12,0.12l-0.84,0.86C25.62,13.91,25.86,13.59,26.12,13.27 M24.47,16.53c-0.04-0.04-0.09-0.05-0.14-0.06
		c0.14-0.44,0.31-0.87,0.52-1.29l0.97,0.99l-0.86,0.87L24.47,16.53z M24,18.03c0.03-0.27,0.05-0.55,0.11-0.82h0
		c0.02-0.09,0.06-0.18,0.08-0.26l0.44,0.45L24,18.03z M23.96,18.68c0-0.11,0-0.21,0-0.32c0.1,0.15,0.26,0.13,0.36,0.04l0.65-0.66
		l1,1.02l-0.97,0.99L23.96,18.68z M23.98,19.39l0.69,0.7l-0.52,0.53C24.06,20.22,24,19.81,23.98,19.39 M29.8,10.39l0.3,0.3
		c-0.07,0.1-0.07,0.23,0.01,0.32c0.08,0.08,0.19,0.1,0.31,0.01l0.08,0.08l-1.12,1.14l-1-1.02C28.83,10.91,29.3,10.63,29.8,10.39
		 M30.77,9.99l-0.34,0.35l-0.14-0.15C30.44,10.12,30.6,10.05,30.77,9.99 M33.83,9.38c0.03,0,0.06,0,0.1,0
		c-0.03,0-0.05,0.02-0.07,0.03L33.83,9.38z M31.74,9.69l0.03-0.03c0.57-0.15,1.13-0.23,1.69-0.26c-0.07,0.1-0.07,0.23,0.01,0.32
		l0.02,0.02l-0.85,0.87L31.74,9.69z M35.18,9.47l0.18,0.18l-0.63,0.64l-0.58-0.59c0.04-0.09,0.04-0.19-0.03-0.27
		c-0.04-0.04-0.1-0.06-0.15-0.06h0.01C34.38,9.37,34.79,9.41,35.18,9.47 M36.45,10.07l-0.4-0.41c0.21,0.06,0.41,0.13,0.61,0.2
		c-0.01,0-0.01,0-0.02,0.01L36.45,10.07z M39.39,10.39c-2.29-2.01-5.45-2.54-8.68-1.44c-3.77,1.28-6.8,4.52-7.54,8.05
		c-0.75,3.54,0.79,7.5,3.76,9.62c1.61,1.15,3.58,1.74,5.56,1.74c1.59,0,3.19-0.38,4.61-1.14c3.12-1.68,5.27-5.14,5.47-8.81
		C42.74,15.34,41.52,12.27,39.39,10.39"/>
	<path style="clip-path:url(#SVGID_00000092445934838378461860000011335470401501545641_);fill:#328612;" d="M45.7,22.75
		c-0.27,0.75-0.61,1.49-1.01,2.22c-0.08,0.14-0.08,0.32-0.01,0.47l0.36,0.7l-0.47,0.48c-0.09-0.06-0.22-0.07-0.3,0.02
		c-0.08,0.08-0.08,0.21-0.02,0.31l-0.27,0.27c-0.1,0.1-0.1,0.25,0,0.35c0.1,0.1,0.25,0.1,0.34,0l0.25-0.26l1.3,1.33
		c0.1,0.1,0.25,0.1,0.34,0c0.03-0.03,0.03-0.07,0.04-0.1l0.36,0.71c-0.53,0.57-1.07,1.18-1.62,1.8c-0.34,0.39-0.68,0.77-1.02,1.15
		c-0.06-0.12-1.04-1.1-1.14-1.2l1.07-1.1l0.56,0.57l-0.77,0.79c-0.09,0.1-0.09,0.25,0,0.35c0.09,0.1,0.25,0.1,0.34,0l0.78-0.8
		c0.04,0.03,0.09,0.06,0.14,0.06c0.06,0,0.12-0.02,0.17-0.07c0.09-0.09,0.08-0.22,0.01-0.31l1.16-1.18c0.09-0.1,0.09-0.25,0-0.35
		c-0.1-0.1-0.25-0.1-0.34,0l-1.15,1.17l-0.56-0.57l0.53-0.54c0.09-0.1,0.09-0.25,0-0.35c-0.09-0.1-0.25-0.1-0.34,0l-0.53,0.54
		l-0.65-0.66l0.4-0.41c0.09-0.1,0.09-0.25,0-0.35c-0.09-0.1-0.25-0.1-0.34,0l-1.82,1.85l-0.4-0.4c-0.09-0.1-0.25-0.1-0.34,0
		c-0.1,0.1-0.1,0.25,0,0.35l0.4,0.4l-1.03,1.06c-0.17-0.1-0.33-0.2-0.51-0.31c-0.15-0.09-0.34-0.1-0.49-0.01
		c-0.79,0.44-1.49,0.77-2.43,1.08c-0.15,0.05-0.26,0.17-0.31,0.32l-0.34,1.09l-0.48-0.49l0.12-0.12c0.09-0.1,0.09-0.25,0-0.35
		c-0.09-0.1-0.25-0.1-0.34,0l-0.12,0.12l-0.44-0.45c-0.09-0.1-0.25-0.1-0.34,0c-0.09,0.1-0.09,0.25,0,0.35l0.44,0.45l-1.07,1.09
		l-0.54-0.55c-0.1-0.1-0.25-0.1-0.34,0c-0.1,0.1-0.1,0.25,0,0.35l0.54,0.55l-0.73,0.74c-0.1,0.1-0.1,0.25,0,0.35
		c0.09,0.1,0.25,0.1,0.34,0l0.73-0.74l0.56,0.57l-0.02,0.02c-0.09,0.1-0.09,0.25,0,0.35c0.09,0.1,0.25,0.1,0.34,0l0.97-0.99
		l-0.44,1.43c-0.71,0.02-1.45,0.06-2.2,0.1l-1.45-1.48l2.27-2.31c0.1-0.1,0.1-0.25,0-0.35c-0.1-0.1-0.25-0.1-0.34,0l-2.27,2.31
		l-0.02-0.02c-0.09-0.1-0.25-0.1-0.34,0c-0.09,0.1-0.09,0.25,0,0.35l0.02,0.02l-0.69,0.7c-0.29-0.87-0.56-1.78-0.8-2.74
		c-0.04-0.18-0.18-0.32-0.36-0.36c-1.12-0.27-2.21-0.68-3.22-1.22c-0.07-0.04-0.15-0.06-0.23-0.06c-0.08,0-0.15,0.02-0.22,0.05
		c-0.94,0.49-1.87,0.99-2.8,1.48c-0.55-0.54-1.16-1.09-1.76-1.64c-0.6-0.55-1.19-1.09-1.74-1.62c0.42-0.95,0.94-1.95,1.53-2.99
		c0.09-0.15,0.09-0.33,0.01-0.49c-0.53-0.98-0.95-2.03-1.24-3.11c-0.05-0.17-0.18-0.3-0.34-0.35c-1.18-0.31-2.22-0.65-3.18-1.02
		c0.03-1.52,0.17-3.24,0.21-4.83l3.26-1.05c0.14-0.05,0.26-0.16,0.31-0.31c0.33-0.95,0.78-1.9,1.35-2.81
		c0.1-0.16,0.1-0.36,0.01-0.52c-0.76-1.28-1.4-2.51-1.91-3.66c1.1-1.07,2.41-2.21,3.5-3.26l3.62,1.92c0.15,0.08,0.33,0.07,0.47-0.01
		c0.74-0.45,1.52-0.85,2.33-1.18c0.14-0.06,0.25-0.19,0.29-0.34c0.38-1.56,0.78-2.91,1.22-4.1c1.52,0.04,3.2,0.17,4.74,0.21
		l0.01,0.02c0.3,0.94,0.59,1.89,0.88,2.83c0.06,0.18,0.21,0.31,0.39,0.34c1.36,0.22,2.63,0.65,3.77,1.3c0.15,0.08,0.33,0.08,0.47,0
		c0.9-0.52,1.8-0.99,2.68-1.4c1.02,1.09,2.13,2.41,3.21,3.56l-0.14,0.28c-0.43,0.84-0.86,1.69-1.29,2.53c-0.07,0.14-0.07,0.3,0,0.44
		c0.56,1.17,0.97,2.43,1.21,3.76c0.03,0.18,0.16,0.33,0.33,0.38c1,0.33,2,0.65,3,0.97l0.34,0.11c0.01,0.25,0.02,0.5,0.03,0.76
		c-0.02,0.01-0.05,0.01-0.06,0.03l-0.4,0.41l-0.3-0.31c-0.09-0.1-0.25-0.1-0.34,0c-0.09,0.1-0.09,0.25,0,0.35l0.33,0.34
		c-0.02,0.08-0.02,0.17,0.04,0.24c0.05,0.05,0.11,0.07,0.17,0.07c0.02,0,0.04-0.02,0.06-0.03l0.43,0.44
		c0.04,0.04,0.09,0.06,0.15,0.06c0,0.03,0,0.06,0,0.09c0.04,0.81,0.09,1.62,0.1,2.39c-0.67,0.26-1.41,0.5-2.2,0.74l-0.7-0.71
		l1.26-1.29l0.46,0.47l-0.77,0.79c-0.1,0.1-0.1,0.25,0,0.35c0.1,0.1,0.25,0.1,0.34,0l0.94-0.96c0,0,0.01,0,0.01,0s0-0.01,0-0.01
		l0.24-0.24c0.1-0.1,0.1-0.25,0-0.35c-0.1-0.1-0.25-0.1-0.34,0l-0.07,0.07l-0.46-0.47l0.54-0.55c0.09-0.1,0.09-0.25,0-0.35
		c-0.1-0.1-0.25-0.1-0.34,0l-0.54,0.55l-0.16-0.16c-0.09-0.1-0.25-0.1-0.34,0c-0.09,0.1-0.09,0.25,0,0.35l0.16,0.16l-1.26,1.29
		l-0.35-0.35c-0.09-0.1-0.25-0.1-0.34,0c-0.1,0.1-0.1,0.25,0,0.35l0.35,0.35l-0.35,0.36c-0.1,0.1-0.1,0.25,0,0.35
		c0.09,0.1,0.25,0.1,0.34,0l0.35-0.35l0.51,0.51c-0.48,0.13-0.97,0.27-1.5,0.4C45.89,22.48,45.76,22.6,45.7,22.75 M46.04,28.09
		l-1.12-1.14l0.35-0.36L46.04,28.09z M42.93,28.89l0.65,0.66l-1.07,1.09l-0.65-0.66L42.93,28.89z M43.42,32.8
		c-0.9-0.41-1.84-0.91-2.85-1.51l0.95-0.97l0.65,0.66l-0.06,0.07c-0.23,0.23,0.12,0.57,0.34,0.35l0.07-0.07l1.11,1.13
		c0.02,0.02,0.05,0.02,0.08,0.03C43.6,32.6,43.51,32.71,43.42,32.8 M35.61,33.83l-0.88,0.9l-0.56-0.57l1.07-1.1l0.66,0.67
		l-0.02,0.06C35.79,33.75,35.68,33.75,35.61,33.83 M30.37,35.73l0.86-0.88l1.15,1.17c-0.64,0.03-1.28,0.07-1.88,0.08
		C30.45,35.98,30.42,35.85,30.37,35.73 M50.14,18.04l-0.17-0.17l0.15-0.16C50.12,17.82,50.13,17.93,50.14,18.04 M50.94,21.95
		c0.19-0.07,0.31-0.26,0.31-0.47c-0.01-0.88-0.06-1.82-0.11-2.77c-0.05-0.94-0.1-1.89-0.11-2.76c0-0.21-0.14-0.4-0.34-0.46
		l-0.67-0.22c-0.91-0.29-1.82-0.58-2.72-0.88c-0.24-1.23-0.62-2.4-1.13-3.5c0.39-0.77,0.78-1.54,1.18-2.31l0.3-0.59
		c0.1-0.19,0.06-0.42-0.08-0.57c-1.17-1.22-2.47-2.8-3.68-4.07c-0.14-0.15-0.36-0.19-0.54-0.1c-0.93,0.42-1.89,0.91-2.84,1.45
		c-1.09-0.58-2.28-1-3.55-1.23c-0.26-0.85-0.52-1.7-0.79-2.54l-0.11-0.35c-0.06-0.2-0.24-0.34-0.45-0.34C33.9,0.2,31.9,0.03,30.17,0
		c-0.18,0.02-0.38,0.12-0.46,0.31c-0.48,1.26-0.91,2.67-1.32,4.31c-0.69,0.3-1.36,0.64-2,1.01l-3.69-1.95
		c-0.18-0.1-0.41-0.06-0.56,0.08c-1.21,1.21-2.75,2.52-3.99,3.75c-0.14,0.14-0.19,0.36-0.1,0.55c0.51,1.2,1.17,2.48,1.95,3.82
		c-0.49,0.82-0.9,1.67-1.21,2.52l-3.37,1.09c-0.2,0.06-0.33,0.25-0.34,0.46c-0.02,1.73-0.2,3.78-0.22,5.53
		c0,0.2,0.12,0.39,0.31,0.47c1.01,0.41,2.11,0.77,3.34,1.1c0.28,0.97,0.65,1.91,1.12,2.8c-0.62,1.1-1.15,2.16-1.58,3.17
		c-0.08,0.19-0.04,0.41,0.1,0.55c0.62,0.61,1.31,1.25,2.01,1.89c0.69,0.63,1.37,1.26,1.98,1.86c0.15,0.15,0.38,0.18,0.56,0.08
		c0.96-0.51,1.92-1.02,2.89-1.53c0.93,0.48,1.92,0.85,2.94,1.12c0.34,1.35,0.74,2.61,1.18,3.78c0.07,0.19,0.25,0.31,0.45,0.31h0.01
		c1.73-0.02,3.73-0.2,5.42-0.23c0.21,0,0.39-0.14,0.45-0.34l1.2-3.87c0.79-0.28,1.58-0.64,2.12-0.94c1.44,0.88,2.74,1.58,3.97,2.13
		c0.18,0.08,0.4,0.04,0.54-0.11c0.6-0.63,1.23-1.34,1.85-2.04c0.62-0.7,1.24-1.4,1.83-2.02c0.15-0.15,0.18-0.38,0.08-0.57
		l-1.98-3.88c0.33-0.62,0.62-1.25,0.85-1.88C48.22,22.91,49.67,22.45,50.94,21.95"/>
	<path style="clip-path:url(#SVGID_00000092445934838378461860000011335470401501545641_);fill:#328612;" d="M31.95,54.34l1.51-1.54
		l0.72,0.73l-1.51,1.54L31.95,54.34z M31.04,56.73L30.33,56l1.28-1.31l0.72,0.73L31.04,56.73z M37.24,52.8l-1.55,1.58l-0.83-0.85
		l1.55-1.58L37.24,52.8z M53.19,43.8l-0.54-0.55l0.89-0.91c0.09-0.1,0.09-0.25,0-0.35c-0.09-0.1-0.25-0.1-0.34,0l-0.89,0.91
		c-0.1-0.11-0.69-0.73-0.82-0.78l0.76-0.77c0.22-0.23-0.12-0.58-0.34-0.35l-5.51,5.62c-0.1,0.1-0.1,0.25,0,0.35
		c0.09,0.09,0.25,0.1,0.34,0l0.85-0.87l1.82,1.86c-1.08,1.05-2.19,2.02-3.33,2.92c-0.01-0.05-0.02-0.1-0.06-0.14l-0.17-0.18
		l1.32-1.35l0.18,0.18c0.09,0.1,0.25,0.1,0.34,0c0.1-0.1,0.1-0.25,0-0.35l-0.18-0.18l0.25-0.25c0.09-0.1,0.09-0.25,0-0.35
		c-0.1-0.1-0.25-0.1-0.34,0l-0.25,0.25l-1.41-1.44c-0.09-0.1-0.25-0.1-0.34,0c-0.09,0.1-0.09,0.25,0,0.35l1.42,1.44l-1.32,1.35
		l-0.79-0.81l0.84-0.85c0.09-0.1,0.09-0.25,0-0.35c-0.09-0.1-0.25-0.1-0.34,0l-0.84,0.85l-0.43-0.44c-0.1-0.1-0.25-0.09-0.34,0
		c-0.1,0.1-0.1,0.25,0,0.35l0.43,0.44l-1.28,1.31l-0.85-0.87c-0.09-0.1-0.25-0.1-0.34,0c-0.09,0.1-0.09,0.25,0,0.35l0.85,0.87
		l-0.94,0.96l-1.38-1.4c-0.01-0.01-0.02-0.01-0.03-0.01l1.31-1.33c0.09-0.1,0.09-0.25,0-0.35c-0.1-0.1-0.25-0.1-0.34,0l-3.46,3.52
		l-0.83-0.85l1.3-1.33c0.09-0.1,0.09-0.25,0-0.35c-0.1-0.1-0.25-0.1-0.34,0l-1.3,1.33l-0.02-0.02c-0.1-0.1-0.25-0.1-0.34,0
		c-0.09,0.1-0.09,0.25,0,0.35l0.02,0.02l-1.55,1.58l-0.72-0.73l0.24-0.25c0.1-0.1,0.1-0.25,0-0.35c-0.1-0.1-0.25-0.1-0.34,0
		l-0.26,0.27c-0.09-0.04-0.19-0.04-0.26,0.03c-0.07,0.07-0.07,0.17-0.03,0.27l-1.53,1.56l-0.36-0.37c-0.1-0.1-0.25-0.1-0.34,0
		c-0.09,0.1-0.09,0.25,0,0.35l0.36,0.37l-1.28,1.31l-1.3-1.33c-0.09-0.1-0.25-0.1-0.34,0c-0.09,0.1-0.09,0.25,0,0.35l1.3,1.33
		l-0.62,0.63c-0.09,0.1-0.09,0.25,0,0.35c0.09,0.09,0.25,0.1,0.34,0l0.62-0.63l0.72,0.73l-0.02,0.02c-0.09,0.1-0.09,0.25,0,0.35
		c0.09,0.1,0.25,0.1,0.34,0l0.07-0.07c0.06,0,0.12-0.02,0.16-0.07c0.05-0.05,0.06-0.11,0.07-0.17l1.34-1.36l0.65,0.66
		c0.09,0.09,0.25,0.1,0.34,0c0.1-0.1,0.1-0.25,0-0.35l-0.65-0.66l1.51-1.54l0.83,0.85l-1.79,1.83c-0.09,0.1-0.09,0.25,0,0.35
		c0.09,0.1,0.25,0.1,0.34,0l1.79-1.83c0.12,0.12,0.83,0.91,0.99,0.91c0.06,0,0.12-0.02,0.17-0.07c0.09-0.1,0.09-0.25,0-0.35
		l-0.82-0.83l1.55-1.58l1.68,1.71c0.09,0.1,0.25,0.1,0.34,0c0.1-0.1,0.1-0.25,0-0.35l-1.68-1.71l1.82-1.85
		c0.01,0.01,0,0.02,0.01,0.03l1.38,1.41l-1.6,1.64c-0.1,0.1-0.1,0.25,0,0.35c0.09,0.1,0.25,0.1,0.34,0l1.6-1.64l0.78,0.8
		c-0.15,0.09-0.29,0.18-0.44,0.27c-5.23,3.03-11.17,4.63-17.14,4.04l0.51-0.52l0.18,0.18c0.09,0.1,0.25,0.1,0.34,0
		c0.1-0.1,0.1-0.25,0-0.35l-0.18-0.18l0.91-0.92l1.57,1.6c0.09,0.1,0.25,0.1,0.34,0c0.09-0.1,0.09-0.25,0-0.35l-1.58-1.61l3.21-3.27
		c0.09-0.1,0.09-0.25,0-0.35c-0.09-0.1-0.25-0.1-0.34,0l-3.21,3.27l-0.47-0.48c-0.09-0.1-0.25-0.1-0.34,0
		c-0.09,0.1-0.09,0.25,0,0.35l0.47,0.48l-0.91,0.92L24.4,55.8l1.68-1.72c0.1-0.1,0.1-0.25,0-0.35c-0.09-0.1-0.25-0.1-0.34,0
		l-1.68,1.72l-0.51-0.52c-0.09-0.1-0.25-0.1-0.34,0c-0.1,0.1-0.1,0.25,0,0.35l0.51,0.52l-1.06,1.08l-0.98-1l2.34-2.38
		c0.09-0.1,0.09-0.25,0-0.35c-0.1-0.1-0.25-0.1-0.34,0l-2.34,2.38L21.2,55.4c-0.1-0.1-0.25-0.1-0.34,0c-0.09,0.1-0.09,0.25,0,0.35
		l0.13,0.13l-1,1.02c-3.16-0.97-6.05-2.61-8.39-4.75c0.34-1.25,0.52-2.69,0.55-4.46c0.05-2.53-0.29-4.62-1.03-6.27
		c1.7-1.38,3.31-2.33,4.92-2.86c4.36-1.42,6.85,0.45,8.53,1.65c4,2.84,7.9,3.51,11.77,2.34c1.12-0.34,3.12-1.22,4.08-0.01
		c0.68,0.85,0.47,2.49-2.1,3.81c-5.53,2.84-12.61,2.25-17.61-1.48c-0.21-0.16-0.52-0.11-0.67,0.11c-0.16,0.22-0.11,0.53,0.11,0.69
		c3.06,2.28,6.85,3.45,10.64,3.45c2.76,0,5.51-0.62,7.98-1.89c1.49-0.76,2.8-1.81,2.92-3.5c6.57-1.48,9.02-4.73,11.02-5.36
		c0.76-0.24,1.81-0.18,2.33,0.51c0.34,0.45,0.42,1.17,0.19,1.87c-0.11,0.36-0.29,0.69-0.49,1.02c-0.01-0.02-0.01-0.04-0.02-0.05
		l-0.89-0.91l0.99-1.01c0.1-0.1,0.1-0.25,0-0.35c-0.09-0.1-0.25-0.1-0.34,0l-1.01,1.03c-0.09-0.04-0.19-0.04-0.26,0.04
		c-0.07,0.07-0.07,0.18-0.03,0.27l-0.34,0.35c-0.1,0.1-0.1,0.25,0,0.35c0.09,0.1,0.25,0.1,0.34,0l0.32-0.33l0.89,0.9
		c0.03,0.04,0.08,0.04,0.13,0.05c-0.13,0.19-0.27,0.37-0.41,0.56C53.8,43.07,53.5,43.43,53.19,43.8 M51.24,45.97l-0.63-0.64
		l1.7-1.73l0.58,0.59c-0.53,0.64-1.07,1.27-1.61,1.87C51.26,46.02,51.26,45.99,51.24,45.97 M51.2,42.42
		c0.01,0.03,0.01,0.06,0.03,0.08l0.74,0.75l-1.7,1.73l-0.66-0.67c-0.06-0.06-0.13-0.07-0.21-0.06L51.2,42.42z M49.77,47.62
		l-1.83-1.87l1.28-1.31c-0.01,0.08,0,0.15,0.06,0.21l0.66,0.67l-0.81,0.83c-0.09,0.1-0.09,0.25,0,0.35c0.09,0.09,0.25,0.1,0.34,0
		l0.81-0.83l0.63,0.64c0.02,0.02,0.06,0.02,0.09,0.04C50.58,46.78,50.18,47.21,49.77,47.62 M43.55,52.22l-0.92,0.94
		c-0.01,0.01-0.01,0.02-0.01,0.03l-0.8-0.82l0.94-0.96L43.55,52.22z M43.89,51.87l-0.79-0.81l1.28-1.31l0.79,0.81L43.89,51.87z
		 M45.69,51.09c0.02,0.02,0.05,0.02,0.08,0.03c-0.5,0.39-1.01,0.76-1.52,1.11l-0.01-0.01l1.28-1.31L45.69,51.09z M22.39,57.31
		c0.01,0.05,0.02,0.1,0.05,0.13c0.04,0.04,0.08,0.05,0.13,0.06l0.04,0.04c-0.71-0.13-1.4-0.3-2.08-0.49l0.8-0.82L22.39,57.31z
		 M24.22,57.79c-0.37-0.04-0.74-0.11-1.1-0.17c0.06-0.09,0.06-0.21-0.02-0.3L23,57.23l1.06-1.08l0.79,0.81l-0.58,0.6
		C24.2,57.62,24.19,57.71,24.22,57.79 M7.4,56.62l-0.49-0.5l0.81-0.83l0.36,0.37c0.05,0.05,0.11,0.07,0.17,0.07
		c0.06,0,0.12-0.02,0.17-0.07c0.1-0.1,0.1-0.25,0-0.35l-0.36-0.37l1.29-1.31c0.02,0,0.03,0.02,0.04,0.02c0.06,0,0.12-0.02,0.17-0.07
		c0.06-0.06,0.07-0.14,0.05-0.22l0.21-0.22c0.09-0.1,0.09-0.25,0-0.35c-0.1-0.1-0.25-0.1-0.34,0l-0.17,0.18l-0.97-0.99l1.21-1.23
		l0.73,0.74c0.05,0.05,0.11,0.07,0.17,0.07c0.06,0,0.12-0.02,0.17-0.07c0.1-0.1,0.1-0.25,0-0.35L9.89,50.4l0.85-0.87l0.31,0.31
		c-0.08,0.71-0.2,1.36-0.35,1.95c-0.04,0.02-0.08,0.05-0.12,0.09c-0.15,0.16-0.16,0.38-0.07,0.56c-0.11,0.32-0.22,0.64-0.36,0.94
		C9.53,54.8,8.54,55.94,7.4,56.62 M6.27,57.12c-0.78,0.23-1.59,0.22-2.34,0.03c0.04-0.01,0.07-0.01,0.1-0.04l0.27-0.27l0.07,0.07
		c0.05,0.05,0.11,0.07,0.17,0.07c0.06,0,0.12-0.02,0.17-0.07c0.1-0.1,0.1-0.25,0-0.35l-0.07-0.07l0.97-0.99l0.61,0.63l-0.55,0.56
		c-0.09,0.1-0.09,0.25,0,0.35c0.05,0.05,0.11,0.07,0.17,0.07c0.06,0,0.12-0.02,0.17-0.07l0.55-0.56l0.38,0.39
		C6.72,56.96,6.5,57.05,6.27,57.12 M3.77,55.59l0.97-0.99l0.53,0.54L4.3,56.14L3.77,55.59z M3.68,57.08
		c-0.34-0.11-0.65-0.26-0.94-0.45l0.68-0.69l0.53,0.54l-0.27,0.27C3.6,56.85,3.61,56.99,3.68,57.08 M7.38,54.94l-0.81,0.83
		l-0.61-0.63l0.81-0.83L7.38,54.94z M10.09,48.17l1.09-1.11c0,0.21,0.01,0.41,0.01,0.62c-0.01,0.54-0.04,1.05-0.08,1.53L10.09,48.17
		z M1.62,55.49c-0.67-1.15-0.83-1.97-0.42-13.61c0.11-3.16,4.51-4.93,7.52-2.21c0.46,0.42,0.86,0.93,1.19,1.51
		c-0.22,0.33,0,0.75,0.38,0.76c0.52,1.22,0.82,2.71,0.89,4.48c-0.04,0.01-0.08,0.01-0.11,0.05l-1.32,1.35l-0.23-0.23
		c-0.09-0.1-0.25-0.1-0.34,0c-0.1,0.1-0.1,0.25,0,0.35l0.23,0.23l-0.39,0.39c-0.09,0.1-0.09,0.25,0,0.35
		c0.05,0.05,0.11,0.07,0.17,0.07c0.06,0,0.12-0.02,0.17-0.07l0.39-0.39l0.65,0.67l-0.85,0.87l-0.82-0.84c-0.09-0.1-0.25-0.1-0.34,0
		c-0.09,0.1-0.09,0.25,0,0.35l0.82,0.84L8,51.63L7.77,51.4c-0.09-0.1-0.25-0.1-0.34,0c-0.1,0.1-0.1,0.25,0,0.35l1.54,1.57L7.72,54.6
		l-0.61-0.63l0.91-0.92c0.09-0.1,0.09-0.25,0-0.35c-0.1-0.1-0.25-0.1-0.34,0l-0.91,0.92l-0.35-0.35c-0.09-0.1-0.25-0.1-0.34,0
		c-0.09,0.1-0.09,0.25,0,0.35l0.35,0.35L5.61,54.8l-0.53-0.55l1.03-1.05c0.09-0.1,0.09-0.25,0-0.35c-0.1-0.1-0.25-0.1-0.34,0
		l-2.35,2.39l-0.59-0.6c-0.09-0.1-0.25-0.1-0.34,0C2.4,54.74,2.4,54.9,2.5,55l0.59,0.6l-0.74,0.75C2.06,56.1,1.81,55.82,1.62,55.49
		 M55.8,38.29c-0.81-1.07-2.28-1.2-3.39-0.85c-2.32,0.74-4.36,3.82-10.83,5.32c-0.84-2.92-4.55-1.42-5.52-1.13
		c-3.51,1.07-7.13,0.51-10.94-2.2c-1.48-1.05-4.41-3.4-9.38-1.78c-1.67,0.55-3.35,1.52-5.09,2.91c-0.37-0.61-0.8-1.15-1.3-1.61
		c-3.61-3.27-8.99-1.11-9.13,2.91C-0.16,53.21-0.1,54.49,0.79,56c0.83,1.43,2.51,2.29,4.26,2.29c2.84,0,5.17-2.24,6.24-5.12
		c3.92,3.45,9.25,5.55,14.79,5.76c5.66,0.21,11.26-1.41,16.22-4.28c4.59-2.66,8.82-6.49,12.55-11.36
		C56.05,41.73,56.98,39.86,55.8,38.29"/>
</g>
</svg>
