<?xml version="1.0" encoding="utf-8"?>
<!-- Generator: Adobe Illustrator 25.4.1, SVG Export Plug-In . SVG Version: 6.00 Build 0)  -->
<svg version="1.1" id="Layer_1" xmlns="http://www.w3.org/2000/svg" xmlns:xlink="http://www.w3.org/1999/xlink" x="0px" y="0px"
	 viewBox="0 0 135.37 106.21" style="enable-background:new 0 0 135.37 106.21;" xml:space="preserve">
<style type="text/css">
	.st0{clip-path:url(#SVGID_00000009575844919598607100000004852824837391355812_);fill:#328612;}
	.st1{clip-path:url(#SVGID_00000080897482381906513380000005503836877363223983_);fill:#338712;}
	.st2{clip-path:url(#SVGID_00000011725393493311668340000013208461540017429134_);fill:#338712;}
	.st3{clip-path:url(#SVGID_00000129197770873320570490000012971872884431085746_);fill:#338712;}
	.st4{clip-path:url(#SVGID_00000046317336542188563090000006816769327648082330_);fill:#338712;}
	.st5{clip-path:url(#SVGID_00000054946551146200590630000011569437837647639452_);fill:#338712;}
	.st6{clip-path:url(#SVGID_00000018224222889995339830000005187560050216674692_);fill:#328612;}
	.st7{clip-path:url(#SVGID_00000111898715922225492070000007248873296757519242_);fill:#328612;}
	.st8{clip-path:url(#SVGID_00000165947954381111519760000004476329517186358919_);fill:#328612;}
	.st9{clip-path:url(#SVGID_00000109001457878391117420000017778589450424368304_);fill:#328612;}
	.st10{clip-path:url(#SVGID_00000011736560285587774390000010773025385651485855_);fill:#328612;}
	.st11{clip-path:url(#SVGID_00000079471832037595040670000003280130919522265773_);fill:#328612;}
	.st12{fill:#328612;}
</style>
<g>
	<defs>
		<rect id="SVGID_00000160166139876525035250000006703182850512060554_" x="4.21" y="0.02" width="129.52" height="106.61"/>
	</defs>
	<clipPath id="SVGID_00000037692582832611542950000013512432711309793166_">
		<use xlink:href="#SVGID_00000160166139876525035250000006703182850512060554_"  style="overflow:visible;"/>
	</clipPath>
	<path style="clip-path:url(#SVGID_00000037692582832611542950000013512432711309793166_);fill:#338712;" d="M44.4,100.11
		c-0.74-0.27-1.45,0.44-1.67,1.09c-0.2,0.58-0.4,1.16-0.6,1.74c-0.26,0.75-0.12,1.72-0.12,2.51c0,0.71,0.62,1.33,1.34,1.1
		c0.79-0.26,1.15-1.13,1.15-1.9v-1.24c0.16-0.46,0.31-0.92,0.47-1.38C45.2,101.38,45.16,100.39,44.4,100.11"/>
	<path style="clip-path:url(#SVGID_00000037692582832611542950000013512432711309793166_);fill:#338712;" d="M89.28,102.9
		c0.04,0.2,0.08,0.4,0.12,0.6c0.04,0.19,0.09,0.92,0.09,0.3v1.38c0,1.72,3.13,1.27,3.13-0.25c0-1.02-0.07-1.91-0.28-2.91
		C92.02,100.46,88.95,101.33,89.28,102.9"/>
	<path style="clip-path:url(#SVGID_00000037692582832611542950000013512432711309793166_);fill:#338712;" d="M22.2,101.26
		c-0.59,0.04-1.67,0.53-1.5,1.31c0.19,0.9,0.25,1.67,0.25,2.59c0,1.58,3.18,1.37,3.18-0.23c0-0.93-0.06-1.69-0.25-2.59
		C23.71,101.55,22.96,101.21,22.2,101.26"/>
	<path style="clip-path:url(#SVGID_00000037692582832611542950000013512432711309793166_);fill:#338712;" d="M110.36,69.09
		c-0.3-4-0.68-7.99-0.69-11.99c1.26,0.25,2.51,0.45,3.81,0.33c1.56-0.15,3.11-0.29,4.67-0.44c0,3.75-0.02,7.48-0.38,11.23
		c-0.89,9.39-0.23,18.52,0.31,27.91c-2.68,0.1-5.36,0.18-8.03,0.25C108.82,87.39,111.04,78.19,110.36,69.09 M112.39,55.14
		c-0.05-0.01-0.07-0.02-0.14-0.03c-0.85-0.16-1.71-0.31-2.56-0.47c0.05-1.7,0.11-3.39,0.16-5.08c1.06,1.92,2.15,3.82,3.53,5.49
		c-0.02,0-0.03,0-0.05,0C113.02,55.08,112.7,55.11,112.39,55.14 M110.37,43.17c0.03,0.07,0.06,0.14,0.12,0.2
		c2.65,2.6,5.31,5.17,7.65,8.05v3.05v0.14c-0.9,0.08-1.8,0.17-2.7,0.25c-2.4-2.32-3.89-5.45-5.51-8.34
		C109.95,44.62,109.6,43.53,110.37,43.17 M118.15,45.36v3.13c-1.62-1.83-3.35-3.56-5.11-5.28C114.95,43.33,118.15,43.4,118.15,45.36
		 M86.81,63.39c2.44,0.17,4.89,0.34,7.33,0.55c-0.07,2.63-0.15,5.26-0.22,7.88c-0.22,8.33-0.19,16.43,0.3,24.74
		c-2.65-0.02-5.32-0.06-7.99-0.15c0.2-8.8,0.39-17.6,0.58-26.41C86.86,67.8,86.86,65.59,86.81,63.39 M94.25,52.35
		c0,1.5-0.01,3-0.01,4.5c-1.76-2.51-3.2-5.32-5.42-7.29C91.08,49.77,94.25,49.56,94.25,52.35 M94.21,60.56
		c-1.55-0.82-3-1.68-4.26-3.01c-1.66-1.75-2.59-3.97-3.59-6.13c-0.07-0.95-0.19-1.52-0.08-1.8c3.53,2.22,5.16,6.73,7.95,9.9
		C94.23,59.86,94.22,60.21,94.21,60.56 M86.75,60.63c-0.07-1.59-0.13-3.19-0.19-4.78c0.49,0.89,1.01,1.76,1.65,2.56
		c1.01,1.27,2.23,2.17,3.55,2.96c-1.67-0.13-3.34-0.26-5.01-0.37C86.75,60.87,86.75,60.75,86.75,60.63 M62,96.16
		c0.84-14,0.42-27.96,0.25-41.99c-0.09-7.45-0.18-14.9-0.27-22.36c-0.02-1.13-0.01-2.27-0.01-3.4c0.15,0.07,0.3,0.12,0.48,0.12
		c1.59,0,3.19,0,4.78,0c0.89,0,1.9-0.38,2.86-0.77c-0.06,1.61-0.12,3.23-0.12,4.85c-0.02,5.93,0.16,11.86,0.24,17.79
		c0.2,15.18,0.5,30.36,0.51,45.54C67.81,95.96,64.91,96.04,62,96.16 M39.65,97.02c0-8.59,0.27-17.14,0.61-25.72
		c0.11-2.75,0.1-5.48,0.03-8.21c0.5-0.06,1-0.13,1.49-0.19c0.47-0.06,0.95-0.12,1.42-0.19c0.09-0.01,0.19-0.02,0.28-0.04
		c0.02,0,0.03,0.01,0.07,0.01c1.61,0.17,3.22,0.33,4.83,0.5c-0.05,2.96-0.15,5.92-0.38,8.89c-0.63,8.19,0.14,16.55,0.41,24.76
		c-2.92,0.13-5.84,0.21-8.76,0.24C39.64,97.05,39.65,97.03,39.65,97.02 M40.22,60.5c-0.08-1.69-0.15-3.38-0.23-5.06
		c1.15,1.4,2.02,3.16,2.86,4.8c-0.86,0.05-1.76,0.22-2.63,0.39C40.22,60.59,40.22,60.55,40.22,60.5 M40.34,49.53
		c2.81,2.76,5.63,5.47,8.07,8.57v0.32c0,0.77-0.01,1.54-0.01,2.3c-1.17-0.12-2.35-0.24-3.52-0.37c-1.42-2.61-2.76-5.69-5.01-7.64
		c-0.01-0.27-0.02-0.54-0.04-0.82C39.77,50.27,39.79,49.7,40.34,49.53 M48.42,50.87v4.57c-1.79-2.04-3.72-3.95-5.67-5.87
		C44.03,49.64,48.42,49.26,48.42,50.87 M61.96,23.46c0-2.06-0.19-3.65-0.11-4.87c1.06,1.06,1.81,2.42,2.6,3.79
		c0.63,1.09,1.29,2.09,2.03,3.04c-1.4,0-2.8,0-4.21,0c-0.12,0-0.2,0.05-0.3,0.07C61.96,24.81,61.96,24.13,61.96,23.46 M64.96,15.31
		c1.78,1.75,3.57,3.48,5.44,5.13c-0.01,0.22-0.02,0.45-0.03,0.67c-0.05,1.06-0.09,2.11-0.14,3.16c-0.41,0.14-0.82,0.27-1.22,0.41
		c-0.2,0.07-0.4,0.13-0.6,0.2c-2.22-2.56-3.48-6.02-5.98-8.2C62.87,16.06,63.66,15.62,64.96,15.31 M70.62,15.03
		c-0.04,0.98-0.08,1.97-0.12,2.95c-1.11-1.02-2.22-2.05-3.3-3.11C68.5,14.58,70.66,14.09,70.62,15.03 M18.16,62.95
		c-0.08-5.57-0.15-11.14-0.23-16.71c0.89,0.17,1.78,0.29,2.7,0.19c1.3-0.14,2.6-0.27,3.91-0.41c-0.26,6.53-0.52,13.06-0.77,19.59
		c-0.41,10.24,1.17,20.77,1.92,31c-2.63-0.15-5.26-0.3-7.89-0.45C19.03,85.15,18.31,74.02,18.16,62.95 M18.45,32.67
		c2.05,2.68,4.11,5.1,6.64,7.24c-0.13,1.34-0.28,2.63-0.39,3.67c-0.89-1.24-1.78-2.49-2.83-3.6c-1.24-1.31-2.66-2.25-4.15-3.19
		C17.65,34.9,17.68,33.56,18.45,32.67 M23.63,31.39c1.6,0,1.82,2.94,1.64,6.18c-1.9-1.76-3.53-3.72-5.16-5.83
		C20.97,31.5,22.1,31.39,23.63,31.39 M19.69,44.12c-0.03-0.01-0.05-0.01-0.09-0.02c-0.57-0.12-1.14-0.24-1.71-0.36
		c-0.02-1.31-0.04-2.61-0.06-3.92c0-0.3-0.01-0.57-0.02-0.85c1,0.65,1.96,1.33,2.84,2.17c0.83,0.8,1.54,1.71,2.22,2.65
		c-0.83,0.09-1.67,0.17-2.5,0.26C20.14,44.08,19.92,44.1,19.69,44.12 M132.74,95.54c-3.86,0.17-7.69,0.34-11.52,0.49
		c-0.59-10.92-0.73-21.17,0-32.09c0.4-5.99,0.04-12.11,0.04-18.11c0-5.37-5.21-4.73-9.43-5.33c-4.2-0.6-4.86,1.78-4.98,5.39
		c-0.19,5.88-0.51,11.72-0.07,17.59c0.42,5.52,0.97,10.93,0.58,16.46c-0.39,5.54-1.07,11.02-0.46,16.53
		c-3.19,0.07-6.37,0.1-9.56,0.1c-0.63-10.33-0.44-20.45-0.17-30.81c0.12-4.57,0.18-9.14,0.18-13.71c0-4.87-4.28-4.44-8.14-4.99
		c-2.79-0.4-6.19-0.65-6.04,3.17c0.15,3.62,0.35,7.26,0.47,10.89c-0.65,0.46-0.64,1.37,0.06,1.83c0.03,1.34,0.05,2.67,0.05,4.01
		c-0.04,9.77-0.42,19.56-0.65,29.33c-1.34-0.06-2.67-0.1-4.02-0.18c-2-0.11-4-0.17-6-0.18c-0.02-16.65-0.35-33.29-0.57-49.94
		c-0.08-6.08-0.32-12.18-0.06-18.26c0.16-3.8,3.48-17.27-3.47-16.28c-1.9,0.27-7.9,0-8.85,2.44c-0.24,0.63-0.4,1.29-0.52,1.96
		c-0.12,0.24-0.17,0.53-0.13,0.79c-0.33,2.75,0.07,5.75,0.07,8.4c0,6.31,0.09,12.61,0.17,18.91c0.21,17.44,0.98,34.92-0.13,52.33
		c-2.94,0.14-5.88,0.3-8.82,0.45c-0.31-10.1-0.25-20-0.03-30.08c0.12-5.3,0.03-10.6,0.03-15.9c0-4.24-3.57-4.01-6.86-4.24
		c-3.33-0.24-6.77-0.83-6.58,3.59c0.17,3.75,0.35,7.49,0.5,11.24c-0.38,0.42-0.33,1.01,0.05,1.43c0.04,1.14,0.1,2.28,0.12,3.41
		c0.2,10.28-0.78,20.62-0.78,30.91c-2.2-0.01-4.41-0.06-6.61-0.19c-0.6-0.04-1.21-0.07-1.82-0.1c0-0.03,0.02-0.06,0.02-0.1
		c-0.86-12.32-2.21-24.62-1.72-36.97c0.28-7.04,0.45-14.09,0.87-21.13c0.34-5.74,2.3-9.65-4.79-9.65c-3.95,0-8.65,0.28-8.59,5.08
		c0.05,3.55,0.1,7.11,0.15,10.66c-0.01,0.07-0.01,0.13,0,0.2c0.05,3.43,0.1,6.86,0.14,10.29c0.19,13.53,1.26,27.34-0.22,40.82
		c-0.54-0.03-1.07-0.06-1.61-0.09c-1.77-0.1-3.54-0.2-5.32-0.3c-0.14-1.59-0.29-3.19-0.43-4.78c-0.81-9.09,0.12-17.88,0.82-27.22
		c0.57-7.56,1.57-14.96,0.77-22.5c-0.98-9.23-2.45-18.28-1.86-27.55C7.33,9.4,7.6,5.26,7.86,1.12c0.13-2.07-2.41-0.86-2.51,0.74
		C4.9,8.93,3.7,16.26,4.45,23.31c0.82,7.71,2.96,17.36,2.43,24.43C5.62,64.52,3.85,80.7,5.35,97.45c0.05,0.58,0.34,1.14,0.99,1.17
		c9.52,0.54,19.36,1.95,28.88,1.51c8.35-0.38,17-1.41,25.48-1.6c0.2,0.07,0.4,0.06,0.58-0.01c1.06-0.02,2.12-0.03,3.17-0.02
		c-0.01,2.17-0.08,4.27-0.5,6.41c-0.3,1.54,2.88,1.82,3.18,0.25c0.42-2.19,0.49-4.34,0.5-6.56c0.25,0.01,0.51,0.01,0.76,0.02
		c9.76,0.54,19.83,1.94,29.6,1.51c5.28-0.23,10.55-0.47,15.82-0.7c-0.03,0.12-0.07,0.25-0.07,0.37c0,0.89-0.17,1.96,0.03,2.83
		c0.2,0.86,0.39,1.72,0.59,2.58c0.15,0.66,0.59,1.52,1.42,1.4c0.75-0.11,1.1-1.09,0.95-1.75c-0.19-0.83-0.38-1.67-0.57-2.5v-0.66
		v-1.39c0-0.31-0.07-0.66-0.2-0.97c5.42-0.24,10.84-0.48,16.26-0.72C133.74,98.56,134.43,95.46,132.74,95.54"/>
</g>
</svg>
