<?xml version="1.0" encoding="utf-8"?>
<!-- Generator: Adobe Illustrator 25.4.1, SVG Export Plug-In . SVG Version: 6.00 Build 0)  -->
<svg version="1.1" id="Layer_1" xmlns="http://www.w3.org/2000/svg" xmlns:xlink="http://www.w3.org/1999/xlink" x="0px" y="0px"
	 viewBox="0 0 113.37 106.21" style="enable-background:new 0 0 113.37 106.21;" xml:space="preserve">
<style type="text/css">
	.st0{clip-path:url(#SVGID_00000099620162484925271350000015201061003520993421_);fill:#328612;}
	.st1{clip-path:url(#SVGID_00000093881237112909432200000012556045486024541356_);fill:#338712;}
	.st2{clip-path:url(#SVGID_00000129906794063564569240000009821869133120622216_);fill:#338712;}
	.st3{clip-path:url(#SVGID_00000096745774850133017220000004838292427858676142_);fill:#338712;}
	.st4{clip-path:url(#SVGID_00000092419131182789820320000004250109868627779221_);fill:#338712;}
	.st5{clip-path:url(#SVGID_00000139984806790643451350000015279469695408377253_);fill:#338712;}
	.st6{clip-path:url(#SVGID_00000175292558816474435980000009160822569979741077_);fill:#328612;}
	.st7{clip-path:url(#SVGID_00000038395620283372994670000002678423734441414030_);fill:#328612;}
	.st8{clip-path:url(#SVGID_00000107563398719574643450000010498037233513738159_);fill:#328612;}
	.st9{clip-path:url(#SVGID_00000139286025934478161140000013162660495454097574_);fill:#328612;}
	.st10{clip-path:url(#SVGID_00000101814437150548958080000013731224245285847712_);fill:#328612;}
	.st11{clip-path:url(#SVGID_00000114044311119093550270000000029879806915946674_);fill:#328612;}
	.st12{fill:#328612;}
</style>
<g>
	<defs>
		<rect id="SVGID_00000172398019279697921670000014817290560534509998_" x="10.01" y="1.4" width="103.14" height="103.98"/>
	</defs>
	<clipPath id="SVGID_00000074433709692304024650000011729202200595988642_">
		<use xlink:href="#SVGID_00000172398019279697921670000014817290560534509998_"  style="overflow:visible;"/>
	</clipPath>
	<path style="clip-path:url(#SVGID_00000074433709692304024650000011729202200595988642_);fill:#338712;" d="M39.6,64.16
		c-1.71,1.87-3.11,3.76-4.49,5.8c-1.03-0.86-2.02-1.52-3.32-2.21c-1.15-0.61-3.05,1.33-1.78,2c1.69,0.9,2.86,1.74,4.27,3.04
		c0.61,0.57,1.64-0.2,1.97-0.7c0.85-1.3,1.7-2.6,2.55-3.91c0.08-0.13,0.5-0.6,0.1-0.17c0.28-0.31,0.57-0.62,0.85-0.93
		c0.54-0.59,1.08-1.18,1.62-1.77C42.57,63.98,40.64,63.02,39.6,64.16"/>
	<path style="clip-path:url(#SVGID_00000074433709692304024650000011729202200595988642_);fill:#338712;" d="M41.32,46.57
		c-3.9,0.47-8.01,0.33-11.92,0.42c-2.28,0.06-1.46-5.99-1.46-7.68c0-1.38-0.76-6.88,0.65-7.35c2.36-0.8,5.94-0.18,8.45-0.41
		c1.4-0.12,2.79-0.33,4.19-0.47c2.37-0.23,2.57,0.6,2.53,3.08c-0.11,2.22-0.05,4.41,0.13,6.62c0.11,1.38,0.45,2.75,0.67,4.11
		C44.85,46.65,42.7,46.4,41.32,46.57 M43.39,28.25c-1.47-0.26-3.33,0.21-4.78,0.37c-2.72,0.3-5.41,0.55-8.15,0.48
		c-3.13-0.08-4.58,0.7-4.58,3.75c0,4.43-0.39,9.05,0.24,13.43c0.35,2.44,1.46,3.43,3.77,3.38c3.39-0.07,6.78-0.21,10.17-0.33
		c1.76-0.06,6.14,0.07,6.71-2.31c0.36-1.51-0.35-3.6-0.62-5.05c-0.47-2.44-0.42-4.99-0.3-7.47C45.86,32.68,45.91,28.69,43.39,28.25"
		/>
	<path style="clip-path:url(#SVGID_00000074433709692304024650000011729202200595988642_);fill:#338712;" d="M40.07,75.32
		c-2.33,0-4.65,0.07-6.98,0.24c-1.04,0.08-2.07,0.19-3.11,0.27c-2.32,0.19-2.2-0.66-2.07-3.04c0.11-2.1,0.19-4.19,0.15-6.3
		c-0.01-0.91-0.07-1.82-0.14-2.73c-0.22-2.9,0.67-2.17,2.48-2.18c2.24-0.01,4.48-0.25,6.71-0.47c1.17-0.12,2.34-0.21,3.51-0.31
		c2.09-0.17,2.48,0.67,2.47,2.83c-0.1,1.91-0.12,3.82-0.1,5.73c0.01,0.97,0.05,1.94,0.1,2.92C43.22,75.52,42.49,75.32,40.07,75.32
		 M45.18,63.27c0-0.07-0.02-0.12-0.02-0.18c0.01-0.05,0.03-0.11,0.03-0.16c0.02-2.66-0.28-5.03-3.31-4.85
		c-4,0.23-7.96,0.83-11.98,0.85c-2.18,0.01-3.72,0.58-4.02,3.12c-0.46,3.9,0.06,8.01-0.15,11.96c-0.09,1.67-0.13,4.67,2.15,4.6
		c3.95-0.13,7.85-0.62,11.81-0.62c3.03,0,4.46-0.12,5.27-3.33C45.86,71.12,44.98,66.9,45.18,63.27"/>
	<path style="clip-path:url(#SVGID_00000074433709692304024650000011729202200595988642_);fill:#338712;" d="M74.39,75.32
		c-2.34,0-4.65,0.07-6.98,0.24c-1.04,0.08-2.07,0.19-3.11,0.27c-2.32,0.19-2.2-0.66-2.07-3.04c0.11-2.1,0.19-4.19,0.15-6.3
		c-0.01-0.91-0.07-1.82-0.14-2.73c-0.22-2.9,0.67-2.17,2.48-2.18c2.24-0.01,4.48-0.25,6.71-0.47c1.17-0.12,2.34-0.21,3.5-0.31
		c2.09-0.17,2.48,0.67,2.47,2.83c-0.1,1.91-0.12,3.82-0.1,5.73c0.01,0.97,0.05,1.94,0.1,2.92C77.55,75.52,76.81,75.32,74.39,75.32
		 M79.5,63.27c0-0.07-0.02-0.12-0.02-0.18c0.01-0.05,0.03-0.11,0.03-0.16c0.02-2.66-0.28-5.03-3.31-4.85
		c-4,0.23-7.96,0.83-11.98,0.85c-2.18,0.01-3.72,0.58-4.02,3.12c-0.46,3.9,0.06,8.01-0.15,11.96c-0.09,1.67-0.13,4.67,2.15,4.6
		c3.95-0.13,7.85-0.62,11.81-0.62c3.03,0,4.46-0.12,5.27-3.33C80.18,71.12,79.3,66.9,79.5,63.27"/>
	<path style="clip-path:url(#SVGID_00000074433709692304024650000011729202200595988642_);fill:#338712;" d="M93.57,71.3
		c0.14,3.54,0.19,7.05,0.12,10.57c-0.11-0.11-0.21-0.22-0.33-0.33c-0.78-0.67-1.65-1-2.59-1.36c-0.73-0.28-1.47,1.16-0.65,1.47
		c0.75,0.29,1.43,0.57,2.08,1.06c0.54,0.41,0.99,0.91,1.44,1.42c-0.05,1.56-0.13,3.12-0.23,4.68c-0.05,0.76-0.1,1.52-0.15,2.28
		c-1.45-0.86-2.47-1.66-3.12-3.32c-0.62-1.6-1.85-2.79-3.03-3.97c-0.55-0.55-2.02-0.1-1.3,0.62c1.35,1.36,2.39,2.61,3.12,4.4
		c0.65,1.59,2.1,2.44,3.5,3.26c0.23,0.14,0.51,0.14,0.76,0.07c-0.06,0.94-0.13,1.88-0.19,2.81c-0.07,1.08-0.09,2.05-0.14,2.91
		c-0.62-0.83-1.28-1.64-2.04-2.38c-1.65-1.62-3.5-2.97-5.35-4.35c-0.65-0.49-1.6,0.84-0.95,1.33c1.53,1.15,3.09,2.26,4.51,3.55
		c1.38,1.25,2.47,2.68,3.52,4.18c-0.44,1.54-1.54,2.36-4.5,2.39c0.34-0.27,0.56-0.83,0.28-1.19c-2.1-2.63-4.17-5.26-6.05-8.06
		c-0.53-0.79-1.5,0.47-1.07,1.11c1.88,2.8,3.95,5.42,6.05,8.06c0.03,0.04,0.07,0.06,0.1,0.08c-1.78,0-3.56,0-5.33,0
		c-0.01-0.01,0-0.02-0.01-0.03c-0.46-0.7-0.89-1.4-1.47-2c-0.58-0.59-1.26-0.99-1.96-1.42c-0.7-0.43-1.59,0.94-0.9,1.36
		c0.67,0.41,1.31,0.78,1.86,1.35c0.22,0.23,0.4,0.48,0.58,0.74c-7.32-0.02-14.64-0.11-21.96-0.44c-9.24-0.41-18.47-1.05-27.72-0.49
		c-4.73,0.29-9.47,0.6-14.2,0.84c-5.53,0.28-3.72-12.74-3.72-17.07c0-17.4,3.65-35.04,2.19-52.39c-0.25-2.9-3.97-27.91-0.71-28.65
		c4.23-0.96,9.98,0,14.4,0c5.67,0,11.35-0.01,17.01,0.33c8.97,0.54,17.82,1,26.81,0.54c4.58-0.24,9.15-0.48,13.73-0.7
		c1.67-0.08,6.71-1.12,6.57,2.43c-0.09,2.17-0.36,4.36-0.63,6.51c-0.4,3.16-0.65,6.28-0.5,9.46c0.08,1.69,2.27,0.34,2.21-0.95
		c-0.14-3,0.13-5.93,0.51-8.91c0.28-2.18,1.43-6.24,0.6-8.39c-1.83-4.69-7.76-2.76-11.92-2.55c-9.48,0.49-18.86,1.06-28.35,0.49
		C45.01,2.09,35.58,1.83,26.1,1.83c-4.06,0-9.78-1.19-13.46,0.39c-3.95,1.7-2.09,8.46-1.84,11.42c0.69,8.23,1.67,16.48,1.97,24.74
		c0.36,9.6-1.04,19.41-1.76,28.97c-0.64,8.6-0.68,17.18-0.68,25.8c0,2.4-1.66,11.28,2.5,11.99c4.52,0.77,10.51-0.51,15.14-0.8
		c16.06-0.98,32.13,0.8,48.2,0.8h14.83c4.42,0,3.87-5.08,4.03-8.04c0.51-8.97,1.11-17.76,0.74-26.76
		C95.71,68.66,93.52,70.01,93.57,71.3"/>
	<path style="clip-path:url(#SVGID_00000074433709692304024650000011729202200595988642_);fill:#338712;" d="M69.4,34.85
		c-1.71,1.87-3.11,3.76-4.5,5.8c-1.03-0.86-2.02-1.52-3.32-2.21c-1.15-0.61-3.05,1.33-1.78,2c1.69,0.9,2.86,1.74,4.27,3.04
		c0.61,0.57,1.64-0.2,1.97-0.7c0.85-1.3,1.7-2.6,2.55-3.9c0.08-0.13,0.5-0.6,0.1-0.17c0.28-0.31,0.57-0.62,0.85-0.93
		c0.54-0.59,1.08-1.18,1.62-1.78C72.36,34.68,70.44,33.71,69.4,34.85"/>
	<path style="clip-path:url(#SVGID_00000074433709692304024650000011729202200595988642_);fill:#338712;" d="M75.93,41.29
		c-0.48-2.44-0.42-4.98-0.3-7.46c0.03-1.85,0.08-5.83-2.44-6.28c-1.47-0.26-3.34,0.22-4.79,0.38c-0.1,0.01-0.2,0.03-0.3,0.03
		c-1.32,0.83-2.53,1.81-3.59,2.94c0.83,0.01,1.62,0.01,2.33-0.04c1.4-0.14,2.79-0.34,4.19-0.48c2.37-0.23,2.57,0.6,2.53,3.09
		c-0.11,2.21-0.06,4.4,0.14,6.62c0.11,1.38,0.45,2.74,0.67,4.11c0.29,1.76-1.86,1.51-3.24,1.67c-3.91,0.46-8.01,0.33-11.93,0.42
		h-0.03c0.1,0.91,0.26,1.81,0.48,2.68h0.04c3.38-0.07,6.77-0.22,10.16-0.34c1.76-0.06,6.14,0.08,6.71-2.3
		C76.91,44.83,76.2,42.75,75.93,41.29"/>
	<path style="clip-path:url(#SVGID_00000074433709692304024650000011729202200595988642_);fill:#338712;" d="M88.45,53.37
		c2.22,1.48,4.22,3.04,6.14,4.85c-1.13,1.33-2.4,2.52-3.81,3.54c-0.56-0.46-1.12-0.94-1.59-1.47c-0.65-0.74-1.09-1.63-1.55-2.49
		c-0.49-0.9-1.46,0.27-1.07,0.97c0.52,0.97,1.03,1.92,1.74,2.78c0.31,0.39,0.71,0.76,1.1,1.1c-1.31,0.79-2.71,1.44-4.19,1.95
		c-0.06-0.14-0.08-0.26-0.14-0.39c-0.33-0.72-0.78-1.38-1.21-2.04c-0.52-0.8-1.48,0.46-1.06,1.12c0.38,0.59,0.74,1.13,1.01,1.73
		c-2.64,0.68-5.5,0.91-8.48,0.54c-8.93-1.1-14.6-8.44-16.47-16.6c-0.23-0.99-0.4-2-0.5-3.01c-0.08-0.69-0.14-1.38-0.16-2.07
		c-0.18-5.16,1.16-9.64,3.66-13.03c0.67-0.93,1.43-1.76,2.27-2.52c3.7-3.34,8.93-5,15.07-4.34c10.76,1.13,20.08,9.56,20.63,20.51
		c0,0.18-0.03,0.34-0.04,0.52c-0.1-0.06-0.19-0.12-0.3-0.16c-0.84-0.38-1.74-0.5-2.64-0.65c-0.82-0.14-1.28,1.43-0.49,1.57
		c0.73,0.12,1.46,0.22,2.16,0.46c0.41,0.12,0.76,0.31,1.12,0.53c-0.23,1.69-0.64,3.32-1.2,4.86c-1.63-0.61-3.01-1.51-4.49-2.61
		c-0.71-0.52-1.5,0.9-0.87,1.36c1.58,1.14,3.01,2.12,4.74,2.75c-0.61,1.38-1.35,2.65-2.21,3.85c-1.91-1.76-3.88-3.31-6.06-4.77
		C88.89,51.75,87.73,52.89,88.45,53.37 M112.98,78.64c-1.12-1.62-2.22-3.23-3.32-4.85c-1.16-1.69-3.59-3.02-5.16-4.32
		c-3.43-2.81-5.79-5.88-8.51-9.41c3.85-4.41,6.22-10.21,6.45-16.2c-0.72-14.43-14.54-22.72-28.01-22.25
		c-3.76,0.14-7.42,1.32-10.4,3.64c-1.18,0.93-2.25,1.99-3.16,3.17c-0.18,0.2-0.34,0.42-0.5,0.64c-0.45,0.63-1.09,1.39-1.43,2.06
		l-0.01,0.01c-0.53,1.02-0.99,2.08-1.39,3.16c-0.52,1.38-0.93,2.79-1.22,4.24c-0.25,1.17-0.52,2.48-0.7,3.8
		c-0.18,1.36-0.24,2.72-0.09,3.95c0.03,0.27,0.08,0.53,0.14,0.79c0.25,1.13,0.37,2.3,0.64,3.4c0.27,1.17,0.63,2.32,1.08,3.43
		c0.53,1.35,1.09,2.71,1.95,3.89c2.45,3.39,5.94,6.28,9.74,8.01c3.43,1.55,7.22,2.26,10.97,2.11c5.56-0.22,10.42-2.51,14.19-6.01
		c0.04,0.11,0.1,0.22,0.16,0.3c2.38,3.09,4.47,6.11,7.48,8.58c1.96,1.61,3.91,3.2,5.85,4.79c1.01,0.82,2.37,3.34,3.35,4.77
		C111.94,81.65,113.7,79.7,112.98,78.64"/>
</g>
</svg>
