<?xml version="1.0" encoding="utf-8"?>
<!-- Generator: Adobe Illustrator 25.4.1, SVG Export Plug-In . SVG Version: 6.00 Build 0)  -->
<svg version="1.1" id="Layer_1" xmlns="http://www.w3.org/2000/svg" xmlns:xlink="http://www.w3.org/1999/xlink" x="0px" y="0px"
	 viewBox="0 0 62.5 30" style="enable-background:new 0 0 62.5 30;" xml:space="preserve">
<style type="text/css">
	.st0{clip-path:url(#SVGID_00000005253655664405942000000009085555984891210901_);fill:#328612;}
	.st1{clip-path:url(#SVGID_00000062157673530759940290000014443294894733101457_);fill:#338712;}
	.st2{clip-path:url(#SVGID_00000155830490237178190080000009390162659799692438_);fill:#338712;}
	.st3{clip-path:url(#SVGID_00000021083457043990521030000017442706152903077258_);fill:#338712;}
	.st4{clip-path:url(#SVGID_00000181068334006288417670000006807559938688136354_);fill:#338712;}
	.st5{clip-path:url(#SVGID_00000125587229021863065540000007593731737328005517_);fill:#338712;}
	.st6{clip-path:url(#SVGID_00000037655443233475583960000003026007576433910719_);fill:#328612;}
	.st7{clip-path:url(#SVGID_00000075141358979313932690000011909140095692005780_);fill:#328612;}
	.st8{clip-path:url(#SVGID_00000183213121083032071560000012482987579208722354_);fill:#328612;}
	.st9{clip-path:url(#SVGID_00000116955375109676416360000014281616969552841137_);fill:#328612;}
	.st10{clip-path:url(#SVGID_00000034772248237208542330000014177365404539638173_);fill:#328612;}
	.st11{clip-path:url(#SVGID_00000015316493928183974980000017356526402237830289_);fill:#328612;}
	.st12{fill:#328612;}
</style>
<g>
	<defs>
		<rect id="SVGID_00000073722357951941721990000008518345550938699963_" y="0" width="62.5" height="30"/>
	</defs>
	<clipPath id="SVGID_00000067927892386226228200000012351245331199290300_">
		<use xlink:href="#SVGID_00000073722357951941721990000008518345550938699963_"  style="overflow:visible;"/>
	</clipPath>
	<path style="clip-path:url(#SVGID_00000067927892386226228200000012351245331199290300_);fill:#328612;" d="M60.42,17.02l-0.82-0.8
		l0.81-0.79c0.1-0.09,0.1-0.24,0-0.34c-0.1-0.09-0.25-0.09-0.35,0l-0.81,0.79l-0.8-0.77c-0.23-0.22-0.57,0.11-0.35,0.34l0.79,0.77
		l-1.48,1.44c-0.23-0.23-0.48-0.58-0.71-0.36c-0.23,0.22,0.13,0.47,0.37,0.69l-1.37,1.34l-0.62-0.61l0.3-0.29
		c0.23-0.22-0.12-0.56-0.35-0.34l-0.3,0.29c-0.21-0.2-0.4-0.45-0.6-0.25c-0.21,0.2,0.05,0.39,0.26,0.59l-3.09,3.01l-0.47-0.46
		c-0.23-0.22-0.57,0.11-0.35,0.34l0.47,0.46l-1.27,1.23l-0.73-0.71l1.81-1.76c0.23-0.22-0.12-0.56-0.35-0.34l-3.69,3.6
		c-0.23-0.19-0.53,0.1-0.34,0.33l-1.38,1.34l-0.94-0.92l1.9-1.86c0.23-0.22-0.12-0.56-0.35-0.34l-3.52,3.43
		c-0.23-0.19-0.53,0.1-0.34,0.33l-1.49,1.45l-0.53-0.51c-0.23-0.22-0.57,0.11-0.35,0.34l0.85,0.83c-0.72,0.12-1.44,0.2-2.16,0.28
		c-0.08-0.1-0.28-0.3-0.38-0.39l2.75-2.68c0.1-0.09,0.1-0.24,0-0.34c-0.1-0.09-0.25-0.09-0.35,0l-2.75,2.68l-0.2-0.2
		c-0.23-0.22-0.57,0.11-0.35,0.34l0.2,0.2c-0.1,0.09-0.45,0.43-0.53,0.53c-17,1.1-26.23-7.74-35.33-14.98
		C17.17-4.14,46.6-3.3,61.38,16.01C61.06,16.36,60.74,16.69,60.42,17.02 M58.61,18.82L57.77,18l1.48-1.44l0.83,0.81
		C59.59,17.87,59.1,18.35,58.61,18.82 M52.59,21.17c0.12,0.12,1.4,1.41,1.55,1.42c-0.4,0.29-0.8,0.58-1.2,0.85
		c-0.02-0.15-1.18-1.24-1.3-1.35L52.59,21.17z M53.71,21.29c-0.07,0.07-0.07,0.17-0.03,0.26l-0.74-0.72l1.8-1.76l0.62,0.61
		L53.71,21.29z M56.46,20.75c-0.69,0.59-1.39,1.14-2.08,1.66c0.02-0.08,0.02-0.16-0.05-0.23l-0.54-0.53
		c0.09,0.04,0.16,0.07,0.27-0.03l1.65-1.61L56.46,20.75z M56.83,20.44l-0.78-0.76l1.37-1.34l0.83,0.81
		C57.78,19.59,57.31,20.02,56.83,20.44 M50.83,24.43l-0.8-0.78l1.27-1.23c0.1,0.1,1.18,1.18,1.31,1.24
		c-1.36,0.91-2.72,1.69-4.1,2.35c0.04-0.19-0.23-0.39-0.4-0.56c0.15-0.02,1.46-1.34,1.57-1.46l0.8,0.78c0.1,0.09,0.25,0.09,0.35,0
		C50.93,24.68,50.93,24.53,50.83,24.43 M48.62,22.95l0.73,0.71c-0.12,0.11-1.47,1.39-1.49,1.53l-0.77-0.75L48.62,22.95z
		 M46.74,24.78c0.1,0.1,1.33,1.32,1.46,1.38c-0.73,0.34-1.46,0.65-2.19,0.92c0.09-0.09,0.09-0.24,0-0.33l-0.64-0.62L46.74,24.78z
		 M43.73,25.2l0.94,0.92c-0.28,0.27-0.89,0.7-0.63,0.95c0.1,0.09,0.25,0.09,0.35,0l0.63-0.61c0.12,0.12,0.64,0.68,0.8,0.68
		c-0.66,0.24-1.31,0.45-1.97,0.64l-1.38-1.34L43.73,25.2z M40.78,28.43c-0.01-0.11-0.05-0.14-0.14-0.22l1.48-1.44l1.18,1.15
		C42.32,28.16,42.29,28.17,40.78,28.43 M37.24,28.91l0.15-0.15l0.12,0.12C37.42,28.88,37.33,28.9,37.24,28.91 M0.11,13.72
		c-0.08,0.1-0.12,0.22-0.11,0.35c0.01,0.13,0.08,0.24,0.18,0.32C9.25,21.59,17.83,30,33.96,30c12.01,0,20.25-4.72,28.42-13.65
		c0.15-0.17,0.17-0.42,0.03-0.6C47.19-4.59,16.36-5.19,0.11,13.72"/>
	<path style="clip-path:url(#SVGID_00000067927892386226228200000012351245331199290300_);fill:#328612;" d="M34.77,20.02
		c-2.37,1.49-6.13,1.26-8.23-1.36c0.11,0.11,0.22,0.25,0.35,0.25c0.22,0,0.33-0.26,0.17-0.41l-0.33-0.32l1.71-1.66
		c0.23-0.22-0.12-0.56-0.35-0.34l-0.78,0.76c-0.05-0.13-1.05-1.08-1.15-1.18l1.26-1.22c0.12,0.12,0.65,0.69,0.81,0.69
		c0.22,0,0.33-0.26,0.17-0.41l-0.64-0.62c0.26-0.26,0.76-0.6,0.51-0.84c-0.25-0.24-0.6,0.24-0.86,0.5l-0.9-0.87
		c0.13-0.06,1.02-0.95,1.13-1.05l1.58,1.54c0.1,0.09,0.25,0.09,0.35,0c0.1-0.09,0.1-0.24,0-0.34l-1.58-1.54l1.37-1.34l0.61,0.59
		l-0.89,0.87c-0.15,0.15-0.04,0.41,0.17,0.41c0.16,0,0.95-0.82,1.07-0.94l0.93,0.91c0.1,0.09,0.25,0.09,0.35,0
		c0.1-0.09,0.1-0.24,0-0.34l-0.94-0.91l0.91-0.89l0.93,0.91v0h0l0.16,0.16c0.21,0.21,0.56-0.08,0.35-0.32l0.73-0.71
		c0.12,0.12,0.79,0.83,0.95,0.83c0.22,0,0.33-0.26,0.17-0.41l-0.5-0.48c1.54,0.84,2.56,2.2,2.96,3.67
		C37.97,15.94,36.87,18.7,34.77,20.02 M25.27,16.04c-0.04-0.19-0.07-0.37-0.1-0.56l0.3,0.29C25.36,15.87,25.29,15.91,25.27,16.04
		 M25.59,17.07c-0.12-0.3-0.22-0.61-0.3-0.93c0.11,0.28,0.31,0.16,0.51-0.04c0.1,0.1,1.07,1.08,1.21,1.12l-0.64,0.62L25.59,17.07z
		 M26.63,10.95l0.67,0.65c-0.1,0.1-1.02,0.97-1.08,1.1c-0.22-0.21-0.44-0.51-0.65-0.3c-0.1,0.09-0.1,0.24,0,0.34l1.5,1.47
		l-1.26,1.23l-0.7-0.68C25.07,13.2,25.55,12,26.63,10.95 M29.01,9.93l-1.37,1.34l-0.65-0.64c0.54-0.46,1.16-0.82,1.8-1.07
		C28.75,9.73,28.87,9.79,29.01,9.93 M30.77,9.13c0.03,0.13,0.34,0.4,0.45,0.51l-0.91,0.89l-0.63-0.61c0.09-0.21-0.08-0.38-0.3-0.29
		c-0.1-0.09-0.12-0.12-0.21-0.2C29.65,9.26,29.95,9.17,30.77,9.13 M31.38,9.11c0.11,0.01,0.23,0.02,0.34,0.03
		c0,0-0.15,0.15-0.16,0.15L31.38,9.11z M32.67,10.37l-0.76-0.74c0.16-0.16,0.31-0.26,0.17-0.46c0.39,0.06,0.77,0.16,1.15,0.28
		c0.04,0.11,0.06,0.11,0.17,0.21L32.67,10.37z M29.45,8.34c-8.35,1.94-6.23,13.55,1.99,13.55c5.12,0,7.88-4.72,6.82-8.52
		C36.4,6.6,27.9,8.34,29.45,8.34"/>
	<path style="clip-path:url(#SVGID_00000067927892386226228200000012351245331199290300_);fill:#328612;" d="M39.42,24.09
		l-0.97-0.95l0.68-0.66l0.69,0.67c0.05,0.05,0.11,0.07,0.17,0.07s0.12-0.02,0.17-0.07c0.1-0.09,0.1-0.24,0-0.34l-0.69-0.67
		c0.13-0.13,1.33-1.22,1.32-1.4c0.23,0.22,0.48,0.58,0.71,0.36c0.1-0.09,0.1-0.24,0-0.34l-1.41-1.37c-0.1-0.09-0.25-0.09-0.35,0
		c-0.1,0.09-0.1,0.24,0,0.34l0.83,0.8c-0.19-0.01-1.31,1.15-1.44,1.28l-0.84-0.82c-0.1-0.09-0.25-0.09-0.35,0
		c-0.1,0.09-0.1,0.24,0,0.34l0.84,0.82L38.1,22.8c-1.55-1.51-0.89-1.55-3.17,0.68l-0.32-0.31c-0.1-0.09-0.25-0.09-0.35,0
		c-0.1,0.09-0.1,0.24,0,0.34l0.32,0.31l-1.34,1.31c-0.1-0.1-0.83-0.82-0.95-0.88l0.91-0.89c0.1-0.09,0.1-0.24,0-0.34
		s-0.25-0.09-0.35,0l-2.39,2.32c-0.26-0.25-0.6-0.73-0.85-0.49c-0.25,0.24,0.24,0.57,0.5,0.83l-0.58,0.56
		c-0.15,0.15-0.04,0.41,0.17,0.41c0.16,0,0.63-0.52,0.75-0.63l0.65,0.64c0.05,0.05,0.11,0.07,0.17,0.07c0.06,0,0.12-0.02,0.17-0.07
		c0.1-0.09,0.1-0.24,0-0.34l-0.65-0.63l1.17-1.15c0.06,0.12,0.81,0.82,0.91,0.92l-0.2,0.2c-0.1,0.09-0.1,0.24,0,0.34
		c0.05,0.05,0.11,0.07,0.17,0.07c0.06,0,0.13-0.02,0.17-0.07l0.2-0.2c0.11,0.1,0.72,0.75,0.87,0.77c-1.59,0.31-3.25,0.32-4.85,0.05
		c0.01-0.17-0.59-0.69-0.73-0.83l2.18-2.12c0.23-0.22-0.12-0.56-0.35-0.34l-2.18,2.12l-0.47-0.45c-0.23-0.22-0.57,0.11-0.35,0.34
		l0.46,0.45l-0.39,0.38c-8.48-2.73-11.53-14.06-4.9-19.8c7.81-6.76,19.92-1.9,21.05,7.35l-0.5,0.49l-0.46-0.45
		c-0.1-0.09-0.25-0.09-0.35,0c-0.1,0.09-0.1,0.24,0,0.34l0.46,0.45l-0.16,0.16c-0.1,0.09-0.1,0.24,0,0.34
		c0.05,0.05,0.11,0.07,0.17,0.07s0.13-0.02,0.17-0.07l0.16-0.16c0.11,0.1,0.44,0.46,0.57,0.5c-0.02,0.77-0.12,1.53-0.3,2.28
		c-0.08-0.01-0.15,0-0.21,0.05l-0.81,0.79l-0.55-0.54l0.97-0.94l0.26,0.25c0.05,0.05,0.11,0.07,0.17,0.07s0.12-0.02,0.17-0.07
		c0.1-0.09,0.1-0.24,0-0.34L43.1,16.7c0.15-0.14,0.28-0.28,0.11-0.44c-0.1-0.09-0.25-0.09-0.35,0l-0.11,0.11
		c-0.23-0.23-0.47-0.56-0.7-0.34c-0.22,0.22,0.12,0.45,0.35,0.68l-0.97,0.94c-0.14-0.14-0.28-0.24-0.43-0.09
		c-0.16,0.15-0.05,0.29,0.09,0.42l-0.84,0.82c-0.1,0.09-0.1,0.24,0,0.34c0.05,0.05,0.11,0.07,0.17,0.07c0.06,0,0.12-0.02,0.17-0.07
		l0.84-0.82L42,18.86l-0.16,0.16c-0.1,0.09-0.1,0.24,0,0.34c0.05,0.05,0.11,0.07,0.17,0.07s0.12-0.02,0.17-0.07l0.2-0.2
		c0.19,0.03,0.29-0.1,0.26-0.26l0.53-0.52C42.52,20.57,41.22,22.59,39.42,24.09 M36.88,25.69c0.19-0.23-0.15-0.45-0.37-0.66
		l1.59-1.55l0.94,0.92C38.35,24.93,37.76,25.29,36.88,25.69 M36.87,22.27l0.89,0.87l-1.59,1.55l-0.89-0.87L36.87,22.27z
		 M33.59,25.47l1.34-1.31l0.89,0.87c-0.25,0.24-0.66,0.52-0.43,0.75c0.1,0.09,0.25,0.09,0.35,0l0.43-0.42
		c0.12,0.11,0.38,0.41,0.52,0.42c-0.78,0.34-1.59,0.59-2.43,0.76C34.69,26.32,33.94,25.81,33.59,25.47 M27.98,26.33l0.2-0.2
		l0.35,0.34C28.35,26.43,28.16,26.38,27.98,26.33 M43.68,14.78l-0.24-0.23l0.21-0.21C43.66,14.49,43.67,14.64,43.68,14.78
		 M21.9,5.66c-8.28,7.16-2.81,22.1,9.67,22.1c9.53,0,14.62-8.78,12.67-15.82C41.75,2.91,29.75-1.12,21.9,5.66"/>
</g>
</svg>
