<?xml version="1.0" encoding="utf-8"?>
<!-- Generator: Adobe Illustrator 25.4.1, SVG Export Plug-In . SVG Version: 6.00 Build 0)  -->
<svg version="1.1" id="Layer_1" xmlns="http://www.w3.org/2000/svg" xmlns:xlink="http://www.w3.org/1999/xlink" x="0px" y="0px"
	 viewBox="0 0 59.5 41.44" style="enable-background:new 0 0 59.5 41.44;" xml:space="preserve">
<style type="text/css">
	.st0{clip-path:url(#SVGID_00000109000053564318447660000011416628438741136026_);fill:#328612;}
	.st1{clip-path:url(#SVGID_00000121975754105936974500000017487897927376385717_);fill:#338712;}
	.st2{clip-path:url(#SVGID_00000103978298990692049360000001310771776034924445_);fill:#338712;}
	.st3{clip-path:url(#SVGID_00000065044511440879161020000010444786453819257761_);fill:#338712;}
	.st4{clip-path:url(#SVGID_00000075844080498022065960000015437717901374068383_);fill:#338712;}
	.st5{clip-path:url(#SVGID_00000067203636032743306930000003669193134487343515_);fill:#338712;}
	.st6{clip-path:url(#SVGID_00000070099888489453165320000004755947360577900177_);fill:#328612;}
	.st7{clip-path:url(#SVGID_00000119098999411549029570000017701472931071001253_);fill:#328612;}
	.st8{clip-path:url(#SVGID_00000040566697859078090790000007824703056981004162_);fill:#328612;}
	.st9{clip-path:url(#SVGID_00000183226109055034417970000008683682972552772024_);fill:#328612;}
	.st10{clip-path:url(#SVGID_00000018924506772001595690000001041396466916295849_);fill:#328612;}
	.st11{clip-path:url(#SVGID_00000129206270466565424480000012956751825624307886_);fill:#328612;}
	.st12{fill:#328612;}
</style>
<g>
	<defs>
		<rect id="SVGID_00000039856156162379672880000009919637744772329133_" width="59.5" height="41.44"/>
	</defs>
	<clipPath id="SVGID_00000086652696898674047000000005688895996662051743_">
		<use xlink:href="#SVGID_00000039856156162379672880000009919637744772329133_"  style="overflow:visible;"/>
	</clipPath>
	<path style="clip-path:url(#SVGID_00000086652696898674047000000005688895996662051743_);fill:#328612;" d="M58.49,29.45
		L58.49,29.45c-0.25,1.98-1.18,3.85-2.81,5.11c0.08-0.09,0.08-0.23,0-0.32l-0.26-0.26l1.38-1.38c0.02,0,0.03,0.02,0.05,0.02
		c0.16,0,0.28-0.15,0.19-0.33c0.02-0.08,0.02-0.16-0.04-0.22c-0.05-0.05-0.12-0.06-0.19-0.06l-1.28-1.28
		c-0.01-0.05-0.02-0.1-0.06-0.14c-0.04-0.04-0.09-0.05-0.14-0.06l-1.07-1.07c-0.09-0.09-0.24-0.09-0.33,0
		c-0.09,0.09-0.09,0.24,0,0.33l1.01,1.01l-1.35,1.35l-1.09-1.09c-0.09-0.09-0.24-0.09-0.33,0c-0.09,0.09-0.09,0.24,0,0.33l1.09,1.09
		l-0.85,0.85l-1.22-1.22l0.77-0.77c0.09-0.09,0.09-0.24,0-0.33c-0.09-0.09-0.24-0.09-0.33,0l-0.77,0.77l-0.63-0.63
		c-0.09-0.09-0.24-0.09-0.33,0c-0.09,0.09-0.09,0.24,0,0.33l0.63,0.63l-1.39,1.39l-1.09-1.09c-0.09-0.09-0.24-0.09-0.33,0
		c-0.09,0.09-0.09,0.24,0,0.33l1.1,1.1l-1.22,1.22l-1.31-1.31l1.5-1.5c0.09-0.09,0.09-0.24,0-0.33c-0.09-0.09-0.24-0.09-0.33,0
		l-1.5,1.5l-0.34-0.34c-0.09-0.09-0.24-0.09-0.33,0c-0.09,0.09-0.09,0.24,0,0.33l0.34,0.34l-1.1,1.1c-0.1-0.1-0.84-0.89-0.99-0.9
		c1.53-4.42,0.3-9.67-2.08-13.68c0.76-0.99,1.6-1.72,2.58-2.3c2.48,1.65,6.47,1.86,9.04-0.21c1.27,0.78,2.29,1.86,3.1,3.08
		c1.05,1.54,1.91,3.64,2.24,5.58l-0.85-0.85l0.42-0.42c0.09-0.09,0.09-0.24,0-0.33c-0.09-0.09-0.24-0.09-0.33,0l-0.42,0.42
		l-0.55-0.55c-0.09-0.09-0.24-0.09-0.33,0c-0.09,0.09-0.09,0.24,0,0.33l0.55,0.55l-0.04,0.05c-0.09,0.09-0.09,0.24,0,0.33
		c0.09,0.09,0.24,0.09,0.33,0l0.04-0.05l1.28,1.28C58.59,27.95,58.59,28.71,58.49,29.45 M56.44,32.31l-1.35,1.35l-1.18-1.18
		l1.35-1.35L56.44,32.31z M49.46,33.82l1.39-1.39l1.22,1.22l-1.39,1.39L49.46,33.82z M47.25,36.16c-0.04,0-0.08-0.01-0.12-0.01
		l0.45-0.45c0.11,0.11,0.4,0.45,0.55,0.45c0.21,0,0.31-0.25,0.16-0.4l-0.38-0.38l1.22-1.22l1.22,1.22l-0.21,0.21
		c-0.09,0.09-0.09,0.24,0,0.33c0.09,0.09,0.24,0.09,0.33,0l0.21-0.21l0.17,0.17c0.09,0.09,0.24,0.09,0.33,0
		c0.09-0.09,0.09-0.24,0-0.33l-0.17-0.17l1.39-1.39l1.18,1.18c0.09,0.09,0.24,0.09,0.33,0c0.09-0.09,0.09-0.24,0-0.33l-1.18-1.18
		l0.85-0.85l1.18,1.18l-0.67,0.67c-0.09,0.09-0.09,0.24,0,0.33c0.09,0.09,0.24,0.09,0.33,0l0.67-0.67l0.26,0.26
		c0.08,0.08,0.2,0.1,0.31,0.01C53.37,36.34,50.14,36.39,47.25,36.16 M45.02,35.66c0.09-0.09,0.09-0.24,0-0.33l-0.17-0.17l1.1-1.1
		l1.31,1.31l-0.46,0.47c-0.08,0.08-0.07,0.18-0.02,0.27c-0.77-0.07-1.62-0.19-2.49-0.38l0.24-0.24
		C44.69,35.66,44.84,35.84,45.02,35.66 M43.38,34.35l0.81,0.81l-0.43,0.43c-0.28-0.07-0.55-0.15-0.82-0.24
		C42.98,35.27,43.29,34.58,43.38,34.35 M38.53,38.85l-0.34-0.34l1.41-1.41l0.31,0.31c0.09,0.09,0.24,0.09,0.33,0
		c0.09-0.09,0.09-0.24,0-0.33l-0.31-0.31l1.55-1.55c0.09-0.09,0.09-0.24,0-0.33c-0.09-0.09-0.24-0.09-0.33,0l-1.55,1.55l-1.09-1.09
		l1.73-1.73l0.92,0.92c0.09,0.09,0.24,0.09,0.33,0c0.09-0.09,0.09-0.24,0-0.33l-0.92-0.92l0.53-0.54c0.09-0.09,0.09-0.24,0-0.33
		c-0.09-0.09-0.24-0.09-0.33,0l-0.53,0.53l-1.15-1.15l1.62-1.62l0.99,0.99l-0.57,0.57c-0.09,0.09-0.09,0.24,0,0.33
		c0.09,0.09,0.24,0.09,0.33,0l0.57-0.57l0.28,0.28c0.09,0.09,0.24,0.09,0.33,0c0.09-0.09,0.09-0.24,0-0.33l-0.28-0.28l0.77-0.76
		c0.09-0.09,0.09-0.24,0-0.33c-0.09-0.09-0.24-0.09-0.33,0l-0.77,0.76l-0.99-0.99l0.74-0.74c0.09-0.09,0.09-0.24,0-0.33
		c-0.09-0.09-0.24-0.09-0.33,0l-0.74,0.74l-0.31-0.31c-0.09-0.09-0.24-0.09-0.33,0c-0.09,0.09-0.09,0.24,0,0.33l0.31,0.31
		l-1.62,1.62l-0.15-0.15c-0.09-0.09-0.24-0.09-0.33,0c-0.09,0.09-0.09,0.24,0,0.33l0.18,0.18c-0.03,0.08-0.03,0.18,0.03,0.24
		c0.05,0.05,0.1,0.07,0.17,0.07c0.03,0,0.05-0.02,0.08-0.03l1.17,1.17l-1.73,1.73l-1.89-1.89c-0.09-0.09-0.24-0.09-0.33,0
		c-0.09,0.09-0.09,0.24,0,0.33l1.89,1.89l-1.41,1.41l-1.57-1.57l1.11-1.11c0.09-0.09,0.09-0.24,0-0.33c-0.09-0.09-0.24-0.09-0.33,0
		l-1.11,1.11l-0.68-0.68c-0.09-0.09-0.24-0.09-0.33,0c-0.09,0.09-0.09,0.24,0,0.33l0.68,0.68l-2.04,2.04l-1.09-1.1l0.31-0.31
		c0.09-0.09,0.09-0.24,0-0.33s-0.24-0.09-0.33,0l-0.31,0.31l-0.26-0.26c-0.09-0.09-0.24-0.09-0.33,0c-0.09,0.09-0.09,0.24,0,0.33
		l0.26,0.26l-1.83,1.83l-1.36-1.36c-0.08-0.08-0.18-0.07-0.27-0.03c0-0.06-0.02-0.12-0.07-0.17c-0.09-0.09-0.24-0.09-0.33,0
		l-1.35,1.35l-0.99,1l-0.79-0.78c-0.09-0.09-0.24-0.09-0.33,0c-0.09,0.09-0.09,0.24,0,0.33l0.79,0.78l-0.51,0.51
		c-12.5-3.47-6.26-19.74,0.53-23.65c3.37,2.29,8.65,2.44,11.96-0.28c1.95,1.19,3.46,2.88,4.64,4.8
		C44.38,26.75,44.6,35.25,38.53,38.85 M34.02,39.17c-0.01-0.05-0.02-0.1-0.06-0.14l-1.47-1.47l2.05-2.04l1.57,1.57L34.02,39.17z
		 M37.58,38.56c0,0.06,0.02,0.12,0.07,0.17c0.04,0.04,0.1,0.07,0.17,0.07l0.29,0.29c-1.43,0.75-3.03,1.14-4.65,1.31l2.98-2.98
		L37.58,38.56z M36.76,37.09l1.41-1.41l1.1,1.09l-1.41,1.41L36.76,37.09z M29.58,40.47L30,40.05c0.1,0.09,0.24,0.08,0.32,0
		c0.09-0.09,0.09-0.23,0-0.32l1.83-1.83l1.47,1.47c0.04,0.04,0.09,0.05,0.14,0.06l-0.67,0.67c-0.09,0.09-0.09,0.24,0,0.33
		c0.01,0.01,0.02,0.01,0.03,0.01C31.93,40.54,30.73,40.53,29.58,40.47 M30,39.4l-1.1-1.09l1.83-1.83l1.1,1.1L30,39.4z M26.95,40.26
		l0.21-0.21l0.15,0.15c0.09,0.09,0.24,0.09,0.33,0c0.09-0.09,0.09-0.24,0-0.33l-0.15-0.15l1.09-1.09l1.1,1.09l-0.71,0.71
		c-0.28-0.02-0.55-0.04-0.82-0.06C27.76,40.35,27.36,40.31,26.95,40.26 M24.69,39.9c0.01,0.01,0.02,0.01,0.03,0.01
		c-0.27-0.06-0.55-0.12-0.82-0.18l0.31-0.31L24.69,39.9z M25.36,38.26l1.46,1.47l-0.46,0.46c-0.48-0.06-0.97-0.14-1.47-0.24
		c0.04-0.01,0.08-0.02,0.11-0.05c0.09-0.09,0.09-0.24,0-0.33l-0.48-0.48L25.36,38.26z M26.83,36.8c0,0.05,0.02,0.1,0.06,0.14
		l1.37,1.36l-1.1,1.1l-1.46-1.46L26.83,36.8z M16.08,35.7l-1.35-1.35l0.91-0.91c0.13,0.5,0.48,1.5,0.82,2.14
		C16.33,35.63,16.21,35.66,16.08,35.7 M4.71,35l0.48-0.48l0.89,0.89c0.09,0.09,0.24,0.09,0.33,0c0.09-0.09,0.09-0.24,0-0.33
		l-0.89-0.89l0.83-0.83l1.3,1.3L7.01,35.3c-0.09,0.09-0.09,0.24,0,0.33c0.09,0.09,0.24,0.09,0.33,0l0.64-0.64l0.88,0.88
		c0.09,0.09,0.24,0.09,0.33,0c0.09-0.09,0.09-0.24,0-0.33l-0.87-0.88l1.57-1.57l1.21,1.21l-1.23,1.23c-0.09,0.09-0.09,0.24,0,0.33
		c0.09,0.09,0.24,0.09,0.33,0l1.23-1.23l0.67,0.67c0.09,0.09,0.24,0.09,0.33,0c0.09-0.09,0.09-0.24,0-0.33l-0.67-0.67l1.14-1.14
		l1.18,1.18l-1.43,1.43c-0.09,0.09-0.09,0.24,0,0.33c0.09,0.09,0.24,0.09,0.33,0l1.43-1.43l1.18,1.18
		C12.69,36.62,7.43,36.26,4.71,35 M8.27,31.44c0.01,0.04,0.02,0.07,0.04,0.1l1.23,1.23l-1.57,1.57l-1.3-1.3L8.27,31.44z
		 M12.56,32.84l-1.15,1.15l-1.21-1.21l1.14-1.14L12.56,32.84z M15.39,28.76l-0.38-0.38l0.52-0.52
		C15.47,28.16,15.43,28.46,15.39,28.76 M14.85,31.97c0.09,0.09,0.24,0.09,0.33,0c0.09-0.09,0.09-0.24,0-0.33l-0.46-0.46
		c-0.01-0.04-0.02-0.09-0.05-0.12s-0.08-0.04-0.12-0.05l-1.09-1.09l1.21-1.21l0.65,0.65c-0.1,1.23-0.07,2.27,0.19,3.54l-1.12,1.12
		l-1.18-1.18l1.25-1.25L14.85,31.97z M0.93,28.81c0-2.73,1.44-6.17,2.8-8.13c0.86-1.24,1.84-2.11,2.9-2.73
		c2.44,1.63,6.44,1.88,9.04-0.21c1.02,0.64,1.92,1.45,2.75,2.59c-0.5,0.84-1.06,1.98-1.62,3.37l-0.51-0.51l0.71-0.71
		c0.09-0.09,0.09-0.24,0-0.33c-0.09-0.09-0.24-0.09-0.33,0l-1.05,1.05c-0.09,0.09-0.09,0.24,0,0.33c0.09,0.09,0.24,0.09,0.33,0
		l0.01-0.01l0.65,0.65c-0.26,0.67-0.48,1.32-0.66,1.95l-0.55-0.55l0.9-0.9c0.09-0.09,0.09-0.24,0-0.33c-0.09-0.09-0.24-0.09-0.33,0
		l-0.9,0.9l-0.13-0.13c-0.09-0.09-0.24-0.09-0.33,0c-0.09,0.09-0.09,0.24,0,0.33l0.13,0.13l-0.37,0.37c-0.09,0.09-0.09,0.24,0,0.33
		c0.09,0.09,0.24,0.09,0.33,0l0.37-0.37l0.58,0.58c0.05,0.05,0.1,0.07,0.16,0.07c0.01,0,0.02-0.01,0.03-0.01
		c-0.1,0.36-0.18,0.71-0.25,1.06c-0.01-0.03-0.01-0.06-0.03-0.08c-0.09-0.09-0.24-0.09-0.33,0l-0.55,0.55l-0.52-0.52
		c-0.09-0.09-0.24-0.09-0.33,0c-0.09,0.09-0.09,0.24,0,0.33l0.52,0.52l-1.21,1.21l-0.4-0.4c-0.09-0.09-0.24-0.09-0.33,0
		c-0.09,0.09-0.09,0.24,0,0.33l1.73,1.74l-1.25,1.25l-1.21-1.21l0.21-0.21c0.09-0.09,0.09-0.24,0-0.33c-0.09-0.09-0.24-0.09-0.33,0
		l-0.21,0.21l-0.71-0.71c-0.09-0.09-0.24-0.09-0.33,0c-0.09,0.09-0.09,0.24,0,0.33l0.71,0.71l-1.15,1.14l-1.23-1.23
		c-0.03-0.03-0.07-0.03-0.1-0.04l0.67-0.67c0.09-0.09,0.09-0.24,0-0.33c-0.09-0.09-0.24-0.09-0.33,0l-2.53,2.54l-0.13-0.13
		c-0.09-0.09-0.24-0.09-0.33,0c-0.09,0.09-0.09,0.24,0,0.33l0.13,0.13l-0.83,0.83l-0.93-0.93c-0.09-0.09-0.24-0.09-0.33,0
		c-0.09,0.09-0.09,0.24,0,0.33l0.93,0.93l-0.6,0.6C1.93,33.53,0.92,31.31,0.93,28.81 M4.82,12.16c0.47-4.46,5.53-6.98,9.45-4.75
		c1.97,1.11,3.24,3.37,3,5.64l-1.03-1.03l0.65-0.65c0.09-0.09,0.09-0.24,0-0.33c-0.09-0.09-0.24-0.09-0.33,0l-0.65,0.65l-0.17-0.17
		c-0.09-0.09-0.24-0.09-0.33,0c-0.09,0.09-0.09,0.24,0,0.33l0.16,0.16l-0.82,0.83c-0.09,0.09-0.09,0.24,0,0.33
		c0.09,0.09,0.24,0.09,0.33,0l0.04-0.04c-0.03,0.08-0.03,0.18,0.03,0.24l1.3,1.3c0.09,0.09,0.24,0.09,0.33,0
		c0.09-0.09,0.09-0.24,0-0.33l-1.3-1.3c-0.07-0.07-0.16-0.07-0.24-0.03l0.66-0.66l1.06,1.06c0.09,0.1,0.16,0.07,0.24,0.04
		c-0.17,0.94-0.58,1.85-1.19,2.62l-0.8-0.8l0.42-0.42c0.09-0.09,0.09-0.24,0-0.33c-0.09-0.09-0.24-0.09-0.33,0l-0.42,0.42
		l-0.82-0.83c-0.09-0.09-0.24-0.09-0.33,0c-0.09,0.09-0.09,0.24,0,0.33l0.83,0.82l-0.74,0.74l-0.86-0.86l0.32-0.32
		c0.09-0.09,0.09-0.24,0-0.33c-0.09-0.09-0.24-0.09-0.33,0l-0.37,0.37c-0.06,0-0.12,0.02-0.17,0.07c-0.05,0.05-0.07,0.11-0.07,0.17
		l-0.94,0.94l-0.55-0.55c-0.09-0.09-0.24-0.09-0.33,0c-0.09,0.09-0.09,0.24,0,0.33l0.55,0.55l-0.53,0.53L9.77,16.1l1.93-1.93
		c0.09-0.09,0.09-0.24,0-0.33c-0.09-0.09-0.24-0.09-0.33,0l-1.93,1.93L9.3,15.63c-0.09-0.09-0.24-0.09-0.33,0
		c-0.09,0.09-0.09,0.24,0,0.33l0.14,0.14L8.2,17.01l-1.08-1.08c-0.09-0.09-0.24-0.09-0.33,0c-0.09,0.09-0.09,0.24,0,0.33l1.08,1.08
		L7.7,17.5c-0.27-0.14-0.53-0.3-0.78-0.48c0,0,0,0-0.01,0C5.33,15.88,4.64,14.01,4.82,12.16 M8.3,17.77
		c-0.05-0.02-0.09-0.04-0.14-0.06l0.04-0.04L8.3,17.77z M14.56,17.38c-0.02,0.01-0.04,0.03-0.06,0.04c-0.43,0.26-0.9,0.45-1.39,0.6
		c0.16-0.18,0-0.31-0.17-0.48l0.89-0.89L14.56,17.38z M14.94,17.1l-0.78-0.78l0.74-0.74l0.83,0.83
		C15.27,16.9,15.25,16.86,14.94,17.1 M12.64,15.46l0.86,0.86l-0.89,0.89l-0.86-0.86L12.64,15.46z M10.09,17.68
		c0.09,0.09,0.24,0.09,0.33,0l0.14-0.14l0.44,0.44c0.09,0.09,0.24,0.09,0.33,0c0.09-0.09,0.09-0.24,0-0.33l-0.44-0.44l0.53-0.53
		l0.9,0.9c-0.01,0.07,0,0.15,0.05,0.2c0.08,0.08,0.13,0.06,0.2,0.05c0.1,0.1,0.2,0.23,0.33,0.25c-1.31,0.35-2.77,0.3-4.1-0.12
		c0,0,0.01,0,0.01-0.01c0.09-0.09,0.09-0.24,0-0.33l-0.29-0.29l0.91-0.91l0.79,0.79l-0.14,0.14C10,17.44,10,17.59,10.09,17.68
		 M31.85,16.56l1.13-1.13l0.57,0.57C33.01,16.23,32.21,16.48,31.85,16.56 M31.58,13.37l1.06-1.06l1.4,1.4l-1.06,1.06L31.58,13.37z
		 M28.52,15.94l-0.8-0.8l1.02-1.02l0.72,0.72l-0.64,0.64c-0.09,0.09-0.09,0.24,0,0.33c0.09,0.09,0.24,0.09,0.33,0l0.64-0.64
		l0.93,0.93c0.09,0.09,0.24,0.09,0.33,0c0.09-0.09,0.09-0.24,0-0.33l-0.93-0.93l1.15-1.14l1.4,1.4l-1.14,1.14
		c-0.09,0.09-0.09,0.24,0,0.33c0.02,0.02,0.05,0.02,0.08,0.03c-1.63,0.3-3.39,0.19-4.99-0.34l0.78-0.78l0.8,0.8
		c0.09,0.09,0.24,0.09,0.33,0C28.61,16.18,28.61,16.03,28.52,15.94 M21.36,8.44c0.63-6.01,7.45-9.4,12.73-6.41
		c5.51,3.12,5.36,10.84-0.11,13.74l-0.68-0.68l1.06-1.06l0.19,0.19c0.09,0.09,0.24,0.09,0.33,0c0.09-0.09,0.09-0.24,0-0.33
		l-0.19-0.19l1.61-1.61l0.35,0.35c0.09,0.09,0.24,0.09,0.33,0c0.09-0.09,0.09-0.24,0-0.33l-1.4-1.4l1.06-1.06l0.6,0.59
		c0.09,0.09,0.24,0.09,0.33,0c0.09-0.09,0.09-0.24,0-0.33l-0.6-0.59l0.77-0.77c0.09-0.09,0.09-0.24,0-0.33
		c-0.09-0.09-0.24-0.09-0.33,0L36.64,9l-0.85-0.85c-0.09-0.09-0.24-0.09-0.33,0c-0.09,0.09-0.09,0.24,0,0.33l0.85,0.85l-1.06,1.06
		l-0.3-0.3c-0.09-0.09-0.24-0.09-0.33,0c-0.09,0.09-0.09,0.24,0,0.33l1.35,1.35l-1.61,1.61l-1.4-1.4l0.3-0.3
		c0.09-0.09,0.09-0.24,0-0.33s-0.24-0.09-0.33,0l-0.3,0.3l-0.05-0.05c-0.09-0.09-0.24-0.09-0.33,0c-0.09,0.09-0.09,0.24,0,0.33
		l0.05,0.05l-1.06,1.06l-0.09-0.09c-0.09-0.09-0.24-0.09-0.33,0c-0.09,0.09-0.09,0.24,0,0.33l0.09,0.09l-1.14,1.15l-0.72-0.72
		l1.14-1.14c0.09-0.09,0.09-0.24,0-0.33c-0.09-0.09-0.24-0.09-0.33,0l-1.14,1.14l-0.51-0.51c-0.09-0.09-0.24-0.09-0.33,0
		c-0.09,0.09-0.09,0.24,0,0.33l0.51,0.51l-1.02,1.02l-0.93-0.93c-0.09-0.09-0.24-0.09-0.33,0c-0.09,0.09-0.09,0.24,0,0.33l0.93,0.93
		l-0.64,0.64l-0.89-0.89c-0.09-0.09-0.24-0.09-0.33,0c-0.09,0.09-0.09,0.24,0,0.33l0.77,0.77C22.46,14.51,21.05,11.54,21.36,8.44
		 M42.23,12.15c0.47-4.48,5.56-6.96,9.45-4.75c1.33,0.75,2.31,2,2.76,3.41l-0.63,0.63l-0.85-0.85c-0.09-0.09-0.24-0.09-0.33,0
		c-0.09,0.09-0.09,0.24,0,0.33l0.85,0.85l-0.76,0.76c-0.06,0.06-0.07,0.14-0.05,0.21l-0.13-0.13c-0.09-0.09-0.24-0.09-0.33,0
		c-0.02,0.02-0.02,0.04-0.03,0.06c-0.07,0-0.13,0.01-0.18,0.06l-3.54,3.54l-0.8-0.8c-0.09-0.09-0.24-0.09-0.33,0
		c-0.09,0.09-0.09,0.24,0,0.33l0.8,0.81l-0.85,0.85l-1.06-1.06l3.62-3.62c0.09-0.09,0.09-0.24,0-0.33c-0.09-0.09-0.24-0.09-0.33,0
		l-3.65,3.65c-0.08-0.02-0.16-0.01-0.22,0.05c-0.06,0.06-0.06,0.14-0.05,0.22l-0.71,0.71c-0.08,0.08-0.07,0.19-0.02,0.28
		c-0.18-0.11-0.37-0.21-0.54-0.33c0,0,0,0,0,0C42.72,15.86,42.05,13.99,42.23,12.15 M47.4,18.23c-0.07-0.01-0.13-0.01-0.2-0.02
		l0.09-0.09L47.4,18.23z M49.73,18.21c-0.63,0.11-1.28,0.13-1.94,0.07c0.08-0.09,0.08-0.23-0.01-0.31l-0.17-0.17l0.85-0.85
		L49.73,18.21z M50.07,15.34l1.31,1.31l-1.18,1.18c-0.08,0.08-0.08,0.2-0.02,0.29c-0.03,0.01-0.06,0.02-0.09,0.03
		c0.05-0.09,0.05-0.2-0.02-0.27l-1.27-1.27L50.07,15.34z M51.16,14.25l1.31,1.31l-0.76,0.76l-1.31-1.31L51.16,14.25z M54.69,12.91
		c-0.03,0.36-0.09,0.71-0.19,1.06c-0.01-0.02-0.01-0.05-0.03-0.07c-0.09-0.09-0.24-0.09-0.33,0l-0.16,0.16l-1.14-1.14
		c0.02,0,0.03,0.02,0.05,0.02c0.06,0,0.12-0.02,0.17-0.07l0.76-0.76C53.91,12.2,54.55,12.88,54.69,12.91 M54.7,12.33l-0.56-0.56
		l0.43-0.43C54.65,11.67,54.69,12,54.7,12.33 M52.34,13.07C52.34,13.07,52.34,13.07,52.34,13.07l1.31,1.31l-0.85,0.85l-1.31-1.31
		L52.34,13.07z M45.06,17.48c0.06,0,0.11-0.02,0.16-0.07l0.68-0.68l1.06,1.06l-0.29,0.29C46.06,17.93,45.47,17.69,45.06,17.48
		 M51.91,17.43c-0.36,0.22-0.76,0.39-1.17,0.53l0.97-0.97l0.19,0.19c0.05,0.05,0.11,0.07,0.17,0.07c0.06,0,0.12-0.02,0.17-0.07
		c0.09-0.09,0.09-0.24,0-0.33l-0.19-0.19l0.76-0.77l0.24,0.24c0.22,0.22,0.55-0.11,0.33-0.33l-0.24-0.24l1.27-1.27
		C53.97,15.56,53.11,16.68,51.91,17.43 M56.95,20.3c-0.84-1.27-1.9-2.39-3.17-3.22c3.18-3.39,2.04-8.41-1.63-10.49
		c-4.46-2.53-10.29,0.29-10.83,5.46c-0.19,1.91,0.4,3.88,1.97,5.29c-1.04,0.67-1.62,1.2-2.34,2.08c-1.16-1.76-2.6-3.3-4.38-4.42
		c4.29-4.39,2.85-11.04-2-13.79c-5.83-3.31-13.41,0.42-14.11,7.12c-0.26,2.52,0.55,5.15,2.71,7c-1.64,1-2.9,2.15-4.21,4.15
		c-0.75-0.96-1.59-1.76-2.53-2.39c-0.01-0.01-0.03-0.02-0.04-0.03c3.18-3.39,2.04-8.42-1.64-10.49C10.3,4.08,4.45,6.85,3.9,12.06
		c-0.19,1.91,0.4,3.88,1.97,5.29c-0.99,0.63-1.93,1.39-2.91,2.81C1.53,22.21,0,25.84,0,28.81c-0.03,5.71,4.11,7.8,9.77,8.27
		c2.42,0.2,4.89,0.2,7.16-0.71c2.37,3.63,6.86,4.58,11.14,4.93c5.86,0.49,11.38-0.13,14.42-5.15c2.72,1,9.82,2,13.6-0.72
		c1.86-1.36,3.03-3.53,3.33-5.87C59.83,26.4,58.64,22.78,56.95,20.3"/>
	<path style="clip-path:url(#SVGID_00000086652696898674047000000005688895996662051743_);fill:#328612;" d="M41.61,27.07l0.74-0.74
		c0.09-0.09,0.09-0.24,0-0.33c-0.09-0.09-0.24-0.09-0.33,0l-0.74,0.74l-0.36-0.36c-0.09-0.09-0.24-0.09-0.33,0
		c-0.09,0.09-0.09,0.24,0,0.33l0.36,0.36l-0.05,0.05c-0.09,0.09-0.09,0.24,0,0.33c0.09,0.09,0.24,0.09,0.33,0l0.05-0.05l1.05,1.05
		c0.09,0.09,0.24,0.09,0.33,0c0.09-0.09,0.09-0.24,0-0.33L41.61,27.07z"/>
	<path style="clip-path:url(#SVGID_00000086652696898674047000000005688895996662051743_);fill:#328612;" d="M36.1,6.93l-0.05,0.05
		c-0.09,0.09-0.09,0.24,0,0.33c0.09,0.09,0.24,0.09,0.33,0l0.05-0.05l0.47,0.47c0.09,0.09,0.24,0.09,0.33,0
		c0.09-0.09,0.09-0.24,0-0.33l-0.47-0.47l0.56-0.55c0.09-0.09,0.09-0.24,0-0.33c-0.09-0.09-0.24-0.09-0.33,0L36.43,6.6L35.8,5.97
		c-0.09-0.09-0.24-0.09-0.33,0c-0.09,0.09-0.09,0.24,0,0.33L36.1,6.93z"/>
	<path style="clip-path:url(#SVGID_00000086652696898674047000000005688895996662051743_);fill:#328612;" d="M57.01,28.53l0.85-0.85
		c0.09-0.09,0.09-0.24,0-0.33c-0.09-0.09-0.24-0.09-0.33,0l-0.85,0.85l-0.76-0.76c-0.09-0.09-0.24-0.09-0.33,0
		c-0.09,0.09-0.09,0.24,0,0.33l0.76,0.76l-0.42,0.42c-0.09,0.09-0.09,0.24,0,0.33c0.09,0.09,0.24,0.09,0.33,0l0.42-0.42l0.89,0.89
		c0.09,0.09,0.24,0.09,0.33,0c0.09-0.09,0.09-0.24,0-0.33L57.01,28.53z"/>
	<path style="clip-path:url(#SVGID_00000086652696898674047000000005688895996662051743_);fill:#328612;" d="M25.82,24.94
		l-1.17-1.17l1.32-1.32l1.17,1.17L25.82,24.94z M27.74,20.96c-0.09-0.09-0.24-0.09-0.33,0c-0.09,0.09-0.09,0.24,0,0.33l2.23,2.23
		l-0.98,0.98l-0.87-0.87l0.79-0.79c0.09-0.09,0.09-0.24,0-0.33c-0.09-0.09-0.24-0.09-0.33,0l-0.79,0.79l-1.21-1.2
		c0.01-0.07,0-0.14-0.05-0.2c-0.07-0.07-0.17-0.07-0.26-0.03c-0.06,0-0.13,0.01-0.17,0.06c-0.03,0.03-0.04,0.08-0.05,0.12
		l-1.39,1.39l-0.94-0.93c-0.09-0.09-0.24-0.09-0.33,0c-0.09,0.09-0.09,0.24,0,0.33L24,23.77l-1.13,1.13c-0.09,0.09-0.09,0.24,0,0.33
		c0.09,0.09,0.24,0.09,0.33,0l1.13-1.13l1.17,1.17l-1.13,1.13c-0.09,0.09-0.09,0.24,0,0.33c0.09,0.09,0.24,0.09,0.33,0l1.13-1.13
		l1.02,1.02c0.09,0.09,0.24,0.09,0.33,0c0.09-0.09,0.09-0.24,0-0.33l-1.02-1.01l1.32-1.32l0.87,0.87l-0.9,0.9
		c-0.09,0.09-0.09,0.24,0,0.33c0.09,0.09,0.24,0.09,0.33,0l0.9-0.9l0.35,0.35c0.09,0.09,0.24,0.09,0.33,0
		c0.09-0.09,0.09-0.24,0-0.33l-0.35-0.35l0.98-0.98l0.78,0.78c0.09,0.09,0.24,0.09,0.33,0c0.09-0.09,0.09-0.24,0-0.33L27.74,20.96z"
		/>
</g>
</svg>
