<?xml version="1.0" encoding="utf-8"?>
<!-- Generator: Adobe Illustrator 25.4.1, SVG Export Plug-In . SVG Version: 6.00 Build 0)  -->
<svg version="1.1" id="Layer_1" xmlns="http://www.w3.org/2000/svg" xmlns:xlink="http://www.w3.org/1999/xlink" x="0px" y="0px"
	 viewBox="0 0 50.24 68.79" style="enable-background:new 0 0 50.24 68.79;" xml:space="preserve">
<style type="text/css">
	.st0{clip-path:url(#SVGID_00000177476589821570222290000014143584961373042856_);fill:#328612;}
	.st1{clip-path:url(#SVGID_00000001653402056870320880000008806135469987848837_);fill:#338712;}
	.st2{clip-path:url(#SVGID_00000016779170041002208660000016972219474419185536_);fill:#338712;}
	.st3{clip-path:url(#SVGID_00000080903496784175533240000014390720813799614855_);fill:#338712;}
	.st4{clip-path:url(#SVGID_00000026146949574719649550000018051369444235092386_);fill:#338712;}
	.st5{clip-path:url(#SVGID_00000080190055845725074100000007021175725909504682_);fill:#338712;}
	.st6{clip-path:url(#SVGID_00000119803342974690738370000007393045740309385648_);fill:#328612;}
	.st7{clip-path:url(#SVGID_00000030450718331866514600000009057732847820356240_);fill:#328612;}
	.st8{clip-path:url(#SVGID_00000121268391710842974790000003472468415573705858_);fill:#328612;}
	.st9{clip-path:url(#SVGID_00000173868566357218098770000002922821603246537344_);fill:#328612;}
	.st10{clip-path:url(#SVGID_00000087409748246743750030000012009163030292509329_);fill:#328612;}
	.st11{clip-path:url(#SVGID_00000041984282574116997590000007572176807393473940_);fill:#328612;}
	.st12{fill:#328612;}
</style>
<g>
	<defs>
		<rect id="SVGID_00000070822992334675816340000005938757870148482230_" width="50.24" height="68.79"/>
	</defs>
	<clipPath id="SVGID_00000170969570747392504160000006471252654308784808_">
		<use xlink:href="#SVGID_00000070822992334675816340000005938757870148482230_"  style="overflow:visible;"/>
	</clipPath>
	<path style="clip-path:url(#SVGID_00000170969570747392504160000006471252654308784808_);fill:#328612;" d="M34.88,11.64
		c2.58,2.83,7.08,2.85,9.59-0.02c2.81,2.33,4.62,5.52,4.98,8.8c0,0.03,0,0.06,0.01,0.08c-0.07-0.04-0.15-0.04-0.21,0.02l-0.2,0.2
		l-0.61-0.63c-0.07-0.07-0.19-0.07-0.26,0c-0.07,0.07-0.07,0.19,0,0.27L48.79,21l-0.94,0.97c-0.07-0.07-0.19-0.07-0.26,0
		c-0.07,0.08-0.07,0.19,0,0.27l0.03,0.03c-0.01,0.06-0.01,0.13,0.04,0.17c0.07,0.07,0.11,0.05,0.17,0.04l0.77,0.79l-1,1.04
		l-0.84-0.87l0.36-0.38c0.07-0.07,0.07-0.19,0-0.27c-0.07-0.07-0.19-0.07-0.26,0l-0.36,0.38l-0.13-0.13c-0.07-0.08-0.19-0.08-0.26,0
		c-0.07,0.07-0.07,0.19,0,0.27l0.13,0.13l-0.94,0.97l-0.61-0.63c-0.07-0.08-0.19-0.08-0.26,0c-0.07,0.07-0.07,0.19,0,0.27l0.61,0.63
		l-0.78,0.8l-0.71-0.74l0.6-0.62c0.07-0.07,0.07-0.19,0-0.27c-0.07-0.08-0.19-0.08-0.26,0l-0.6,0.62l-0.16-0.17
		c-0.07-0.07-0.19-0.07-0.26,0c-0.07,0.08-0.07,0.19,0,0.27l0.16,0.17l-1.1,1.14l-0.68-0.7l0.34-0.35c0.07-0.07,0.07-0.19,0-0.27
		c-0.07-0.07-0.19-0.07-0.26,0l-0.37,0.38c-0.06-0.01-0.12-0.01-0.17,0.04c-0.05,0.05-0.05,0.11-0.04,0.17l-0.71,0.73l-0.61-0.63
		c-0.07-0.07-0.19-0.07-0.26,0c-0.07,0.08-0.07,0.19,0,0.27l0.61,0.63l-0.91,0.94l-0.9-0.94c0,0,0.01-0.01,0.01-0.01l1.3-1.35
		c0.07-0.07,0.07-0.19,0-0.27c-0.07-0.07-0.19-0.07-0.26,0l-1.31,1.35l-0.23-0.23c-0.07-0.08-0.19-0.08-0.26,0
		c-0.07,0.07-0.07,0.19,0,0.27l0.22,0.23c-0.23,0.23-0.4,0.36-0.54,0.36c-0.15,0-0.37-0.15-0.72-0.53c-0.07-0.08-0.19-0.08-0.26,0
		c-0.07,0.07-0.07,0.19,0,0.27c0.38,0.39,0.67,0.64,0.98,0.64h0c0.26,0,0.49-0.17,0.79-0.48l0.91,0.94
		c-1.89-0.24-3.68-0.72-5.09-1.78c-2.95-2.25-3.25-6.38-2.02-9.31C32.2,14.66,33.3,13.14,34.88,11.64 M42.19,11.73l-0.8-0.83
		l0.85-0.88l0.8,0.83L42.19,11.73z M37.52,12.57l0.46-0.47l0.53,0.55c0.07,0.08,0.19,0.08,0.26,0c0.07-0.07,0.07-0.19,0-0.27
		l-0.53-0.55l0.77-0.8l0.86,0.89l-0.6,0.62c-0.07,0.07-0.07,0.19,0,0.27c0.07,0.07,0.19,0.07,0.26,0l0.6-0.62l0.28,0.29
		c0.07,0.07,0.19,0.07,0.26,0c0.07-0.08,0.07-0.19,0-0.27l-0.28-0.29l0.73-0.75l0.8,0.83l-0.01,0.01c-0.07,0.08-0.07,0.2,0,0.27
		c0.07,0.08,0.19,0.08,0.26,0l1.12-1.15l0.21,0.21c0.04,0.04,0.08,0.06,0.13,0.06c0,0,0.01,0,0.01,0
		C42.04,12.99,39.62,13.4,37.52,12.57 M40.78,0.91c2.12,0.47,3.91,2.25,4.5,4.4c-0.07-0.04-0.15-0.04-0.21,0.02l-0.1,0.1l-0.14-0.15
		c-0.07-0.08-0.19-0.08-0.26,0c-0.07,0.07-0.07,0.19,0,0.27l0.14,0.15l-0.3,0.31c-0.04,0.05-0.05,0.1-0.04,0.16
		c-0.07-0.03-0.15-0.03-0.2,0.02c-0.07,0.07-0.07,0.19,0,0.27l0.73,0.76c-0.03,0.01-0.07,0.01-0.1,0.04l-0.49,0.51l-0.43-0.45
		c-0.07-0.07-0.19-0.07-0.26,0c-0.07,0.08-0.07,0.19,0,0.27l0.43,0.45l-0.46,0.48c-0.07,0.07-0.07,0.19,0,0.27
		c0.07,0.07,0.19,0.07,0.26,0l0.46-0.48l0.34,0.35c0.07,0.07,0.19,0.07,0.26,0c0.07-0.08,0.07-0.19,0-0.27l-0.34-0.35l0.49-0.51
		c0.03-0.03,0.03-0.06,0.04-0.1l0.02,0.02c0.07,0.07,0.19,0.07,0.26,0c0.07-0.08,0.07-0.19,0-0.27l-0.83-0.86
		c0.04,0,0.08-0.02,0.12-0.05l0.3-0.31l0.29,0.31c0.08,0.08,0.14,0.06,0.21,0.02c0.16,1.67-0.35,3.48-1.66,4.9
		c0-0.05-0.02-0.09-0.05-0.13l-0.21-0.21l0.61-0.63c0.07,0.01,0.1-0.01,0.15-0.05s0.05-0.1,0.05-0.15l0.2-0.2
		c0.07-0.07,0.07-0.19,0-0.27c-0.07-0.07-0.19-0.07-0.26,0l-0.16,0.17l-1.31-1.36c-0.07-0.07-0.19-0.07-0.26,0
		c-0.07,0.07-0.07,0.19,0,0.27l1.31,1.36l-0.58,0.6l-0.8-0.83l0.11-0.12c0.07-0.08,0.07-0.19,0-0.27c-0.07-0.07-0.19-0.07-0.26,0
		l-0.11,0.12l-0.17-0.18c-0.07-0.07-0.19-0.07-0.26,0c-0.07,0.07-0.07,0.19,0,0.27l0.17,0.18l-0.85,0.88l-0.49-0.51
		c-0.07-0.07-0.19-0.07-0.26,0c-0.07,0.07-0.07,0.19,0,0.27l0.49,0.51l-0.73,0.75l-0.86-0.89l0.71-0.74c0.07-0.07,0.07-0.19,0-0.27
		c-0.07-0.08-0.19-0.08-0.26,0l-1.74,1.8L37.44,11c-0.07-0.07-0.19-0.07-0.26,0c-0.07,0.07-0.07,0.19,0,0.27l0.54,0.56l-0.57,0.59
		c-0.78-0.38-1.46-0.93-1.97-1.56C31.84,6.8,35.02-0.37,40.78,0.91 M45.42,5.9l-0.19-0.2l0.1-0.1c0.01-0.01,0.01-0.03,0.02-0.04
		c0.02,0.07,0.04,0.14,0.06,0.21C45.41,5.81,45.42,5.86,45.42,5.9 M48.95,23.64c0.06,0.06,0.16,0.08,0.25,0.01
		c-0.18,0.6-0.42,1.15-0.74,1.63c0-0.05-0.02-0.09-0.05-0.13l-0.55-0.57l1-1.04L48.95,23.64z M49.49,21.19l-0.19-0.19l0.16-0.17
		C49.48,20.95,49.49,21.07,49.49,21.19 M49.28,22.83c-0.07-0.07-0.19-0.07-0.26,0L48.85,23l-0.74-0.77l0.94-0.97l0.44,0.46
		c-0.02,0.62-0.1,1.2-0.24,1.74c-0.01-0.03-0.01-0.07-0.04-0.09l-0.1-0.1l0.17-0.17C49.35,23.02,49.35,22.9,49.28,22.83
		 M47.36,26.42c-0.06,0.04-0.12,0.07-0.17,0.1c0.03-0.07,0.03-0.15-0.03-0.2l-0.5-0.52l0.94-0.97l0.55,0.57
		c0.08,0.08,0.13,0.06,0.19,0.03C48.06,25.82,47.73,26.15,47.36,26.42 M45.56,24.67l0.94-0.97l0.84,0.87l-0.94,0.97L45.56,24.67z
		 M43.32,26.71c0.07,0.07,0.19,0.07,0.26,0l0.68-0.7l1.13,1.17c0.07,0.07,0.19,0.07,0.26,0c0.07-0.07,0.07-0.19,0-0.27l-1.13-1.17
		l0.78-0.8l0.84,0.87l-0.61,0.63c-0.07,0.07-0.07,0.19,0,0.27c0.07,0.07,0.19,0.07,0.26,0l0.61-0.63l0.5,0.52
		c0.03,0.03,0.06,0.04,0.1,0.04c-1.09,0.64-2.39,0.88-3.71,0.93c0.01,0,0.01,0,0.02-0.01c0.07-0.08,0.07-0.19,0-0.27l-1.11-1.15
		l1.1-1.14L44,25.74l-0.68,0.7C43.25,26.52,43.25,26.64,43.32,26.71 M40.84,27.54l0.25-0.26c0.01-0.01,0.03-0.01,0.04-0.02
		c0.01-0.01,0.01-0.03,0.01-0.04l0.78-0.81l1.11,1.15c0.01,0.01,0.02,0.01,0.04,0.02C42.25,27.6,41.58,27.57,40.84,27.54
		 M40.74,27.12l-0.26,0.27c-0.04,0.04-0.05,0.09-0.05,0.14c-0.46-0.03-0.91-0.06-1.36-0.11c0.02-0.01,0.04-0.01,0.06-0.02l0.94-0.97
		L40.74,27.12z M41,25.44l0.68,0.7L41,26.85l-0.68-0.7L41,25.44z M33.11,26.19c3.25,2.45,11.67,3,14.66,0.86h0
		c3.93-2.83,3.29-10.92-2.86-16.02c1.11-1.57,1.57-3.56,1.21-5.42c-0.51-2.64-2.64-4.88-5.19-5.45c-6.21-1.38-10.01,6.13-6.52,10.88
		c-1.67,1.59-2.85,3.2-3.57,4.91C29.5,19.16,29.85,23.7,33.11,26.19"/>
	<path style="clip-path:url(#SVGID_00000170969570747392504160000006471252654308784808_);fill:#328612;" d="M4.77,52.05
		c2.58,2.83,7.08,2.85,9.59-0.02c2.81,2.33,4.62,5.52,4.98,8.8c0,0.03,0,0.06,0.01,0.08c-0.07-0.04-0.15-0.04-0.21,0.02l-0.2,0.2
		l-0.61-0.63c-0.07-0.08-0.19-0.08-0.26,0c-0.07,0.07-0.07,0.19,0,0.27l0.61,0.63l-0.94,0.97c-0.07-0.07-0.19-0.07-0.26,0
		c-0.07,0.08-0.07,0.19,0,0.27l0.03,0.03c-0.01,0.06-0.01,0.13,0.04,0.17c0.07,0.07,0.11,0.05,0.17,0.04l0.77,0.8l-1,1.04
		l-0.84-0.87L17,63.47c0.07-0.07,0.07-0.19,0-0.27c-0.07-0.07-0.19-0.07-0.26,0l-0.36,0.38l-0.13-0.13c-0.07-0.08-0.19-0.08-0.26,0
		c-0.07,0.07-0.07,0.19,0,0.27l0.13,0.13l-0.94,0.97l-0.61-0.63c-0.07-0.08-0.19-0.08-0.26,0c-0.07,0.07-0.07,0.19,0,0.27l0.61,0.64
		l-0.78,0.8l-0.71-0.74l0.6-0.62c0.07-0.07,0.07-0.19,0-0.27c-0.07-0.07-0.19-0.07-0.26,0l-0.6,0.62l-0.16-0.17
		c-0.07-0.07-0.19-0.07-0.26,0c-0.07,0.07-0.07,0.19,0,0.27l0.16,0.17l-1.1,1.14l-0.68-0.7l0.35-0.36c0.07-0.07,0.07-0.19,0-0.27
		c-0.07-0.07-0.19-0.07-0.26,0l-0.37,0.38c-0.06-0.01-0.12-0.01-0.17,0.04c-0.05,0.05-0.05,0.11-0.04,0.17l-0.7,0.73l-0.61-0.64
		c-0.07-0.07-0.19-0.07-0.26,0C9,65.73,9,65.85,9.07,65.92l0.61,0.63l-0.9,0.94l-0.9-0.94c0,0,0.01-0.01,0.01-0.01l1.3-1.35
		c0.07-0.07,0.07-0.19,0-0.27c-0.07-0.08-0.19-0.08-0.26,0l-1.31,1.35l-0.23-0.23c-0.07-0.07-0.19-0.07-0.26,0
		c-0.07,0.07-0.07,0.19,0,0.27l0.23,0.23c-0.23,0.23-0.4,0.36-0.54,0.36c-0.16,0-0.37-0.15-0.72-0.53c-0.07-0.07-0.19-0.07-0.26,0
		c-0.07,0.07-0.07,0.19,0,0.27c0.38,0.39,0.67,0.64,0.98,0.64h0c0.26,0,0.49-0.17,0.79-0.47l0.91,0.94
		c-1.89-0.24-3.68-0.72-5.09-1.78c-2.95-2.25-3.25-6.38-2.02-9.31C2.09,55.07,3.19,53.55,4.77,52.05 M12.08,52.15l-0.8-0.83
		l0.85-0.88l0.8,0.83L12.08,52.15z M7.41,52.98l0.46-0.47l0.53,0.55c0.07,0.07,0.19,0.07,0.26,0c0.07-0.07,0.07-0.19,0-0.27
		l-0.53-0.55l0.77-0.8l0.86,0.89l-0.6,0.62c-0.07,0.07-0.07,0.19,0,0.27c0.07,0.07,0.19,0.07,0.26,0l0.6-0.62l0.28,0.29
		c0.07,0.07,0.19,0.07,0.26,0c0.07-0.08,0.07-0.19,0-0.27l-0.28-0.29l0.73-0.75l0.8,0.83l-0.01,0.01c-0.07,0.07-0.07,0.19,0,0.27
		c0.07,0.08,0.19,0.08,0.26,0l1.12-1.15l0.21,0.21c0.04,0.04,0.08,0.06,0.13,0.06c0,0,0.01,0,0.01,0
		C11.93,53.4,9.51,53.81,7.41,52.98 M10.67,41.32c2.12,0.47,3.91,2.25,4.5,4.4c-0.07-0.04-0.15-0.04-0.21,0.02l-0.1,0.1l-0.14-0.15
		c-0.07-0.08-0.19-0.08-0.26,0c-0.07,0.07-0.07,0.19,0,0.27l0.14,0.15l-0.3,0.31c-0.04,0.04-0.05,0.1-0.04,0.16
		c-0.07-0.03-0.15-0.03-0.2,0.02c-0.07,0.07-0.07,0.19,0,0.27l0.73,0.76c-0.03,0.01-0.07,0.01-0.1,0.04l-0.49,0.51l-0.43-0.45
		c-0.07-0.07-0.19-0.07-0.26,0c-0.07,0.07-0.07,0.19,0,0.27l0.43,0.45l-0.46,0.48c-0.07,0.07-0.07,0.19,0,0.27
		c0.07,0.07,0.19,0.07,0.26,0l0.46-0.48l0.34,0.35c0.07,0.07,0.19,0.07,0.26,0c0.07-0.08,0.07-0.19,0-0.27l-0.34-0.35l0.49-0.51
		c0.03-0.03,0.03-0.06,0.04-0.1l0.02,0.02c0.07,0.07,0.19,0.07,0.26,0c0.07-0.08,0.07-0.19,0-0.27l-0.83-0.86
		c0.04,0,0.09-0.02,0.12-0.05l0.3-0.31l0.3,0.31c0.08,0.08,0.14,0.06,0.21,0.02c0.16,1.67-0.35,3.48-1.66,4.9
		c0-0.05-0.02-0.09-0.05-0.13l-0.21-0.21l0.61-0.63c0.07,0.01,0.11-0.01,0.15-0.05s0.05-0.1,0.05-0.15l0.2-0.2
		c0.07-0.07,0.07-0.19,0-0.27c-0.07-0.07-0.19-0.07-0.26,0l-0.16,0.17l-1.31-1.36c-0.07-0.07-0.19-0.07-0.26,0
		c-0.07,0.07-0.07,0.19,0,0.27l1.31,1.36L13.19,51l-0.8-0.83l0.11-0.12c0.07-0.07,0.07-0.19,0-0.27c-0.07-0.08-0.19-0.08-0.26,0
		l-0.11,0.12l-0.17-0.18c-0.07-0.07-0.19-0.07-0.26,0c-0.07,0.07-0.07,0.19,0,0.27l0.17,0.18l-0.85,0.88l-0.49-0.51
		c-0.07-0.07-0.19-0.07-0.26,0c-0.07,0.07-0.07,0.19,0,0.27l0.49,0.51l-0.73,0.75l-0.86-0.89l0.71-0.74c0.07-0.07,0.07-0.19,0-0.27
		c-0.07-0.08-0.19-0.08-0.26,0l-1.74,1.8l-0.54-0.56c-0.07-0.07-0.19-0.07-0.26,0C7,51.49,7,51.61,7.07,51.69l0.54,0.56l-0.57,0.59
		c-0.78-0.38-1.46-0.93-1.97-1.56C1.73,47.21,4.91,40.05,10.67,41.32 M15.31,46.32l-0.19-0.2l0.1-0.11
		c0.01-0.01,0.01-0.03,0.02-0.04c0.02,0.07,0.04,0.14,0.06,0.21C15.3,46.22,15.31,46.27,15.31,46.32 M18.84,64.05
		c0.06,0.06,0.16,0.08,0.25,0c-0.18,0.6-0.42,1.15-0.74,1.63c0-0.05-0.02-0.09-0.05-0.13l-0.55-0.57l1-1.04L18.84,64.05z
		 M19.38,61.6l-0.19-0.19l0.16-0.17C19.37,61.36,19.38,61.48,19.38,61.6 M19.17,63.24c-0.07-0.07-0.19-0.07-0.26,0l-0.17,0.17
		L18,62.64l0.94-0.97l0.44,0.46c-0.02,0.62-0.1,1.2-0.24,1.74c-0.01-0.03-0.01-0.07-0.04-0.09l-0.1-0.1l0.17-0.17
		C19.24,63.44,19.24,63.31,19.17,63.24 M17.24,66.84c-0.06,0.04-0.12,0.07-0.17,0.1c0.03-0.07,0.03-0.14-0.03-0.2l-0.5-0.52
		l0.94-0.97l0.55,0.57c0.08,0.08,0.13,0.06,0.19,0.03C17.94,66.23,17.62,66.57,17.24,66.84 M15.44,65.09l0.94-0.97l0.84,0.87
		l-0.94,0.97L15.44,65.09z M13.21,67.13c0.07,0.07,0.19,0.07,0.26,0l0.68-0.7l1.13,1.17c0.07,0.07,0.19,0.07,0.26,0
		c0.07-0.07,0.07-0.19,0-0.27l-1.13-1.17l0.78-0.8l0.84,0.87l-0.61,0.64c-0.07,0.07-0.07,0.19,0,0.27c0.07,0.07,0.19,0.07,0.26,0
		l0.61-0.63l0.5,0.52c0.03,0.03,0.07,0.04,0.1,0.04c-1.09,0.64-2.39,0.88-3.71,0.93c0.01,0,0.01,0,0.02-0.01
		c0.07-0.07,0.07-0.19,0-0.27l-1.11-1.15l1.1-1.14l0.71,0.74l-0.68,0.7C13.14,66.93,13.14,67.05,13.21,67.13 M10.73,67.95l0.25-0.26
		c0.01-0.01,0.03,0,0.04-0.02c0.01-0.01,0.01-0.03,0.01-0.04l0.78-0.81l1.11,1.15c0.01,0.01,0.03,0.01,0.04,0.02
		C12.14,68.01,11.47,67.99,10.73,67.95 M10.62,67.53l-0.26,0.27c-0.04,0.04-0.05,0.09-0.05,0.13c-0.46-0.03-0.91-0.06-1.36-0.11
		c0.02-0.01,0.04-0.01,0.06-0.02l0.94-0.97L10.62,67.53z M10.88,65.86l0.68,0.7l-0.68,0.7l-0.68-0.7L10.88,65.86z M3,66.6
		c3.25,2.45,11.67,3,14.66,0.86h0c3.93-2.83,3.29-10.92-2.86-16.02c1.11-1.57,1.57-3.56,1.21-5.42c-0.51-2.64-2.64-4.88-5.19-5.45
		C4.61,39.2,0.82,46.71,4.31,51.46c-1.67,1.59-2.85,3.2-3.57,4.91C-0.61,59.58-0.26,64.12,3,66.6"/>
	<path style="clip-path:url(#SVGID_00000170969570747392504160000006471252654308784808_);fill:#328612;" d="M24.92,14.95
		c0.49-0.07,0.38-0.82-0.1-0.75C14.46,15.59,6.45,24.56,6.02,35.44c-0.01,0.21,0.15,0.39,0.35,0.4h0.02c0.2,0,0.36-0.16,0.37-0.36
		C7.17,25,14.87,16.3,24.92,14.95"/>
	<path style="clip-path:url(#SVGID_00000170969570747392504160000006471252654308784808_);fill:#328612;" d="M22.55,19.1
		c-0.12,0.17-0.08,0.41,0.08,0.53c0.16,0.12,0.39,0.08,0.51-0.08c2.66-3.82,5.2-6.24,1.31-7.26l-5.86-1.53
		c-0.2-0.06-0.4,0.07-0.45,0.27c-0.05,0.2,0.07,0.41,0.26,0.46C27.67,13.91,27.07,12.62,22.55,19.1"/>
	<path style="clip-path:url(#SVGID_00000170969570747392504160000006471252654308784808_);fill:#328612;" d="M45.96,34.28
		c-0.2-0.03-0.39,0.11-0.42,0.32c-1.51,10.83-9.95,19.22-20.43,20.38c-0.09,0.01-0.17,0.06-0.23,0.12l-0.24-0.12l5.57-5.86
		c0.14-0.15,0.14-0.39,0-0.54c-0.14-0.15-0.38-0.15-0.52,0l-5.93,6.23c-0.08,0.09-0.12,0.21-0.1,0.33c0.02,0.12,0.09,0.22,0.2,0.28
		l7.61,3.87c0.05,0.03,0.11,0.04,0.16,0.04c0.14,0,0.27-0.08,0.33-0.21c0.09-0.19,0.02-0.42-0.17-0.51l-5.89-3
		c10.77-1.54,18.88-10.24,20.36-20.91C46.3,34.5,46.16,34.31,45.96,34.28"/>
</g>
</svg>
