<?xml version="1.0" encoding="utf-8"?>
<!-- Generator: Adobe Illustrator 25.4.1, SVG Export Plug-In . SVG Version: 6.00 Build 0)  -->
<svg version="1.1" id="Layer_1" xmlns="http://www.w3.org/2000/svg" xmlns:xlink="http://www.w3.org/1999/xlink" x="0px" y="0px"
	 viewBox="0 0 129.82 46.61" style="enable-background:new 0 0 129.82 46.61;" xml:space="preserve">
<style type="text/css">
	.st0{clip-path:url(#SVGID_00000145778074082845200100000012981989763618327177_);fill:#328612;}
	.st1{clip-path:url(#SVGID_00000105384365646549096450000003790231367151683236_);fill:#338712;}
	.st2{clip-path:url(#SVGID_00000057830943300743651760000007737501112976312200_);fill:#338712;}
	.st3{clip-path:url(#SVGID_00000129176248871888498650000001624689021955129755_);fill:#338712;}
	.st4{clip-path:url(#SVGID_00000067919189613945372460000013479050478074206348_);fill:#338712;}
	.st5{clip-path:url(#SVGID_00000058573391826708429160000017273714051819349689_);fill:#338712;}
	.st6{clip-path:url(#SVGID_00000180350565440384450030000006050467273695786126_);fill:#328612;}
	.st7{clip-path:url(#SVGID_00000060011959402926235440000015001241989813342394_);fill:#328612;}
	.st8{clip-path:url(#SVGID_00000163795740182337642900000004992830778294546356_);fill:#328612;}
	.st9{clip-path:url(#SVGID_00000116204041995914016680000003195381816985337786_);fill:#328612;}
	.st10{clip-path:url(#SVGID_00000067942402404081800500000013940011998683524268_);fill:#328612;}
	.st11{clip-path:url(#SVGID_00000025402574425683568420000007435646056974218420_);fill:#328612;}
	.st12{fill:#328612;}
	.st13{fill:#393D40;}
	.st14{font-family:'Merriweather';}
	.st15{font-size:18px;}
</style>
<g>
	<g>
		<path class="st12" d="M3.1,31.68V17.1h2.07l3.24,7.6v-7.6h2.45v14.58H8.88l-3.24-8.06v8.06H3.1z"/>
		<path class="st12" d="M13.79,31.68V17.1h6.35v2.05h-3.38v3.87h2.61v2.07h-2.61v4.57h3.42v2.02H13.79z"/>
		<path class="st12" d="M21.66,31.68l2.83-14.58h3.29l2.81,14.58h-2.75l-0.52-3.2H25l-0.56,3.2H21.66z M25.27,26.66h1.75l-0.88-5.89
			L25.27,26.66z"/>
		<path class="st12" d="M32.78,31.68V17.1h3.78c0.98,0,1.83,0.11,2.53,0.33c0.7,0.22,1.24,0.62,1.62,1.18
			c0.38,0.56,0.57,1.34,0.57,2.34c0,0.6-0.05,1.13-0.15,1.59c-0.1,0.46-0.28,0.86-0.54,1.21c-0.26,0.34-0.62,0.62-1.09,0.82
			l2.02,7.11h-3.04l-1.67-6.61h-1.04v6.61H32.78z M35.75,23.31h0.86c0.48,0,0.86-0.08,1.13-0.23c0.28-0.16,0.47-0.39,0.58-0.71
			c0.12-0.32,0.17-0.71,0.17-1.18c0-0.67-0.12-1.18-0.37-1.54c-0.25-0.35-0.71-0.53-1.38-0.53h-1.01V23.31z"/>
		<path class="st12" d="M43.98,31.68V17.1h2.97v12.56h3.42v2.02H43.98z"/>
		<path class="st12" d="M53.32,31.68V25.9l-2.84-8.8h2.79l1.57,5.13l1.46-5.13h2.7l-2.81,8.8v5.78H53.32z"/>
	</g>
	<text transform="matrix(1 0 0 1 59.9058 41.6884)" class="st13 st14 st15"> </text>
	<path class="st12" d="M124.15,25.1c-0.68,0.74-1.4,1.44-2.11,2.16c-0.04-0.02-0.08-0.05-0.12-0.07v-0.83c0.82-0.7,1.58-1.35,2.34-2
		c0.05,0.03,0.1,0.06,0.16,0.1C124.33,24.67,124.3,24.94,124.15,25.1 M124.07,26.74c-0.67,0.62-1.35,1.24-2.1,1.93
		c-0.04-0.34-0.07-0.61-0.08-0.77c0.26-0.21,0.47-0.35,0.64-0.51c0.57-0.56,1.13-1.13,1.78-1.78
		C124.34,26.1,124.38,26.46,124.07,26.74 M123.92,28.35c-0.61,0.43-1.12,1.01-1.7,1.57c-0.22-0.12-0.31-0.32-0.02-0.62
		c0.65-0.67,1.29-1.35,1.93-2.03c0.05,0.03,0.09,0.07,0.14,0.1C124.31,27.75,124.35,28.05,123.92,28.35 M123.5,30.63
		c0.1-0.01,0.21,0.01,0.3-0.03c0.11-0.05,0.21-0.14,0.38-0.26v1.14c-0.57-0.42-1.08-0.8-1.6-1.18c0.54-0.51,1.03-0.98,1.58-1.49
		c0.12,0.57,0.1,0.99-0.41,1.23c-0.1,0.05-0.21,0.14-0.25,0.24C123.45,30.38,123.49,30.51,123.5,30.63 M123.22,32.54
		c-0.11,0.08-0.31,0.03-0.6,0.04c0.13-0.26,0.2-0.46,0.32-0.62c0.08-0.11,0.25-0.25,0.35-0.23c0.11,0.02,0.29,0.24,0.26,0.32
		C123.5,32.24,123.37,32.43,123.22,32.54 M122.18,32.53h-0.94c0.37-0.51,0.71-0.98,1.07-1.48c0.42,0.15,0.49,0.35,0.23,0.7
		C122.39,31.96,122.31,32.24,122.18,32.53 M119.93,32.58c0.64-0.7,0.93-1.73,2.09-1.99c-0.05,0.14-0.05,0.21-0.09,0.27
		c-0.39,0.54-0.74,1.11-1.18,1.61C120.59,32.63,120.23,32.6,119.93,32.58 M122.26,24.58c0.51-0.42,1-0.88,1.6-1.41
		c0.12,0.13,0.27,0.29,0.44,0.49c-0.8,0.7-1.55,1.35-2.31,2.02C121.79,25.15,121.87,24.91,122.26,24.58 M122.05,21.72
		c0.16,0.15,0.44,0.31,0.43,0.46c0,0.19-0.24,0.38-0.37,0.56c-0.04-0.02-0.09-0.03-0.13-0.05c-0.02-0.3-0.04-0.61-0.06-0.91
		C121.97,21.76,122.01,21.74,122.05,21.72 M123.41,22.8c0,0.05,0.01,0.1,0.01,0.16c-0.45,0.37-0.91,0.75-1.37,1.12
		c-0.04-0.01-0.07-0.03-0.11-0.04c0.03-0.17,0-0.39,0.1-0.5c0.26-0.31,0.55-0.61,0.87-0.86C123,22.61,123.24,22.75,123.41,22.8
		 M118.29,31.86c-0.05,0.06-0.24,0.04-0.33-0.01c-0.09-0.06-0.2-0.2-0.19-0.29c0.06-0.47,1.1-1.11,1.67-0.97
		C119.03,31.04,118.67,31.46,118.29,31.86 M116.19,34.31l-0.15-0.07c0.1-0.24,0.17-0.5,0.31-0.72c0.22-0.33,0.48-0.63,0.73-0.93
		c0.24-0.3,0.47-0.31,0.71,0.06C117.25,33.21,116.72,33.76,116.19,34.31 M116.33,39.42c0.28,0.24,0.5,0.43,0.72,0.62
		c-0.01,0.04-0.02,0.07-0.04,0.11c-0.34,0.02-0.69,0.03-1.16,0.05C116.04,39.91,116.17,39.7,116.33,39.42 M116.21,36.96
		c0.49-0.63,1.04-1.21,1.65-1.77v1.1c-0.04-0.03-0.08-0.06-0.12-0.09c-0.51,0.46-1.01,0.92-1.62,1.47
		C116.15,37.39,116.09,37.11,116.21,36.96 M116.84,38.82c-0.41-0.14-0.5-0.34-0.26-0.66c0.38-0.5,0.76-1,1.14-1.5
		c0.05,0.03,0.09,0.06,0.14,0.09C118.07,37.72,117.24,38.16,116.84,38.82 M117.81,39.74c-0.72-0.46-0.72-0.46,0-1.35V39.74z
		 M114.22,40.4c-0.19,0-0.37,0.06-0.56,0.07c-0.2,0.01-0.41,0-0.73,0c0.5-0.62,0.93-1.2,1.42-1.72c0.11-0.11,0.43-0.02,0.66-0.02
		c0.01,0.04,0.01,0.09,0.02,0.13c-0.28,0.31-0.57,0.62-0.83,0.95c-0.07,0.1-0.05,0.27-0.08,0.41c0.14-0.02,0.34,0.01,0.41-0.07
		c0.36-0.4,0.7-0.82,1.05-1.25c0.35,0.11,0.39,0.21,0.2,0.57C115.43,40.16,114.92,40.4,114.22,40.4 M111.86,40.54
		c-0.22,0.02-0.44,0-0.81,0c0.35-0.38,0.6-0.67,0.87-0.95c0.19-0.2,0.42-0.37,0.6-0.58c0.31-0.39,0.68-0.45,1.12-0.27
		c-0.43,0.57-0.84,1.14-1.29,1.69C112.27,40.53,112.03,40.52,111.86,40.54 M116.16,31.42c0.04-0.02,0.08-0.05,0.12-0.07
		c0.21,0.18,0.62,0.43,0.59,0.52c-0.12,0.34-0.39,0.62-0.6,0.93c-0.03-0.02-0.07-0.05-0.1-0.07V31.42z M116.33,30.49h1.59
		c-0.25,0.3-0.44,0.52-0.64,0.75c-0.33-0.23-0.65-0.45-0.97-0.67C116.32,30.54,116.32,30.52,116.33,30.49 M109.18,40.11
		c-0.17-0.11-0.32-0.2-0.46-0.29c0.23-0.69,1.06-1.15,1.85-1C110.1,39.26,109.66,39.67,109.18,40.11 M107.38,38.73h1.5
		c0.02,0.03,0.05,0.05,0.07,0.08c-0.24,0.2-0.49,0.41-0.77,0.65C107.97,39.25,107.73,39.03,107.38,38.73 M106.68,32.24
		c0,0.07-0.12,0.19-0.18,0.19c-0.75,0.01-1.51,0.01-2.38,0.01c0.15-0.28,0.21-0.44,0.3-0.58c0.21-0.3,0.43-0.59,0.64-0.89
		c0.48-0.69,0.6-0.74,1.59-0.54c-0.33,0.41-0.61,0.77-0.9,1.13c-0.09,0.11-0.21,0.23-0.24,0.36c-0.04,0.12,0.02,0.26,0.04,0.39
		c0.12-0.04,0.28-0.05,0.35-0.13c0.25-0.28,0.46-0.59,0.79-0.86C106.69,31.63,106.7,31.94,106.68,32.24 M102.27,32.5
		c0.35-0.43,0.61-0.77,0.88-1.1c0.14-0.17,0.33-0.32,0.41-0.51c0.26-0.63,0.75-0.58,1.34-0.5c-0.1,0.15-0.18,0.26-0.26,0.37
		c-0.26,0.35-0.58,0.68-0.77,1.06C103.55,32.49,102.99,32.45,102.27,32.5 M98.16,30.66c-0.33,0.43-0.69,0.83-1,1.28
		c-0.22,0.32-0.41,0.2-0.65,0.05c-0.27-0.16-0.22-0.32-0.07-0.53c0.24-0.35,0.44-0.73,0.71-1.05c0.33-0.39,0.77-0.2,1.27-0.14
		C98.31,30.44,98.24,30.55,98.16,30.66 M95.84,31.42c-0.34-0.34-0.61-0.61-0.95-0.95c0.59-0.03,1.09-0.06,1.72-0.1
		C96.33,30.75,96.11,31.06,95.84,31.42 M118.22,10.17c-0.57,0.52-1.12,1.07-1.76,1.7v-0.77c0.89-0.87,1.74-1.69,2.58-2.51
		c0.03,0.01,0.06,0.03,0.09,0.04c-0.08,0.42-0.16,0.84-0.22,1.16C118.62,9.95,118.39,10.02,118.22,10.17 M118.73,11.53
		c0,0.07-0.03,0.15-0.08,0.19c-0.76,0.64-1.52,1.28-2.32,1.96c0.02-0.5-0.08-0.95,0.4-1.36c0.69-0.59,1.28-1.3,1.92-1.97
		c0.05,0.03,0.1,0.06,0.14,0.09C118.77,10.81,118.76,11.17,118.73,11.53 M117.79,14.37c-0.51,0.39-0.97,0.84-1.52,1.33
		c-0.01-0.56-0.15-1,0.36-1.43c0.68-0.56,1.25-1.25,1.93-1.96C118.67,13.23,118.43,13.87,117.79,14.37 M118.13,15.67
		c-0.63,0.51-1.25,1.04-1.91,1.6c-0.24-0.82,0.42-1.14,0.79-1.56c0.41-0.46,0.93-0.83,1.41-1.24
		C118.64,14.99,118.53,15.35,118.13,15.67 M118.01,19.02c-0.61,0.41-1.08,1.02-1.62,1.54c-0.1,0.1-0.24,0.16-0.43,0.28
		c0.02-0.6,0.11-1.02,0.53-1.39c0.65-0.58,1.22-1.24,1.83-1.87c0.05,0.03,0.09,0.06,0.14,0.1
		C118.48,18.17,118.59,18.63,118.01,19.02 M117.18,20.72c0.35-0.4,0.74-0.84,1.15-1.3C118.52,20.27,117.89,20.88,117.18,20.72
		 M116.12,18.03c0.18-0.13,0.35-0.22,0.49-0.34c0.57-0.52,1.13-1.04,1.77-1.62c0.15,0.51,0.11,0.79-0.22,1.07
		c-0.69,0.58-1.34,1.2-2.04,1.83V18.03z M116.96,8.94c0.72-0.51,1.32-1.19,1.96-1.81c0.1-0.1,0.14-0.25,0.28-0.32
		c0.04,0.53,0.08,0.95-0.42,1.32c-0.71,0.53-1.28,1.24-1.91,1.87c-0.1,0.1-0.21,0.18-0.39,0.35C116.5,9.76,116.41,9.33,116.96,8.94
		 M116.91,7.28c0.54-0.45,0.98-1.03,1.47-1.55c0.59,0.54,0.61,0.64,0.08,1.15c-0.53,0.52-1.1,1-1.65,1.5
		c-0.04,0.04-0.1,0.05-0.21,0.12C116.56,8.01,116.48,7.64,116.91,7.28 M117.08,5.28c0.25-0.22,0.45-0.49,0.69-0.76
		c0.14,0.23,0.29,0.47,0.45,0.75c-0.51,0.48-1.01,0.95-1.56,1.47C116.64,6.16,116.65,5.67,117.08,5.28 M116.86,3.64
		c0.04-0.02,0.07-0.04,0.11-0.05c0.22,0.24,0.44,0.49,0.64,0.71c-0.28,0.15-0.52,0.29-0.81,0.45C116.82,4.36,116.84,4,116.86,3.64
		 M124.97,23.97c-0.01-0.31-0.18-0.7-0.41-0.91c-0.81-0.76-1.67-1.47-2.53-2.17c-0.12-0.1-0.36-0.09-0.54-0.1
		c-0.83-0.01-1.67,0-2.4,0c0-1.14-0.01-2.21,0-3.28c0.02-1.55-0.01-3.1,0.11-4.64c0.13-1.64,0.44-3.27,0.62-4.91
		c0.05-0.47,0.03-1.04-0.19-1.44c-0.6-1.12-1.17-2.25-2.05-3.21c-0.48-0.52-0.97-0.7-1.61-0.66c-0.77,0.05-1.55,0.16-2.32,0.18
		c-1.46,0.03-2.93,0.01-4.39,0.04c-0.13,0-0.25,0.17-0.38,0.27c0.1,0.12,0.18,0.29,0.31,0.36c0.11,0.06,0.28,0.04,0.43,0.03
		c2.02-0.06,4.04-0.11,6.06-0.17c0.58-0.02,0.59-0.02,0.55,0.58c-0.09,1.3-0.22,2.6-0.29,3.9c-0.15,2.84-0.28,5.68-0.42,8.51
		c-0.07,1.38-0.14,2.75-0.18,4.13c-0.02,0.67,0.3,0.93,0.97,0.95c1.33,0.03,2.66,0.08,4,0.12c1.03,0.04,1.05,0.04,1.05,1.08
		c-0.01,2.36-0.05,4.72-0.05,7.08c0,0.39-0.2,0.36-0.48,0.35c-1.47-0.09-2.95-0.16-4.42-0.22c-0.58-0.02-0.81,0.19-0.82,0.75
		c-0.04,2.08-0.07,4.16-0.1,6.24c0,0.42,0,0.84,0,1.26c-0.13,0-0.23,0-0.33,0c-1.04-0.03-2.08-0.07-3.11-0.08
		c-1.46-0.01-2.93,0-4.39,0c-0.29,0-0.53-0.05-0.51-0.43c0.05-1.01,0.09-2.02,0.11-3.03c0.03-1.35,0.06-2.69,0.06-4.04
		c0-0.49-0.35-0.81-0.86-0.82c-0.76-0.01-1.52,0.01-2.28,0.01c-1.41,0.01-2.81,0.01-4.22,0.01c-1.02,0-2.05-0.05-3.07-0.02
		c-1.02,0.03-2.04,0.14-3.07,0.22c0.01-0.3,0.04-0.5,0.03-0.7c-0.03-0.79-0.06-1.58-0.09-2.37c-0.08-2.06-0.15-4.12-0.24-6.18
		c0-0.1-0.13-0.25-0.21-0.26c-0.09-0.02-0.26,0.08-0.3,0.17c-0.06,0.15-0.07,0.34-0.06,0.51c0.03,0.41,0.11,0.82,0.12,1.22
		c0.06,2.4,0.11,4.8,0.17,7.2c0,0.18,0.04,0.41,0.15,0.51c0.94,0.87,1.9,1.73,2.86,2.57c0.2,0.18,0.44,0.3,0.66,0.45
		c0.62-0.78,1.2-1.5,1.76-2.23c0.43-0.56,0.59-0.61,1.4-0.39c-0.12,0.13-0.22,0.24-0.32,0.36c-0.35,0.41-0.71,0.82-1.04,1.25
		c-0.06,0.08,0.01,0.27,0.01,0.41c0.13-0.04,0.31-0.05,0.39-0.13c0.46-0.51,0.91-1.04,1.33-1.58c0.3-0.38,0.64-0.38,1.1-0.25
		c-0.18,0.2-0.33,0.36-0.47,0.52c-0.28,0.32-0.57,0.63-0.82,0.97c-0.07,0.09-0.02,0.28-0.02,0.43c0.14-0.03,0.33-0.02,0.41-0.1
		c0.44-0.47,0.88-0.95,1.28-1.45c0.38-0.47,0.67-0.57,1.3-0.32c-0.1,0.13-0.18,0.27-0.28,0.39c-0.37,0.45-0.8,0.87-1.11,1.36
		c-0.2,0.31-0.39,0.43-0.73,0.41c-0.26-0.02-0.53-0.01-0.79-0.02c-0.69-0.03-1.38-0.06-2.07-0.07c-0.11,0-0.23,0.11-0.35,0.17
		c0.07,0.13,0.11,0.32,0.22,0.38c0.17,0.09,0.39,0.15,0.59,0.14c2.44-0.02,4.89-0.06,7.33-0.09c0.01,0,0.03,0,0.04,0
		c0.61-0.04,0.64-0.02,0.6,0.61c-0.07,1.38-0.14,2.75-0.23,4.12c-0.01,0.15-0.1,0.34-0.21,0.43c-0.28,0.22-0.18,0.33,0.05,0.49
		c0.34,0.22,0.68,0.45,1,0.69c0.54,0.4,1.07,0.82,1.62,1.2c0.09,0.06,0.32,0.05,0.4-0.03c0.52-0.5,1.05-0.99,1.5-1.54
		c0.37-0.47,0.83-0.44,1.29-0.46c-0.55,0.6-1.1,1.2-1.66,1.78c-0.07,0.07-0.23,0.05-0.33,0.11c-0.12,0.07-0.33,0.19-0.32,0.24
		c0.04,0.15,0.14,0.34,0.26,0.38c0.23,0.08,0.49,0.09,0.74,0.08c0.83-0.03,1.67-0.08,2.5-0.12c1.39-0.07,2.77-0.15,4.15-0.23
		c0.12-0.01,0.23-0.04,0.34-0.07c0.19-0.05,0.38-0.11,0.63-0.18c0.01-0.05,0.04-0.17,0.04-0.3c0.06-1.9,0.11-3.8,0.16-5.7
		c0.01-0.44-0.01-0.87-0.04-1.31c0-0.08-0.1-0.2-0.17-0.21c-0.07-0.01-0.2,0.07-0.24,0.14c-0.07,0.12-0.08,0.28-0.13,0.41
		c-0.07,0.21-0.11,0.46-0.24,0.63c-0.37,0.49-0.77,0.96-1.17,1.43c-0.15,0.18-0.33,0.35-0.55,0.59c-0.05-0.55-0.1-0.93,0.27-1.31
		c0.57-0.58,1.06-1.25,1.6-1.86c0.1-0.12,0.27-0.2,0.42-0.24c0.27-0.08,0.48-0.15,0.36-0.51c-0.03-0.08,0-0.23,0.06-0.3
		c0.29-0.38,0.59-0.76,0.91-1.12c0.26-0.3,0.56-0.52,1.06-0.2c-0.6,0.65-1.18,1.28-1.78,1.89c-0.18,0.19-0.22,0.41,0.02,0.52
		c0.11,0.05,0.26,0.07,0.38,0.06c1.49-0.05,2.98-0.1,4.47-0.18c0.68-0.04,0.74-0.1,0.91-0.77c0.05-0.18,0.06-0.38,0.07-0.56
		c0.03-1.61,0.06-3.22,0.09-4.83C124.93,25.93,125,24.95,124.97,23.97"/>
	<path class="st12" d="M107.42,18.12c-0.07-0.01-0.14-0.02-0.22-0.03l0.19-1.19c0.05,0.01,0.1,0.01,0.15,0.02
		C107.5,17.33,107.46,17.73,107.42,18.12 M107.27,20.49h-1.33c0.49-0.52,0.89-0.94,1.3-1.36c0.04,0.01,0.08,0.02,0.11,0.04
		C107.32,19.6,107.29,20.04,107.27,20.49 M104.48,20.45c0.17-0.62,0.32-1.21,0.47-1.79c0.07-0.28,0.22-0.57,0.21-0.84
		c-0.02-0.6,0.42-0.8,0.88-1.15c-0.16,0.61-0.31,1.11-0.42,1.62c-0.11,0.5-0.37,1.01,0.01,1.54
		C105.28,20.09,105.06,20.51,104.48,20.45 M103.67,20.48c-0.15,0.02-0.31-0.01-0.46-0.02c-0.05-0.79,0.28-1.72,1.38-2.53
		c-0.2,0.84-0.38,1.62-0.58,2.39C103.99,20.4,103.8,20.46,103.67,20.48 M101.77,20.38c0.37-0.32,0.65-0.55,0.96-0.81
		C102.78,20.29,102.6,20.45,101.77,20.38 M106.65,16.25c0.09-0.23,0.33-0.41,0.5-0.61c0.03,0.02,0.07,0.04,0.1,0.05
		c-0.1,0.4-0.22,0.8-0.29,1.21c-0.09,0.51-0.42,1.01-0.1,1.56c0.03,0.04-0.07,0.18-0.13,0.26c-0.21,0.25-0.44,0.48-0.66,0.72
		c-0.05-0.02-0.09-0.05-0.14-0.07c0.11-0.55,0.21-1.1,0.33-1.64C106.37,17.23,106.48,16.73,106.65,16.25 M107.91,14.46
		c-0.15-0.07-0.46,0.04-0.61,0.17c-1.36,1.18-2.7,2.39-4.05,3.58c-0.4,0.36-0.83,0.69-1.25,1.04c-0.42,0.34-0.85,0.67-1.24,1.04
		c-0.15,0.15-0.19,0.41-0.28,0.63c0.22,0.07,0.43,0.2,0.65,0.21c2.19,0.09,4.39-0.17,6.66,0.17c0.02-0.59,0.04-1.18,0.08-1.77
		c0.09-1.49,0.19-2.98,0.27-4.47C108.15,14.85,108.05,14.53,107.91,14.46"/>
	<path class="st12" d="M93.67,20.42c-0.29-0.29-0.24-0.53-0.05-0.75c1-1.21,1.99-2.41,3-3.62c0.36-0.43,0.72-0.85,1.1-1.25
		c1.46-1.56,2.96-3.09,4.4-4.67c1.07-1.18,2.08-2.42,3.12-3.62c0.16-0.18,0.31-0.61,0.63-0.34c0.32,0.27-0.05,0.52-0.21,0.72
		c-2.07,2.6-4.4,4.97-6.72,7.35c-1.2,1.23-2.24,2.63-3.35,3.95c-0.53,0.64-1.04,1.3-1.57,1.94C93.93,20.25,93.8,20.32,93.67,20.42"
		/>
	<path class="st12" d="M106.29,5.98c-0.26-0.01-0.37-0.27-0.2-0.49c0.2-0.27,0.44-0.5,0.66-0.75c0.35-0.39,0.68-0.8,1.04-1.18
		c0.08-0.09,0.27-0.08,0.4-0.12c0.02,0.13,0.11,0.32,0.06,0.39c-0.6,0.71-1.22,1.4-1.83,2.1C106.38,5.95,106.32,5.96,106.29,5.98"/>
	<path class="st12" d="M114.02,4.09c0.38,0,0.76-0.02,1.14,0.01c0.12,0.01,0.23,0.17,0.34,0.26c-0.1,0.08-0.2,0.22-0.31,0.23
		c-0.74,0.03-1.49,0.04-2.23,0.03c-0.13,0-0.25-0.19-0.38-0.29c0.13-0.08,0.26-0.2,0.4-0.22c0.35-0.03,0.7-0.01,1.05-0.01V4.09z"/>
	<path class="st12" d="M113.8,36.58c0.19,0,0.39-0.03,0.57,0.01c0.13,0.03,0.23,0.16,0.35,0.24c-0.11,0.09-0.22,0.24-0.34,0.26
		c-0.18,0.04-0.38-0.04-0.56-0.03c-0.43,0.02-0.87,0.07-1.3,0.07c-0.13,0-0.27-0.13-0.4-0.21c0.1-0.08,0.19-0.21,0.31-0.23
		c0.46-0.07,0.92-0.11,1.39-0.15L113.8,36.58z"/>
	<path class="st12" d="M115.39,5.52c-0.51,0.04-0.98,0.1-1.46,0.11c-0.14,0-0.28-0.14-0.42-0.21c0.11-0.1,0.21-0.27,0.34-0.3
		c0.28-0.07,0.58-0.07,0.87-0.09C115.07,4.99,115.29,5.15,115.39,5.52"/>
	<path class="st12" d="M95.37,26.85c0,0.6,0.01,1.19-0.01,1.78c0,0.08-0.12,0.16-0.19,0.24c-0.08-0.08-0.23-0.17-0.23-0.25
		c-0.01-0.5-0.01-0.99,0.02-1.49c0.01-0.12,0.18-0.24,0.28-0.35C95.29,26.8,95.33,26.82,95.37,26.85"/>
	<path class="st12" d="M114.64,35.89c-0.09,0.03-0.18,0.09-0.27,0.09c-0.33,0.01-0.67,0.03-0.99-0.01
		c-0.14-0.02-0.26-0.17-0.39-0.25c0.12-0.08,0.23-0.22,0.35-0.24c0.25-0.05,0.53-0.1,0.78-0.05c0.21,0.04,0.38,0.22,0.57,0.33
		C114.67,35.8,114.66,35.84,114.64,35.89"/>
	<path class="st12" d="M114.63,6.07c0.22,0.11,0.44,0.23,0.66,0.34c-0.22,0.1-0.44,0.21-0.67,0.28c-0.16,0.04-0.36,0.05-0.52,0.01
		c-0.13-0.03-0.24-0.16-0.35-0.24c0.1-0.08,0.19-0.21,0.31-0.24c0.16-0.05,0.35-0.03,0.52-0.05C114.6,6.13,114.62,6.1,114.63,6.07"
		/>
	<path class="st12" d="M96.57,28.09c-0.01,0.07-0.02,0.26-0.07,0.44c-0.03,0.09-0.13,0.15-0.2,0.23c-0.08-0.09-0.22-0.18-0.22-0.27
		c0-0.27,0.04-0.55,0.1-0.82c0.02-0.08,0.16-0.13,0.24-0.2c0.05,0.09,0.11,0.18,0.15,0.28C96.59,27.82,96.57,27.9,96.57,28.09"/>
	<path class="st12" d="M113.87,34.32c0.19,0.11,0.38,0.22,0.58,0.33c-0.23,0.09-0.45,0.19-0.68,0.26c-0.06,0.02-0.15,0-0.21-0.03
		c-0.12-0.07-0.23-0.16-0.35-0.25c0.13-0.08,0.26-0.16,0.4-0.23c0.06-0.03,0.14,0,0.22,0C113.83,34.37,113.85,34.35,113.87,34.32"/>
	<path class="st12" d="M97.56,28.11c0,0.09,0.01,0.18,0,0.26c-0.03,0.13-0.08,0.26-0.12,0.38c-0.1-0.11-0.24-0.21-0.27-0.33
		c-0.05-0.21-0.06-0.44-0.03-0.65c0.02-0.11,0.15-0.2,0.24-0.3c0.06,0.11,0.15,0.21,0.19,0.33C97.58,27.89,97.56,28,97.56,28.11"/>
	<path class="st12" d="M114.42,33.42c-0.34,0.3-0.66,0.19-0.98,0.08c-0.06-0.02-0.14-0.15-0.13-0.2c0.02-0.08,0.11-0.19,0.19-0.2
		C113.84,33.04,114.17,33.07,114.42,33.42"/>
	<path class="st12" d="M114.6,7.11c0.19,0.17,0.32,0.28,0.45,0.4c-0.2,0.09-0.39,0.23-0.59,0.24c-0.13,0.01-0.27-0.17-0.41-0.27
		C114.21,7.37,114.37,7.26,114.6,7.11"/>
	<path class="st12" d="M98.78,27.8c0,0.27,0.01,0.55-0.01,0.82c-0.01,0.06-0.17,0.1-0.26,0.15c-0.07-0.24-0.19-0.48-0.18-0.72
		c0-0.12,0.22-0.24,0.34-0.37C98.7,27.72,98.74,27.76,98.78,27.8"/>
	<path class="st12" d="M100.68,28.41c0.21-0.22,0.37-0.38,0.52-0.54c0.07,0.09,0.22,0.2,0.2,0.25c-0.08,0.24-0.21,0.46-0.32,0.69
		C100.97,28.7,100.86,28.59,100.68,28.41"/>
	<path class="st12" d="M114.78,8.99c-0.23,0.03-0.46,0.08-0.68,0.06c-0.09-0.01-0.17-0.2-0.25-0.31c0.1-0.07,0.2-0.19,0.3-0.19
		C114.42,8.55,114.73,8.52,114.78,8.99"/>
	<path class="st12" d="M100.22,28.21c-0.12,0.2-0.2,0.34-0.29,0.48c-0.1-0.15-0.26-0.3-0.27-0.46c-0.01-0.13,0.17-0.27,0.26-0.4
		C100.01,27.95,100.1,28.06,100.22,28.21"/>
	<path class="st12" d="M114.33,32.24c-0.2,0.04-0.39,0.11-0.59,0.1c-0.13-0.01-0.25-0.13-0.37-0.21c0.12-0.09,0.25-0.26,0.37-0.25
		c0.21,0.01,0.42,0.13,0.62,0.21C114.35,32.14,114.34,32.19,114.33,32.24"/>
	<path class="st12" d="M114.75,9.99c-0.23,0.22-0.4,0.49-0.73,0.29c-0.06-0.04-0.11-0.25-0.08-0.29
		C114.18,9.77,114.44,9.79,114.75,9.99"/>
	<path class="st12" d="M90.73,38.46c0.3-0.22,0.56-0.49,0.83-0.74c0.01-0.01,0.03,0,0.1,0.01c0,0.22,0.04,0.43-0.01,0.63
		c-0.04,0.16-0.17,0.3-0.28,0.43c-0.07,0.08-0.21,0.12-0.25,0.2c-0.06,0.12-0.05,0.27-0.07,0.4c0.13,0.01,0.26,0.04,0.39,0.04
		c0.05,0,0.1-0.04,0.19-0.09v0.71c-0.47-0.4-0.89-0.77-1.33-1.12c-0.29-0.23-0.56-0.46-0.54-0.86c0.01-0.09,0.05-0.21,0.12-0.27
		c0.49-0.48,0.98-0.95,1.47-1.43c0.08-0.07,0.15-0.16,0.23-0.25c0.2,0.65,0.11,0.9-0.37,1.24c-0.3,0.22-0.61,0.44-0.87,0.7
		c-0.09,0.09-0.08,0.3-0.11,0.46C90.4,38.52,90.61,38.55,90.73,38.46 M89.65,40.52c0.14-0.34,0.25-0.61,0.35-0.87
		c0.68,0.06,0.11,0.7,0.45,0.96C90.21,40.58,89.96,40.55,89.65,40.52 M90.7,33.76c0.18,0.15,0.32,0.26,0.49,0.4
		c-0.51,0.5-0.99,0.97-1.5,1.47C89.41,34.66,90.43,34.46,90.7,33.76 M88.96,40.5c-0.11,0.14-0.46,0.09-0.81,0.14
		c0.24-0.5,0.37-0.94,0.63-1.27c0.14-0.18,0.5-0.18,0.76-0.26c0.03,0.05,0.06,0.09,0.09,0.14C89.42,39.67,89.24,40.13,88.96,40.5
		 M86.71,40.59c-0.02-0.04-0.04-0.09-0.06-0.13c0.25-0.43,0.46-0.9,0.79-1.28c0.13-0.15,0.51-0.07,0.89-0.11
		c-0.29,0.52-0.48,1-0.8,1.37C87.38,40.6,86.99,40.54,86.71,40.59 M85.98,40.38c-0.26,0.21-0.78,0.08-1.18,0.11
		c-0.02-0.04-0.03-0.08-0.05-0.13c0.32-0.43,0.58-0.94,0.99-1.27c0.23-0.18,0.7-0.07,1.17-0.09C86.57,39.53,86.37,40.07,85.98,40.38
		 M84.09,40.31c-0.18,0.16-0.58,0.08-0.93,0.11c0.53-1.3,0.8-1.49,1.84-1.36C84.71,39.49,84.46,39.97,84.09,40.31 M81.69,40.42
		c-0.29,0.01-0.57,0-0.88,0c0.55-0.92,1.18-1.62,2.35-1.24C83.01,39.79,82.3,40.4,81.69,40.42 M78.88,40.45
		c0.21-0.28,0.46-0.54,0.65-0.84c0.36-0.58,0.89-0.48,1.43-0.42C80.49,40.15,79.52,40.72,78.88,40.45 M77.94,40.5
		c-0.21,0.16-0.61,0.09-0.94,0.06c0.53-0.63,0.9-1.5,1.98-1.22C78.63,39.75,78.33,40.19,77.94,40.5 M76.35,40.28
		c-0.41,0.65-0.99,0.46-1.6,0.4c0.24-0.26,0.48-0.51,0.71-0.77c0.15-0.17,0.3-0.35,0.45-0.52c0.04-0.04,0.1-0.1,0.16-0.1
		c0.36-0.01,0.73-0.01,1.09-0.01c0.03,0.05,0.06,0.11,0.08,0.16C76.94,39.71,76.56,39.94,76.35,40.28 M74.12,40.56
		c-0.25,0.2-0.68,0.18-1.03,0.26c-0.02-0.05-0.04-0.1-0.07-0.15c0.1-0.12,0.21-0.24,0.31-0.36c0.22-0.25,0.43-0.5,0.66-0.73
		c0.11-0.11,0.27-0.2,0.41-0.23c0.31-0.05,0.62-0.06,0.85-0.08C74.9,39.69,74.56,40.2,74.12,40.56 M89.62,32.85
		c0.23,0.18,0.45,0.36,0.73,0.58c-0.26,0.23-0.46,0.4-0.75,0.66c-0.03-0.49-0.06-0.84-0.09-1.19
		C89.54,32.89,89.58,32.87,89.62,32.85 M91.5,34.58c0.17,0.49,0.14,0.85-0.23,1.17c-0.51,0.44-0.95,0.96-1.41,1.45
		c-0.05-0.02-0.1-0.03-0.15-0.05c0.02-0.18-0.03-0.41,0.06-0.53C90.33,35.92,90.92,35.26,91.5,34.58 M70.69,40.55
		c-0.06,0.06-0.24,0.08-0.32,0.04c-0.21-0.1-0.4-0.24-0.6-0.36c0.54-1.07,1.05-1.29,2.18-1C71.53,39.67,71.12,40.12,70.69,40.55
		 M68.62,39.2c0.43-0.05,0.79-0.09,1.18-0.13C69.49,39.79,69.22,39.82,68.62,39.2 M80.08,12.02c0.2,0.28,0.36,0.49,0.57,0.77
		C80.13,12.74,80.01,12.5,80.08,12.02 M79.42,11.98c-0.28-0.27-0.49-0.47-0.76-0.73C79.33,11.27,79.48,11.41,79.42,11.98
		 M74.73,13.61c-0.02-0.03-0.05-0.07-0.07-0.1c0.18-0.32,0.35-0.65,0.54-0.96c0.04-0.07,0.15-0.11,0.23-0.12
		c0.38-0.04,0.76-0.05,1.14-0.1c0.47-0.06,0.9,0.03,1.4,0.34C76.83,13,75.78,13.3,74.73,13.61 M74.47,15.6
		c-0.05-0.01-0.09-0.02-0.14-0.04c0.03-0.48,0.06-0.95,0.08-1.31c1.03-0.29,1.96-0.54,2.95-0.82C76.85,14.86,75.45,14.94,74.47,15.6
		 M75.16,16.93c-0.29-0.27-0.53-0.49-0.78-0.71c0.74-0.35,1.46-0.69,2.27-1.07C76.5,16.13,75.58,16.28,75.16,16.93 M76.39,18.18
		c-0.04,0.02-0.09,0.04-0.13,0.07c-0.22-0.24-0.45-0.47-0.65-0.71c-0.04-0.04-0.03-0.18,0.01-0.22c0.23-0.25,0.47-0.48,0.77-0.77
		V18.18z M74.4,18.88c0.19-0.32,0.38-0.63,0.62-1.04c0.31,0.38,0.57,0.69,0.86,1.04H74.4z M73.47,19.01
		c-0.31,0.04-0.62,0.04-0.93,0.06c-0.03-0.04-0.06-0.08-0.1-0.12c0.22-0.35,0.44-0.69,0.65-1.04c0.22-0.35,0.43-0.7,0.7-1.14
		c0.2-0.03,0.79,0.33,0.83,0.63c0.01,0.1-0.07,0.22-0.14,0.32c-0.25,0.38-0.51,0.75-0.77,1.12C73.66,18.91,73.56,19,73.47,19.01
		 M71.71,19.13c-0.27,0.03-0.54,0.01-0.94,0.01c0.32-0.43,0.57-0.77,0.82-1.09c0.24-0.3,0.54-0.57,0.72-0.9
		c0.19-0.36,0.44-0.45,0.87-0.34c-0.27,0.36-0.53,0.66-0.73,1c-0.2,0.35-0.34,0.74-0.51,1.11C71.9,19.01,71.8,19.13,71.71,19.13
		 M69.09,19.03c0.47-0.61,0.9-1.19,1.37-1.74c0.49-0.58,0.59-0.6,1.47-0.48c-0.23,0.28-0.41,0.5-0.58,0.72
		c-0.38,0.46-0.76,0.91-1.13,1.38C70.01,19.16,69.84,19.2,69.09,19.03 M67.47,17.95c-0.25-0.3-0.45-0.55-0.73-0.88
		c0.55-0.07,1.01-0.13,1.48-0.19c0.02,0.04,0.04,0.08,0.06,0.12C68.02,17.31,67.76,17.62,67.47,17.95 M79.07,31.35
		c-0.16,0.57-0.2,0.57-0.9,0.48c0.09-0.45,0.18-0.91,0.28-1.35c0.07-0.27,0.19-0.52,0.24-0.79c0.12-0.59,0.51-0.91,1.13-1.15
		c-0.18,0.54-0.36,1-0.48,1.47C79.23,30.44,79.2,30.91,79.07,31.35 M77.62,31.88c-0.24-0.04-0.55-0.1-0.87-0.16
		c0.12-0.81,0.83-1.89,1.53-2.32c-0.15,0.43-0.33,0.81-0.44,1.22C77.75,31.01,77.7,31.41,77.62,31.88 M81.39,27.66
		c-0.36,0.84-0.24,1.87-1.29,2.26C80.02,28.92,80.56,27.94,81.39,27.66 M83.09,26.61c-0.17,0.58-0.28,1.18-0.54,1.71
		c-0.12,0.25-0.52,0.36-0.88,0.58C81.81,27.85,81.94,26.94,83.09,26.61 M83.49,27.23c0.13-0.45,0.27-0.9,0.42-1.34
		c0.05-0.13,0.16-0.25,0.26-0.35c0.27-0.25,0.55-0.48,0.82-0.72c0.03,0.01,0.07,0.03,0.1,0.04c-0.07,0.43-0.13,0.85-0.2,1.28
		c-0.06,0.35-0.12,0.7-0.19,1.05c-0.02,0.1-0.07,0.23-0.15,0.27c-0.37,0.21-0.75,0.39-1.12,0.58c-0.04-0.03-0.07-0.06-0.11-0.09
		C83.38,27.71,83.42,27.47,83.49,27.23 M85.55,25.54c0.05-0.39,0.06-0.79,0.1-1.19c0.01-0.1,0.03-0.23,0.09-0.3
		c0.25-0.29,0.52-0.56,0.78-0.84c0.04,0.01,0.08,0.02,0.11,0.04c-0.03,0.31-0.05,0.62-0.09,0.93c-0.07,0.62-0.13,1.23-0.21,1.84
		c-0.02,0.15-0.08,0.33-0.19,0.42c-0.23,0.2-0.5,0.36-0.85,0.6C85.4,26.47,85.49,26,85.55,25.54 M87.52,21.84
		c0.66,0.76,0.12,1.77,0.66,2.57c-0.39,0.36-0.8,0.74-1.31,1.21C87.16,24.31,87.05,23.03,87.52,21.84 M88.43,20.32
		c0.67,0.74,0.88,1.6,0.84,2.56c-0.02,0.55-0.17,0.95-0.73,1.22c-0.03-0.18-0.06-0.34-0.09-0.5c-0.12-0.73-0.19-1.47-0.37-2.18
		C87.95,20.94,88.28,20.69,88.43,20.32 M88.97,18.73c1.33,0.98,1.69,2.98,0.9,3.64c-0.1-0.43-0.16-0.84-0.29-1.23
		c-0.11-0.32-0.25-0.67-0.48-0.91C88.64,19.74,88.71,19.25,88.97,18.73 M88.65,10.33c0-0.01,0.01-0.02,0.04-0.08
		c0.83,0.18,1.42,0.74,2.07,1.22c-0.02,0.03-0.03,0.07-0.05,0.1c-0.51-0.21-1.01-0.45-1.53-0.61
		C88.84,10.86,88.67,10.68,88.65,10.33 M87.98,9.08c0.04-0.03,0.07-0.06,0.11-0.09c1.19,0.08,1.83,0.46,2.07,1.23
		C89.62,10,89,9.77,88.39,9.5C88.23,9.42,88.12,9.22,87.98,9.08 M87.29,7.8c0.55,0.03,1.1,0.07,1.43,0.63
		C88.23,8.25,87.63,8.32,87.29,7.8 M86.1,6.55c-0.35-0.4-0.84-0.69-1.26-1.04c0.99,0.38,1.92,0.84,2.75,1.61
		C86.94,7.14,86.49,7,86.1,6.55 M91.23,14.15c-0.5-0.45-0.94-1-1.52-1.3c-0.58-0.3-0.48-0.77-0.67-1.21
		C90.53,11.71,91.43,12.79,91.23,14.15 M91.19,17.18c-0.08-0.19-0.14-0.3-0.18-0.41c-0.24-0.68-0.55-1.29-1.24-1.64
		c-0.12-0.06-0.25-0.24-0.26-0.38c-0.03-0.41-0.01-0.82-0.01-1.27C90.52,14.02,91.65,15.34,91.19,17.18 M89.39,15.52
		c0.91,0.45,1.05,1.24,1.37,2c-0.48-0.39-0.94-0.7-1.3-1.1C89.32,16.26,89.41,15.9,89.39,15.52 M90.75,20.06
		c-0.5-0.67-1.04-1.32-1.5-2.04c-0.14-0.21-0.02-0.59-0.02-0.92C90.28,17.69,91.4,18.97,90.75,20.06 M92.31,40.32
		c-0.03-0.27-0.05-0.55-0.05-0.83c-0.01-1.55,0-3.1-0.01-4.65c0-0.16,0-0.36-0.09-0.47c-0.31-0.38-0.63-0.76-0.99-1.09
		c-0.53-0.51-1.09-0.98-1.64-1.46c-0.08-0.07-0.25-0.18-0.27-0.15c-0.28,0.27-0.54-0.03-0.8-0.03c-1.49,0.02-2.99,0.04-4.48,0.05
		c-1.41,0.01-2.82,0-4.31,0c0.1-0.2,0.15-0.45,0.3-0.6c0.44-0.43,0.89-0.89,1.41-1.21c0.81-0.5,1.66-0.92,2.53-1.32
		c1.11-0.51,2.15-1.14,3.08-1.93c0.86-0.73,1.61-1.58,2.41-2.39c0.15-0.16,0.28-0.34,0.41-0.52c1.44-2.12,1.97-4.52,2.1-7.01
		c0.06-1.28,0.06-2.58-0.12-3.84c-0.31-2.18-1.5-3.94-2.99-5.53c-1.32-1.41-2.93-2.31-4.75-2.9c-1.03-0.34-2.09-0.62-3.1-1.01
		c-3.17-1.24-6.29-1-9.13,0.72c-3.21,1.93-5.18,4.88-5.82,8.62c-0.14,0.85-0.15,1.73-0.18,2.6c-0.01,0.18,0.16,0.37,0.24,0.55
		c0.07-0.19,0.18-0.37,0.2-0.56c0.03-0.24,0.01-0.5,0-0.74c-0.03-1.49,0.49-2.85,0.99-4.21c0.49-1.35,1.34-2.47,2.26-3.53
		c0.42-0.48,0.96-0.87,1.45-1.29c1.97-1.71,4.29-2.33,6.84-2.19c1.72,0.09,3.25,0.81,4.75,1.6c2.41,1.27,4.46,2.86,5.44,5.54
		c0.58,1.58,1.05,3.18,0.84,4.89c-0.09,0.74-0.11,1.49-0.25,2.22c-0.14,0.73-0.31,1.46-0.58,2.15c-0.69,1.72-1.84,3.12-3.2,4.38
		c-1.22,1.13-2.43,2.25-3.93,3.02c-1.03,0.53-2.02,1.14-3.02,1.73c-1.03,0.61-1.51,1.61-1.82,2.71c-0.04,0.12-0.02,0.36,0.06,0.4
		c0.3,0.18,0.64,0.42,0.96,0.43c0.92,0.03,1.84-0.06,2.76-0.08c1.73-0.03,3.45-0.06,5.18-0.08c0.85-0.01,1.71,0,2.56,0.02
		c0.45,0.01,0.9,0.04,1.35,0.06c0.06,2.07,0.12,4.06,0.19,6.07c-0.05,0-0.12,0.01-0.19,0.01c-1.75,0.01-3.51,0-5.26,0.04
		c-1.98,0.04-3.95,0.15-5.93,0.21c-1.09,0.03-2.18,0.03-3.27,0.03c-1.17,0-2.34-0.03-3.47-0.38c-0.09-0.03-0.21,0.01-0.31,0.03
		c-0.2,0.04-0.4,0.11-0.6,0.13c-0.66,0.04-1.32,0.06-1.99,0.09c-0.12,0.01-0.23-0.02-0.37-0.03c0.06-0.2,0.14-0.36,0.16-0.52
		c0.03-0.19,0-0.39,0-0.58c0.01-1.89,0.02-3.79,0.41-5.65c0.22-1.05,0.36-2.16,1.02-3.04c0.71-0.93,1.5-1.81,2.33-2.63
		c1.32-1.29,2.88-2.28,4.41-3.29c1.85-1.22,3.53-2.63,4.75-4.5c0.59-0.91,1.04-1.91,1.13-3c0.15-1.85-0.79-3.22-2.11-4.37
		c-0.13-0.11-0.31-0.19-0.48-0.24c-1.98-0.53-3.63-0.18-4.83,1.56c-0.7,1.01-0.76,2.17-0.75,3.34c0,0.35-0.06,0.48-0.44,0.48
		c-1.81,0.04-3.62,0.09-5.43,0.18c-0.57,0.03-1.15,0.14-1.72,0.26c-0.17,0.04-0.37,0.21-0.44,0.38c-0.04,0.08,0.17,0.29,0.3,0.42
		c0.25,0.26,0.53,0.48,0.77,0.74c0.36,0.38,0.69,0.79,1.05,1.17c0.08,0.08,0.23,0.1,0.35,0.15c0.04-0.13,0.16-0.29,0.12-0.39
		c-0.09-0.22-0.25-0.41-0.39-0.62c0.3-0.41,0.6-0.83,0.92-1.24c0.34-0.43,0.64-0.5,1.22-0.26c-0.08,0.11-0.16,0.23-0.24,0.33
		c-0.39,0.5-0.79,1-1.16,1.51c-0.1,0.14-0.17,0.47-0.12,0.51c0.3,0.2,0.64,0.47,0.97,0.47c1.7,0,3.4-0.07,5.1-0.14
		c0.61-0.03,1.21-0.03,1.83-0.2c0.48-0.14,0.5-0.38,0.52-0.71c0.03-0.41,0.01-0.83,0.03-1.24c0.05-1.04,0.11-2.07,0.61-3.02
		c0.58-1.12,1.42-1.49,2.57-1c1.1,0.47,1.41,0.85,1.19,2.06c-0.03,0.16-0.09,0.32-0.13,0.48c-0.52,1.74-1.66,3.06-2.87,4.35
		c-1.21,1.29-2.76,2.11-4.18,3.12c-1.53,1.08-2.99,2.22-4.27,3.6c-0.81,0.87-1.39,1.85-1.75,2.97c-0.65,2.02-0.87,4.11-0.86,6.22
		c0,0.85-0.3,1.73,0.18,2.55c-0.13,0.53,0.25,0.72,0.61,0.94c0.35,0.21,0.68,0.47,1.01,0.71c0.35,0.25,0.69,0.51,1.06,0.73
		c0.39,0.24,0.63,0.19,0.95-0.15c0.45-0.48,0.9-0.97,1.36-1.45c0.3-0.32,0.54-0.35,0.88-0.12c-0.37,0.41-0.74,0.83-1.14,1.23
		c-0.18,0.18-0.45,0.27-0.67,0.42c-0.12,0.08-0.22,0.2-0.33,0.3c0.12,0.11,0.23,0.32,0.35,0.33c0.38,0.01,0.77-0.06,1.15-0.11
		c0.33-0.04,0.65-0.13,0.98-0.15c1.02-0.06,2.04-0.1,3.06-0.12c2.4-0.07,4.81-0.13,7.21-0.17c0.79-0.01,1.58,0.05,2.36,0.07
		c1.71,0.05,3.42,0.1,5.13,0.12C92,41.33,92.36,40.86,92.31,40.32"/>
	<path class="st12" d="M87.88,36.81c-0.04-0.35-0.07-0.7-0.1-1.06c-0.01-0.11-0.01-0.23,0.03-0.32c0.03-0.07,0.12-0.17,0.19-0.17
		c0.07,0,0.17,0.09,0.2,0.16c0.23,0.72,0.17,1.44,0.01,2.15c-0.02,0.08-0.15,0.13-0.23,0.19c-0.05-0.1-0.14-0.19-0.15-0.29
		c-0.01-0.22,0.01-0.44,0.02-0.66C87.85,36.81,87.86,36.81,87.88,36.81"/>
	<path class="st12" d="M67.33,15.36c-0.02-0.02-0.1-0.09-0.19-0.16c0.07-0.08,0.13-0.21,0.21-0.22c0.61-0.08,1.23-0.14,1.84-0.19
		c0.07-0.01,0.16,0.11,0.24,0.17c-0.08,0.08-0.15,0.22-0.24,0.23C68.6,15.26,68.01,15.3,67.33,15.36"/>
	<path class="st12" d="M67.63,14.36c-0.2,0-0.32,0.03-0.42-0.01c-0.08-0.04-0.16-0.15-0.18-0.24c-0.01-0.05,0.11-0.17,0.17-0.18
		c0.45-0.03,0.9-0.05,1.35-0.05c0.07,0,0.13,0.11,0.2,0.17c-0.06,0.06-0.12,0.17-0.19,0.18C68.23,14.3,67.88,14.33,67.63,14.36"/>
	<path class="st12" d="M86.81,36.86c0-0.19-0.02-0.39,0.01-0.57c0.01-0.08,0.13-0.21,0.2-0.21c0.08,0,0.22,0.12,0.22,0.19
		c0.02,0.42,0.01,0.85-0.01,1.28c0,0.05-0.15,0.15-0.21,0.14c-0.08-0.02-0.18-0.13-0.19-0.21c-0.03-0.2-0.01-0.41-0.01-0.62H86.81z"
		/>
	<path class="st12" d="M68.28,11.42c0.24,0.1,0.47,0.19,0.71,0.29c-0.22,0.09-0.44,0.18-0.67,0.26c-0.06,0.02-0.15,0.04-0.2,0.02
		c-0.15-0.07-0.29-0.17-0.44-0.26c0.14-0.08,0.27-0.16,0.41-0.23c0.04-0.02,0.11-0.01,0.16-0.01
		C68.26,11.46,68.27,11.44,68.28,11.42"/>
	<path class="st12" d="M86.35,37.02c-0.08,0.17-0.17,0.49-0.25,0.49c-0.36-0.01-0.33-0.32-0.33-0.59c0-0.08,0-0.18,0.04-0.24
		c0.08-0.12,0.19-0.22,0.29-0.32c0.05,0.13,0.11,0.25,0.15,0.38c0.02,0.08,0,0.16,0,0.25C86.3,36.99,86.32,37,86.35,37.02"/>
	<path class="st12" d="M68.6,13.11c-0.33,0.03-0.66,0.07-0.99,0.08c-0.06,0-0.14-0.12-0.17-0.19c-0.01-0.05,0.05-0.16,0.1-0.2
		C67.8,12.63,68.35,12.72,68.6,13.11"/>
	<path class="st12" d="M85.24,37.14c-0.12,0.19-0.21,0.33-0.3,0.47c-0.1-0.15-0.28-0.31-0.28-0.47c0-0.21,0.14-0.41,0.22-0.62
		C84.99,36.71,85.11,36.9,85.24,37.14"/>
	<path class="st12" d="M68.08,10.29c0.51,0.01,0.92-0.1,1.32,0.22c-0.35,0.28-0.7,0.24-1.04,0.18
		C68.27,10.68,68.21,10.49,68.08,10.29"/>
	<path class="st12" d="M83.52,37.33c0.01-0.21-0.02-0.35,0.03-0.39c0.09-0.07,0.22-0.07,0.34-0.1c0.04,0.31,0.07,0.61,0.11,0.92
		c-0.11,0-0.28,0.04-0.31-0.01C83.59,37.58,83.54,37.4,83.52,37.33"/>
	<path class="st12" d="M70.18,8.8c-0.23,0-0.42,0.03-0.6-0.01c-0.09-0.02-0.14-0.19-0.21-0.29c0.1-0.05,0.21-0.17,0.29-0.15
		C69.87,8.42,70.22,8.36,70.18,8.8"/>
	<path class="st12" d="M69.71,9.72c-0.27,0.01-0.48,0.05-0.69,0.02c-0.08-0.01-0.17-0.15-0.19-0.25c-0.01-0.04,0.14-0.18,0.21-0.17
		C69.28,9.35,69.57,9.29,69.71,9.72"/>
	<text transform="matrix(1 0 0 1 124.9746 41.6796)" class="st13 st14 st15"> </text>
</g>
</svg>
