<?xml version="1.0" encoding="utf-8"?>
<!-- Generator: Adobe Illustrator 25.4.1, SVG Export Plug-In . SVG Version: 6.00 Build 0)  -->
<svg version="1.1" id="Layer_1" xmlns="http://www.w3.org/2000/svg" xmlns:xlink="http://www.w3.org/1999/xlink" x="0px" y="0px"
	 viewBox="0 0 113.37 106.21" style="enable-background:new 0 0 113.37 106.21;" xml:space="preserve">
<style type="text/css">
	.st0{clip-path:url(#SVGID_00000136396724727936855940000008226616947578589583_);fill:#328612;}
	.st1{clip-path:url(#SVGID_00000000936083856474616340000012778801183272584377_);fill:#338712;}
	.st2{clip-path:url(#SVGID_00000078761769349894122860000005331851450714033812_);fill:#338712;}
	.st3{clip-path:url(#SVGID_00000080170493842457808600000000508865798044159924_);fill:#338712;}
	.st4{clip-path:url(#SVGID_00000016796231924061528940000001772822076826304684_);fill:#338712;}
	.st5{clip-path:url(#SVGID_00000137115711379838513490000000812245053990202780_);fill:#338712;}
	.st6{clip-path:url(#SVGID_00000116939072683128737950000000714451658129691549_);fill:#328612;}
	.st7{clip-path:url(#SVGID_00000056390854404262008140000018122066555181978762_);fill:#328612;}
	.st8{clip-path:url(#SVGID_00000106123052921736525280000016684873580446605726_);fill:#328612;}
	.st9{clip-path:url(#SVGID_00000046316561949215391620000011347244085663028391_);fill:#328612;}
	.st10{clip-path:url(#SVGID_00000021798134005239939550000004158116781310716836_);fill:#328612;}
	.st11{clip-path:url(#SVGID_00000140696237327925966080000011884930143097093286_);fill:#328612;}
	.st12{fill:#328612;}
</style>
<g>
	<defs>
		<rect id="SVGID_00000011030020551180042610000010505983329020367267_" x="9.42" y="-0.95" width="94.53" height="106.21"/>
	</defs>
	<clipPath id="SVGID_00000132073768168216380500000017373095770492652436_">
		<use xlink:href="#SVGID_00000011030020551180042610000010505983329020367267_"  style="overflow:visible;"/>
	</clipPath>
	<path style="clip-path:url(#SVGID_00000132073768168216380500000017373095770492652436_);fill:#338712;" d="M95.49,86.02
		c-0.15-0.65-0.32-1.24-0.73-1.8c-0.45-0.6-1.14-0.96-1.76-1.36c-0.64-0.41-1.72,0.75-1,1.21c0.54,0.35,1.1,0.64,1.51,1.14
		c0.43,0.52,0.5,1.18,0.65,1.81c0,0.01,0.01,0.01,0.01,0.03c-0.66,0.51-1.34,1.01-2,1.52c-0.48-0.89-0.94-1.72-1.69-2.43
		c-0.89-0.83-2.02-1.29-3.1-1.81c-0.77-0.37-1.21,1.15-0.52,1.48c0.9,0.43,1.84,0.8,2.62,1.43c0.75,0.59,1.17,1.36,1.61,2.17
		c-0.87,0.67-1.71,1.36-2.47,2.08c-0.18-0.07-0.36-0.13-0.53-0.21c-1.07-0.47-1.68-1.57-2.35-2.46c-0.9-1.2-1.97-2.25-3.03-3.31
		c-0.53-0.53-1.89,0.2-1.24,0.86c1.25,1.25,2.48,2.49,3.47,3.96c0.71,1.06,1.63,1.68,2.69,2.15c-0.84,0.9-1.63,1.79-2.39,2.65
		c-0.21-0.28-0.42-0.56-0.67-0.82c-0.57-0.58-1.25-0.98-1.94-1.41c-0.64-0.39-1.88,0.54-1.1,1.03c0.66,0.41,1.29,0.78,1.84,1.34
		c0.31,0.32,0.56,0.68,0.81,1.05c-2.06,2.28-4.08,4.24-6.83,5.36c0.61-6.63,1.43-13.12-0.04-19.73c-0.86-3.86,3.21-2.5,4.53-2.23
		c2.29,0.47,4.6,0.59,6.93,0.65c3.26,0.08,6.5-0.46,9.72-0.86c1.36-0.17,2.05-2.37,0.32-2.16c-4.49,0.55-8.76,1.03-13.31,0.63
		c-3.39-0.3-7.16-2.27-9.91,0.62c-1.07,1.13-0.99,2.63-0.79,4.05c0.49,3.48,1.08,6.71,0.87,10.27c-0.19,3.17-0.57,6.33-0.85,9.5
		c-0.91,0.17-1.9,0.27-2.98,0.27c-9.28,0-18.47-0.63-27.74-1.07c-5.22-0.25-10.42,0.25-15.61,0.64c-6.03,0.46-3.15-13.96-3.04-16.78
		c0.36-8.63,0.11-17.31,0.11-25.95c0-10.03,1.64-20.07,0.94-30.09c-0.29-4.15-2.38-12.48,4.46-12.88c4.65-0.27,9.31-0.61,13.97-0.75
		c9.18-0.28,18.43,0.45,27.6,0.8c8.46,0.32,16.63-0.6,25-1.66c5.34-0.68,2.75,13.46,2.67,15.94c-0.18,5.25,0.2,10.51,0.45,15.75
		c0.49,10.16,0.66,20.3,0.66,30.47C100.88,80.96,98.41,83.64,95.49,86.02 M103.25,23.62c0.26-3.74,1.02-6.96-1.93-9.74
		c-2.31-2.18-8.31-0.37-10.88-0.04C81.18,15,72.17,14.6,62.89,14.24c-8.74-0.33-17.37-0.54-26.12-0.03c-2.73,0.16-7.36-0.4-9.86,1.1
		c-4.51,2.7-3.6,6.85-3.28,11.42c0.75,10.71-0.66,21.26-0.75,31.97c-0.06,7.16,0,14.33,0,21.49c0,3.05-0.13,6.1-0.32,9.14
		c-0.22-0.14-0.49-0.24-0.8-0.24c-1.93,0-8.24,1.16-8.33-1.58c-0.11-3.36-0.22-6.72-0.33-10.08c-0.28-8.42-0.55-16.84-0.83-25.26
		c-0.46-13.84,2.85-27.39,1.91-41.31c-0.13-1.89-1.78-8.81,1.07-8.61c4.29,0.31,8.58,0.61,12.87,0.92
		c6.49,0.46,13.19-0.5,19.66-0.95C55.3,1.72,62.9,0.8,70.44,0.82c4.11,0.01,8.27,0.56,12.37,0.86c5.05,0.36,3.85,3.88,3.85,8.23
		c0,1.34,2.62,1.72,2.62,0.42c0-2.35,1.05-7.31-0.86-9.28c-2.11-2.19-7.53-1.5-10.16-1.69c-6.64-0.48-12.91-0.36-19.55,0.09
		c-8.62,0.59-17.24,1.18-25.86,1.78c-3.51,0.24-7.05-0.19-10.55-0.44c-3.01-0.22-7.43-1.45-10.3,0.06C10.11,1.84,11.3,6.99,11.4,8.4
		c0.31,4.69,0.92,9.47,0.65,14.18c-0.46,7.89-1.45,15.78-2.17,23.64c-1.26,13.77,0.51,28.14,0.97,41.94
		c0.15,4.47,8.9,2.94,11.32,2.94c0.12,0,0.2-0.03,0.3-0.05c-0.12,1.79-0.25,3.58-0.37,5.37c-0.32,4.38,1.05,7.4,5.76,7.81
		c4.03,0.35,8.5-0.62,12.56-0.68c4.92-0.07,9.85,0.41,14.76,0.72c7.17,0.46,20.41,2.79,26.71-2c5.02-3.82,8.18-9.58,13.24-13.5
		c4.42-3.42,8.19-5.62,8.84-11.71C103.95,59.3,102.04,41.35,103.25,23.62"/>
	<path style="clip-path:url(#SVGID_00000132073768168216380500000017373095770492652436_);fill:#338712;" d="M83.24,48.49
		c-5.73-0.6-11.26-1.51-17-0.97c-6.86,0.65-13.67,1.41-20.5,2.28c-1.25,0.16-2.16,2.5-0.53,2.29c6.03-0.77,12.04-1.48,18.1-2.05
		c6.48-0.61,12.33,0.02,18.83,0.7C83.37,50.87,84.74,48.65,83.24,48.49"/>
	<path style="clip-path:url(#SVGID_00000132073768168216380500000017373095770492652436_);fill:#338712;" d="M45.46,38.52
		c6.63-1.32,11.85-1.85,18.59-1.56c6.12,0.26,12.23,0.57,18.35,0.88c1.25,0.06,2.21-2.34,0.67-2.42c-6.12-0.3-12.23-0.61-18.35-0.88
		c-7-0.3-12.26,0.26-19.16,1.63C44.29,36.42,43.83,38.85,45.46,38.52"/>
	<path style="clip-path:url(#SVGID_00000132073768168216380500000017373095770492652436_);fill:#338712;" d="M65.03,61.24
		c-6.65,0.36-12.69,0.37-19.31-0.26c-1.27-0.12-2,2.42-0.58,2.55c6.62,0.63,12.66,0.61,19.31,0.26
		C65.72,63.73,66.42,61.17,65.03,61.24"/>
</g>
</svg>
