<?xml version="1.0" encoding="utf-8"?>
<!-- Generator: Adobe Illustrator 25.4.1, SVG Export Plug-In . SVG Version: 6.00 Build 0)  -->
<svg version="1.1" id="Layer_1" xmlns="http://www.w3.org/2000/svg" xmlns:xlink="http://www.w3.org/1999/xlink" x="0px" y="0px"
	 viewBox="0 0 116.21 42.15" style="enable-background:new 0 0 116.21 42.15;" xml:space="preserve">
<style type="text/css">
	.st0{clip-path:url(#SVGID_00000111159834604552071000000014847231578694969022_);fill:#328612;}
	.st1{clip-path:url(#SVGID_00000003818543862079939010000005257765292777331075_);fill:#338712;}
	.st2{clip-path:url(#SVGID_00000060748141989007917350000012850189578811121563_);fill:#338712;}
	.st3{clip-path:url(#SVGID_00000071551266126481634140000002702665998144018311_);fill:#338712;}
	.st4{clip-path:url(#SVGID_00000114054129556355088720000011846723557015730569_);fill:#338712;}
	.st5{clip-path:url(#SVGID_00000021842308939265328300000005469047882715247767_);fill:#338712;}
	.st6{clip-path:url(#SVGID_00000080177984649107528560000007279679288061007246_);fill:#328612;}
	.st7{clip-path:url(#SVGID_00000051381816271255268390000017347567803006905783_);fill:#328612;}
	.st8{clip-path:url(#SVGID_00000149383607191256114070000012614524194104472715_);fill:#328612;}
	.st9{clip-path:url(#SVGID_00000031928890729771371380000010281251892754123656_);fill:#328612;}
	.st10{clip-path:url(#SVGID_00000022519848952645158070000007149621670531663778_);fill:#328612;}
	.st11{clip-path:url(#SVGID_00000176726821776360623000000009983492494670178436_);fill:#328612;}
	.st12{fill:#328612;}
</style>
<g>
	<path class="st12" d="M26.86,38.47c0.32-0.23,0.6-0.53,0.9-0.79c0.01-0.01,0.03,0,0.11,0.01c0,0.24,0.04,0.47-0.01,0.68
		c-0.04,0.17-0.18,0.32-0.29,0.46c-0.07,0.09-0.23,0.12-0.27,0.22c-0.06,0.13-0.06,0.29-0.08,0.43c0.14,0.01,0.28,0.04,0.42,0.04
		c0.05,0,0.1-0.04,0.2-0.09v0.76c-0.51-0.43-0.96-0.83-1.43-1.2c-0.31-0.24-0.6-0.49-0.58-0.93c0.01-0.1,0.06-0.22,0.13-0.29
		c0.52-0.52,1.05-1.02,1.58-1.53c0.08-0.08,0.16-0.17,0.25-0.26c0.22,0.7,0.12,0.96-0.4,1.34c-0.33,0.23-0.65,0.48-0.93,0.76
		c-0.1,0.1-0.08,0.32-0.12,0.49C26.51,38.53,26.73,38.56,26.86,38.47 M25.7,40.67c0.15-0.37,0.26-0.65,0.38-0.93
		c0.73,0.07,0.12,0.75,0.48,1.03C26.3,40.74,26.04,40.71,25.7,40.67 M26.83,33.42c0.19,0.16,0.34,0.28,0.53,0.43
		c-0.55,0.53-1.06,1.04-1.62,1.58C25.44,34.38,26.54,34.16,26.83,33.42 M24.96,40.65c-0.11,0.15-0.5,0.1-0.87,0.15
		c0.26-0.54,0.4-1.01,0.68-1.36c0.15-0.19,0.54-0.19,0.82-0.28c0.03,0.05,0.06,0.1,0.1,0.15C25.45,39.77,25.26,40.25,24.96,40.65
		 M22.54,40.75c-0.02-0.05-0.04-0.09-0.06-0.14c0.27-0.46,0.5-0.97,0.84-1.37c0.14-0.16,0.55-0.08,0.95-0.12
		c-0.31,0.56-0.52,1.08-0.85,1.47C23.27,40.76,22.84,40.7,22.54,40.75 M21.76,40.53c-0.28,0.22-0.83,0.09-1.26,0.11
		c-0.02-0.04-0.03-0.09-0.05-0.14c0.35-0.47,0.63-1.01,1.07-1.37c0.25-0.2,0.75-0.07,1.26-0.1C22.4,39.61,22.17,40.19,21.76,40.53
		 M19.73,40.46c-0.19,0.18-0.63,0.08-0.99,0.12c0.57-1.4,0.86-1.6,1.98-1.46C20.39,39.57,20.13,40.08,19.73,40.46 M17.15,40.57
		c-0.31,0.01-0.61,0-0.95,0c0.59-0.99,1.26-1.74,2.53-1.34C18.57,39.89,17.81,40.55,17.15,40.57 M14.14,40.61
		c0.23-0.3,0.49-0.58,0.69-0.9c0.39-0.63,0.95-0.52,1.54-0.45C15.86,40.28,14.82,40.9,14.14,40.61 M13.12,40.66
		c-0.23,0.18-0.65,0.09-1.01,0.07c0.57-0.68,0.96-1.61,2.12-1.31C13.86,39.85,13.55,40.33,13.12,40.66 M11.42,40.41
		c-0.44,0.7-1.06,0.49-1.72,0.42c0.26-0.27,0.51-0.54,0.77-0.82c0.17-0.18,0.32-0.38,0.48-0.56c0.05-0.05,0.11-0.11,0.17-0.11
		c0.39-0.01,0.78-0.01,1.18-0.01c0.03,0.06,0.06,0.11,0.09,0.17C12.05,39.81,11.64,40.05,11.42,40.41 M9.02,40.72
		C8.75,40.94,8.29,40.91,7.91,41c-0.02-0.05-0.05-0.11-0.07-0.16c0.11-0.13,0.22-0.26,0.34-0.38c0.24-0.26,0.46-0.54,0.71-0.78
		c0.12-0.11,0.29-0.22,0.44-0.25c0.33-0.06,0.67-0.06,0.91-0.08C9.86,39.79,9.5,40.33,9.02,40.72 M25.67,32.44
		c0.24,0.19,0.49,0.39,0.78,0.62c-0.28,0.25-0.49,0.43-0.81,0.71c-0.04-0.52-0.07-0.9-0.09-1.28
		C25.59,32.48,25.63,32.46,25.67,32.44 M27.69,34.3c0.18,0.53,0.15,0.91-0.25,1.26c-0.54,0.47-1.02,1.03-1.52,1.55
		c-0.05-0.02-0.1-0.03-0.16-0.05c0.02-0.19-0.03-0.44,0.07-0.56C26.43,35.74,27.06,35.02,27.69,34.3 M5.34,40.71
		c-0.07,0.07-0.25,0.08-0.34,0.04c-0.23-0.11-0.43-0.26-0.64-0.39c0.58-1.15,1.13-1.39,2.34-1.07C6.24,39.77,5.8,40.25,5.34,40.71
		 M3.11,39.26c0.47-0.05,0.85-0.09,1.26-0.14C4.05,39.89,3.75,39.93,3.11,39.26 M15.42,10.06c0.22,0.29,0.39,0.52,0.61,0.83
		C15.48,10.84,15.35,10.58,15.42,10.06 M14.72,10.02c-0.3-0.29-0.53-0.5-0.82-0.78C14.61,9.26,14.77,9.41,14.72,10.02 M9.67,11.77
		c-0.03-0.04-0.05-0.07-0.08-0.1c0.19-0.35,0.38-0.69,0.58-1.03c0.04-0.07,0.16-0.12,0.25-0.13c0.41-0.04,0.82-0.05,1.23-0.11
		c0.51-0.06,0.97,0.03,1.5,0.37C11.93,11.12,10.8,11.44,9.67,11.77 M9.39,13.91c-0.05-0.01-0.1-0.03-0.15-0.04
		c0.03-0.51,0.06-1.02,0.08-1.41c1.11-0.31,2.1-0.58,3.16-0.88C11.95,13.11,10.45,13.2,9.39,13.91 M10.14,15.34
		c-0.31-0.29-0.57-0.52-0.83-0.76c0.79-0.37,1.56-0.74,2.43-1.15C11.57,14.48,10.58,14.64,10.14,15.34 M11.46,16.68
		c-0.05,0.02-0.09,0.05-0.14,0.07c-0.24-0.25-0.48-0.5-0.7-0.77c-0.04-0.05-0.03-0.19,0.01-0.24c0.25-0.26,0.51-0.51,0.83-0.83
		V16.68z M9.32,17.43c0.21-0.35,0.4-0.68,0.67-1.11c0.34,0.4,0.62,0.74,0.92,1.11H9.32z M8.32,17.57c-0.33,0.04-0.67,0.04-1,0.06
		c-0.03-0.05-0.07-0.09-0.1-0.13c0.23-0.37,0.47-0.74,0.7-1.12c0.23-0.37,0.46-0.75,0.75-1.23c0.21-0.03,0.85,0.36,0.9,0.67
		c0.02,0.11-0.08,0.24-0.15,0.35c-0.27,0.4-0.55,0.81-0.83,1.2C8.53,17.46,8.42,17.56,8.32,17.57 M6.43,17.71
		c-0.29,0.03-0.58,0.01-1,0.01c0.34-0.46,0.61-0.82,0.88-1.18c0.25-0.33,0.58-0.61,0.77-0.97c0.21-0.39,0.47-0.48,0.94-0.36
		c-0.29,0.39-0.57,0.71-0.79,1.08c-0.22,0.38-0.36,0.8-0.55,1.19C6.63,17.57,6.52,17.7,6.43,17.71 M3.62,17.6
		c0.51-0.65,0.97-1.28,1.47-1.87c0.52-0.62,0.63-0.64,1.58-0.52c-0.24,0.3-0.44,0.54-0.63,0.77c-0.4,0.49-0.81,0.98-1.21,1.48
		C4.6,17.73,4.42,17.77,3.62,17.6 M1.87,16.44c-0.27-0.32-0.49-0.59-0.78-0.94c0.59-0.08,1.09-0.14,1.59-0.21
		c0.02,0.04,0.05,0.09,0.07,0.13C2.47,15.75,2.18,16.08,1.87,16.44 M14.34,30.83c-0.18,0.61-0.22,0.62-0.97,0.51
		c0.1-0.49,0.19-0.97,0.31-1.45c0.07-0.29,0.2-0.56,0.26-0.85c0.13-0.63,0.55-0.98,1.22-1.24c-0.19,0.58-0.38,1.07-0.52,1.58
		C14.51,29.85,14.47,30.35,14.34,30.83 M12.78,31.4c-0.25-0.05-0.59-0.11-0.93-0.18c0.13-0.87,0.89-2.03,1.65-2.49
		c-0.17,0.46-0.35,0.87-0.47,1.31C12.91,30.46,12.87,30.89,12.78,31.4 M16.83,26.86c-0.38,0.9-0.26,2-1.39,2.42
		C15.36,28.22,15.93,27.16,16.83,26.86 M18.65,25.73c-0.18,0.62-0.3,1.26-0.58,1.83c-0.13,0.27-0.56,0.38-0.94,0.62
		C17.28,27.07,17.42,26.09,18.65,25.73 M19.09,26.4c0.14-0.48,0.29-0.96,0.45-1.44c0.05-0.14,0.17-0.27,0.28-0.37
		c0.29-0.27,0.59-0.52,0.88-0.78c0.04,0.02,0.07,0.03,0.11,0.05c-0.07,0.46-0.14,0.92-0.22,1.38c-0.06,0.38-0.13,0.75-0.21,1.13
		c-0.02,0.1-0.08,0.24-0.16,0.29c-0.39,0.22-0.8,0.42-1.2,0.62c-0.04-0.03-0.08-0.06-0.12-0.09C18.96,26.92,19.01,26.66,19.09,26.4
		 M21.3,24.58c0.06-0.42,0.06-0.85,0.1-1.28c0.01-0.11,0.03-0.24,0.1-0.32c0.27-0.31,0.56-0.6,0.84-0.9
		c0.04,0.01,0.08,0.03,0.12,0.04c-0.03,0.33-0.06,0.66-0.09,1c-0.07,0.66-0.14,1.32-0.23,1.98c-0.02,0.16-0.09,0.35-0.2,0.45
		c-0.25,0.22-0.54,0.39-0.92,0.65C21.13,25.58,21.24,25.08,21.3,24.58 M23.41,20.61c0.71,0.81,0.12,1.91,0.71,2.75
		c-0.42,0.39-0.86,0.79-1.41,1.3C23.02,23.27,22.9,21.89,23.41,20.61 M24.38,18.98c0.72,0.8,0.94,1.71,0.9,2.75
		c-0.02,0.59-0.18,1.02-0.79,1.31c-0.03-0.19-0.07-0.37-0.1-0.54c-0.13-0.78-0.21-1.58-0.4-2.34
		C23.87,19.65,24.23,19.38,24.38,18.98 M24.97,17.27c1.43,1.05,1.82,3.2,0.97,3.91c-0.1-0.46-0.17-0.91-0.31-1.32
		c-0.12-0.35-0.27-0.72-0.51-0.98C24.62,18.36,24.69,17.83,24.97,17.27 M24.63,8.25c0-0.01,0.01-0.02,0.05-0.08
		c0.89,0.19,1.53,0.8,2.23,1.32c-0.02,0.03-0.04,0.07-0.05,0.1c-0.55-0.22-1.09-0.48-1.65-0.66C24.83,8.81,24.65,8.62,24.63,8.25
		 M23.91,6.91c0.04-0.03,0.08-0.07,0.12-0.1c1.28,0.09,1.96,0.49,2.22,1.32c-0.59-0.24-1.25-0.48-1.9-0.77
		C24.17,7.27,24.06,7.06,23.91,6.91 M23.17,5.53c0.6,0.03,1.18,0.08,1.53,0.67C24.18,6.01,23.53,6.09,23.17,5.53 M21.88,4.19
		c-0.38-0.43-0.9-0.75-1.36-1.11c1.06,0.4,2.06,0.9,2.95,1.73C22.79,4.82,22.31,4.67,21.88,4.19 M27.4,12.35
		c-0.54-0.48-1.01-1.08-1.63-1.4c-0.62-0.32-0.51-0.83-0.72-1.3C26.65,9.73,27.61,10.89,27.4,12.35 M27.35,15.6
		c-0.09-0.21-0.15-0.32-0.19-0.44c-0.26-0.72-0.59-1.39-1.33-1.76c-0.13-0.07-0.26-0.26-0.28-0.41c-0.04-0.44-0.01-0.88-0.01-1.37
		C26.63,12.21,27.85,13.63,27.35,15.6 M25.42,13.83c0.97,0.48,1.13,1.33,1.47,2.15c-0.51-0.42-1.01-0.75-1.4-1.18
		C25.35,14.62,25.45,14.23,25.42,13.83 M26.89,18.7c-0.54-0.72-1.12-1.42-1.61-2.19c-0.15-0.23-0.02-0.63-0.02-0.99
		C26.38,16.15,27.58,17.53,26.89,18.7 M28.55,40.46c-0.03-0.29-0.05-0.59-0.05-0.89c-0.01-1.66,0-3.33-0.01-4.99
		c0-0.17,0-0.39-0.1-0.51c-0.33-0.41-0.68-0.81-1.06-1.17c-0.57-0.54-1.17-1.05-1.76-1.57c-0.09-0.07-0.26-0.19-0.29-0.17
		c-0.31,0.29-0.58-0.03-0.86-0.03c-1.6,0.02-3.21,0.04-4.81,0.05c-1.51,0.01-3.02,0-4.63,0c0.1-0.22,0.16-0.49,0.32-0.65
		c0.48-0.46,0.95-0.95,1.51-1.3c0.87-0.53,1.79-0.99,2.71-1.42c1.19-0.55,2.31-1.23,3.3-2.07c0.92-0.79,1.73-1.7,2.59-2.56
		c0.17-0.17,0.3-0.37,0.44-0.56c1.55-2.27,2.12-4.85,2.25-7.53c0.07-1.37,0.06-2.77-0.13-4.13c-0.33-2.34-1.61-4.23-3.21-5.93
		c-1.42-1.51-3.15-2.49-5.1-3.12c-1.11-0.36-2.24-0.66-3.33-1.09c-3.4-1.33-6.75-1.07-9.81,0.77c-3.45,2.08-5.56,5.24-6.25,9.26
		c-0.16,0.91-0.16,1.86-0.19,2.79c-0.01,0.2,0.17,0.4,0.26,0.59c0.08-0.2,0.19-0.39,0.22-0.6c0.04-0.26,0.01-0.53,0-0.8
		c-0.03-1.6,0.53-3.06,1.06-4.52c0.53-1.44,1.44-2.65,2.43-3.79C4.52,4.02,5.1,3.61,5.62,3.15c2.11-1.83,4.61-2.5,7.35-2.36
		c1.85,0.1,3.49,0.87,5.1,1.72c2.58,1.37,4.8,3.08,5.84,5.95c0.62,1.7,1.13,3.41,0.91,5.25c-0.09,0.79-0.12,1.6-0.27,2.38
		c-0.15,0.78-0.33,1.57-0.63,2.31c-0.74,1.85-1.98,3.35-3.44,4.7c-1.31,1.21-2.61,2.42-4.22,3.24c-1.11,0.57-2.17,1.22-3.25,1.86
		c-1.11,0.66-1.62,1.73-1.95,2.91c-0.04,0.13-0.02,0.39,0.06,0.43c0.33,0.19,0.68,0.45,1.03,0.46c0.99,0.03,1.98-0.06,2.97-0.08
		c1.85-0.04,3.71-0.07,5.57-0.08c0.92-0.01,1.84,0,2.75,0.02c0.48,0.01,0.96,0.04,1.45,0.06c0.07,2.22,0.13,4.36,0.2,6.52
		c-0.06,0-0.13,0.01-0.2,0.02c-1.88,0.01-3.77,0-5.65,0.04c-2.12,0.05-4.24,0.16-6.36,0.22c-1.17,0.03-2.34,0.03-3.52,0.03
		c-1.26,0-2.51-0.03-3.73-0.41c-0.1-0.03-0.23,0.01-0.34,0.03c-0.22,0.04-0.43,0.12-0.64,0.14c-0.71,0.04-1.42,0.07-2.14,0.09
		c-0.12,0.01-0.25-0.02-0.4-0.03c0.07-0.22,0.15-0.38,0.17-0.56c0.03-0.21,0-0.42,0-0.62c0.01-2.03,0.02-4.07,0.44-6.07
		c0.24-1.13,0.39-2.32,1.1-3.26c0.76-1,1.61-1.95,2.5-2.83c1.41-1.39,3.09-2.45,4.74-3.54c1.98-1.31,3.79-2.82,5.1-4.84
		c0.64-0.98,1.12-2.05,1.22-3.22c0.16-1.98-0.85-3.45-2.27-4.69c-0.14-0.12-0.33-0.21-0.52-0.26c-2.12-0.57-3.9-0.19-5.19,1.67
		c-0.75,1.08-0.82,2.33-0.8,3.59c0,0.38-0.07,0.51-0.48,0.52c-1.94,0.04-3.89,0.1-5.83,0.19c-0.62,0.03-1.24,0.15-1.84,0.28
		c-0.19,0.04-0.4,0.23-0.47,0.41c-0.04,0.09,0.19,0.31,0.32,0.45c0.27,0.27,0.57,0.52,0.83,0.79c0.39,0.41,0.74,0.85,1.13,1.26
		c0.09,0.09,0.25,0.11,0.38,0.16c0.05-0.14,0.17-0.32,0.13-0.42c-0.09-0.24-0.27-0.44-0.42-0.67c0.32-0.44,0.65-0.89,0.99-1.34
		c0.36-0.47,0.69-0.53,1.31-0.27c-0.09,0.12-0.17,0.24-0.26,0.36C4,16.2,3.57,16.73,3.17,17.29c-0.11,0.15-0.19,0.51-0.13,0.54
		c0.32,0.21,0.69,0.51,1.05,0.51c1.83,0,3.65-0.07,5.47-0.15c0.66-0.03,1.3-0.03,1.97-0.22c0.51-0.15,0.53-0.41,0.55-0.76
		c0.03-0.44,0.01-0.89,0.03-1.34c0.05-1.12,0.12-2.23,0.65-3.25c0.63-1.2,1.53-1.6,2.76-1.07c1.18,0.51,1.52,0.92,1.28,2.21
		c-0.03,0.17-0.09,0.34-0.14,0.51c-0.56,1.87-1.79,3.28-3.08,4.67c-1.3,1.39-2.97,2.27-4.49,3.35c-1.64,1.16-3.21,2.38-4.59,3.86
		c-0.87,0.93-1.49,1.98-1.88,3.19c-0.7,2.17-0.94,4.42-0.92,6.68c0,0.91-0.32,1.86,0.19,2.74c-0.14,0.57,0.26,0.78,0.66,1.01
		c0.38,0.23,0.73,0.51,1.09,0.76c0.38,0.26,0.74,0.54,1.13,0.78c0.42,0.26,0.68,0.2,1.02-0.16c0.49-0.52,0.97-1.04,1.45-1.56
		c0.32-0.34,0.58-0.37,0.94-0.13c-0.4,0.44-0.79,0.9-1.23,1.32c-0.2,0.19-0.48,0.29-0.72,0.46c-0.13,0.09-0.24,0.21-0.35,0.32
		c0.12,0.12,0.25,0.35,0.38,0.35c0.41,0.01,0.82-0.06,1.24-0.12c0.35-0.05,0.7-0.14,1.05-0.16c1.09-0.06,2.19-0.1,3.28-0.13
		c2.58-0.07,5.16-0.14,7.75-0.18c0.85-0.01,1.69,0.05,2.54,0.08c1.84,0.05,3.68,0.1,5.52,0.13C28.22,41.55,28.62,41.04,28.55,40.46"
		/>
	<path class="st12" d="M23.79,36.69c-0.04-0.38-0.08-0.76-0.11-1.14c-0.01-0.12-0.01-0.24,0.03-0.35c0.03-0.08,0.13-0.18,0.21-0.19
		c0.07,0,0.19,0.1,0.21,0.17c0.25,0.77,0.18,1.54,0.01,2.31c-0.02,0.08-0.16,0.14-0.25,0.2c-0.06-0.1-0.15-0.2-0.16-0.31
		c-0.02-0.23,0.01-0.47,0.02-0.71C23.77,36.7,23.78,36.69,23.79,36.69"/>
	<path class="st12" d="M1.73,13.65c-0.02-0.02-0.11-0.1-0.2-0.18c0.07-0.08,0.14-0.22,0.22-0.23c0.66-0.08,1.32-0.15,1.98-0.2
		c0.08-0.01,0.17,0.12,0.26,0.18c-0.09,0.09-0.17,0.24-0.26,0.25C3.09,13.55,2.46,13.59,1.73,13.65"/>
	<path class="st12" d="M2.05,12.58c-0.22,0-0.35,0.03-0.45-0.01c-0.09-0.04-0.17-0.16-0.19-0.25c-0.01-0.05,0.11-0.19,0.18-0.19
		c0.48-0.03,0.97-0.05,1.45-0.05c0.07,0,0.14,0.12,0.22,0.18c-0.07,0.07-0.13,0.18-0.2,0.19C2.69,12.51,2.32,12.55,2.05,12.58"/>
	<path class="st12" d="M22.65,36.74c0-0.21-0.02-0.41,0.01-0.61c0.01-0.09,0.14-0.22,0.21-0.22c0.09,0,0.24,0.13,0.24,0.2
		c0.02,0.46,0.01,0.91-0.01,1.37c0,0.06-0.16,0.17-0.23,0.15c-0.09-0.02-0.19-0.14-0.21-0.22c-0.03-0.22-0.01-0.44-0.01-0.67H22.65z
		"/>
	<path class="st12" d="M2.75,9.42C3,9.52,3.25,9.62,3.51,9.73c-0.24,0.1-0.48,0.19-0.72,0.28c-0.07,0.02-0.16,0.04-0.22,0.02
		C2.41,9.95,2.26,9.84,2.1,9.75C2.25,9.66,2.39,9.58,2.54,9.5c0.05-0.02,0.12-0.01,0.17-0.01C2.73,9.47,2.74,9.44,2.75,9.42"/>
	<path class="st12" d="M22.16,36.91c-0.09,0.18-0.18,0.53-0.27,0.52c-0.38-0.02-0.36-0.35-0.35-0.63c0-0.09,0-0.19,0.04-0.26
		c0.09-0.13,0.21-0.23,0.32-0.35c0.06,0.14,0.12,0.27,0.16,0.41c0.02,0.08,0,0.18,0,0.26C22.1,36.89,22.13,36.9,22.16,36.91"/>
	<path class="st12" d="M3.08,11.23c-0.36,0.03-0.71,0.07-1.07,0.08c-0.06,0-0.15-0.12-0.18-0.21c-0.02-0.06,0.05-0.17,0.11-0.21
		C2.23,10.72,2.82,10.82,3.08,11.23"/>
	<path class="st12" d="M20.96,37.04c-0.13,0.21-0.23,0.36-0.32,0.51c-0.11-0.17-0.3-0.33-0.3-0.5c0-0.22,0.15-0.45,0.23-0.67
		C20.7,36.59,20.82,36.79,20.96,37.04"/>
	<path class="st12" d="M2.53,8.21C3.08,8.21,3.51,8.1,3.94,8.44c-0.37,0.3-0.75,0.26-1.12,0.2C2.73,8.62,2.67,8.42,2.53,8.21"/>
	<path class="st12" d="M19.11,37.25c0.01-0.23-0.02-0.38,0.03-0.42c0.09-0.07,0.24-0.08,0.36-0.11c0.04,0.33,0.08,0.66,0.12,0.98
		c-0.11,0-0.3,0.04-0.33-0.01C19.19,37.52,19.14,37.32,19.11,37.25"/>
	<path class="st12" d="M4.79,6.61c-0.24,0-0.45,0.04-0.64-0.01c-0.1-0.02-0.15-0.2-0.22-0.31c0.1-0.06,0.23-0.18,0.31-0.16
		C4.46,6.2,4.83,6.13,4.79,6.61"/>
	<path class="st12" d="M4.28,7.59C3.99,7.61,3.76,7.64,3.54,7.61C3.46,7.6,3.36,7.45,3.33,7.35C3.32,7.31,3.48,7.16,3.56,7.17
		C3.82,7.19,4.13,7.13,4.28,7.59"/>
	<path class="st12" d="M90.72,19.38c-0.5,0.43-0.81,1.1-1.2,1.67c-0.11,0.16-0.24,0.32-0.36,0.49c-0.06-0.01-0.12-0.02-0.18-0.03
		c0-0.39,0-0.77,0-1.16c0-0.05,0.01-0.11,0.04-0.13c0.91-0.73,1.22-1.91,2.09-2.72C91.08,18.13,91.42,18.78,90.72,19.38
		 M91.13,21.71c0,0.04-0.02,0.11-0.05,0.12c-0.83,0.38-1.04,1.29-1.6,1.9c-0.13,0.15-0.25,0.3-0.38,0.45
		c-0.04-0.02-0.08-0.04-0.12-0.06c0.15-0.61-0.11-1.24,0.42-1.84c0.61-0.7,1.06-1.54,1.58-2.32c0.05,0.01,0.1,0.02,0.15,0.02
		C91.13,20.56,91.13,21.13,91.13,21.71 M90.77,24.44c-0.5,0.68-1,1.37-1.5,2.05c-0.1,0.14-0.18,0.3-0.27,0.45
		c-0.07-0.05-0.14-0.1-0.2-0.15c0.02-0.38-0.01-0.77,0.08-1.14c0.06-0.24,0.29-0.43,0.44-0.64c0.46-0.67,0.93-1.34,1.39-2.01
		c0.07-0.1,0.13-0.21,0.26-0.27C91.07,23.34,91.15,23.91,90.77,24.44 M90.67,26.84c-0.6,0.68-1.2,1.36-1.8,2.04
		c-0.09,0.1-0.16,0.23-0.23,0.35c-0.05-0.04-0.09-0.08-0.14-0.11c0.06-0.61,0.15-1.15,0.69-1.64c0.64-0.58,1.12-1.33,1.66-2
		C91,25.75,90.92,26.56,90.67,26.84 M90.49,28.57c-0.91,1.25-1.85,2.47-2.82,3.68c0.19-0.97,0.54-1.83,1.3-2.52
		c0.6-0.55,1.07-1.25,1.59-1.89c0.04,0.01,0.09,0.03,0.13,0.04C90.62,28.11,90.62,28.39,90.49,28.57 M88.68,9.7
		c0.09-0.11,0.19-0.22,0.24-0.35c0.05-0.12,0.04-0.25,0.06-0.38c-0.16,0-0.35-0.06-0.47,0.01c-0.18,0.11-0.3,0.31-0.49,0.51
		c-0.1-0.24-0.19-0.44-0.27-0.65c-0.8-2.13-2.11-3.82-4.24-4.77c-0.93-0.42-1.85-0.85-2.79-1.27c-1.34-0.59-2.75-0.94-4.2-1.15
		c-0.07-0.01-0.14-0.03-0.21-0.13c0.15-0.01,0.3-0.03,0.44-0.02c2.42,0.2,4.81,0.57,7.05,1.54c3.54,1.53,5.8,4.17,6.6,7.99
		c0.02,0.09,0.04,0.19,0.07,0.28c0.09,0.4,0.15,0.7-0.25,1.07c-0.45,0.42-0.71,1.05-1.06,1.59c-0.11,0.17-0.22,0.33-0.34,0.49
		c-0.19-0.95-0.35-1.84,0.36-2.63c0.31-0.35,0.51-0.8,0.74-1.22c0.06-0.11,0.04-0.28,0.06-0.42c-0.15,0.06-0.34,0.08-0.44,0.19
		c-0.26,0.3-0.48,0.64-0.71,0.96c-0.09,0.13-0.19,0.25-0.32,0.41C88.19,11,88.18,10.33,88.68,9.7 M90.68,12.62
		c0.09,0.59,0.16,1.02,0.21,1.46c0.01,0.1-0.03,0.23-0.09,0.3c-0.6,0.74-1.22,1.46-1.85,2.21c-0.12-0.53-0.15-1.04,0.23-1.55
		c0.44-0.59,0.78-1.25,1.16-1.87C90.42,13.03,90.51,12.89,90.68,12.62 M90.68,16.93c-0.61,0.72-1.07,1.58-1.7,2.35
		c-0.03-0.6-0.06-1.21-0.09-1.81c0.04,0.02,0.08,0.05,0.12,0.07c0.21-0.23,0.46-0.43,0.64-0.69c0.39-0.55,0.75-1.13,1.12-1.69
		c0.06,0.03,0.11,0.06,0.17,0.09C90.97,15.82,91.17,16.36,90.68,16.93 M84.03,37.5c-0.58,0.74-1.29,1.41-1.71,2.23
		c-0.38,0.73-0.91,0.69-1.53,0.67c0.97-1.33,1.89-2.69,3.6-3.37C84.24,37.23,84.14,37.37,84.03,37.5 M79.86,40.35
		c-0.25,0.23-0.72,0.23-1.09,0.33c-0.04-0.06-0.08-0.12-0.12-0.19c0.61-0.69,1.17-1.42,1.84-2.04c0.26-0.25,0.77-0.24,1.16-0.34
		c0.02,0.03,0.04,0.07,0.07,0.1c-0.06,0.09-0.12,0.2-0.19,0.28C80.98,39.13,80.47,39.8,79.86,40.35 M78.11,40.66h-1.53
		c0.07-0.16,0.09-0.3,0.17-0.37c0.59-0.6,1.17-1.22,1.82-1.76c0.21-0.17,0.62-0.1,0.94-0.14c0.02,0.03,0.04,0.07,0.06,0.1
		c-0.3,0.34-0.62,0.67-0.89,1.02C78.42,39.84,77.94,40.08,78.11,40.66 M72.72,40.49c-0.23,0-0.46-0.06-0.82-0.11
		c0.74-0.63,1.34-1.21,2.02-1.67c0.27-0.19,0.72-0.12,1.23-0.2c-0.14,0.22-0.18,0.32-0.25,0.39c-0.5,0.5-0.98,1.01-1.51,1.47
		C73.23,40.49,72.94,40.48,72.72,40.49 M70.06,39.98c-0.02-0.05-0.03-0.1-0.05-0.14c0.51-0.47,0.95-1.04,1.54-1.37
		c0.37-0.21,0.94-0.04,1.43-0.04c0.01,0.06,0.02,0.12,0.03,0.19c-0.63,0.5-1.23,1.06-1.91,1.48C70.86,40.24,70.41,40.03,70.06,39.98
		 M68.66,39.41c-0.28-0.1-0.53-0.26-0.8-0.4c0.57-1.07,1.17-1.21,2.9-0.64c-0.55,0.42-0.99,0.79-1.49,1.1
		C69.14,39.56,68.86,39.48,68.66,39.41 M67.03,38.46c-0.39-0.16-1.16-0.97-1.47-1.72c0.83,0.34,1.64,0.68,2.52,1.04
		C67.73,38.01,67.43,38.21,67.03,38.46 M91.76,16.13c-0.03-1.02-0.23-2.04-0.27-3.06c-0.06-1.41-0.37-2.77-0.85-4.07
		c-1.25-3.36-3.7-5.54-7.03-6.77c-1.96-0.72-4-1.14-6.08-1.32c-1.3-0.11-2.61-0.29-3.92,0.05c-0.71,0.19-1.43,0.31-2.14,0.47
		c-0.14,0.03-0.28,0.08-0.41,0.14c-0.5,0.25-0.99,0.52-1.5,0.76c-2.08,1.02-3.73,2.55-5.02,4.44c-2.01,2.96-2.6,6.34-2.54,9.84
		c0.03,1.76,0.15,3.52,0.24,5.28c0.1,2,0.19,4,0.29,6c0.02,0.31,0.05,0.64,0.57,0.79c0.06-0.68,0.17-1.32,0.15-1.95
		c-0.03-0.86-0.18-1.71-0.23-2.57c-0.05-0.84,0-1.69-0.06-2.53c-0.16-2.35-0.27-4.69-0.15-7.05c0.08-1.55,0.33-3.07,0.79-4.52
		c0.34-1.08,0.96-2.09,1.56-3.06c1.51-2.46,3.85-3.88,6.45-4.94c0.12-0.05,0.31,0.08,0.46,0.13c0.13,0.04,0.36,0.15,0.37,0.13
		c0.34-0.58,0.77-0.45,1.24-0.19c0.07,0.04,0.19,0,0.28,0.01c1.36,0.18,2.75,0.27,4.09,0.55c2.05,0.44,3.97,1.27,5.74,2.38
		c0.72,0.45,1.46,0.97,1.99,1.62c1.15,1.4,1.73,3.1,1.92,4.88c0.27,2.5,0.5,5,0.58,7.51c0.08,2.6,0.01,5.22-0.13,7.82
		c-0.07,1.29-0.38,2.6-0.74,3.85c-0.53,1.84-1.61,3.4-2.84,4.86c-0.54,0.65-1.14,1.2-1.96,1.4c-1.08,0.27-2.18,0.48-3.29,0.64
		c-0.52,0.08-0.98,0.06-1.38,0.54c-0.63,0.78-1.37,1.47-2.07,2.19c-0.1,0.1-0.22,0.22-0.34,0.23c-0.47,0.03-0.94,0.01-1.58,0.01
		c0.62-0.6,1.1-1.19,1.7-1.62c0.59-0.42,1.31-0.67,1.97-0.99c0-0.07-0.01-0.14-0.01-0.2c-0.26-0.04-0.52-0.12-0.78-0.12
		c-0.69,0.01-1.38,0.09-2.06,0.08c-2.5-0.05-4.99-0.23-7.38-1.09c-2.21-0.79-3.53-2.28-3.84-4.63c-0.1-0.73-0.23-1.45-0.37-2.18
		c-0.02-0.12-0.18-0.22-0.27-0.33c-0.11,0.11-0.3,0.2-0.33,0.33c-0.05,0.25-0.02,0.51,0,0.76c0.12,1.59,0.49,3.14,1.13,4.58
		c0.78,1.77,1.98,3.27,3.65,4.3c1.45,0.89,3.06,1.37,4.74,1.64c2.07,0.34,4.16,0.2,6.24,0.18c2.11-0.01,4.18-0.29,6.22-0.81
		c0.21-0.05,0.5-0.35,0.49-0.53c-0.01-0.36-0.35-0.21-0.57-0.18c-0.51,0.08-1.02,0.19-1.65,0.3c0.19-0.29,0.31-0.49,0.44-0.68
		c0.54-0.75,1.1-1.5,1.64-2.25c0.2-0.28,0.25-0.55-0.3-0.51c0.57-0.73,1.08-1.4,1.61-2.06c0.04-0.06,0.17-0.04,0.25-0.08
		c0.15-0.07,0.34-0.12,0.44-0.24c1.01-1.26,2-2.54,3-3.81c0.12-0.16,0.27-0.29,0.41-0.44c0,0.73,0.03,1.44-0.51,1.99
		c-0.32,0.33-0.63,0.68-0.92,1.05c-0.58,0.74-1.15,1.5-1.73,2.24c-0.91,1.18-1.84,2.34-2.74,3.53c-0.1,0.13-0.04,0.39-0.05,0.59
		c0.2-0.07,0.47-0.09,0.58-0.23c1.16-1.47,2.3-2.96,3.44-4.44c0.39-0.5,0.78-1,1.17-1.5c0.04,0.01,0.08,0.03,0.11,0.05
		c-0.17,0.44-0.27,0.9-0.51,1.3c-0.57,0.96-1.17,1.92-1.83,2.82c-0.34,0.47-0.83,0.83-1.26,1.23c-0.21,0.2-0.46,0.35-0.64,0.57
		c-0.07,0.09-0.04,0.34,0.04,0.46c0.04,0.07,0.32,0.09,0.4,0.02c0.63-0.52,1.32-0.99,1.83-1.61c1.69-2.03,2.8-4.38,3.17-7
		c0.38-2.77,0.73-5.56,0.91-8.35C91.94,20.59,91.82,18.36,91.76,16.13"/>
	<path class="st12" d="M79.63,27.23c-0.18,0.8-0.5,1.59-0.88,2.32c-0.6,1.16-2.77,1.98-4.04,1.61c-0.13-0.04-0.3-0.21-0.32-0.35
		c-0.28-1.64-0.6-3.27-0.77-4.92c-0.18-1.73-0.28-3.48-0.28-5.22c0-1.74,0.06-3.49,0.28-5.21c0.26-2.11,2.18-3.48,4.28-3.24
		c0.87,0.1,1.09,0.25,1.28,1.1c0.25,1.14,0.49,2.29,0.65,3.44c0.18,1.33,0.25,2.68,0.34,3.63C80.14,22.95,80.12,25.12,79.63,27.23
		 M72.86,30.2c-0.73,0.47-0.85,0.46-1.17-0.03c0.51-0.57,0.98-1.09,1.45-1.61C73.6,29.29,73.51,29.78,72.86,30.2 M70.82,28.56
		c0.25-0.19,0.44-0.3,0.6-0.46c0.5-0.48,0.98-0.98,1.5-1.49c0.32,0.89,0.24,1.22-0.37,1.71c-0.22,0.18-0.44,0.37-0.64,0.57
		c-0.2,0.2-0.38,0.43-0.65,0.74C71.07,29.2,70.93,28.84,70.82,28.56 M70.56,27.03c-0.06-0.32-0.09-0.59,0.31-0.79
		c0.24-0.12,0.36-0.47,0.56-0.7c0.38-0.45,0.76-0.88,1.19-1.38c0.07,0.14,0.08,0.15,0.08,0.17c0.36,0.95,0.24,1.73-0.67,2.36
		c-0.46,0.32-0.79,0.81-1.27,1.31C70.68,27.57,70.62,27.3,70.56,27.03 M70.28,24.23c0.78-0.81,1.53-1.58,2.36-2.44
		c-0.06,0.8,0.22,1.51-0.49,2.1c-0.6,0.51-1.09,1.15-1.72,1.82C70.37,25.13,70.32,24.62,70.28,24.23 M70.58,21.44
		c0.71-0.71,1.38-1.46,2.18-2.3c0,0.61,0,1.06,0,1.52c0,0.08-0.02,0.18-0.07,0.22c-0.79,0.76-1.58,1.52-2.4,2.31
		C70.09,22.55,70.06,21.97,70.58,21.44 M70.58,19.02c0.63-0.55,1.32-1.04,1.98-1.55c0.04,0.03,0.09,0.07,0.14,0.1
		c0.02,0.36,0.04,0.72,0.05,0.99c-0.33,0.24-0.6,0.41-0.83,0.63c-0.6,0.56-1.19,1.15-1.82,1.76C69.88,20.16,70.02,19.51,70.58,19.02
		 M70.42,17.32c0.74-0.57,1.4-1.24,2.09-1.87c0.07-0.06,0.16-0.1,0.28-0.17c0.11,0.96-0.19,1.6-1.04,2.04
		c-0.61,0.32-1.12,0.83-1.7,1.28C69.87,18.08,69.91,17.7,70.42,17.32 M70.42,14.84c0.11-1.26,0.91-2.02,1.88-2.65
		c0.83-0.54,1.7-1.02,2.53-1.57c0.23-0.15,0.55-0.61,0.52-0.65c-0.3-0.34-0.57-0.01-0.82,0.15c-1.04,0.64-2.08,1.3-3.13,1.97
		c0.16-0.86,1.23-1.85,2.11-1.99c0.17-0.03,0.36-0.07,0.48-0.17c0.91-0.69,1.73-0.12,2.57,0.09c0.02,0.05,0.04,0.1,0.05,0.15
		c-0.25,0.19-0.48,0.4-0.74,0.56c-1.2,0.73-2.44,1.41-3.61,2.19c-0.58,0.39-1.06,0.95-1.55,1.47c-0.1,0.11-0.03,0.37-0.04,0.56
		c0.16-0.08,0.35-0.13,0.48-0.25c0.4-0.36,0.75-0.81,1.19-1.1c1.31-0.86,2.67-1.65,3.99-2.49c0.29-0.19,0.52-0.48,0.77-0.72
		c-0.02-0.05-0.04-0.1-0.06-0.15c0.22,0.16,0.45,0.33,0.75,0.55c-0.96,0.44-1.86,0.83-2.74,1.24c-0.8,0.38-1.3,1.07-1.74,1.81
		c-0.11,0.19-0.23,0.4-0.4,0.53c-0.88,0.71-1.78,1.39-2.75,2.14C70.27,15.93,70.38,15.39,70.42,14.84 M80,13.87
		c-0.18-0.81-0.34-1.66-0.74-2.36c-1.01-1.74-2.64-2.54-4.63-2.63c-0.33-0.02-0.6,0.03-0.73,0.39c-0.03,0.08-0.15,0.17-0.24,0.18
		c-1.31,0.13-2.23,0.86-2.79,2c-0.38,0.77-0.69,1.59-0.92,2.42c-0.53,1.97-0.78,3.99-0.71,6.04c0.09,1.28,0.16,2.56,0.26,3.83
		c0.1,1.28,0.21,2.55,0.36,3.82c0.06,0.55,0.19,1.11,0.36,1.64c0.38,1.17,1.1,2.02,2.36,2.29c0.59,0.13,1.19,0.24,1.78,0.39
		c1.67,0.43,3.04-0.22,4.33-1.18c0.17-0.13,0.35-0.31,0.44-0.5c0.33-0.74,0.72-1.48,0.93-2.26c0.56-2.12,0.7-4.3,0.7-6.48
		C80.77,18.9,80.54,16.36,80,13.87"/>
	<path class="st12" d="M80.31,36.81c-0.26,0-0.4,0.04-0.43-0.01c-0.33-0.46-0.66-0.93-0.97-1.41c-0.02-0.04,0.06-0.2,0.12-0.22
		c0.09-0.02,0.26,0,0.3,0.06C79.65,35.72,79.95,36.22,80.31,36.81"/>
	<path class="st12" d="M80.57,34.87c0.18,0.08,0.29,0.1,0.34,0.17c0.25,0.29,0.5,0.58,0.72,0.89c0.05,0.07,0.01,0.2,0.02,0.31
		c-0.12,0-0.29,0.05-0.35-0.01c-0.3-0.31-0.58-0.63-0.84-0.98C80.42,35.19,80.53,35.02,80.57,34.87"/>
	<path class="st12" d="M78.39,37.02c-0.57-0.44-0.72-0.98-0.94-1.48c-0.03-0.06,0.04-0.21,0.09-0.23c0.09-0.03,0.26-0.02,0.3,0.04
		C78.15,35.81,78.49,36.27,78.39,37.02"/>
	<path class="st12" d="M76.95,36.92c-0.42-0.21-0.84-1.05-0.69-1.44c0.03-0.07,0.12-0.14,0.2-0.16c0.06-0.02,0.18,0.04,0.2,0.08
		c0.16,0.49,0.31,0.98,0.46,1.47C77.05,36.88,77,36.9,76.95,36.92"/>
	<path class="st12" d="M81.89,34.31c0.43-0.09,1.37,0.49,1.39,0.85c0,0.06-0.15,0.2-0.21,0.19C82.72,35.32,82.01,34.69,81.89,34.31"
		/>
	<path class="st12" d="M86.78,29.77c-0.19,0.08-0.39,0.26-0.56,0.23c-0.29-0.05-0.57-0.22-0.85-0.35c0.09-0.1,0.19-0.29,0.27-0.29
		c0.36,0.04,0.72,0.13,1.07,0.2C86.73,29.63,86.76,29.7,86.78,29.77"/>
	<path class="st12" d="M86.23,31.21c-0.18,0.09-0.38,0.27-0.55,0.25c-0.28-0.03-0.62-0.13-0.8-0.32c-0.17-0.17,0.04-0.35,0.28-0.31
		c0.33,0.05,0.65,0.13,0.98,0.2C86.18,31.08,86.2,31.14,86.23,31.21"/>
	<path class="st12" d="M84.2,34.1c-0.17-0.02-0.26-0.02-0.33-0.05c-0.28-0.1-0.71-0.17-0.6-0.54c0.11-0.36,0.45-0.08,0.69-0.02
		c0.08,0.02,0.16,0.04,0.22,0.08c0.12,0.08,0.23,0.18,0.34,0.27C84.4,33.95,84.27,34.05,84.2,34.1"/>
	<path class="st12" d="M73.06,6.87c0.07,0.16,0.12,0.24,0.15,0.33c0.08,0.24,0.16,0.48,0.21,0.73c0.02,0.09-0.02,0.25-0.08,0.28
		c-0.07,0.04-0.25-0.01-0.28-0.07c-0.14-0.28-0.25-0.57-0.33-0.86C72.7,7.22,72.87,7.1,73.06,6.87"/>
	<path class="st12" d="M85.07,32.73c-0.16-0.01-0.22,0.01-0.26-0.01c-0.22-0.11-0.44-0.22-0.64-0.36c-0.03-0.02,0.02-0.25,0.03-0.25
		c0.22,0,0.45,0.02,0.67,0.04c0.06,0.01,0.13,0.03,0.18,0.06c0.12,0.08,0.22,0.18,0.33,0.27C85.25,32.58,85.12,32.68,85.07,32.73"/>
	<path class="st12" d="M70.04,9.05c0.1-0.15,0.14-0.26,0.22-0.31c0.04-0.02,0.16,0.06,0.22,0.12c0.18,0.19,0.37,0.39,0.51,0.61
		c0.06,0.09,0.03,0.25,0.04,0.38c-0.11,0-0.28,0.05-0.34-0.01C70.47,9.6,70.27,9.32,70.04,9.05"/>
	<path class="st12" d="M87.45,25.58c-0.21,0.45-0.89,0.62-1.2,0.34c-0.06-0.05-0.1-0.2-0.07-0.24c0.07-0.09,0.19-0.17,0.29-0.18
		c0.15-0.02,0.31,0.02,0.47,0.04C87.1,25.55,87.25,25.57,87.45,25.58"/>
	<path class="st12" d="M87.04,28.21c-0.38,0.4-0.73,0.42-1.09,0.32c-0.1-0.03-0.16-0.2-0.24-0.31c0.11-0.07,0.23-0.2,0.34-0.19
		C86.35,28.06,86.64,28.14,87.04,28.21"/>
	<path class="st12" d="M75.27,35.61c0.06,0.11,0.12,0.19,0.15,0.27c0.09,0.25,0.19,0.5,0.25,0.76c0.02,0.08-0.03,0.24-0.1,0.28
		c-0.07,0.04-0.27-0.01-0.28-0.06c-0.11-0.32-0.19-0.65-0.26-0.98C75.01,35.83,75.13,35.76,75.27,35.61"/>
	<path class="st12" d="M75.06,7.7c-0.15,0.18-0.24,0.3-0.34,0.41c-0.13-0.22-0.3-0.42-0.37-0.65c-0.03-0.11,0.17-0.27,0.26-0.41
		C74.76,7.25,74.89,7.45,75.06,7.7"/>
	<path class="st12" d="M71.54,7.93c0.12,0.15,0.27,0.28,0.33,0.44s0.07,0.36,0.08,0.54c0,0.02-0.13,0.09-0.15,0.07
		c-0.14-0.1-0.31-0.19-0.38-0.33c-0.08-0.17-0.07-0.39-0.08-0.59C71.34,8.03,71.44,7.99,71.54,7.93"/>
	<path class="st12" d="M68.93,15.78c-0.33,0.03-0.67,0.08-1,0.09c-0.06,0-0.17-0.1-0.19-0.17c-0.01-0.06,0.06-0.19,0.13-0.21
		c0.37-0.13,0.73-0.15,1.06,0.08C68.93,15.64,68.93,15.71,68.93,15.78"/>
	<path class="st12" d="M69.24,14.19c-0.36,0-0.71,0.01-1.07-0.01c-0.05,0-0.13-0.15-0.12-0.22c0.01-0.07,0.13-0.17,0.19-0.16
		c0.34,0.04,0.68,0.11,1.02,0.16C69.25,14.04,69.24,14.11,69.24,14.19"/>
	<path class="st12" d="M87.05,26.91c-0.27,0.35-0.71,0.44-0.97,0.22c-0.08-0.07-0.15-0.23-0.13-0.31c0.02-0.08,0.18-0.14,0.29-0.15
		c0.12-0.01,0.25,0.04,0.37,0.08C86.75,26.8,86.87,26.85,87.05,26.91"/>
	<path class="st12" d="M87.34,24.33c-0.26,0.45-0.6,0.45-0.94,0.36c-0.08-0.02-0.16-0.19-0.17-0.29c-0.01-0.04,0.15-0.16,0.23-0.16
		C86.73,24.24,87,24.29,87.34,24.33"/>
	<path class="st12" d="M87.56,21.39c-0.14,0.39-0.57,0.64-0.88,0.53c-0.09-0.03-0.2-0.14-0.2-0.22c0-0.08,0.11-0.21,0.19-0.22
		C86.96,21.42,87.25,21.41,87.56,21.39"/>
	<path class="st12" d="M87.56,22.83c-0.26,0.17-0.38,0.31-0.52,0.33c-0.18,0.03-0.38-0.03-0.56-0.09c-0.04-0.01-0.06-0.24-0.04-0.24
		c0.16-0.06,0.34-0.13,0.51-0.14C87.1,22.68,87.26,22.76,87.56,22.83"/>
	<path class="st12" d="M69.47,12.72c-0.25-0.03-0.51-0.04-0.75-0.11c-0.09-0.03-0.14-0.2-0.21-0.31c0.12-0.05,0.27-0.18,0.36-0.15
		c0.24,0.08,0.45,0.23,0.68,0.36L69.47,12.72z"/>
	<path class="st12" d="M68.87,17.22c-0.29,0.29-0.66,0.25-1.03,0.19c-0.05-0.01-0.12-0.13-0.11-0.17c0.03-0.08,0.11-0.18,0.17-0.18
		c0.32-0.02,0.64-0.01,0.95-0.01C68.86,17.1,68.87,17.16,68.87,17.22"/>
	<path class="st12" d="M68.95,10.76c0.26-0.11,0.42-0.24,0.48-0.2c0.19,0.11,0.34,0.29,0.51,0.45c-0.08,0.07-0.2,0.21-0.24,0.19
		C69.48,11.09,69.28,10.95,68.95,10.76"/>
	<path class="st12" d="M87.28,20.38c-0.17,0.06-0.33,0.12-0.5,0.16c-0.01,0-0.07-0.2-0.11-0.3c0.18-0.03,0.37-0.06,0.55-0.09
		C87.23,20.22,87.26,20.3,87.28,20.38"/>
	<path class="st12" d="M58.45,30.19c-0.43-0.6-1.06-1.02-1.23-1.76C58.52,29,58.72,29.3,58.45,30.19 M58.28,31.78
		c-0.47-0.69-1.1-1.27-1.32-2.08c0.07-0.04,0.13-0.08,0.2-0.12c0.39,0.49,0.8,0.97,1.15,1.49C58.41,31.23,58.34,31.52,58.28,31.78
		 M57.7,34.16c-0.46-0.72-0.87-1.36-1.28-2.01c-0.04-0.07-0.06-0.17-0.03-0.25c0.11-0.35,0.23-0.69,0.35-1.03
		c0.05-0.01,0.11-0.03,0.16-0.04c0.38,0.69,0.84,1.35,1.09,2.09C58.1,33.26,57.81,33.74,57.7,34.16 M56.56,36.24
		c-0.05-0.01-0.09-0.02-0.14-0.04c-0.1-0.36-0.21-0.73-0.31-1.09c-0.04-0.16-0.05-0.35-0.15-0.46c-0.6-0.67-0.08-1.22,0.16-1.88
		c0.56,0.7,0.97,1.43,1.01,2.24C57.15,35.41,56.76,35.83,56.56,36.24 M54.88,38.25c-0.01,0.01-0.03,0.01-0.14,0.06
		c0.02-0.25,0.05-0.45,0.06-0.65c0.01-0.66-0.01-1.33,0.04-1.99c0.03-0.33,0.21-0.64,0.32-0.96c0.06,0,0.13,0.01,0.19,0.01
		c0.1,0.31,0.17,0.63,0.32,0.92C56.22,36.76,55.74,37.56,54.88,38.25 M51.94,18.91c-0.15,0.56-0.26,0.98-0.39,1.49
		c-0.48-0.14-0.9-0.27-1.46-0.43C50.74,19.6,51.27,19.29,51.94,18.91 M49.9,38.45c-0.98,0.39-1.99,0.53-3.04,0.55
		c-1.89,0.04-3.74-0.1-5.55-0.65c-3.25-0.98-5.9-2.78-7.55-5.82c-0.46-0.84-0.81-1.75-1.1-2.66c-0.17-0.55-0.13-1.17-0.18-1.76
		c-0.04-0.46,0.21-0.59,0.62-0.59c0.89,0.01,1.77,0.02,2.66-0.01c1.02-0.03,2.04-0.08,3.06-0.15c0.29-0.02,0.43,0.05,0.57,0.33
		c0.82,1.65,2.13,2.72,3.95,3.07c0.74,0.14,1.47-0.07,2.09-0.47c0.54-0.35,1.07-0.77,1.5-1.24c1.18-1.28,0.89-3.65-0.88-4.55
		c-1.09-0.56-2.19-0.9-3.42-0.53c-0.17,0.05-0.37,0.03-0.62,0.04c0.32-0.65,0.2-1.24,0.13-1.81c-0.11-1-0.29-1.99-0.45-2.99
		c-0.06-0.36-0.05-0.62,0.43-0.59c0.22,0.01,0.44-0.05,0.66-0.08c2.29-0.28,3.61-2.01,3.94-4.04c0.08-0.48,0.2-0.96,0.24-1.45
		c0.02-0.27-0.02-0.56-0.11-0.82c-0.36-1.06-1.1-1.89-2.02-2.41c-1.05-0.59-2.25-0.7-3.35,0.02c-1.24,0.81-1.82,1.99-1.79,3.47
		c0.01,0.34,0,0.68,0,1.08c-0.76,0.05-1.52,0.13-2.28,0.14c-1.65,0.03-3.3,0.02-4.95,0.04c-0.38,0.01-0.51-0.12-0.53-0.51
		c-0.07-1.59,0.4-3.05,1.08-4.45c0.87-1.78,1.84-3.49,3.36-4.82c1.06-0.93,2.26-1.6,3.63-2.01c1.62-0.48,3.25-0.63,4.92-0.65
		c1.91-0.02,3.65,0.51,5.28,1.47c1.69,0.99,3.12,2.27,4.21,3.9c0.74,1.1,0.93,2.36,0.84,3.66c-0.1,1.41-0.59,2.72-1.16,4
		c-0.53,1.18-1.44,2.02-2.41,2.82c-0.73,0.6-1.44,1.2-2.34,1.56c-0.19,0.08-0.31,0.35-0.46,0.54c0.19,0.15,0.36,0.36,0.57,0.43
		c0.68,0.22,1.38,0.35,2.06,0.57c1.56,0.51,2.86,1.47,3.78,2.78c1.08,1.53,1.57,3.32,1.13,5.21c-0.35,1.48-0.76,2.97-1.3,4.39
		C54.18,35.93,52.31,37.5,49.9,38.45 M53.98,38.69c-0.11,0.63-0.19,0.71-0.83,0.96c0.17-0.98,0.3-1.92,0.52-2.84
		c0.06-0.27,0.35-0.49,0.53-0.73c0.06,0.02,0.12,0.04,0.18,0.06C54.25,36.99,54.12,37.85,53.98,38.69 M52.41,39.8
		c-0.13,0.62-0.61,0.81-1.27,1c0.55-1.16,0.45-2.51,1.65-3.22c0.04,0.02,0.09,0.04,0.13,0.07C52.75,38.37,52.57,39.08,52.41,39.8
		 M49.48,41.35c-0.04-0.04-0.08-0.09-0.12-0.13c0.06-0.17,0.1-0.34,0.18-0.5c0.3-0.56,0.6-1.12,0.95-1.64
		c0.13-0.2,0.4-0.3,0.61-0.45c0.04,0.04,0.09,0.08,0.13,0.12c-0.26,0.73-0.47,1.49-0.82,2.18C50.29,41.16,49.81,41.21,49.48,41.35
		 M48.84,40.79c-0.11,0.2-0.17,0.54-0.32,0.59c-0.32,0.11-0.69,0.07-1.03,0.09c-0.03-0.04-0.06-0.08-0.09-0.13
		c0.21-0.35,0.49-0.68,0.61-1.05c0.2-0.64,0.67-0.81,1.24-0.9c0.16-0.02,0.31-0.08,0.57-0.14c-0.21,0.31-0.37,0.54-0.52,0.78
		C49.13,40.28,48.98,40.54,48.84,40.79 M46.51,41.4c-0.4-0.06-0.8-0.14-1.28-0.22c0.32-0.52,0.58-0.94,0.85-1.36
		c0.05-0.07,0.17-0.13,0.26-0.14c0.44-0.01,0.88-0.01,1.37-0.01c-0.33,0.57-0.62,1.1-0.93,1.61C46.73,41.36,46.59,41.42,46.51,41.4
		 M44.53,40.98c-0.44-0.1-0.87-0.22-1.32-0.34c0.55-1.03,1.01-1.22,2.15-0.91c-0.2,0.39-0.4,0.78-0.61,1.16
		C44.72,40.95,44.6,41,44.53,40.98 M42.58,40.45c-0.26-0.1-0.54-0.21-0.82-0.32c0.21-0.77,0.55-0.91,1.41-0.57
		C42.97,39.86,42.79,40.13,42.58,40.45 M40.68,39.6c0.3-0.57,0.42-0.62,0.87-0.39C41.05,39.9,41.05,39.9,40.68,39.6 M39.09,38.82
		c0.31-0.57,0.42-0.57,1.36,0.01C40.05,39.43,39.76,39.43,39.09,38.82 M38.15,38.28c-0.35-0.32-0.72-0.61-1.08-0.92
		c-0.05-0.05-0.09-0.1-0.2-0.22c0.69,0.36,1.29,0.67,1.9,0.99C38.63,38.49,38.44,38.54,38.15,38.28 M44.4,25.88
		c-0.06,0.05-0.24,0.05-0.3,0c-0.11-0.1-0.27-0.34-0.24-0.37c0.26-0.28,0.52-0.57,0.84-0.75c0.14-0.08,0.42,0.09,0.64,0.14
		c0,0.05,0.01,0.1,0.02,0.15C45.04,25.32,44.73,25.61,44.4,25.88 M43.32,25.11c-0.19-0.13-0.37-0.25-0.55-0.37l0.02-0.14
		c0.31-0.05,0.62-0.11,0.94-0.16c0.02,0.03,0.04,0.07,0.06,0.1C43.65,24.72,43.5,24.89,43.32,25.11 M41.43,17.99
		c0.38-0.19,0.81-0.36,1.18-0.62c0.14-0.1,0.13-0.43,0.15-0.65c0.08-1.09,0.1-2.19,0.23-3.27c0.13-1.17,1.4-2.16,2.92-1.41
		c0.42,0.21,0.5,0.75,0.44,1.19c-0.12,0.77-0.24,1.57-0.5,2.29c-0.37,1.01-1.11,1.75-2.16,2.09c-0.61,0.2-1.27,0.29-1.91,0.41
		C41.64,18.05,41.49,18,41.43,17.99 M40.35,14.21c0.66,0.47,0.92,1.28,1.71,1.54v0.46c-0.62-0.51-1.21-0.98-1.83-1.48
		C40.27,14.59,40.31,14.42,40.35,14.21 M41.62,13.38c0.57,0.48,0.67,1.03,0.38,1.81c-0.35-0.44-0.66-0.81-0.96-1.19
		c-0.17-0.22-0.33-0.45-0.52-0.67c-0.3-0.34-0.28-0.69,0-1.12C40.9,12.63,41.23,13.05,41.62,13.38 M42.21,12.06
		c0.31,0.19,0.39,0.4,0.24,0.73c-0.07,0.14-0.09,0.3-0.17,0.55c-0.2-0.24-0.36-0.42-0.51-0.6c-0.26-0.3-0.51-0.62-0.77-0.91
		c-0.18-0.21-0.21-0.38,0.08-0.56C41.46,11.54,41.82,11.83,42.21,12.06 M42.87,10.17c0.59-0.2,0.9,0.15,1.19,0.47
		c0.22,0.24,0.4,0.37,0.6-0.05c0.14,0.16,0.24,0.3,0.36,0.44c-0.34,0.06-0.69,0.13-1.03,0.17c-0.1,0.01-0.23-0.05-0.3-0.12
		C43.41,10.79,43.17,10.5,42.87,10.17 M43.3,11.45c-0.29,0.5-0.37,0.51-0.76,0.17c-0.34-0.3-0.69-0.59-1.04-0.88
		c0.47-0.49,0.54-0.5,0.98-0.08C42.76,10.92,43.03,11.19,43.3,11.45 M41.08,16.99c-0.03-0.05-0.27-0.02-0.39,0.04
		c-0.16,0.07-0.3,0.2-0.45,0.31c-0.03-0.04-0.06-0.08-0.1-0.12c0.23-0.37,0.46-0.74,0.69-1.11c-0.41-0.11-0.99,0.18-1.25,0.75
		c-0.23,0.51-0.53,0.43-0.94,0.32c0.24-0.83,1.26-1.23,1.12-2.1c0.2,0.19,0.45,0.43,0.7,0.66c0.13,0.12,0.26,0.24,0.39,0.35
		c0.37,0.32,0.73,0.64,1.1,0.95c-0.03,0.04-0.05,0.07-0.08,0.11C41.6,17.16,41.31,17.37,41.08,16.99 M36.77,17.21
		c0.51-0.67,0.92-1.32,1.44-1.86c0.22-0.23,0.69-0.21,1.05-0.3c0.03,0.05,0.06,0.1,0.09,0.15c-0.18,0.24-0.36,0.48-0.55,0.71
		c-0.25,0.31-0.56,0.58-0.77,0.91C37.74,17.25,37.36,17.33,36.77,17.21 M36.01,17.13c-0.19,0.19-0.63,0.12-0.96,0.16
		c-0.03-0.06-0.05-0.12-0.08-0.18c0.43-0.59,0.81-1.24,1.33-1.74c0.23-0.22,0.75-0.14,1.13-0.19c0.02,0.05,0.05,0.1,0.07,0.15
		C37.01,15.94,36.57,16.59,36.01,17.13 M34.39,16.87c-0.5-0.23-0.52-0.32-0.22-0.71c0.17-0.22,0.32-0.48,0.54-0.64
		c0.23-0.16,0.53-0.22,0.8-0.32c0.03,0.05,0.06,0.1,0.1,0.15C35.2,15.87,34.79,16.37,34.39,16.87 M33.36,16.19
		c-0.25-0.29-0.49-0.55-0.77-0.87h1.54C33.86,15.62,33.65,15.87,33.36,16.19 M53.57,5.27c0.14,0.07,0.29,0.12,0.41,0.22
		c0.78,0.68,1.55,1.37,2.31,2.07c0.48,0.44,0.58,1.05,0.84,1.73C56.76,9.12,56.51,9,56.27,8.88c0.01-0.02,0.01-0.05,0.02-0.07
		c0.15-0.01,0.31-0.02,0.58-0.04C56.7,8.6,56.62,8.47,56.5,8.4c-0.85-0.46-1.53-1.07-2.03-1.92c-0.25-0.42-0.64-0.76-0.96-1.13
		C53.52,5.33,53.55,5.3,53.57,5.27 M56.6,10.35c-0.1-0.08-0.22-0.17-0.35-0.19c-0.4-0.07-0.42-0.35-0.43-0.66
		c1.01,0.06,1.8,0.8,1.78,1.65C57.27,10.88,56.94,10.61,56.6,10.35 M57.71,12.79c-0.51-0.77-1.45-1.07-1.84-1.88
		c0.04-0.05,0.08-0.1,0.12-0.14c0.18,0.11,0.36,0.21,0.55,0.32c0.22,0.13,0.43,0.27,0.66,0.37C57.81,11.75,57.91,11.95,57.71,12.79
		 M57.73,14.26c-0.6-0.57-1.14-1.07-1.65-1.59c-0.15-0.15-0.23-0.38-0.34-0.57c0.05-0.04,0.11-0.08,0.16-0.12
		c0.59,0.51,1.21,0.99,1.76,1.54C57.79,13.64,57.71,13.99,57.73,14.26 M57.29,15.68c-0.05,0.17-0.12,0.33-0.23,0.62
		c-0.14-0.2-0.22-0.31-0.3-0.43c-0.39-0.64-0.75-1.3-1.17-1.91c-0.2-0.28-0.22-0.49-0.01-0.77c0.81,0.45,1.38,1.12,1.81,1.9
		C57.47,15.23,57.34,15.48,57.29,15.68 M56.36,17.53c-0.26-0.59-0.5-1.16-0.77-1.71c-0.11-0.22-0.28-0.42-0.44-0.61
		c-0.21-0.25-0.26-0.49,0.03-0.83c0.29,0.39,0.58,0.75,0.83,1.13c0.2,0.31,0.3,0.68,0.5,0.99C56.78,16.9,56.66,17.21,56.36,17.53
		 M55.05,19.14c-0.14-0.59-0.26-1.13-0.39-1.68c-0.05-0.2-0.06-0.43-0.17-0.59c-0.31-0.46-0.18-0.84,0.18-1.26
		c0.11,0.13,0.26,0.24,0.33,0.38c0.31,0.63,0.63,1.27,0.88,1.93C56.05,18.37,55.73,18.81,55.05,19.14 M53.32,20.75
		c-0.21,0.02-0.48,0.11-0.74,0.08c-0.38-0.05-0.48-0.32-0.39-0.69c0.12-0.53,0.21-1.07,0.32-1.6c0.02-0.09,0.1-0.17,0.27-0.24
		C52.95,19.07,53.11,19.83,53.32,20.75 M53.87,20.26c-0.05-0.02-0.11-0.05-0.16-0.07c-0.07-0.36-0.14-0.71-0.21-1.07
		c-0.05-0.26-0.07-0.53-0.13-0.79c-0.15-0.62-0.07-0.84,0.58-1.32c0.21,0.84,0.47,1.62,0.56,2.42
		C54.54,19.69,54.1,19.99,53.87,20.26 M56.23,23.89c1.13,1.26,1.9,2.7,2.22,4.43c-0.89-0.3-1.27-0.87-1.38-1.66
		c-0.08-0.59-0.3-1.16-0.5-1.73c-0.12-0.34-0.31-0.65-0.47-0.98C56.16,23.93,56.2,23.91,56.23,23.89 M59.15,28.46
		c-0.49-2.97-1.91-5.33-4.81-6.59c-0.26-0.11-0.47-0.33-0.76-0.54c0.34-0.27,0.62-0.49,0.89-0.72c0.56-0.46,1.24-0.84,1.65-1.41
		c1.32-1.89,2.36-3.91,2.28-6.32c-0.01-0.24,0.02-0.48-0.01-0.71c-0.26-2.15-0.57-4.29-2.4-5.78c-0.85-0.69-1.67-1.45-2.61-1.99
		c-1.35-0.77-2.79-1.37-4.2-2.04c-1-0.48-2.06-0.77-3.17-0.81c-2.05-0.08-4.09,0-6.08,0.62c-1.35,0.42-2.59,1.03-3.68,1.92
		c-1.85,1.5-3.02,3.49-3.93,5.64c-0.67,1.6-1.23,3.22-0.85,5c0.04,0.18,0,0.42,0.11,0.52c0.77,0.74,1.55,1.47,2.36,2.17
		c0.17,0.15,0.47,0.14,0.71,0.2c0.39,0.36,0.92,0.38,1.43,0.38c1.39,0,2.79-0.04,4.18-0.05c0.57-0.01,0.67,0.11,0.69,0.68
		c0.01,0.1,0.01,0.21,0.03,0.31c0.27,1.6,0.56,3.19,0.5,4.82c0,0.11,0.06,0.22,0.11,0.32c0.11,0.19,0.24,0.38,0.36,0.57
		c0.13,0.2,0.23,0.43,0.4,0.58c0.55,0.51,1.13,1,1.7,1.5c0.26,0.24,0.43,0.18,0.64-0.11c0.33-0.45,0.73-0.85,1.12-1.25
		c0.05-0.05,0.29-0.02,0.35,0.06c0.1,0.13,0.23,0.43,0.19,0.46c-0.35,0.26-0.73,0.49-1.09,0.72c-0.11,0.07-0.21,0.16-0.31,0.24
		c0.09,0.12,0.16,0.29,0.27,0.34c0.22,0.08,0.46,0.09,0.69,0.14c0.37,0.08,0.83,0.04,0.97,0.49c0.14,0.44-0.22,0.71-0.47,0.99
		c-1.05,1.15-2.51,1.61-3.74,1.09c-1.21-0.51-2.15-1.37-2.72-2.57c-0.27-0.58-0.39-0.66-1.03-0.59c-0.65,0.08-1.29,0.22-1.94,0.23
		c-1.4,0.02-2.81-0.02-4.21-0.05c-0.57-0.01-0.93,0.32-0.96,0.9c-0.08,1.61,0.12,3.16,0.99,4.57c0.56,0.91,1.04,1.86,1.62,2.76
		c0.46,0.72,0.95,1.44,1.52,2.08c1.83,2.07,4.24,3.2,6.82,4.01c1.83,0.58,3.67,1.06,5.63,0.9c2.26-0.18,4.27-0.94,5.99-2.41
		c1.13-0.97,2.02-2.17,2.83-3.41c0.94-1.45,1.58-3.03,1.8-4.75C59.14,30.53,59.31,29.46,59.15,28.46"/>
	<path class="st12" d="M36.34,13.27c-0.12,0.08-0.23,0.23-0.36,0.24c-0.37,0.03-0.74,0.01-1.11,0.01v0.04
		c-0.41,0-0.83,0.02-1.24-0.01c-0.13-0.01-0.24-0.19-0.36-0.29c0.12-0.08,0.24-0.21,0.37-0.23c0.69-0.06,1.39-0.09,2.08-0.12
		c0.1,0,0.22,0,0.3,0.05C36.14,13.04,36.23,13.16,36.34,13.27"/>
	<path class="st12" d="M48.36,37.71c-0.06,0.1-0.09,0.23-0.14,0.23c-0.09,0.01-0.24-0.02-0.27-0.08c-0.2-0.47-0.39-0.95-0.56-1.43
		c-0.02-0.04,0.11-0.18,0.19-0.2c0.07-0.02,0.21,0.05,0.24,0.12C48.02,36.8,48.19,37.26,48.36,37.71"/>
	<path class="st12" d="M35.5,12.19c-0.26,0.09-0.43,0.19-0.59,0.2c-0.35,0.02-0.71,0.01-1.06-0.03c-0.12-0.02-0.22-0.18-0.33-0.27
		c0.1-0.08,0.2-0.22,0.31-0.24C34.36,11.77,34.9,11.77,35.5,12.19"/>
	<path class="st12" d="M54.12,32.82c-0.18,0.1-0.36,0.21-0.55,0.3c-0.05,0.02-0.12,0-0.22,0c0.02,0-0.02,0-0.04,0
		c-0.27-0.07-0.71-0.01-0.65-0.42c0.06-0.44,0.45-0.13,0.69-0.15c0.09-0.01,0.18,0,0.26,0.03C53.79,32.65,53.95,32.74,54.12,32.82"
		/>
	<path class="st12" d="M55.37,30.04c-0.24,0.28-0.98,0.5-1.25,0.36c-0.08-0.04-0.16-0.17-0.17-0.27c-0.01-0.07,0.09-0.18,0.16-0.21
		C54.45,29.77,54.98,29.83,55.37,30.04"/>
	<path class="st12" d="M35.36,10.79c-0.01,0.05-0.01,0.1-0.02,0.15c-0.36,0.03-0.73,0.09-1.09,0.08c-0.13,0-0.25-0.18-0.38-0.27
		c0.12-0.08,0.23-0.23,0.36-0.24C34.64,10.46,35.05,10.49,35.36,10.79"/>
	<path class="st12" d="M49.57,37.36c0.01,0.03-0.16,0.11-0.25,0.16c-0.18-0.38-0.36-0.75-0.52-1.13c-0.02-0.04,0.11-0.14,0.19-0.22
		c0.12,0.07,0.24,0.11,0.27,0.18C49.38,36.68,49.49,37.02,49.57,37.36"/>
	<path class="st12" d="M53.35,34.05c-0.31,0.42-1.17,0.4-1.35,0.03c-0.04-0.08-0.03-0.21,0.01-0.3c0.02-0.06,0.15-0.12,0.21-0.1
		C52.59,33.78,52.94,33.91,53.35,34.05"/>
	<path class="st12" d="M43.7,22.7c0,0.11-0.15,0.21-0.24,0.32c-0.09-0.09-0.23-0.17-0.26-0.28c-0.05-0.18-0.04-0.38-0.05-0.55
		c0-0.13-0.02-0.24,0.01-0.33c0.03-0.1,0.12-0.17,0.19-0.25c0.08,0.07,0.22,0.13,0.24,0.22C43.65,22.11,43.69,22.41,43.7,22.7"/>
	<path class="st12" d="M54.82,31.45c-0.34,0.32-0.95,0.45-1.27,0.26c-0.07-0.04-0.14-0.16-0.14-0.24c0-0.08,0.09-0.22,0.15-0.22
		C53.98,31.24,54.43,31.14,54.82,31.45"/>
	<path class="st12" d="M52.42,35.36c-0.27,0.35-0.54,0.22-0.75,0.08c-0.2-0.14-0.34-0.38-0.5-0.57c0.1-0.06,0.25-0.19,0.3-0.16
		C51.8,34.9,52.1,35.13,52.42,35.36"/>
	<path class="st12" d="M36.22,8.83c-0.44,0-0.82,0.01-1.2-0.01c-0.05,0-0.15-0.16-0.14-0.23c0.01-0.08,0.11-0.18,0.19-0.21
		C35.34,8.26,35.96,8.48,36.22,8.83"/>
	<path class="st12" d="M44.77,22.26c-0.03,0.26-0.03,0.43-0.08,0.58c-0.03,0.09-0.13,0.22-0.2,0.22c-0.09,0-0.24-0.1-0.25-0.18
		c-0.03-0.2-0.05-0.42,0.01-0.6c0.05-0.15,0.23-0.26,0.35-0.38C44.66,22.04,44.73,22.19,44.77,22.26"/>
	<path class="st12" d="M51.1,36.5c-0.07,0.09-0.1,0.19-0.15,0.2c-0.07,0.02-0.2,0-0.23-0.05c-0.17-0.24-0.33-0.48-0.46-0.74
		c-0.03-0.06,0.01-0.23,0.07-0.26c0.06-0.04,0.24-0.02,0.28,0.04C50.78,35.95,50.93,36.23,51.1,36.5"/>
	<path class="st12" d="M55.37,28.86c-0.32,0.04-0.63,0.09-0.95,0.11c-0.06,0-0.18-0.15-0.17-0.2c0.03-0.11,0.11-0.25,0.2-0.3
		c0.35-0.15,0.66-0.05,0.91,0.22C55.36,28.74,55.36,28.8,55.37,28.86"/>
	<path class="st12" d="M47.13,37.42c-0.13,0.14-0.2,0.22-0.27,0.29c-0.17-0.27-0.35-0.54-0.49-0.82c-0.02-0.04,0.14-0.16,0.22-0.24
		C46.76,36.9,46.93,37.14,47.13,37.42"/>
	<path class="st12" d="M35.52,9.86c-0.4,0-0.69,0.03-0.96-0.01c-0.1-0.01-0.18-0.19-0.26-0.29C34.4,9.5,34.5,9.4,34.61,9.4
		C34.93,9.38,35.24,9.42,35.52,9.86"/>
	<path class="st12" d="M36.51,7.88c-0.01,0.08-0.03,0.16-0.04,0.23c-0.27,0-0.53,0.02-0.8-0.01c-0.07-0.01-0.18-0.17-0.17-0.25
		c0.01-0.08,0.16-0.21,0.22-0.2C35.99,7.71,36.25,7.8,36.51,7.88"/>
	<path class="st12" d="M45.7,22.63c-0.03,0.19-0.16,0.37-0.25,0.55c-0.12-0.13-0.24-0.26-0.4-0.44c0.17-0.18,0.28-0.31,0.4-0.44
		C45.54,22.42,45.72,22.54,45.7,22.63"/>
	<path class="st12" d="M36.98,7.29c-0.25-0.06-0.51-0.11-0.76-0.17c0.05-0.12,0.07-0.33,0.15-0.35C36.69,6.69,36.92,6.82,36.98,7.29
		"/>
	<path class="st12" d="M47.03,23.03c-0.22,0.2-0.38,0.34-0.53,0.48c-0.07-0.08-0.23-0.22-0.22-0.24c0.12-0.16,0.26-0.31,0.41-0.42
		C46.73,22.82,46.87,22.93,47.03,23.03"/>
	<path class="st12" d="M114.44,22.78c-1.48,0.04-2.96,0.15-4.44,0.23c-0.68,0.04-1.07,0.35-1,1.07c0.09,0.88,0.22,1.77,0.31,2.65
		c0.11,1.13-0.05,1.26-1.14,1.28c-0.83,0.01-1.66,0.09-2.48,0.2c-0.68,0.09-0.94-0.22-0.94-0.84c-0.01-1.19-0.03-2.38,0.02-3.57
		c0.02-0.63-0.17-0.82-0.81-0.8c-1.36,0.04-2.73,0.02-4.1-0.03c-0.22-0.01-0.58-0.29-0.61-0.49c-0.16-0.92-0.19-1.86-0.32-2.79
		c-0.09-0.63,0.19-0.79,0.74-0.78c1.18,0.02,2.37,0.03,3.55,0c0.74-0.02,1.56-1.29,1.48-2.02c-0.12-1.09-0.16-2.18-0.21-3.27
		c-0.02-0.53,0.24-0.8,0.82-0.79c0.95,0.02,1.9,0.01,2.85-0.04c0.56-0.03,0.72,0.21,0.7,0.74c-0.04,1.46-0.05,2.91-0.04,4.37
		c0,0.42,0.12,0.84,0.15,1.07c2.04-0.11,3.83-0.22,5.73-0.32c0.14,1.24,0.27,2.35,0.4,3.46C115.16,22.62,114.95,22.77,114.44,22.78
		 M115.97,19.42c-0.2-1.99-0.33-2.1-2.37-1.95c-0.21,0.01-0.41,0.08-0.62,0.08c-1,0.01-2,0.01-3.07,0.01c0-1.73-0.01-3.24,0-4.75
		c0.01-1.21-0.01-1.23-1.25-1.23c-1.28,0.01-2.56,0.02-3.84,0.03c-1.51,0.01-1.63,0.16-1.45,1.66c0.17,1.43,0.3,2.87,0.45,4.31
		c-0.28,0.07-0.45,0.16-0.62,0.16c-1.39-0.01-2.79-0.04-4.18-0.05c-1.39-0.01-1.55,0.14-1.42,1.55c0.12,1.33,0.4,2.65,0.42,3.98
		c0.02,0.86,0.28,1.22,1.11,1.17c0.36-0.02,0.71-0.07,1.06-0.07c1.14-0.01,2.28,0,3.58,0c0,1.52-0.06,2.83,0.02,4.13
		c0.07,1.05,0.33,1.18,1.38,1.13c1.3-0.06,2.61-0.08,3.9-0.19c0.28-0.02,0.64-0.29,0.78-0.54c0.58-0.99,0.64-2.07,0.43-3.19
		c-0.25-1.28-0.21-1.36,1.12-1.47c1.18-0.1,2.38-0.13,3.56-0.13c0.49,0,0.81-0.12,0.91-0.61c0.12-0.6,0.3-1.21,0.3-1.81
		C116.21,20.9,116.05,20.16,115.97,19.42"/>
	<path class="st12" d="M108.81,26.98c-0.86,0.05-1.55,0.11-2.23,0.12c-0.13,0-0.35-0.15-0.38-0.27c-0.03-0.12,0.07-0.34,0.18-0.44
		C106.83,25.98,108.22,26.21,108.81,26.98"/>
	<path class="st12" d="M108.74,24.99c-0.74,0.09-1.26,0.17-1.79,0.2c-0.12,0-0.36-0.2-0.36-0.3c0-0.17,0.12-0.45,0.25-0.49
		C107.47,24.21,108.08,24.21,108.74,24.99"/>
</g>
</svg>
